<?xml version="1.0" encoding="UTF-8" standalone="no"?>
<!DOCTYPE svg PUBLIC "-//W3C//DTD SVG 1.1//EN"
 "http://www.w3.org/Graphics/SVG/1.1/DTD/svg11.dtd">
<!-- Generated by graphviz version 2.43.0 (0)
 -->
<!-- Title: Examples.OnPremiseEngine.FlowElements.SimpleOnPremiseEngine Pages: 1 -->
<svg width="1773pt" height="158pt"
 viewBox="0.00 0.00 1773.00 158.00" xmlns="http://www.w3.org/2000/svg" xmlns:xlink="http://www.w3.org/1999/xlink">
<g id="graph0" class="graph" transform="scale(1 1) rotate(0) translate(4 154)">
<title>Examples.OnPremiseEngine.FlowElements.SimpleOnPremiseEngine</title>
<!-- Node11 -->
<g id="node1" class="node">
<title>Node11</title>
<g id="a_node1"><a xlink:title="[class] [constructor]">
<polygon fill="#bfbfbf" stroke="black" points="1556,-13.5 1556,-43.5 1765,-43.5 1765,-13.5 1556,-13.5"/>
<text text-anchor="start" x="1564" y="-31.5" font-family="Helvetica,sans-Serif" font-size="10.00">Examples.OnPremiseEngine.</text>
<text text-anchor="middle" x="1660.5" y="-20.5" font-family="Helvetica,sans-Serif" font-size="10.00">FlowElements.SimpleOnPremiseEngine</text>
</a>
</g>
</g>
<!-- Node12 -->
<g id="node2" class="node">
<title>Node12</title>
<g id="a_node2"><a xlink:href="class_fifty_one_1_1_pipeline_1_1_engines_1_1_flow_elements_1_1_on_premise_aspect_engine_base.html" target="_top" xlink:title=" ">
<polygon fill="none" stroke="black" points="1251,-50 1251,-91 1429,-91 1429,-50 1251,-50"/>
<text text-anchor="start" x="1259" y="-79" font-family="Helvetica,sans-Serif" font-size="10.00">OnPremiseAspectEngineBase</text>
<text text-anchor="start" x="1259" y="-68" font-family="Helvetica,sans-Serif" font-size="10.00">&lt; IStarSignData, IAspectProperty</text>
<text text-anchor="middle" x="1340" y="-57" font-family="Helvetica,sans-Serif" font-size="10.00">MetaData &gt;</text>
</a>
</g>
</g>
<!-- Node12&#45;&gt;Node11 -->
<g id="edge1" class="edge">
<title>Node12&#45;&gt;Node11</title>
<path fill="none" stroke="midnightblue" d="M1439.56,-57.5C1476.45,-52.64 1518.45,-47.1 1555.79,-42.18"/>
<polygon fill="midnightblue" stroke="midnightblue" points="1438.75,-54.08 1429.3,-58.86 1439.67,-61.02 1438.75,-54.08"/>
</g>
<!-- Node13 -->
<g id="node3" class="node">
<title>Node13</title>
<g id="a_node3"><a xlink:href="class_fifty_one_1_1_pipeline_1_1_engines_1_1_flow_elements_1_1_on_premise_aspect_engine_base.html" target="_top" xlink:title="Base class for 51Degrees on&#45;premise aspect engines.">
<polygon fill="none" stroke="black" points="883,-50 883,-91 1091,-91 1091,-50 883,-50"/>
<text text-anchor="start" x="891" y="-79" font-family="Helvetica,sans-Serif" font-size="10.00">FiftyOne.Pipeline.Engines.</text>
<text text-anchor="start" x="891" y="-68" font-family="Helvetica,sans-Serif" font-size="10.00">FlowElements.OnPremiseAspectEngine</text>
<text text-anchor="middle" x="987" y="-57" font-family="Helvetica,sans-Serif" font-size="10.00">Base&lt; T, TMeta &gt;</text>
</a>
</g>
</g>
<!-- Node13&#45;&gt;Node12 -->
<g id="edge2" class="edge">
<title>Node13&#45;&gt;Node12</title>
<path fill="none" stroke="orange" stroke-dasharray="5,2" d="M1101.63,-70.5C1150.03,-70.5 1205.64,-70.5 1250.86,-70.5"/>
<polygon fill="orange" stroke="orange" points="1101.41,-67 1091.41,-70.5 1101.41,-74 1101.41,-67"/>
<text text-anchor="start" x="1109" y="-84.5" font-family="Helvetica,sans-Serif" font-size="10.00"> &lt; IStarSignData, IAspect</text>
<text text-anchor="middle" x="1171" y="-73.5" font-family="Helvetica,sans-Serif" font-size="10.00">PropertyMetaData &gt;</text>
</g>
<!-- Node14 -->
<g id="node4" class="node">
<title>Node14</title>
<g id="a_node4"><a xlink:href="class_fifty_one_1_1_pipeline_1_1_engines_1_1_flow_elements_1_1_aspect_engine_base.html" target="_top" xlink:title="Base class for 51Degrees aspect engines.">
<polygon fill="none" stroke="black" points="713,-78.5 713,-108.5 840,-108.5 840,-78.5 713,-78.5"/>
<text text-anchor="start" x="721" y="-96.5" font-family="Helvetica,sans-Serif" font-size="10.00">AspectEngineBase&lt; T,</text>
<text text-anchor="middle" x="776.5" y="-85.5" font-family="Helvetica,sans-Serif" font-size="10.00"> TMeta &gt;</text>
</a>
</g>
</g>
<!-- Node14&#45;&gt;Node13 -->
<g id="edge3" class="edge">
<title>Node14&#45;&gt;Node13</title>
<path fill="none" stroke="midnightblue" d="M850.09,-85.49C860.72,-84.32 871.84,-83.09 882.94,-81.87"/>
<polygon fill="midnightblue" stroke="midnightblue" points="849.61,-82.02 840.06,-86.6 850.38,-88.98 849.61,-82.02"/>
</g>
<!-- Node15 -->
<g id="node5" class="node">
<title>Node15</title>
<g id="a_node5"><a xlink:href="class_fifty_one_1_1_pipeline_1_1_core_1_1_flow_elements_1_1_flow_element_base.html" target="_top" xlink:title="Abstract base class for Flow Elements.">
<polygon fill="none" stroke="black" points="532,-119.5 532,-149.5 657,-149.5 657,-119.5 532,-119.5"/>
<text text-anchor="start" x="540" y="-137.5" font-family="Helvetica,sans-Serif" font-size="10.00">FlowElementBase&lt; T,</text>
<text text-anchor="middle" x="594.5" y="-126.5" font-family="Helvetica,sans-Serif" font-size="10.00"> TMeta &gt;</text>
</a>
</g>
</g>
<!-- Node15&#45;&gt;Node14 -->
<g id="edge4" class="edge">
<title>Node15&#45;&gt;Node14</title>
<path fill="none" stroke="midnightblue" d="M667.05,-118.2C682.23,-114.74 698.15,-111.12 712.97,-107.74"/>
<polygon fill="midnightblue" stroke="midnightblue" points="666.17,-114.81 657.19,-120.45 667.72,-121.64 666.17,-114.81"/>
</g>
<!-- Node16 -->
<g id="node6" class="node">
<title>Node16</title>
<g id="a_node6"><a xlink:href="interface_fifty_one_1_1_pipeline_1_1_core_1_1_flow_elements_1_1_i_flow_element.html" target="_top" xlink:title=" ">
<polygon fill="none" stroke="black" points="260.5,-125 260.5,-144 409.5,-144 409.5,-125 260.5,-125"/>
<text text-anchor="middle" x="335" y="-132" font-family="Helvetica,sans-Serif" font-size="10.00">IFlowElement&lt; T, TMeta &gt;</text>
</a>
</g>
</g>
<!-- Node16&#45;&gt;Node15 -->
<g id="edge5" class="edge">
<title>Node16&#45;&gt;Node15</title>
<path fill="none" stroke="midnightblue" d="M419.92,-134.5C456.39,-134.5 498.35,-134.5 531.88,-134.5"/>
<polygon fill="midnightblue" stroke="midnightblue" points="419.79,-131 409.79,-134.5 419.79,-138 419.79,-131"/>
</g>
<!-- Node17 -->
<g id="node7" class="node">
<title>Node17</title>
<g id="a_node7"><a xlink:href="interface_fifty_one_1_1_pipeline_1_1_core_1_1_flow_elements_1_1_i_flow_element.html" target="_top" xlink:title="IFlowElement is the basic building block of a pipeline.">
<polygon fill="none" stroke="black" points="0,-119.5 0,-149.5 151,-149.5 151,-119.5 0,-119.5"/>
<text text-anchor="start" x="8" y="-137.5" font-family="Helvetica,sans-Serif" font-size="10.00">FiftyOne.Pipeline.Core.Flow</text>
<text text-anchor="middle" x="75.5" y="-126.5" font-family="Helvetica,sans-Serif" font-size="10.00">Elements.IFlowElement</text>
</a>
</g>
</g>
<!-- Node17&#45;&gt;Node16 -->
<g id="edge6" class="edge">
<title>Node17&#45;&gt;Node16</title>
<path fill="none" stroke="orange" stroke-dasharray="5,2" d="M161.54,-134.5C193.48,-134.5 229.5,-134.5 260.32,-134.5"/>
<polygon fill="orange" stroke="orange" points="161.33,-131 151.33,-134.5 161.33,-138 161.33,-131"/>
<text text-anchor="middle" x="203.5" y="-137.5" font-family="Helvetica,sans-Serif" font-size="10.00"> &lt; T, TMeta &gt;</text>
</g>
<!-- Node18 -->
<g id="node8" class="node">
<title>Node18</title>
<g id="a_node8"><a xlink:href="interface_fifty_one_1_1_pipeline_1_1_engines_1_1_flow_elements_1_1_i_aspect_engine.html" target="_top" xlink:title=" ">
<polygon fill="none" stroke="black" points="519,-81 519,-100 670,-100 670,-81 519,-81"/>
<text text-anchor="middle" x="594.5" y="-88" font-family="Helvetica,sans-Serif" font-size="10.00">IAspectEngine&lt; T, TMeta &gt;</text>
</a>
</g>
</g>
<!-- Node18&#45;&gt;Node14 -->
<g id="edge7" class="edge">
<title>Node18&#45;&gt;Node14</title>
<path fill="none" stroke="midnightblue" d="M680.08,-91.91C691.09,-92.09 702.21,-92.28 712.78,-92.45"/>
<polygon fill="midnightblue" stroke="midnightblue" points="680.07,-88.41 670.01,-91.74 679.95,-95.41 680.07,-88.41"/>
</g>
<!-- Node19 -->
<g id="node9" class="node">
<title>Node19</title>
<g id="a_node9"><a xlink:href="interface_fifty_one_1_1_pipeline_1_1_engines_1_1_flow_elements_1_1_i_aspect_engine.html" target="_top" xlink:title="Interface representing 51Degrees on&#45;premise aspect engines.">
<polygon fill="none" stroke="black" points="256,-75.5 256,-105.5 414,-105.5 414,-75.5 256,-75.5"/>
<text text-anchor="start" x="264" y="-93.5" font-family="Helvetica,sans-Serif" font-size="10.00">FiftyOne.Pipeline.Engines.</text>
<text text-anchor="middle" x="335" y="-82.5" font-family="Helvetica,sans-Serif" font-size="10.00">FlowElements.IAspectEngine</text>
</a>
</g>
</g>
<!-- Node19&#45;&gt;Node18 -->
<g id="edge8" class="edge">
<title>Node19&#45;&gt;Node18</title>
<path fill="none" stroke="orange" stroke-dasharray="5,2" d="M424.56,-90.5C455.2,-90.5 489.22,-90.5 518.65,-90.5"/>
<polygon fill="orange" stroke="orange" points="424.31,-87 414.31,-90.5 424.31,-94 424.31,-87"/>
<text text-anchor="middle" x="466.5" y="-93.5" font-family="Helvetica,sans-Serif" font-size="10.00"> &lt; T, TMeta &gt;</text>
</g>
<!-- Node20 -->
<g id="node10" class="node">
<title>Node20</title>
<g id="a_node10"><a xlink:href="interface_fifty_one_1_1_pipeline_1_1_engines_1_1_flow_elements_1_1_i_on_premise_aspect_engine.html" target="_top" xlink:title="Interface for an AspectEngine that processes evidence using one or more local data files.">
<polygon fill="none" stroke="black" points="707,-40 707,-59 846,-59 846,-40 707,-40"/>
<text text-anchor="middle" x="776.5" y="-47" font-family="Helvetica,sans-Serif" font-size="10.00">IOnPremiseAspectEngine</text>
</a>
</g>
</g>
<!-- Node20&#45;&gt;Node13 -->
<g id="edge9" class="edge">
<title>Node20&#45;&gt;Node13</title>
<path fill="none" stroke="midnightblue" d="M856.12,-57.42C864.81,-58.29 873.74,-59.19 882.67,-60.09"/>
<polygon fill="midnightblue" stroke="midnightblue" points="856.36,-53.93 846.06,-56.41 855.66,-60.89 856.36,-53.93"/>
</g>
<!-- Node21 -->
<g id="node11" class="node">
<title>Node21</title>
<g id="a_node11"><a xlink:href="interface_fifty_one_1_1_pipeline_1_1_engines_1_1_flow_elements_1_1_i_aspect_engine.html" target="_top" xlink:title="Interface representing 51Degrees on&#45;premise aspect engines.">
<polygon fill="none" stroke="black" points="551.5,-40 551.5,-59 637.5,-59 637.5,-40 551.5,-40"/>
<text text-anchor="middle" x="594.5" y="-47" font-family="Helvetica,sans-Serif" font-size="10.00">IAspectEngine</text>
</a>
</g>
</g>
<!-- Node21&#45;&gt;Node20 -->
<g id="edge10" class="edge">
<title>Node21&#45;&gt;Node20</title>
<path fill="none" stroke="midnightblue" d="M647.92,-49.5C666.32,-49.5 687.27,-49.5 706.8,-49.5"/>
<polygon fill="midnightblue" stroke="midnightblue" points="647.7,-46 637.7,-49.5 647.7,-53 647.7,-46"/>
</g>
<!-- Node22 -->
<g id="node12" class="node">
<title>Node22</title>
<g id="a_node12"><a xlink:href="interface_fifty_one_1_1_pipeline_1_1_core_1_1_data_1_1_i_evidence_key_filter.html" target="_top" xlink:title="Represents an object that filters evidence key names based on some criteria.">
<polygon fill="none" stroke="black" points="1263,-0.5 1263,-30.5 1417,-30.5 1417,-0.5 1263,-0.5"/>
<text text-anchor="start" x="1271" y="-18.5" font-family="Helvetica,sans-Serif" font-size="10.00">FiftyOne.Pipeline.Core.Data.</text>
<text text-anchor="middle" x="1340" y="-7.5" font-family="Helvetica,sans-Serif" font-size="10.00">IEvidenceKeyFilter</text>
</a>
</g>
</g>
<!-- Node22&#45;&gt;Node11 -->
<g id="edge11" class="edge">
<title>Node22&#45;&gt;Node11</title>
<path fill="none" stroke="#9a32cd" stroke-dasharray="5,2" d="M1427.45,-19.03C1467.06,-20.65 1514.33,-22.57 1555.84,-24.27"/>
<polygon fill="#9a32cd" stroke="#9a32cd" points="1427.42,-15.52 1417.29,-18.61 1427.14,-22.52 1427.42,-15.52"/>
<text text-anchor="middle" x="1492.5" y="-26.5" font-family="Helvetica,sans-Serif" font-size="10.00"> EvidenceKeyFilter</text>
</g>
</g>
</svg>
