<?xml version="1.0" encoding="UTF-8" standalone="no"?>
<!DOCTYPE svg PUBLIC "-//W3C//DTD SVG 1.1//EN"
 "http://www.w3.org/Graphics/SVG/1.1/DTD/svg11.dtd">
<!-- Generated by graphviz version 2.43.0 (0)
 -->
<!-- Title: FiftyOne.Pipeline.Engines.Configuration.DataFileConfiguration Pages: 1 -->
<svg width="199pt" height="173pt"
 viewBox="0.00 0.00 199.00 173.00" xmlns="http://www.w3.org/2000/svg" xmlns:xlink="http://www.w3.org/1999/xlink">
<g id="graph0" class="graph" transform="scale(1 1) rotate(0) translate(4 169)">
<title>FiftyOne.Pipeline.Engines.Configuration.DataFileConfiguration</title>
<!-- Node0 -->
<g id="node1" class="node">
<title>Node0</title>
<g id="a_node1"><a xlink:title="This class contains the automatic update configuration parameters that can be supplied to an engine f...">
<polygon fill="#bfbfbf" stroke="black" points="0,-78.5 0,-108.5 191,-108.5 191,-78.5 0,-78.5"/>
<text text-anchor="start" x="8" y="-96.5" font-family="Helvetica,sans-Serif" font-size="10.00">FiftyOne.Pipeline.Engines.</text>
<text text-anchor="middle" x="95.5" y="-85.5" font-family="Helvetica,sans-Serif" font-size="10.00">Configuration.DataFileConfiguration</text>
</a>
</g>
</g>
<!-- Node2 -->
<g id="node3" class="node">
<title>Node2</title>
<g id="a_node3"><a xlink:href="class_fifty_one_1_1_pipeline_1_1_engines_1_1_fifty_one_1_1_configuration_1_1_fifty_one_data_file_configuration.html" target="_top" xlink:title="Data file configuration class for 51Degrees data files.">
<polygon fill="none" stroke="black" points="11,-0.5 11,-41.5 180,-41.5 180,-0.5 11,-0.5"/>
<text text-anchor="start" x="19" y="-29.5" font-family="Helvetica,sans-Serif" font-size="10.00">FiftyOne.Pipeline.Engines.</text>
<text text-anchor="start" x="19" y="-18.5" font-family="Helvetica,sans-Serif" font-size="10.00">FiftyOne.Configuration.FiftyOne</text>
<text text-anchor="middle" x="95.5" y="-7.5" font-family="Helvetica,sans-Serif" font-size="10.00">DataFileConfiguration</text>
</a>
</g>
</g>
<!-- Node0&#45;&gt;Node2 -->
<g id="edge2" class="edge">
<title>Node0&#45;&gt;Node2</title>
<path fill="none" stroke="midnightblue" d="M95.5,-67.98C95.5,-59.35 95.5,-49.76 95.5,-41.59"/>
<polygon fill="midnightblue" stroke="midnightblue" points="92,-68.23 95.5,-78.23 99,-68.23 92,-68.23"/>
</g>
<!-- Node1 -->
<g id="node2" class="node">
<title>Node1</title>
<g id="a_node2"><a xlink:href="interface_fifty_one_1_1_pipeline_1_1_engines_1_1_configuration_1_1_i_data_file_configuration.html" target="_top" xlink:title="Interface representing the configuration parameters controlling the automatic update checks for a spe...">
<polygon fill="none" stroke="black" points="33,-145.5 33,-164.5 158,-164.5 158,-145.5 33,-145.5"/>
<text text-anchor="middle" x="95.5" y="-152.5" font-family="Helvetica,sans-Serif" font-size="10.00">IDataFileConfiguration</text>
</a>
</g>
</g>
<!-- Node1&#45;&gt;Node0 -->
<g id="edge1" class="edge">
<title>Node1&#45;&gt;Node0</title>
<path fill="none" stroke="midnightblue" d="M95.5,-135.23C95.5,-126.59 95.5,-116.5 95.5,-108.52"/>
<polygon fill="midnightblue" stroke="midnightblue" points="92,-135.48 95.5,-145.48 99,-135.48 92,-135.48"/>
</g>
</g>
</svg>
