<?xml version="1.0" encoding="UTF-8" standalone="no"?>
<!DOCTYPE svg PUBLIC "-//W3C//DTD SVG 1.1//EN"
 "http://www.w3.org/Graphics/SVG/1.1/DTD/svg11.dtd">
<!-- Generated by graphviz version 2.43.0 (0)
 -->
<!-- Title: FiftyOne.Pipeline.Core.TypedMap.TypedKey&lt; T &gt; Pages: 1 -->
<svg width="641pt" height="110pt"
 viewBox="0.00 0.00 641.00 110.00" xmlns="http://www.w3.org/2000/svg" xmlns:xlink="http://www.w3.org/1999/xlink">
<g id="graph0" class="graph" transform="scale(1 1) rotate(0) translate(4 106)">
<title>FiftyOne.Pipeline.Core.TypedMap.TypedKey&lt; T &gt;</title>
<!-- Node0 -->
<g id="node1" class="node">
<title>Node0</title>
<g id="a_node1"><a xlink:title="A key to a ITypedKeyMap data store.">
<polygon fill="#bfbfbf" stroke="black" points="132,-36 132,-66 288,-66 288,-36 132,-36"/>
<text text-anchor="start" x="140" y="-54" font-family="Helvetica,sans-Serif" font-size="10.00">FiftyOne.Pipeline.Core.Typed</text>
<text text-anchor="middle" x="210" y="-43" font-family="Helvetica,sans-Serif" font-size="10.00">Map.TypedKey&lt; T &gt;</text>
</a>
</g>
</g>
<!-- Node2 -->
<g id="node3" class="node">
<title>Node2</title>
<g id="a_node3"><a xlink:href="class_fifty_one_1_1_pipeline_1_1_core_1_1_typed_map_1_1_typed_key.html" target="_top" xlink:title=" ">
<polygon fill="none" stroke="black" points="449,-60.5 449,-101.5 633,-101.5 633,-60.5 449,-60.5"/>
<text text-anchor="start" x="457" y="-89.5" font-family="Helvetica,sans-Serif" font-size="10.00">FiftyOne.Pipeline.Core.Typed</text>
<text text-anchor="start" x="457" y="-78.5" font-family="Helvetica,sans-Serif" font-size="10.00">Map.TypedKey&lt; FiftyOne.Pipeline.</text>
<text text-anchor="middle" x="541" y="-67.5" font-family="Helvetica,sans-Serif" font-size="10.00">Math.IMathData &gt;</text>
</a>
</g>
</g>
<!-- Node0&#45;&gt;Node2 -->
<g id="edge2" class="edge">
<title>Node0&#45;&gt;Node2</title>
<path fill="none" stroke="orange" stroke-dasharray="5,2" d="M298.18,-58.95C344.62,-63.18 401.7,-68.39 448.74,-72.68"/>
<polygon fill="orange" stroke="orange" points="298.41,-55.46 288.14,-58.03 297.78,-62.43 298.41,-55.46"/>
<text text-anchor="start" x="318.5" y="-84" font-family="Helvetica,sans-Serif" font-size="10.00"> &lt; FiftyOne::Pipeline</text>
<text text-anchor="middle" x="368.5" y="-73" font-family="Helvetica,sans-Serif" font-size="10.00">::Math::IMathData &gt;</text>
</g>
<!-- Node3 -->
<g id="node4" class="node">
<title>Node3</title>
<g id="a_node4"><a xlink:href="class_fifty_one_1_1_pipeline_1_1_core_1_1_typed_map_1_1_typed_key.html" target="_top" xlink:title=" ">
<polygon fill="none" stroke="black" points="449,-0.5 449,-41.5 633,-41.5 633,-0.5 449,-0.5"/>
<text text-anchor="start" x="457" y="-29.5" font-family="Helvetica,sans-Serif" font-size="10.00">FiftyOne.Pipeline.Core.Typed</text>
<text text-anchor="start" x="457" y="-18.5" font-family="Helvetica,sans-Serif" font-size="10.00">Map.TypedKey&lt; FiftyOne.Pipeline.</text>
<text text-anchor="middle" x="541" y="-7.5" font-family="Helvetica,sans-Serif" font-size="10.00">IpSplitter.ISplitIpData &gt;</text>
</a>
</g>
</g>
<!-- Node0&#45;&gt;Node3 -->
<g id="edge3" class="edge">
<title>Node0&#45;&gt;Node3</title>
<path fill="none" stroke="orange" stroke-dasharray="5,2" d="M294.94,-34.46C298.67,-33.93 302.37,-33.43 306,-33 352.95,-27.37 405.52,-24.38 448.91,-22.79"/>
<polygon fill="orange" stroke="orange" points="294.37,-31.01 285.01,-35.97 295.42,-37.93 294.37,-31.01"/>
<text text-anchor="start" x="306" y="-47" font-family="Helvetica,sans-Serif" font-size="10.00"> &lt; FiftyOne::Pipeline</text>
<text text-anchor="middle" x="368.5" y="-36" font-family="Helvetica,sans-Serif" font-size="10.00">::IpSplitter::ISplitIpData &gt;</text>
</g>
<!-- Node1 -->
<g id="node2" class="node">
<title>Node1</title>
<g id="a_node2"><a xlink:href="interface_fifty_one_1_1_pipeline_1_1_core_1_1_typed_map_1_1_i_typed_key.html" target="_top" xlink:title="Represents a key to a ITypedKeyMap data store.">
<polygon fill="none" stroke="black" points="0,-41.5 0,-60.5 95,-60.5 95,-41.5 0,-41.5"/>
<text text-anchor="middle" x="47.5" y="-48.5" font-family="Helvetica,sans-Serif" font-size="10.00">ITypedKey&lt; T &gt;</text>
</a>
</g>
</g>
<!-- Node1&#45;&gt;Node0 -->
<g id="edge1" class="edge">
<title>Node1&#45;&gt;Node0</title>
<path fill="none" stroke="midnightblue" d="M105.55,-51C114.09,-51 123.02,-51 131.89,-51"/>
<polygon fill="midnightblue" stroke="midnightblue" points="105.35,-47.5 95.35,-51 105.35,-54.5 105.35,-47.5"/>
</g>
</g>
</svg>
