<?xml version="1.0" encoding="UTF-8" standalone="no"?>
<!DOCTYPE svg PUBLIC "-//W3C//DTD SVG 1.1//EN"
 "http://www.w3.org/Graphics/SVG/1.1/DTD/svg11.dtd">
<!-- Generated by graphviz version 2.43.0 (0)
 -->
<!-- Title: FiftyOne.Pipeline.Core.Data.EvidenceKeyFilterAggregator Pages: 1 -->
<svg width="212pt" height="151pt"
 viewBox="0.00 0.00 211.50 151.00" xmlns="http://www.w3.org/2000/svg" xmlns:xlink="http://www.w3.org/1999/xlink">
<g id="graph0" class="graph" transform="scale(1 1) rotate(0) translate(4 147)">
<title>FiftyOne.Pipeline.Core.Data.EvidenceKeyFilterAggregator</title>
<!-- Node0 -->
<g id="node1" class="node">
<title>Node0</title>
<g id="a_node1"><a xlink:title="This implementation of IEvidenceKeyFilter aggregates multiple other filters using a logical OR approa...">
<polygon fill="#bfbfbf" stroke="black" points="0,-0.5 0,-30.5 158,-30.5 158,-0.5 0,-0.5"/>
<text text-anchor="start" x="8" y="-18.5" font-family="Helvetica,sans-Serif" font-size="10.00">FiftyOne.Pipeline.Core.Data.</text>
<text text-anchor="middle" x="79" y="-7.5" font-family="Helvetica,sans-Serif" font-size="10.00">EvidenceKeyFilterAggregator</text>
</a>
</g>
</g>
<!-- Node1 -->
<g id="node2" class="node">
<title>Node1</title>
<g id="a_node2"><a xlink:href="class_fifty_one_1_1_pipeline_1_1_core_1_1_data_1_1_evidence_key_filter_whitelist.html" target="_top" xlink:title="This evidence filter will only include keys that are in a list that is specified at construction time...">
<polygon fill="none" stroke="black" points="56.5,-67.5 56.5,-86.5 203.5,-86.5 203.5,-67.5 56.5,-67.5"/>
<text text-anchor="middle" x="130" y="-74.5" font-family="Helvetica,sans-Serif" font-size="10.00">EvidenceKeyFilterWhitelist</text>
</a>
</g>
</g>
<!-- Node1&#45;&gt;Node0 -->
<g id="edge1" class="edge">
<title>Node1&#45;&gt;Node0</title>
<path fill="none" stroke="midnightblue" d="M116.12,-59.81C108.27,-50.65 98.55,-39.3 91.02,-30.52"/>
<polygon fill="midnightblue" stroke="midnightblue" points="113.53,-62.16 122.69,-67.48 118.84,-57.6 113.53,-62.16"/>
</g>
<!-- Node2 -->
<g id="node3" class="node">
<title>Node2</title>
<g id="a_node3"><a xlink:href="interface_fifty_one_1_1_pipeline_1_1_core_1_1_data_1_1_i_evidence_key_filter.html" target="_top" xlink:title="Represents an object that filters evidence key names based on some criteria.">
<polygon fill="none" stroke="black" points="25.5,-123.5 25.5,-142.5 132.5,-142.5 132.5,-123.5 25.5,-123.5"/>
<text text-anchor="middle" x="79" y="-130.5" font-family="Helvetica,sans-Serif" font-size="10.00">IEvidenceKeyFilter</text>
</a>
</g>
</g>
<!-- Node2&#45;&gt;Node0 -->
<g id="edge3" class="edge">
<title>Node2&#45;&gt;Node0</title>
<path fill="none" stroke="midnightblue" d="M64.02,-115.47C57.78,-107.48 51.23,-97.38 48,-87 41.72,-66.83 55,-44.7 66.09,-30.72"/>
<polygon fill="midnightblue" stroke="midnightblue" points="61.42,-117.81 70.52,-123.23 66.79,-113.32 61.42,-117.81"/>
</g>
<!-- Node2&#45;&gt;Node1 -->
<g id="edge2" class="edge">
<title>Node2&#45;&gt;Node1</title>
<path fill="none" stroke="midnightblue" d="M94.38,-115.72C103.37,-106.2 114.36,-94.56 121.74,-86.75"/>
<polygon fill="midnightblue" stroke="midnightblue" points="91.74,-113.41 87.42,-123.08 96.83,-118.22 91.74,-113.41"/>
</g>
</g>
</svg>
