<?xml version="1.0" encoding="UTF-8" standalone="no"?>
<!DOCTYPE svg PUBLIC "-//W3C//DTD SVG 1.1//EN"
 "http://www.w3.org/Graphics/SVG/1.1/DTD/svg11.dtd">
<!-- Generated by graphviz version 2.43.0 (0)
 -->
<!-- Title: Examples.OnPremiseEngine.Data.StarSignData Pages: 1 -->
<svg width="210pt" height="263pt"
 viewBox="0.00 0.00 209.50 263.00" xmlns="http://www.w3.org/2000/svg" xmlns:xlink="http://www.w3.org/1999/xlink">
<g id="graph0" class="graph" transform="scale(1 1) rotate(0) translate(4 259)">
<title>Examples.OnPremiseEngine.Data.StarSignData</title>
<!-- Node8 -->
<g id="node1" class="node">
<title>Node8</title>
<g id="a_node1"><a xlink:title="[class]">
<polygon fill="#bfbfbf" stroke="black" points="27.5,-0.5 27.5,-30.5 184.5,-30.5 184.5,-0.5 27.5,-0.5"/>
<text text-anchor="start" x="35.5" y="-18.5" font-family="Helvetica,sans-Serif" font-size="10.00">Examples.OnPremiseEngine.</text>
<text text-anchor="middle" x="106" y="-7.5" font-family="Helvetica,sans-Serif" font-size="10.00">Data.StarSignData</text>
</a>
</g>
</g>
<!-- Node9 -->
<g id="node2" class="node">
<title>Node9</title>
<g id="a_node2"><a xlink:href="class_fifty_one_1_1_pipeline_1_1_engines_1_1_data_1_1_aspect_data_base.html" target="_top" xlink:title="Base class for element data instances that are generated by an IAspectEngine.">
<polygon fill="none" stroke="black" points="3.5,-67.5 3.5,-86.5 100.5,-86.5 100.5,-67.5 3.5,-67.5"/>
<text text-anchor="middle" x="52" y="-74.5" font-family="Helvetica,sans-Serif" font-size="10.00">AspectDataBase</text>
</a>
</g>
</g>
<!-- Node9&#45;&gt;Node8 -->
<g id="edge1" class="edge">
<title>Node9&#45;&gt;Node8</title>
<path fill="none" stroke="midnightblue" d="M66.69,-59.81C75.01,-50.65 85.3,-39.3 93.27,-30.52"/>
<polygon fill="midnightblue" stroke="midnightblue" points="63.87,-57.72 59.74,-67.48 69.05,-62.42 63.87,-57.72"/>
</g>
<!-- Node10 -->
<g id="node3" class="node">
<title>Node10</title>
<g id="a_node3"><a xlink:href="class_fifty_one_1_1_pipeline_1_1_core_1_1_data_1_1_element_data_base.html" target="_top" xlink:title="This class stores property values that have been determined by a specific FlowElement based on the su...">
<polygon fill="none" stroke="black" points="0,-123.5 0,-142.5 104,-142.5 104,-123.5 0,-123.5"/>
<text text-anchor="middle" x="52" y="-130.5" font-family="Helvetica,sans-Serif" font-size="10.00">ElementDataBase</text>
</a>
</g>
</g>
<!-- Node10&#45;&gt;Node9 -->
<g id="edge2" class="edge">
<title>Node10&#45;&gt;Node9</title>
<path fill="none" stroke="midnightblue" d="M52,-112.8C52,-103.91 52,-93.78 52,-86.75"/>
<polygon fill="midnightblue" stroke="midnightblue" points="48.5,-113.08 52,-123.08 55.5,-113.08 48.5,-113.08"/>
</g>
<!-- Node11 -->
<g id="node4" class="node">
<title>Node11</title>
<g id="a_node4"><a xlink:href="class_fifty_one_1_1_pipeline_1_1_core_1_1_data_1_1_data_base.html" target="_top" xlink:title="This class stores data values as key/value pairs where the key is a string and the value can be any t...">
<polygon fill="none" stroke="black" points="20,-179.5 20,-198.5 84,-198.5 84,-179.5 20,-179.5"/>
<text text-anchor="middle" x="52" y="-186.5" font-family="Helvetica,sans-Serif" font-size="10.00">DataBase</text>
</a>
</g>
</g>
<!-- Node11&#45;&gt;Node10 -->
<g id="edge3" class="edge">
<title>Node11&#45;&gt;Node10</title>
<path fill="none" stroke="midnightblue" d="M52,-168.8C52,-159.91 52,-149.78 52,-142.75"/>
<polygon fill="midnightblue" stroke="midnightblue" points="48.5,-169.08 52,-179.08 55.5,-169.08 48.5,-169.08"/>
</g>
<!-- Node12 -->
<g id="node5" class="node">
<title>Node12</title>
<g id="a_node5"><a xlink:href="interface_fifty_one_1_1_pipeline_1_1_core_1_1_data_1_1_i_data.html" target="_top" xlink:title="Represents property values">
<polygon fill="none" stroke="black" points="76.5,-235.5 76.5,-254.5 119.5,-254.5 119.5,-235.5 76.5,-235.5"/>
<text text-anchor="middle" x="98" y="-242.5" font-family="Helvetica,sans-Serif" font-size="10.00">IData</text>
</a>
</g>
</g>
<!-- Node12&#45;&gt;Node11 -->
<g id="edge4" class="edge">
<title>Node12&#45;&gt;Node11</title>
<path fill="none" stroke="midnightblue" d="M83.89,-227.43C75.82,-217.97 66.04,-206.48 59.45,-198.75"/>
<polygon fill="midnightblue" stroke="midnightblue" points="81.25,-229.74 90.4,-235.08 86.58,-225.2 81.25,-229.74"/>
</g>
<!-- Node13 -->
<g id="node6" class="node">
<title>Node13</title>
<g id="a_node6"><a xlink:href="interface_fifty_one_1_1_pipeline_1_1_core_1_1_data_1_1_i_element_data.html" target="_top" xlink:title="Represents property values that have been determined by a specific FlowElement based on the supplied ...">
<polygon fill="none" stroke="black" points="102.5,-179.5 102.5,-198.5 185.5,-198.5 185.5,-179.5 102.5,-179.5"/>
<text text-anchor="middle" x="144" y="-186.5" font-family="Helvetica,sans-Serif" font-size="10.00">IElementData</text>
</a>
</g>
</g>
<!-- Node12&#45;&gt;Node13 -->
<g id="edge6" class="edge">
<title>Node12&#45;&gt;Node13</title>
<path fill="none" stroke="midnightblue" d="M112.11,-227.43C120.18,-217.97 129.96,-206.48 136.55,-198.75"/>
<polygon fill="midnightblue" stroke="midnightblue" points="109.42,-225.2 105.6,-235.08 114.75,-229.74 109.42,-225.2"/>
</g>
<!-- Node13&#45;&gt;Node10 -->
<g id="edge5" class="edge">
<title>Node13&#45;&gt;Node10</title>
<path fill="none" stroke="midnightblue" d="M120.45,-174.18C103.52,-164.24 81.22,-151.15 66.74,-142.65"/>
<polygon fill="midnightblue" stroke="midnightblue" points="118.82,-177.28 129.22,-179.32 122.37,-171.24 118.82,-177.28"/>
</g>
<!-- Node14 -->
<g id="node7" class="node">
<title>Node14</title>
<g id="a_node7"><a xlink:href="interface_fifty_one_1_1_pipeline_1_1_engines_1_1_data_1_1_i_aspect_data.html" target="_top" xlink:title="Represents an ElementData instance that is generated by an IAspectEngine.">
<polygon fill="none" stroke="black" points="122,-123.5 122,-142.5 198,-142.5 198,-123.5 122,-123.5"/>
<text text-anchor="middle" x="160" y="-130.5" font-family="Helvetica,sans-Serif" font-size="10.00">IAspectData</text>
</a>
</g>
</g>
<!-- Node13&#45;&gt;Node14 -->
<g id="edge8" class="edge">
<title>Node13&#45;&gt;Node14</title>
<path fill="none" stroke="midnightblue" d="M149.51,-169.4C152.19,-160.36 155.28,-149.94 157.41,-142.75"/>
<polygon fill="midnightblue" stroke="midnightblue" points="146.13,-168.5 146.64,-179.08 152.84,-170.49 146.13,-168.5"/>
</g>
<!-- Node14&#45;&gt;Node9 -->
<g id="edge7" class="edge">
<title>Node14&#45;&gt;Node9</title>
<path fill="none" stroke="midnightblue" d="M133.45,-118.73C113.45,-108.73 86.61,-95.31 69.31,-86.65"/>
<polygon fill="midnightblue" stroke="midnightblue" points="132.14,-121.98 142.65,-123.32 135.27,-115.72 132.14,-121.98"/>
</g>
<!-- Node15 -->
<g id="node8" class="node">
<title>Node15</title>
<g id="a_node8"><a xlink:href="interface_examples_1_1_on_premise_engine_1_1_data_1_1_i_star_sign_data.html" target="_top" xlink:title="[class]">
<polygon fill="none" stroke="black" points="118.5,-67.5 118.5,-86.5 201.5,-86.5 201.5,-67.5 118.5,-67.5"/>
<text text-anchor="middle" x="160" y="-74.5" font-family="Helvetica,sans-Serif" font-size="10.00">IStarSignData</text>
</a>
</g>
</g>
<!-- Node14&#45;&gt;Node15 -->
<g id="edge10" class="edge">
<title>Node14&#45;&gt;Node15</title>
<path fill="none" stroke="midnightblue" d="M160,-112.8C160,-103.91 160,-93.78 160,-86.75"/>
<polygon fill="midnightblue" stroke="midnightblue" points="156.5,-113.08 160,-123.08 163.5,-113.08 156.5,-113.08"/>
</g>
<!-- Node15&#45;&gt;Node8 -->
<g id="edge9" class="edge">
<title>Node15&#45;&gt;Node8</title>
<path fill="none" stroke="midnightblue" d="M145.31,-59.81C136.99,-50.65 126.7,-39.3 118.73,-30.52"/>
<polygon fill="midnightblue" stroke="midnightblue" points="142.95,-62.42 152.26,-67.48 148.13,-57.72 142.95,-62.42"/>
</g>
</g>
</svg>
