<?xml version="1.0" encoding="UTF-8" standalone="no"?>
<!DOCTYPE svg PUBLIC "-//W3C//DTD SVG 1.1//EN"
 "http://www.w3.org/Graphics/SVG/1.1/DTD/svg11.dtd">
<!-- Generated by graphviz version 2.43.0 (0)
 -->
<!-- Title: Examples.CustomFlowElement.FlowElements.SimpleFlowElement Pages: 1 -->
<svg width="234pt" height="342pt"
 viewBox="0.00 0.00 234.00 342.00" xmlns="http://www.w3.org/2000/svg" xmlns:xlink="http://www.w3.org/1999/xlink">
<g id="graph0" class="graph" transform="scale(1 1) rotate(0) translate(4 338)">
<title>Examples.CustomFlowElement.FlowElements.SimpleFlowElement</title>
<!-- Node0 -->
<g id="node1" class="node">
<title>Node0</title>
<g id="a_node1"><a xlink:title="[class] [constructor]">
<polygon fill="#bfbfbf" stroke="black" points="2,-0.5 2,-30.5 188,-30.5 188,-0.5 2,-0.5"/>
<text text-anchor="start" x="10" y="-18.5" font-family="Helvetica,sans-Serif" font-size="10.00">Examples.CustomFlowElement.</text>
<text text-anchor="middle" x="95" y="-7.5" font-family="Helvetica,sans-Serif" font-size="10.00">FlowElements.SimpleFlowElement</text>
</a>
</g>
</g>
<!-- Node1 -->
<g id="node2" class="node">
<title>Node1</title>
<g id="a_node2"><a xlink:href="class_fifty_one_1_1_pipeline_1_1_core_1_1_flow_elements_1_1_flow_element_base.html" target="_top" xlink:title=" ">
<polygon fill="none" stroke="black" points="0,-68.5 0,-98.5 190,-98.5 190,-68.5 0,-68.5"/>
<text text-anchor="start" x="8" y="-86.5" font-family="Helvetica,sans-Serif" font-size="10.00">FlowElementBase&lt; IStarSign</text>
<text text-anchor="middle" x="95" y="-75.5" font-family="Helvetica,sans-Serif" font-size="10.00">Data, IElementPropertyMetaData &gt;</text>
</a>
</g>
</g>
<!-- Node1&#45;&gt;Node0 -->
<g id="edge1" class="edge">
<title>Node1&#45;&gt;Node0</title>
<path fill="none" stroke="midnightblue" d="M95,-58.03C95,-48.86 95,-38.74 95,-30.79"/>
<polygon fill="midnightblue" stroke="midnightblue" points="91.5,-58.18 95,-68.18 98.5,-58.18 91.5,-58.18"/>
</g>
<!-- Node2 -->
<g id="node3" class="node">
<title>Node2</title>
<g id="a_node3"><a xlink:href="class_fifty_one_1_1_pipeline_1_1_core_1_1_flow_elements_1_1_flow_element_base.html" target="_top" xlink:title="Abstract base class for Flow Elements.">
<polygon fill="none" stroke="black" points="18.5,-157.5 18.5,-198.5 171.5,-198.5 171.5,-157.5 18.5,-157.5"/>
<text text-anchor="start" x="26.5" y="-186.5" font-family="Helvetica,sans-Serif" font-size="10.00">FiftyOne.Pipeline.Core.Flow</text>
<text text-anchor="start" x="26.5" y="-175.5" font-family="Helvetica,sans-Serif" font-size="10.00">Elements.FlowElementBase</text>
<text text-anchor="middle" x="95" y="-164.5" font-family="Helvetica,sans-Serif" font-size="10.00">&lt; T, TMeta &gt;</text>
</a>
</g>
</g>
<!-- Node2&#45;&gt;Node1 -->
<g id="edge2" class="edge">
<title>Node2&#45;&gt;Node1</title>
<path fill="none" stroke="orange" stroke-dasharray="5,2" d="M95,-147.24C95,-130.96 95,-111.54 95,-98.66"/>
<polygon fill="orange" stroke="orange" points="91.5,-147.38 95,-157.38 98.5,-147.38 91.5,-147.38"/>
<text text-anchor="start" x="95" y="-131" font-family="Helvetica,sans-Serif" font-size="10.00"> &lt; IStarSignData, IElement</text>
<text text-anchor="middle" x="160.5" y="-120" font-family="Helvetica,sans-Serif" font-size="10.00">PropertyMetaData &gt;</text>
</g>
<!-- Node3 -->
<g id="node4" class="node">
<title>Node3</title>
<g id="a_node4"><a xlink:href="interface_fifty_one_1_1_pipeline_1_1_core_1_1_flow_elements_1_1_i_flow_element.html" target="_top" xlink:title=" ">
<polygon fill="none" stroke="black" points="20.5,-236.5 20.5,-255.5 169.5,-255.5 169.5,-236.5 20.5,-236.5"/>
<text text-anchor="middle" x="95" y="-243.5" font-family="Helvetica,sans-Serif" font-size="10.00">IFlowElement&lt; T, TMeta &gt;</text>
</a>
</g>
</g>
<!-- Node3&#45;&gt;Node2 -->
<g id="edge3" class="edge">
<title>Node3&#45;&gt;Node2</title>
<path fill="none" stroke="midnightblue" d="M95,-226.25C95,-217.65 95,-207.45 95,-198.74"/>
<polygon fill="midnightblue" stroke="midnightblue" points="91.5,-226.37 95,-236.37 98.5,-226.37 91.5,-226.37"/>
</g>
<!-- Node4 -->
<g id="node5" class="node">
<title>Node4</title>
<g id="a_node5"><a xlink:href="interface_fifty_one_1_1_pipeline_1_1_core_1_1_flow_elements_1_1_i_flow_element.html" target="_top" xlink:title="IFlowElement is the basic building block of a pipeline.">
<polygon fill="none" stroke="black" points="19.5,-303.5 19.5,-333.5 170.5,-333.5 170.5,-303.5 19.5,-303.5"/>
<text text-anchor="start" x="27.5" y="-321.5" font-family="Helvetica,sans-Serif" font-size="10.00">FiftyOne.Pipeline.Core.Flow</text>
<text text-anchor="middle" x="95" y="-310.5" font-family="Helvetica,sans-Serif" font-size="10.00">Elements.IFlowElement</text>
</a>
</g>
</g>
<!-- Node4&#45;&gt;Node3 -->
<g id="edge4" class="edge">
<title>Node4&#45;&gt;Node3</title>
<path fill="none" stroke="orange" stroke-dasharray="5,2" d="M95,-293.09C95,-280.21 95,-265.2 95,-255.89"/>
<polygon fill="orange" stroke="orange" points="91.5,-293.23 95,-303.23 98.5,-293.23 91.5,-293.23"/>
<text text-anchor="middle" x="129.5" y="-277" font-family="Helvetica,sans-Serif" font-size="10.00"> &lt; T, TMeta &gt;</text>
</g>
</g>
</svg>
