<?xml version="1.0" encoding="UTF-8" standalone="no"?>
<!DOCTYPE svg PUBLIC "-//W3C//DTD SVG 1.1//EN"
 "http://www.w3.org/Graphics/SVG/1.1/DTD/svg11.dtd">
<!-- Generated by graphviz version 2.43.0 (0)
 -->
<!-- Title: FiftyOne.Pipeline.Engines.FiftyOne.Data.SetHeadersData Pages: 1 -->
<svg width="230pt" height="207pt"
 viewBox="0.00 0.00 229.50 207.00" xmlns="http://www.w3.org/2000/svg" xmlns:xlink="http://www.w3.org/1999/xlink">
<g id="graph0" class="graph" transform="scale(1 1) rotate(0) translate(4 203)">
<title>FiftyOne.Pipeline.Engines.FiftyOne.Data.SetHeadersData</title>
<!-- Node0 -->
<g id="node1" class="node">
<title>Node0</title>
<g id="a_node1"><a xlink:title="Element data instance for SetHeadersElement See the Specification">
<polygon fill="#bfbfbf" stroke="black" points="29,-0.5 29,-30.5 195,-30.5 195,-0.5 29,-0.5"/>
<text text-anchor="start" x="37" y="-18.5" font-family="Helvetica,sans-Serif" font-size="10.00">FiftyOne.Pipeline.Engines.</text>
<text text-anchor="middle" x="112" y="-7.5" font-family="Helvetica,sans-Serif" font-size="10.00">FiftyOne.Data.SetHeadersData</text>
</a>
</g>
</g>
<!-- Node1 -->
<g id="node2" class="node">
<title>Node1</title>
<g id="a_node2"><a xlink:href="class_fifty_one_1_1_pipeline_1_1_core_1_1_data_1_1_element_data_base.html" target="_top" xlink:title="This class stores property values that have been determined by a specific FlowElement based on the su...">
<polygon fill="none" stroke="black" points="0,-67.5 0,-86.5 104,-86.5 104,-67.5 0,-67.5"/>
<text text-anchor="middle" x="52" y="-74.5" font-family="Helvetica,sans-Serif" font-size="10.00">ElementDataBase</text>
</a>
</g>
</g>
<!-- Node1&#45;&gt;Node0 -->
<g id="edge1" class="edge">
<title>Node1&#45;&gt;Node0</title>
<path fill="none" stroke="midnightblue" d="M67.76,-60.37C77.1,-51.11 88.82,-39.48 97.86,-30.52"/>
<polygon fill="midnightblue" stroke="midnightblue" points="65.23,-57.95 60.6,-67.48 70.16,-62.92 65.23,-57.95"/>
</g>
<!-- Node2 -->
<g id="node3" class="node">
<title>Node2</title>
<g id="a_node3"><a xlink:href="class_fifty_one_1_1_pipeline_1_1_core_1_1_data_1_1_data_base.html" target="_top" xlink:title="This class stores data values as key/value pairs where the key is a string and the value can be any t...">
<polygon fill="none" stroke="black" points="20,-123.5 20,-142.5 84,-142.5 84,-123.5 20,-123.5"/>
<text text-anchor="middle" x="52" y="-130.5" font-family="Helvetica,sans-Serif" font-size="10.00">DataBase</text>
</a>
</g>
</g>
<!-- Node2&#45;&gt;Node1 -->
<g id="edge2" class="edge">
<title>Node2&#45;&gt;Node1</title>
<path fill="none" stroke="midnightblue" d="M52,-112.8C52,-103.91 52,-93.78 52,-86.75"/>
<polygon fill="midnightblue" stroke="midnightblue" points="48.5,-113.08 52,-123.08 55.5,-113.08 48.5,-113.08"/>
</g>
<!-- Node3 -->
<g id="node4" class="node">
<title>Node3</title>
<g id="a_node4"><a xlink:href="interface_fifty_one_1_1_pipeline_1_1_core_1_1_data_1_1_i_data.html" target="_top" xlink:title="Represents property values">
<polygon fill="none" stroke="black" points="76.5,-179.5 76.5,-198.5 119.5,-198.5 119.5,-179.5 76.5,-179.5"/>
<text text-anchor="middle" x="98" y="-186.5" font-family="Helvetica,sans-Serif" font-size="10.00">IData</text>
</a>
</g>
</g>
<!-- Node3&#45;&gt;Node2 -->
<g id="edge3" class="edge">
<title>Node3&#45;&gt;Node2</title>
<path fill="none" stroke="midnightblue" d="M83.89,-171.43C75.82,-161.97 66.04,-150.48 59.45,-142.75"/>
<polygon fill="midnightblue" stroke="midnightblue" points="81.25,-173.74 90.4,-179.08 86.58,-169.2 81.25,-173.74"/>
</g>
<!-- Node4 -->
<g id="node5" class="node">
<title>Node4</title>
<g id="a_node5"><a xlink:href="interface_fifty_one_1_1_pipeline_1_1_core_1_1_data_1_1_i_element_data.html" target="_top" xlink:title="Represents property values that have been determined by a specific FlowElement based on the supplied ...">
<polygon fill="none" stroke="black" points="102.5,-123.5 102.5,-142.5 185.5,-142.5 185.5,-123.5 102.5,-123.5"/>
<text text-anchor="middle" x="144" y="-130.5" font-family="Helvetica,sans-Serif" font-size="10.00">IElementData</text>
</a>
</g>
</g>
<!-- Node3&#45;&gt;Node4 -->
<g id="edge5" class="edge">
<title>Node3&#45;&gt;Node4</title>
<path fill="none" stroke="midnightblue" d="M112.11,-171.43C120.18,-161.97 129.96,-150.48 136.55,-142.75"/>
<polygon fill="midnightblue" stroke="midnightblue" points="109.42,-169.2 105.6,-179.08 114.75,-173.74 109.42,-169.2"/>
</g>
<!-- Node4&#45;&gt;Node1 -->
<g id="edge4" class="edge">
<title>Node4&#45;&gt;Node1</title>
<path fill="none" stroke="midnightblue" d="M120.45,-118.18C103.52,-108.24 81.22,-95.15 66.74,-86.65"/>
<polygon fill="midnightblue" stroke="midnightblue" points="118.82,-121.28 129.22,-123.32 122.37,-115.24 118.82,-121.28"/>
</g>
<!-- Node5 -->
<g id="node6" class="node">
<title>Node5</title>
<g id="a_node6"><a xlink:href="interface_fifty_one_1_1_pipeline_1_1_engines_1_1_fifty_one_1_1_data_1_1_i_set_headers_data.html" target="_top" xlink:title="The IElementData interface for SetHeadersElement.">
<polygon fill="none" stroke="black" points="122.5,-67.5 122.5,-86.5 221.5,-86.5 221.5,-67.5 122.5,-67.5"/>
<text text-anchor="middle" x="172" y="-74.5" font-family="Helvetica,sans-Serif" font-size="10.00">ISetHeadersData</text>
</a>
</g>
</g>
<!-- Node4&#45;&gt;Node5 -->
<g id="edge7" class="edge">
<title>Node4&#45;&gt;Node5</title>
<path fill="none" stroke="midnightblue" d="M153.34,-113.98C158.09,-104.82 163.66,-94.09 167.46,-86.75"/>
<polygon fill="midnightblue" stroke="midnightblue" points="150.12,-112.59 148.62,-123.08 156.33,-115.82 150.12,-112.59"/>
</g>
<!-- Node5&#45;&gt;Node0 -->
<g id="edge6" class="edge">
<title>Node5&#45;&gt;Node0</title>
<path fill="none" stroke="midnightblue" d="M156.24,-60.37C146.9,-51.11 135.18,-39.48 126.14,-30.52"/>
<polygon fill="midnightblue" stroke="midnightblue" points="153.84,-62.92 163.4,-67.48 158.77,-57.95 153.84,-62.92"/>
</g>
</g>
</svg>
