<?xml version="1.0" encoding="UTF-8" standalone="no"?>
<!DOCTYPE svg PUBLIC "-//W3C//DTD SVG 1.1//EN"
 "http://www.w3.org/Graphics/SVG/1.1/DTD/svg11.dtd">
<!-- Generated by graphviz version 2.43.0 (0)
 -->
<!-- Title: FiftyOne.Pipeline.Engines.FiftyOne.FlowElements.ShareUsageBuilder Pages: 1 -->
<svg width="229pt" height="207pt"
 viewBox="0.00 0.00 228.50 207.00" xmlns="http://www.w3.org/2000/svg" xmlns:xlink="http://www.w3.org/1999/xlink">
<g id="graph0" class="graph" transform="scale(1 1) rotate(0) translate(4 203)">
<title>FiftyOne.Pipeline.Engines.FiftyOne.FlowElements.ShareUsageBuilder</title>
<!-- Node3 -->
<g id="node1" class="node">
<title>Node3</title>
<g id="a_node1"><a xlink:title="Builder class that is used to create ShareUsageElement instances.">
<polygon fill="#bfbfbf" stroke="black" points="0,-0.5 0,-41.5 191,-41.5 191,-0.5 0,-0.5"/>
<text text-anchor="start" x="8" y="-29.5" font-family="Helvetica,sans-Serif" font-size="10.00">FiftyOne.Pipeline.Engines.</text>
<text text-anchor="start" x="8" y="-18.5" font-family="Helvetica,sans-Serif" font-size="10.00">FiftyOne.FlowElements.ShareUsage</text>
<text text-anchor="middle" x="95.5" y="-7.5" font-family="Helvetica,sans-Serif" font-size="10.00">Builder</text>
</a>
</g>
</g>
<!-- Node4 -->
<g id="node2" class="node">
<title>Node4</title>
<g id="a_node2"><a xlink:href="class_fifty_one_1_1_pipeline_1_1_engines_1_1_fifty_one_1_1_flow_elements_1_1_share_usage_builder_base.html" target="_top" xlink:title=" ">
<polygon fill="none" stroke="black" points="26.5,-79.5 26.5,-109.5 164.5,-109.5 164.5,-79.5 26.5,-79.5"/>
<text text-anchor="start" x="34.5" y="-97.5" font-family="Helvetica,sans-Serif" font-size="10.00">ShareUsageBuilderBase</text>
<text text-anchor="middle" x="95.5" y="-86.5" font-family="Helvetica,sans-Serif" font-size="10.00">&lt; ShareUsageElement &gt;</text>
</a>
</g>
</g>
<!-- Node4&#45;&gt;Node3 -->
<g id="edge1" class="edge">
<title>Node4&#45;&gt;Node3</title>
<path fill="none" stroke="midnightblue" d="M95.5,-69.1C95.5,-60.1 95.5,-50.02 95.5,-41.51"/>
<polygon fill="midnightblue" stroke="midnightblue" points="92,-69.37 95.5,-79.37 99,-69.37 92,-69.37"/>
</g>
<!-- Node5 -->
<g id="node3" class="node">
<title>Node5</title>
<g id="a_node3"><a xlink:href="class_fifty_one_1_1_pipeline_1_1_engines_1_1_fifty_one_1_1_flow_elements_1_1_share_usage_builder_base.html" target="_top" xlink:title="Abstract base class for ShareUsageElement builders.">
<polygon fill="none" stroke="black" points="0,-157.5 0,-198.5 191,-198.5 191,-157.5 0,-157.5"/>
<text text-anchor="start" x="8" y="-186.5" font-family="Helvetica,sans-Serif" font-size="10.00">FiftyOne.Pipeline.Engines.</text>
<text text-anchor="start" x="8" y="-175.5" font-family="Helvetica,sans-Serif" font-size="10.00">FiftyOne.FlowElements.ShareUsage</text>
<text text-anchor="middle" x="95.5" y="-164.5" font-family="Helvetica,sans-Serif" font-size="10.00">BuilderBase&lt; T &gt;</text>
</a>
</g>
</g>
<!-- Node5&#45;&gt;Node4 -->
<g id="edge2" class="edge">
<title>Node5&#45;&gt;Node4</title>
<path fill="none" stroke="orange" stroke-dasharray="5,2" d="M95.5,-147.03C95.5,-134.26 95.5,-119.97 95.5,-109.68"/>
<polygon fill="orange" stroke="orange" points="92,-147.27 95.5,-157.27 99,-147.27 92,-147.27"/>
<text text-anchor="middle" x="158" y="-131" font-family="Helvetica,sans-Serif" font-size="10.00"> &lt; ShareUsageElement &gt;</text>
</g>
</g>
</svg>
