<?xml version="1.0" encoding="UTF-8" standalone="no"?>
<!DOCTYPE svg PUBLIC "-//W3C//DTD SVG 1.1//EN"
 "http://www.w3.org/Graphics/SVG/1.1/DTD/svg11.dtd">
<!-- Generated by graphviz version 2.43.0 (0)
 -->
<!-- Title: FiftyOne.Pipeline.Engines.FiftyOne.Trackers.ShareUsageTracker Pages: 1 -->
<svg width="265pt" height="367pt"
 viewBox="0.00 0.00 265.00 367.00" xmlns="http://www.w3.org/2000/svg" xmlns:xlink="http://www.w3.org/1999/xlink">
<g id="graph0" class="graph" transform="scale(1 1) rotate(0) translate(4 363)">
<title>FiftyOne.Pipeline.Engines.FiftyOne.Trackers.ShareUsageTracker</title>
<!-- Node0 -->
<g id="node1" class="node">
<title>Node0</title>
<g id="a_node1"><a xlink:title="A tracker used by share usage to attempt to avoid repeatedly sending data relating to the same user s...">
<polygon fill="#bfbfbf" stroke="black" points="61,-0.5 61,-30.5 257,-30.5 257,-0.5 61,-0.5"/>
<text text-anchor="start" x="69" y="-18.5" font-family="Helvetica,sans-Serif" font-size="10.00">FiftyOne.Pipeline.Engines.</text>
<text text-anchor="middle" x="159" y="-7.5" font-family="Helvetica,sans-Serif" font-size="10.00">FiftyOne.Trackers.ShareUsageTracker</text>
</a>
</g>
</g>
<!-- Node1 -->
<g id="node2" class="node">
<title>Node1</title>
<g id="a_node2"><a xlink:href="class_fifty_one_1_1_pipeline_1_1_engines_1_1_trackers_1_1_tracker_base.html" target="_top" xlink:title=" ">
<polygon fill="none" stroke="black" points="85,-68.5 85,-87.5 233,-87.5 233,-68.5 85,-68.5"/>
<text text-anchor="middle" x="159" y="-75.5" font-family="Helvetica,sans-Serif" font-size="10.00">TrackerBase&lt; DateTime?&gt;</text>
</a>
</g>
</g>
<!-- Node1&#45;&gt;Node0 -->
<g id="edge1" class="edge">
<title>Node1&#45;&gt;Node0</title>
<path fill="none" stroke="midnightblue" d="M159,-58.22C159,-49.36 159,-38.96 159,-30.76"/>
<polygon fill="midnightblue" stroke="midnightblue" points="155.5,-58.33 159,-68.33 162.5,-58.33 155.5,-58.33"/>
</g>
<!-- Node2 -->
<g id="node3" class="node">
<title>Node2</title>
<g id="a_node3"><a xlink:href="class_fifty_one_1_1_pipeline_1_1_engines_1_1_trackers_1_1_tracker_base.html" target="_top" xlink:title="The abstract base class for trackers.">
<polygon fill="none" stroke="black" points="72.5,-135.5 72.5,-165.5 245.5,-165.5 245.5,-135.5 72.5,-135.5"/>
<text text-anchor="start" x="80.5" y="-153.5" font-family="Helvetica,sans-Serif" font-size="10.00">FiftyOne.Pipeline.Engines.</text>
<text text-anchor="middle" x="159" y="-142.5" font-family="Helvetica,sans-Serif" font-size="10.00">Trackers.TrackerBase&lt; TValue &gt;</text>
</a>
</g>
</g>
<!-- Node2&#45;&gt;Node1 -->
<g id="edge2" class="edge">
<title>Node2&#45;&gt;Node1</title>
<path fill="none" stroke="orange" stroke-dasharray="5,2" d="M159,-125.09C159,-112.21 159,-97.2 159,-87.89"/>
<polygon fill="orange" stroke="orange" points="155.5,-125.23 159,-135.23 162.5,-125.23 155.5,-125.23"/>
<text text-anchor="middle" x="197" y="-109" font-family="Helvetica,sans-Serif" font-size="10.00"> &lt; DateTime?&gt;</text>
</g>
<!-- Node3 -->
<g id="node4" class="node">
<title>Node3</title>
<g id="a_node4"><a xlink:href="class_fifty_one_1_1_pipeline_1_1_engines_1_1_caching_1_1_data_keyed_cache_base.html" target="_top" xlink:title="Abstract base class for caches that use IFlowData as the key.">
<polygon fill="none" stroke="black" points="17,-203.5 17,-233.5 141,-233.5 141,-203.5 17,-203.5"/>
<text text-anchor="start" x="25" y="-221.5" font-family="Helvetica,sans-Serif" font-size="10.00">DataKeyedCacheBase</text>
<text text-anchor="middle" x="79" y="-210.5" font-family="Helvetica,sans-Serif" font-size="10.00">&lt; TValue &gt;</text>
</a>
</g>
</g>
<!-- Node3&#45;&gt;Node2 -->
<g id="edge3" class="edge">
<title>Node3&#45;&gt;Node2</title>
<path fill="none" stroke="midnightblue" d="M104.08,-196.81C116.4,-186.64 130.93,-174.66 141.95,-165.57"/>
<polygon fill="midnightblue" stroke="midnightblue" points="101.85,-194.12 96.36,-203.18 106.3,-199.51 101.85,-194.12"/>
</g>
<!-- Node4 -->
<g id="node5" class="node">
<title>Node4</title>
<g id="a_node5"><a xlink:href="interface_fifty_one_1_1_pipeline_1_1_engines_1_1_caching_1_1_i_data_keyed_cache.html" target="_top" xlink:title="Represents a put cache where the key is a IFlowData instance.">
<polygon fill="none" stroke="black" points="0,-271.5 0,-290.5 158,-290.5 158,-271.5 0,-271.5"/>
<text text-anchor="middle" x="79" y="-278.5" font-family="Helvetica,sans-Serif" font-size="10.00">IDataKeyedCache&lt; TValue &gt;</text>
</a>
</g>
</g>
<!-- Node4&#45;&gt;Node3 -->
<g id="edge4" class="edge">
<title>Node4&#45;&gt;Node3</title>
<path fill="none" stroke="midnightblue" d="M79,-261.22C79,-252.36 79,-241.96 79,-233.76"/>
<polygon fill="midnightblue" stroke="midnightblue" points="75.5,-261.33 79,-271.33 82.5,-261.33 75.5,-261.33"/>
</g>
<!-- Node5 -->
<g id="node6" class="node">
<title>Node5</title>
<g id="a_node6"><a xlink:title=" ">
<polygon fill="none" stroke="#bfbfbf" points="14.5,-328.5 14.5,-358.5 143.5,-358.5 143.5,-328.5 14.5,-328.5"/>
<text text-anchor="start" x="22.5" y="-346.5" font-family="Helvetica,sans-Serif" font-size="10.00">IPutCache&lt; IFlowData,</text>
<text text-anchor="middle" x="79" y="-335.5" font-family="Helvetica,sans-Serif" font-size="10.00"> TValue &gt;</text>
</a>
</g>
</g>
<!-- Node5&#45;&gt;Node4 -->
<g id="edge5" class="edge">
<title>Node5&#45;&gt;Node4</title>
<path fill="none" stroke="midnightblue" d="M79,-318.35C79,-308.51 79,-297.78 79,-290.54"/>
<polygon fill="midnightblue" stroke="midnightblue" points="75.5,-318.47 79,-328.47 82.5,-318.47 75.5,-318.47"/>
</g>
<!-- Node6 -->
<g id="node7" class="node">
<title>Node6</title>
<g id="a_node7"><a xlink:href="interface_fifty_one_1_1_pipeline_1_1_engines_1_1_trackers_1_1_i_tracker.html" target="_top" xlink:title=" ">
<polygon fill="none" stroke="black" points="159,-209 159,-228 213,-228 213,-209 159,-209"/>
<text text-anchor="middle" x="186" y="-216" font-family="Helvetica,sans-Serif" font-size="10.00">ITracker</text>
</a>
</g>
</g>
<!-- Node6&#45;&gt;Node2 -->
<g id="edge6" class="edge">
<title>Node6&#45;&gt;Node2</title>
<path fill="none" stroke="midnightblue" d="M178.57,-199.34C174.23,-188.73 168.83,-175.53 164.8,-165.68"/>
<polygon fill="midnightblue" stroke="midnightblue" points="175.44,-200.94 182.47,-208.87 181.92,-198.29 175.44,-200.94"/>
</g>
</g>
</svg>
