<?xml version="1.0" encoding="UTF-8" standalone="no"?>
<!DOCTYPE svg PUBLIC "-//W3C//DTD SVG 1.1//EN"
 "http://www.w3.org/Graphics/SVG/1.1/DTD/svg11.dtd">
<!-- Generated by graphviz version 2.43.0 (0)
 -->
<!-- Title: FiftyOne.Pipeline.Core.Data.ElementDataBase Pages: 1 -->
<svg width="174pt" height="151pt"
 viewBox="0.00 0.00 173.50 151.00" xmlns="http://www.w3.org/2000/svg" xmlns:xlink="http://www.w3.org/1999/xlink">
<g id="graph0" class="graph" transform="scale(1 1) rotate(0) translate(4 147)">
<title>FiftyOne.Pipeline.Core.Data.ElementDataBase</title>
<!-- Node14 -->
<g id="node1" class="node">
<title>Node14</title>
<g id="a_node1"><a xlink:title="This class stores property values that have been determined by a specific FlowElement based on the su...">
<polygon fill="#bfbfbf" stroke="black" points="1,-0.5 1,-30.5 155,-30.5 155,-0.5 1,-0.5"/>
<text text-anchor="start" x="9" y="-18.5" font-family="Helvetica,sans-Serif" font-size="10.00">FiftyOne.Pipeline.Core.Data.</text>
<text text-anchor="middle" x="78" y="-7.5" font-family="Helvetica,sans-Serif" font-size="10.00">ElementDataBase</text>
</a>
</g>
</g>
<!-- Node15 -->
<g id="node2" class="node">
<title>Node15</title>
<g id="a_node2"><a xlink:href="class_fifty_one_1_1_pipeline_1_1_core_1_1_data_1_1_data_base.html" target="_top" xlink:title="This class stores data values as key/value pairs where the key is a string and the value can be any t...">
<polygon fill="none" stroke="black" points="0,-67.5 0,-86.5 64,-86.5 64,-67.5 0,-67.5"/>
<text text-anchor="middle" x="32" y="-74.5" font-family="Helvetica,sans-Serif" font-size="10.00">DataBase</text>
</a>
</g>
</g>
<!-- Node15&#45;&gt;Node14 -->
<g id="edge1" class="edge">
<title>Node15&#45;&gt;Node14</title>
<path fill="none" stroke="midnightblue" d="M44.73,-59.53C51.78,-50.42 60.44,-39.21 67.16,-30.52"/>
<polygon fill="midnightblue" stroke="midnightblue" points="41.94,-57.42 38.59,-67.48 47.48,-61.7 41.94,-57.42"/>
</g>
<!-- Node16 -->
<g id="node3" class="node">
<title>Node16</title>
<g id="a_node3"><a xlink:href="interface_fifty_one_1_1_pipeline_1_1_core_1_1_data_1_1_i_data.html" target="_top" xlink:title="Represents property values">
<polygon fill="none" stroke="black" points="56.5,-123.5 56.5,-142.5 99.5,-142.5 99.5,-123.5 56.5,-123.5"/>
<text text-anchor="middle" x="78" y="-130.5" font-family="Helvetica,sans-Serif" font-size="10.00">IData</text>
</a>
</g>
</g>
<!-- Node16&#45;&gt;Node15 -->
<g id="edge2" class="edge">
<title>Node16&#45;&gt;Node15</title>
<path fill="none" stroke="midnightblue" d="M63.89,-115.43C55.82,-105.97 46.04,-94.48 39.45,-86.75"/>
<polygon fill="midnightblue" stroke="midnightblue" points="61.25,-117.74 70.4,-123.08 66.58,-113.2 61.25,-117.74"/>
</g>
<!-- Node17 -->
<g id="node4" class="node">
<title>Node17</title>
<g id="a_node4"><a xlink:href="interface_fifty_one_1_1_pipeline_1_1_core_1_1_data_1_1_i_element_data.html" target="_top" xlink:title="Represents property values that have been determined by a specific FlowElement based on the supplied ...">
<polygon fill="none" stroke="black" points="82.5,-67.5 82.5,-86.5 165.5,-86.5 165.5,-67.5 82.5,-67.5"/>
<text text-anchor="middle" x="124" y="-74.5" font-family="Helvetica,sans-Serif" font-size="10.00">IElementData</text>
</a>
</g>
</g>
<!-- Node16&#45;&gt;Node17 -->
<g id="edge4" class="edge">
<title>Node16&#45;&gt;Node17</title>
<path fill="none" stroke="midnightblue" d="M92.11,-115.43C100.18,-105.97 109.96,-94.48 116.55,-86.75"/>
<polygon fill="midnightblue" stroke="midnightblue" points="89.42,-113.2 85.6,-123.08 94.75,-117.74 89.42,-113.2"/>
</g>
<!-- Node17&#45;&gt;Node14 -->
<g id="edge3" class="edge">
<title>Node17&#45;&gt;Node14</title>
<path fill="none" stroke="midnightblue" d="M111.27,-59.53C104.22,-50.42 95.56,-39.21 88.84,-30.52"/>
<polygon fill="midnightblue" stroke="midnightblue" points="108.52,-61.7 117.41,-67.48 114.06,-57.42 108.52,-61.7"/>
</g>
</g>
</svg>
