<?xml version="1.0" encoding="UTF-8" standalone="no"?>
<!DOCTYPE svg PUBLIC "-//W3C//DTD SVG 1.1//EN"
 "http://www.w3.org/Graphics/SVG/1.1/DTD/svg11.dtd">
<!-- Generated by graphviz version 2.43.0 (0)
 -->
<!-- Title: FiftyOne.Pipeline.Math.MathElement Pages: 1 -->
<svg width="1265pt" height="156pt"
 viewBox="0.00 0.00 1265.00 155.50" xmlns="http://www.w3.org/2000/svg" xmlns:xlink="http://www.w3.org/1999/xlink">
<g id="graph0" class="graph" transform="scale(1 1) rotate(0) translate(4 151.5)">
<title>FiftyOne.Pipeline.Math.MathElement</title>
<!-- Node5 -->
<g id="node1" class="node">
<title>Node5</title>
<g id="a_node1"><a xlink:title=" ">
<polygon fill="#bfbfbf" stroke="black" points="1102,-55.5 1102,-85.5 1257,-85.5 1257,-55.5 1102,-55.5"/>
<text text-anchor="start" x="1110" y="-73.5" font-family="Helvetica,sans-Serif" font-size="10.00">FiftyOne.Pipeline.Math.Math</text>
<text text-anchor="middle" x="1179.5" y="-62.5" font-family="Helvetica,sans-Serif" font-size="10.00">Element</text>
</a>
</g>
</g>
<!-- Node6 -->
<g id="node2" class="node">
<title>Node6</title>
<g id="a_node2"><a xlink:href="class_fifty_one_1_1_pipeline_1_1_core_1_1_flow_elements_1_1_flow_element_base.html" target="_top" xlink:title=" ">
<polygon fill="none" stroke="black" points="798,-110.5 798,-140.5 968,-140.5 968,-110.5 798,-110.5"/>
<text text-anchor="start" x="806" y="-128.5" font-family="Helvetica,sans-Serif" font-size="10.00">FlowElementBase&lt; IMathData,</text>
<text text-anchor="middle" x="883" y="-117.5" font-family="Helvetica,sans-Serif" font-size="10.00"> IElementPropertyMetaData &gt;</text>
</a>
</g>
</g>
<!-- Node6&#45;&gt;Node5 -->
<g id="edge1" class="edge">
<title>Node6&#45;&gt;Node5</title>
<path fill="none" stroke="midnightblue" d="M974.42,-108.61C1015.23,-100.99 1062.92,-92.09 1101.93,-84.8"/>
<polygon fill="midnightblue" stroke="midnightblue" points="973.66,-105.19 964.47,-110.47 974.95,-112.08 973.66,-105.19"/>
</g>
<!-- Node7 -->
<g id="node3" class="node">
<title>Node7</title>
<g id="a_node3"><a xlink:href="class_fifty_one_1_1_pipeline_1_1_core_1_1_flow_elements_1_1_flow_element_base.html" target="_top" xlink:title="Abstract base class for Flow Elements.">
<polygon fill="none" stroke="black" points="443.5,-105 443.5,-146 596.5,-146 596.5,-105 443.5,-105"/>
<text text-anchor="start" x="451.5" y="-134" font-family="Helvetica,sans-Serif" font-size="10.00">FiftyOne.Pipeline.Core.Flow</text>
<text text-anchor="start" x="451.5" y="-123" font-family="Helvetica,sans-Serif" font-size="10.00">Elements.FlowElementBase</text>
<text text-anchor="middle" x="520" y="-112" font-family="Helvetica,sans-Serif" font-size="10.00">&lt; T, TMeta &gt;</text>
</a>
</g>
</g>
<!-- Node7&#45;&gt;Node6 -->
<g id="edge2" class="edge">
<title>Node7&#45;&gt;Node6</title>
<path fill="none" stroke="orange" stroke-dasharray="5,2" d="M606.88,-125.5C664.67,-125.5 740.49,-125.5 797.9,-125.5"/>
<polygon fill="orange" stroke="orange" points="606.68,-122 596.68,-125.5 606.68,-129 606.68,-122"/>
<text text-anchor="start" x="616" y="-139.5" font-family="Helvetica,sans-Serif" font-size="10.00"> &lt; IMathData, IElementProperty</text>
<text text-anchor="middle" x="694.5" y="-128.5" font-family="Helvetica,sans-Serif" font-size="10.00">MetaData &gt;</text>
</g>
<!-- Node8 -->
<g id="node4" class="node">
<title>Node8</title>
<g id="a_node4"><a xlink:href="interface_fifty_one_1_1_pipeline_1_1_core_1_1_flow_elements_1_1_i_flow_element.html" target="_top" xlink:title=" ">
<polygon fill="none" stroke="black" points="256,-116 256,-135 405,-135 405,-116 256,-116"/>
<text text-anchor="middle" x="330.5" y="-123" font-family="Helvetica,sans-Serif" font-size="10.00">IFlowElement&lt; T, TMeta &gt;</text>
</a>
</g>
</g>
<!-- Node8&#45;&gt;Node7 -->
<g id="edge3" class="edge">
<title>Node8&#45;&gt;Node7</title>
<path fill="none" stroke="midnightblue" d="M415.21,-125.5C424.63,-125.5 434.18,-125.5 443.49,-125.5"/>
<polygon fill="midnightblue" stroke="midnightblue" points="415.07,-122 405.07,-125.5 415.07,-129 415.07,-122"/>
</g>
<!-- Node9 -->
<g id="node5" class="node">
<title>Node9</title>
<g id="a_node5"><a xlink:href="interface_fifty_one_1_1_pipeline_1_1_core_1_1_flow_elements_1_1_i_flow_element.html" target="_top" xlink:title="IFlowElement is the basic building block of a pipeline.">
<polygon fill="none" stroke="black" points="0,-110.5 0,-140.5 151,-140.5 151,-110.5 0,-110.5"/>
<text text-anchor="start" x="8" y="-128.5" font-family="Helvetica,sans-Serif" font-size="10.00">FiftyOne.Pipeline.Core.Flow</text>
<text text-anchor="middle" x="75.5" y="-117.5" font-family="Helvetica,sans-Serif" font-size="10.00">Elements.IFlowElement</text>
</a>
</g>
</g>
<!-- Node9&#45;&gt;Node8 -->
<g id="edge4" class="edge">
<title>Node9&#45;&gt;Node8</title>
<path fill="none" stroke="orange" stroke-dasharray="5,2" d="M161.29,-125.5C191.95,-125.5 226.3,-125.5 255.93,-125.5"/>
<polygon fill="orange" stroke="orange" points="161.04,-122 151.04,-125.5 161.04,-129 161.04,-122"/>
<text text-anchor="middle" x="203.5" y="-128.5" font-family="Helvetica,sans-Serif" font-size="10.00"> &lt; T, TMeta &gt;</text>
</g>
<!-- Node10 -->
<g id="node6" class="node">
<title>Node10</title>
<g id="a_node6"><a xlink:href="class_fifty_one_1_1_pipeline_1_1_core_1_1_typed_map_1_1_typed_key.html" target="_top" xlink:title=" ">
<polygon fill="none" stroke="black" points="791,-50 791,-91 975,-91 975,-50 791,-50"/>
<text text-anchor="start" x="799" y="-79" font-family="Helvetica,sans-Serif" font-size="10.00">FiftyOne.Pipeline.Core.Typed</text>
<text text-anchor="start" x="799" y="-68" font-family="Helvetica,sans-Serif" font-size="10.00">Map.TypedKey&lt; FiftyOne.Pipeline.</text>
<text text-anchor="middle" x="883" y="-57" font-family="Helvetica,sans-Serif" font-size="10.00">Math.IMathData &gt;</text>
</a>
</g>
</g>
<!-- Node10&#45;&gt;Node5 -->
<g id="edge5" class="edge">
<title>Node10&#45;&gt;Node5</title>
<path fill="none" stroke="#9a32cd" stroke-dasharray="5,2" d="M985.27,-70.5C1023.4,-70.5 1066.1,-70.5 1101.64,-70.5"/>
<polygon fill="#9a32cd" stroke="#9a32cd" points="985.16,-67 975.16,-70.5 985.16,-74 985.16,-67"/>
<text text-anchor="middle" x="1038.5" y="-73.5" font-family="Helvetica,sans-Serif" font-size="10.00"> math</text>
</g>
<!-- Node11 -->
<g id="node7" class="node">
<title>Node11</title>
<g id="a_node7"><a xlink:href="class_fifty_one_1_1_pipeline_1_1_core_1_1_typed_map_1_1_typed_key.html" target="_top" xlink:title="A key to a ITypedKeyMap data store.">
<polygon fill="none" stroke="black" points="442,-55.5 442,-85.5 598,-85.5 598,-55.5 442,-55.5"/>
<text text-anchor="start" x="450" y="-73.5" font-family="Helvetica,sans-Serif" font-size="10.00">FiftyOne.Pipeline.Core.Typed</text>
<text text-anchor="middle" x="520" y="-62.5" font-family="Helvetica,sans-Serif" font-size="10.00">Map.TypedKey&lt; T &gt;</text>
</a>
</g>
</g>
<!-- Node11&#45;&gt;Node10 -->
<g id="edge6" class="edge">
<title>Node11&#45;&gt;Node10</title>
<path fill="none" stroke="orange" stroke-dasharray="5,2" d="M608.12,-70.5C663.37,-70.5 734.73,-70.5 790.75,-70.5"/>
<polygon fill="orange" stroke="orange" points="608,-67 598,-70.5 608,-74 608,-67"/>
<text text-anchor="start" x="644.5" y="-84.5" font-family="Helvetica,sans-Serif" font-size="10.00"> &lt; FiftyOne::Pipeline</text>
<text text-anchor="middle" x="694.5" y="-73.5" font-family="Helvetica,sans-Serif" font-size="10.00">::Math::IMathData &gt;</text>
</g>
<!-- Node12 -->
<g id="node8" class="node">
<title>Node12</title>
<g id="a_node8"><a xlink:href="interface_fifty_one_1_1_pipeline_1_1_core_1_1_typed_map_1_1_i_typed_key.html" target="_top" xlink:title="Represents a key to a ITypedKeyMap data store.">
<polygon fill="none" stroke="black" points="283,-61 283,-80 378,-80 378,-61 283,-61"/>
<text text-anchor="middle" x="330.5" y="-68" font-family="Helvetica,sans-Serif" font-size="10.00">ITypedKey&lt; T &gt;</text>
</a>
</g>
</g>
<!-- Node12&#45;&gt;Node11 -->
<g id="edge7" class="edge">
<title>Node12&#45;&gt;Node11</title>
<path fill="none" stroke="midnightblue" d="M388.52,-70.5C405.31,-70.5 423.97,-70.5 441.8,-70.5"/>
<polygon fill="midnightblue" stroke="midnightblue" points="388.33,-67 378.33,-70.5 388.33,-74 388.33,-67"/>
</g>
<!-- Node13 -->
<g id="node9" class="node">
<title>Node13</title>
<g id="a_node9"><a xlink:href="interface_fifty_one_1_1_pipeline_1_1_core_1_1_data_1_1_i_evidence_key_filter.html" target="_top" xlink:title="Represents an object that filters evidence key names based on some criteria.">
<polygon fill="none" stroke="black" points="806,-0.5 806,-30.5 960,-30.5 960,-0.5 806,-0.5"/>
<text text-anchor="start" x="814" y="-18.5" font-family="Helvetica,sans-Serif" font-size="10.00">FiftyOne.Pipeline.Core.Data.</text>
<text text-anchor="middle" x="883" y="-7.5" font-family="Helvetica,sans-Serif" font-size="10.00">IEvidenceKeyFilter</text>
</a>
</g>
</g>
<!-- Node13&#45;&gt;Node5 -->
<g id="edge8" class="edge">
<title>Node13&#45;&gt;Node5</title>
<path fill="none" stroke="#9a32cd" stroke-dasharray="5,2" d="M970.09,-31.58C1011.79,-39.37 1061.45,-48.64 1101.83,-56.18"/>
<polygon fill="#9a32cd" stroke="#9a32cd" points="970.7,-28.13 960.22,-29.74 969.41,-35.01 970.7,-28.13"/>
<text text-anchor="middle" x="1038.5" y="-56.5" font-family="Helvetica,sans-Serif" font-size="10.00"> EvidenceKeyFilter</text>
</g>
</g>
</svg>
