<?xml version="1.0" encoding="UTF-8" standalone="no"?>
<!DOCTYPE svg PUBLIC "-//W3C//DTD SVG 1.1//EN"
 "http://www.w3.org/Graphics/SVG/1.1/DTD/svg11.dtd">
<!-- Generated by graphviz version 2.43.0 (0)
 -->
<!-- Title: FiftyOne.Pipeline.Engines.Caching.DataKeyedCacheBase&lt; TValue &gt; Pages: 1 -->
<svg width="174pt" height="173pt"
 viewBox="0.00 0.00 174.00 173.00" xmlns="http://www.w3.org/2000/svg" xmlns:xlink="http://www.w3.org/1999/xlink">
<g id="graph0" class="graph" transform="scale(1 1) rotate(0) translate(4 169)">
<title>FiftyOne.Pipeline.Engines.Caching.DataKeyedCacheBase&lt; TValue &gt;</title>
<!-- Node8 -->
<g id="node1" class="node">
<title>Node8</title>
<g id="a_node1"><a xlink:title="Abstract base class for caches that use IFlowData as the key.">
<polygon fill="#bfbfbf" stroke="black" points="0,-0.5 0,-41.5 166,-41.5 166,-0.5 0,-0.5"/>
<text text-anchor="start" x="8" y="-29.5" font-family="Helvetica,sans-Serif" font-size="10.00">FiftyOne.Pipeline.Engines.</text>
<text text-anchor="start" x="8" y="-18.5" font-family="Helvetica,sans-Serif" font-size="10.00">Caching.DataKeyedCacheBase</text>
<text text-anchor="middle" x="83" y="-7.5" font-family="Helvetica,sans-Serif" font-size="10.00">&lt; TValue &gt;</text>
</a>
</g>
</g>
<!-- Node9 -->
<g id="node2" class="node">
<title>Node9</title>
<g id="a_node2"><a xlink:href="interface_fifty_one_1_1_pipeline_1_1_engines_1_1_caching_1_1_i_data_keyed_cache.html" target="_top" xlink:title="Represents a put cache where the key is a IFlowData instance.">
<polygon fill="none" stroke="black" points="4,-78.5 4,-97.5 162,-97.5 162,-78.5 4,-78.5"/>
<text text-anchor="middle" x="83" y="-85.5" font-family="Helvetica,sans-Serif" font-size="10.00">IDataKeyedCache&lt; TValue &gt;</text>
</a>
</g>
</g>
<!-- Node9&#45;&gt;Node8 -->
<g id="edge1" class="edge">
<title>Node9&#45;&gt;Node8</title>
<path fill="none" stroke="midnightblue" d="M83,-68.04C83,-59.71 83,-49.94 83,-41.54"/>
<polygon fill="midnightblue" stroke="midnightblue" points="79.5,-68.23 83,-78.23 86.5,-68.23 79.5,-68.23"/>
</g>
<!-- Node10 -->
<g id="node3" class="node">
<title>Node10</title>
<g id="a_node3"><a xlink:title=" ">
<polygon fill="none" stroke="#bfbfbf" points="18.5,-134.5 18.5,-164.5 147.5,-164.5 147.5,-134.5 18.5,-134.5"/>
<text text-anchor="start" x="26.5" y="-152.5" font-family="Helvetica,sans-Serif" font-size="10.00">IPutCache&lt; IFlowData,</text>
<text text-anchor="middle" x="83" y="-141.5" font-family="Helvetica,sans-Serif" font-size="10.00"> TValue &gt;</text>
</a>
</g>
</g>
<!-- Node10&#45;&gt;Node9 -->
<g id="edge2" class="edge">
<title>Node10&#45;&gt;Node9</title>
<path fill="none" stroke="midnightblue" d="M83,-124.29C83,-114.86 83,-104.65 83,-97.66"/>
<polygon fill="midnightblue" stroke="midnightblue" points="79.5,-124.4 83,-134.4 86.5,-124.4 79.5,-124.4"/>
</g>
</g>
</svg>
