<?xml version="1.0" encoding="UTF-8" standalone="no"?>
<!DOCTYPE svg PUBLIC "-//W3C//DTD SVG 1.1//EN"
 "http://www.w3.org/Graphics/SVG/1.1/DTD/svg11.dtd">
<!-- Generated by graphviz version 2.43.0 (0)
 -->
<!-- Title: FiftyOne.Pipeline.Engines.Trackers.TrackerBase&lt; TValue &gt; Pages: 1 -->
<svg width="227pt" height="229pt"
 viewBox="0.00 0.00 226.50 229.00" xmlns="http://www.w3.org/2000/svg" xmlns:xlink="http://www.w3.org/1999/xlink">
<g id="graph0" class="graph" transform="scale(1 1) rotate(0) translate(4 225)">
<title>FiftyOne.Pipeline.Engines.Trackers.TrackerBase&lt; TValue &gt;</title>
<!-- Node7 -->
<g id="node1" class="node">
<title>Node7</title>
<g id="a_node1"><a xlink:title="The abstract base class for trackers.">
<polygon fill="#bfbfbf" stroke="black" points="45.5,-0.5 45.5,-30.5 218.5,-30.5 218.5,-0.5 45.5,-0.5"/>
<text text-anchor="start" x="53.5" y="-18.5" font-family="Helvetica,sans-Serif" font-size="10.00">FiftyOne.Pipeline.Engines.</text>
<text text-anchor="middle" x="132" y="-7.5" font-family="Helvetica,sans-Serif" font-size="10.00">Trackers.TrackerBase&lt; TValue &gt;</text>
</a>
</g>
</g>
<!-- Node8 -->
<g id="node2" class="node">
<title>Node8</title>
<g id="a_node2"><a xlink:href="class_fifty_one_1_1_pipeline_1_1_engines_1_1_caching_1_1_data_keyed_cache_base.html" target="_top" xlink:title="Abstract base class for caches that use IFlowData as the key.">
<polygon fill="none" stroke="black" points="17,-67.5 17,-97.5 141,-97.5 141,-67.5 17,-67.5"/>
<text text-anchor="start" x="25" y="-85.5" font-family="Helvetica,sans-Serif" font-size="10.00">DataKeyedCacheBase</text>
<text text-anchor="middle" x="79" y="-74.5" font-family="Helvetica,sans-Serif" font-size="10.00">&lt; TValue &gt;</text>
</a>
</g>
</g>
<!-- Node8&#45;&gt;Node7 -->
<g id="edge1" class="edge">
<title>Node8&#45;&gt;Node7</title>
<path fill="none" stroke="midnightblue" d="M96.98,-59.45C104.77,-49.9 113.65,-39 120.52,-30.58"/>
<polygon fill="midnightblue" stroke="midnightblue" points="94.11,-57.43 90.5,-67.4 99.53,-61.86 94.11,-57.43"/>
</g>
<!-- Node9 -->
<g id="node3" class="node">
<title>Node9</title>
<g id="a_node3"><a xlink:href="interface_fifty_one_1_1_pipeline_1_1_engines_1_1_caching_1_1_i_data_keyed_cache.html" target="_top" xlink:title="Represents a put cache where the key is a IFlowData instance.">
<polygon fill="none" stroke="black" points="0,-134.5 0,-153.5 158,-153.5 158,-134.5 0,-134.5"/>
<text text-anchor="middle" x="79" y="-141.5" font-family="Helvetica,sans-Serif" font-size="10.00">IDataKeyedCache&lt; TValue &gt;</text>
</a>
</g>
</g>
<!-- Node9&#45;&gt;Node8 -->
<g id="edge2" class="edge">
<title>Node9&#45;&gt;Node8</title>
<path fill="none" stroke="midnightblue" d="M79,-124.23C79,-115.59 79,-105.5 79,-97.52"/>
<polygon fill="midnightblue" stroke="midnightblue" points="75.5,-124.48 79,-134.48 82.5,-124.48 75.5,-124.48"/>
</g>
<!-- Node10 -->
<g id="node4" class="node">
<title>Node10</title>
<g id="a_node4"><a xlink:title=" ">
<polygon fill="none" stroke="#bfbfbf" points="14.5,-190.5 14.5,-220.5 143.5,-220.5 143.5,-190.5 14.5,-190.5"/>
<text text-anchor="start" x="22.5" y="-208.5" font-family="Helvetica,sans-Serif" font-size="10.00">IPutCache&lt; IFlowData,</text>
<text text-anchor="middle" x="79" y="-197.5" font-family="Helvetica,sans-Serif" font-size="10.00"> TValue &gt;</text>
</a>
</g>
</g>
<!-- Node10&#45;&gt;Node9 -->
<g id="edge3" class="edge">
<title>Node10&#45;&gt;Node9</title>
<path fill="none" stroke="midnightblue" d="M79,-180.29C79,-170.86 79,-160.65 79,-153.66"/>
<polygon fill="midnightblue" stroke="midnightblue" points="75.5,-180.4 79,-190.4 82.5,-180.4 75.5,-180.4"/>
</g>
<!-- Node11 -->
<g id="node5" class="node">
<title>Node11</title>
<g id="a_node5"><a xlink:href="interface_fifty_one_1_1_pipeline_1_1_engines_1_1_trackers_1_1_i_tracker.html" target="_top" xlink:title=" ">
<polygon fill="none" stroke="black" points="159,-73 159,-92 213,-92 213,-73 159,-73"/>
<text text-anchor="middle" x="186" y="-80" font-family="Helvetica,sans-Serif" font-size="10.00">ITracker</text>
</a>
</g>
</g>
<!-- Node11&#45;&gt;Node7 -->
<g id="edge4" class="edge">
<title>Node11&#45;&gt;Node7</title>
<path fill="none" stroke="midnightblue" d="M172.28,-64.99C163.46,-54.36 152.11,-40.7 143.7,-30.59"/>
<polygon fill="midnightblue" stroke="midnightblue" points="169.63,-67.28 178.72,-72.73 175.02,-62.81 169.63,-67.28"/>
</g>
</g>
</svg>
