<?xml version="1.0" encoding="UTF-8" standalone="no"?>
<!DOCTYPE svg PUBLIC "-//W3C//DTD SVG 1.1//EN"
 "http://www.w3.org/Graphics/SVG/1.1/DTD/svg11.dtd">
<!-- Generated by graphviz version 2.43.0 (0)
 -->
<!-- Title: FiftyOne.Pipeline.Engines.Caching.DataKeyedCacheBase&lt; TValue &gt; Pages: 1 -->
<svg width="1366pt" height="110pt"
 viewBox="0.00 0.00 1366.00 110.00" xmlns="http://www.w3.org/2000/svg" xmlns:xlink="http://www.w3.org/1999/xlink">
<g id="graph0" class="graph" transform="scale(1 1) rotate(0) translate(4 106)">
<title>FiftyOne.Pipeline.Engines.Caching.DataKeyedCacheBase&lt; TValue &gt;</title>
<!-- Node0 -->
<g id="node1" class="node">
<title>Node0</title>
<g id="a_node1"><a xlink:title="Abstract base class for caches that use IFlowData as the key.">
<polygon fill="#bfbfbf" stroke="black" points="361,-30.5 361,-71.5 527,-71.5 527,-30.5 361,-30.5"/>
<text text-anchor="start" x="369" y="-59.5" font-family="Helvetica,sans-Serif" font-size="10.00">FiftyOne.Pipeline.Engines.</text>
<text text-anchor="start" x="369" y="-48.5" font-family="Helvetica,sans-Serif" font-size="10.00">Caching.DataKeyedCacheBase</text>
<text text-anchor="middle" x="444" y="-37.5" font-family="Helvetica,sans-Serif" font-size="10.00">&lt; TValue &gt;</text>
</a>
</g>
</g>
<!-- Node3 -->
<g id="node4" class="node">
<title>Node3</title>
<g id="a_node4"><a xlink:href="class_fifty_one_1_1_pipeline_1_1_engines_1_1_trackers_1_1_tracker_base.html" target="_top" xlink:title="The abstract base class for trackers.">
<polygon fill="none" stroke="black" points="670.5,-60.5 670.5,-101.5 807.5,-101.5 807.5,-60.5 670.5,-60.5"/>
<text text-anchor="start" x="678.5" y="-89.5" font-family="Helvetica,sans-Serif" font-size="10.00">FiftyOne::Pipeline</text>
<text text-anchor="start" x="678.5" y="-78.5" font-family="Helvetica,sans-Serif" font-size="10.00">::Engines::Trackers</text>
<text text-anchor="middle" x="739" y="-67.5" font-family="Helvetica,sans-Serif" font-size="10.00">::TrackerBase&lt; TValue &gt;</text>
</a>
</g>
</g>
<!-- Node0&#45;&gt;Node3 -->
<g id="edge3" class="edge">
<title>Node0&#45;&gt;Node3</title>
<path fill="none" stroke="midnightblue" d="M536.96,-60.42C580.15,-64.84 630.73,-70.02 670.35,-74.07"/>
<polygon fill="midnightblue" stroke="midnightblue" points="537.31,-56.93 527.01,-59.4 536.6,-63.9 537.31,-56.93"/>
</g>
<!-- Node6 -->
<g id="node7" class="node">
<title>Node6</title>
<g id="a_node7"><a xlink:href="class_fifty_one_1_1_pipeline_1_1_engines_1_1_caching_1_1_data_keyed_cache_base.html" target="_top" xlink:title=" ">
<polygon fill="none" stroke="black" points="656,-0.5 656,-41.5 822,-41.5 822,-0.5 656,-0.5"/>
<text text-anchor="start" x="664" y="-29.5" font-family="Helvetica,sans-Serif" font-size="10.00">FiftyOne.Pipeline.Engines.</text>
<text text-anchor="start" x="664" y="-18.5" font-family="Helvetica,sans-Serif" font-size="10.00">Caching.DataKeyedCacheBase</text>
<text text-anchor="middle" x="739" y="-7.5" font-family="Helvetica,sans-Serif" font-size="10.00">&lt; IElementData &gt;</text>
</a>
</g>
</g>
<!-- Node0&#45;&gt;Node6 -->
<g id="edge6" class="edge">
<title>Node0&#45;&gt;Node6</title>
<path fill="none" stroke="orange" stroke-dasharray="5,2" d="M537.06,-41.57C575.09,-37.68 618.82,-33.2 655.76,-29.42"/>
<polygon fill="orange" stroke="orange" points="536.6,-38.1 527.01,-42.6 537.31,-45.07 536.6,-38.1"/>
<text text-anchor="middle" x="591.5" y="-44" font-family="Helvetica,sans-Serif" font-size="10.00"> &lt; IElementData &gt;</text>
</g>
<!-- Node1 -->
<g id="node2" class="node">
<title>Node1</title>
<g id="a_node2"><a xlink:href="interface_fifty_one_1_1_pipeline_1_1_engines_1_1_caching_1_1_i_data_keyed_cache.html" target="_top" xlink:title="Represents a put cache where the key is a IFlowData instance.">
<polygon fill="none" stroke="black" points="166,-41.5 166,-60.5 324,-60.5 324,-41.5 166,-41.5"/>
<text text-anchor="middle" x="245" y="-48.5" font-family="Helvetica,sans-Serif" font-size="10.00">IDataKeyedCache&lt; TValue &gt;</text>
</a>
</g>
</g>
<!-- Node1&#45;&gt;Node0 -->
<g id="edge1" class="edge">
<title>Node1&#45;&gt;Node0</title>
<path fill="none" stroke="midnightblue" d="M334.38,-51C343.15,-51 352.04,-51 360.75,-51"/>
<polygon fill="midnightblue" stroke="midnightblue" points="334.14,-47.5 324.14,-51 334.14,-54.5 334.14,-47.5"/>
</g>
<!-- Node2 -->
<g id="node3" class="node">
<title>Node2</title>
<g id="a_node3"><a xlink:title=" ">
<polygon fill="none" stroke="#bfbfbf" points="0,-36 0,-66 129,-66 129,-36 0,-36"/>
<text text-anchor="start" x="8" y="-54" font-family="Helvetica,sans-Serif" font-size="10.00">IPutCache&lt; IFlowData,</text>
<text text-anchor="middle" x="64.5" y="-43" font-family="Helvetica,sans-Serif" font-size="10.00"> TValue &gt;</text>
</a>
</g>
</g>
<!-- Node2&#45;&gt;Node1 -->
<g id="edge2" class="edge">
<title>Node2&#45;&gt;Node1</title>
<path fill="none" stroke="midnightblue" d="M139.38,-51C148.15,-51 157.14,-51 165.97,-51"/>
<polygon fill="midnightblue" stroke="midnightblue" points="139.19,-47.5 129.19,-51 139.19,-54.5 139.19,-47.5"/>
</g>
<!-- Node4 -->
<g id="node5" class="node">
<title>Node4</title>
<g id="a_node5"><a xlink:href="class_fifty_one_1_1_pipeline_1_1_engines_1_1_trackers_1_1_tracker_base.html" target="_top" xlink:title=" ">
<polygon fill="none" stroke="black" points="934,-66 934,-96 1125,-96 1125,-66 934,-66"/>
<text text-anchor="start" x="942" y="-84" font-family="Helvetica,sans-Serif" font-size="10.00">FiftyOne.Pipeline.Engines.</text>
<text text-anchor="middle" x="1029.5" y="-73" font-family="Helvetica,sans-Serif" font-size="10.00">Trackers.TrackerBase&lt; DateTime?&gt;</text>
</a>
</g>
</g>
<!-- Node3&#45;&gt;Node4 -->
<g id="edge4" class="edge">
<title>Node3&#45;&gt;Node4</title>
<path fill="none" stroke="orange" stroke-dasharray="5,2" d="M818.01,-81C853.75,-81 896.43,-81 933.98,-81"/>
<polygon fill="orange" stroke="orange" points="817.64,-77.5 807.64,-81 817.64,-84.5 817.64,-77.5"/>
<text text-anchor="middle" x="878" y="-84" font-family="Helvetica,sans-Serif" font-size="10.00"> &lt; DateTime?&gt;</text>
</g>
<!-- Node5 -->
<g id="node6" class="node">
<title>Node5</title>
<g id="a_node6"><a xlink:href="class_fifty_one_1_1_pipeline_1_1_engines_1_1_fifty_one_1_1_trackers_1_1_share_usage_tracker.html" target="_top" xlink:title="A tracker used by share usage to attempt to avoid repeatedly sending data relating to the same user s...">
<polygon fill="none" stroke="black" points="1162,-66 1162,-96 1358,-96 1358,-66 1162,-66"/>
<text text-anchor="start" x="1170" y="-84" font-family="Helvetica,sans-Serif" font-size="10.00">FiftyOne.Pipeline.Engines.</text>
<text text-anchor="middle" x="1260" y="-73" font-family="Helvetica,sans-Serif" font-size="10.00">FiftyOne.Trackers.ShareUsageTracker</text>
</a>
</g>
</g>
<!-- Node4&#45;&gt;Node5 -->
<g id="edge5" class="edge">
<title>Node4&#45;&gt;Node5</title>
<path fill="none" stroke="midnightblue" d="M1135.12,-81C1144.04,-81 1153.04,-81 1161.9,-81"/>
<polygon fill="midnightblue" stroke="midnightblue" points="1135.09,-77.5 1125.09,-81 1135.09,-84.5 1135.09,-77.5"/>
</g>
<!-- Node7 -->
<g id="node8" class="node">
<title>Node7</title>
<g id="a_node8"><a xlink:href="class_fifty_one_1_1_pipeline_1_1_engines_1_1_caching_1_1_default_flow_cache.html" target="_top" xlink:title="The default &#39;flow cache&#39; implementation.">
<polygon fill="none" stroke="black" points="955.5,-6 955.5,-36 1103.5,-36 1103.5,-6 955.5,-6"/>
<text text-anchor="start" x="963.5" y="-24" font-family="Helvetica,sans-Serif" font-size="10.00">FiftyOne.Pipeline.Engines.</text>
<text text-anchor="middle" x="1029.5" y="-13" font-family="Helvetica,sans-Serif" font-size="10.00">Caching.DefaultFlowCache</text>
</a>
</g>
</g>
<!-- Node6&#45;&gt;Node7 -->
<g id="edge7" class="edge">
<title>Node6&#45;&gt;Node7</title>
<path fill="none" stroke="midnightblue" d="M832.53,-21C872.3,-21 918.12,-21 955.45,-21"/>
<polygon fill="midnightblue" stroke="midnightblue" points="832.29,-17.5 822.29,-21 832.29,-24.5 832.29,-17.5"/>
</g>
</g>
</svg>
