<?xml version="1.0" encoding="UTF-8" standalone="no"?>
<!DOCTYPE svg PUBLIC "-//W3C//DTD SVG 1.1//EN"
 "http://www.w3.org/Graphics/SVG/1.1/DTD/svg11.dtd">
<!-- Generated by graphviz version 2.43.0 (0)
 -->
<!-- Title: FiftyOne.Pipeline.Engines.FlowElements.OnPremiseAspectEngineBase&lt; T, TMeta &gt; Pages: 1 -->
<svg width="1787pt" height="138pt"
 viewBox="0.00 0.00 1787.00 137.50" xmlns="http://www.w3.org/2000/svg" xmlns:xlink="http://www.w3.org/1999/xlink">
<g id="graph0" class="graph" transform="scale(1 1) rotate(0) translate(4 133.5)">
<title>FiftyOne.Pipeline.Engines.FlowElements.OnPremiseAspectEngineBase&lt; T, TMeta &gt;</title>
<!-- Node0 -->
<g id="node1" class="node">
<title>Node0</title>
<g id="a_node1"><a xlink:title="Base class for 51Degrees on&#45;premise aspect engines.">
<polygon fill="#bfbfbf" stroke="black" points="883,-29.5 883,-70.5 1091,-70.5 1091,-29.5 883,-29.5"/>
<text text-anchor="start" x="891" y="-58.5" font-family="Helvetica,sans-Serif" font-size="10.00">FiftyOne.Pipeline.Engines.</text>
<text text-anchor="start" x="891" y="-47.5" font-family="Helvetica,sans-Serif" font-size="10.00">FlowElements.OnPremiseAspectEngine</text>
<text text-anchor="middle" x="987" y="-36.5" font-family="Helvetica,sans-Serif" font-size="10.00">Base&lt; T, TMeta &gt;</text>
</a>
</g>
</g>
<!-- Node9 -->
<g id="node10" class="node">
<title>Node9</title>
<g id="a_node10"><a xlink:href="class_fifty_one_1_1_pipeline_1_1_engines_1_1_flow_elements_1_1_on_premise_aspect_engine_base.html" target="_top" xlink:title=" ">
<polygon fill="none" stroke="black" points="1272,-60.5 1272,-101.5 1533,-101.5 1533,-60.5 1272,-60.5"/>
<text text-anchor="start" x="1280" y="-89.5" font-family="Helvetica,sans-Serif" font-size="10.00">FiftyOne.Pipeline.Engines.</text>
<text text-anchor="start" x="1280" y="-78.5" font-family="Helvetica,sans-Serif" font-size="10.00">FlowElements.OnPremiseAspectEngine</text>
<text text-anchor="middle" x="1402.5" y="-67.5" font-family="Helvetica,sans-Serif" font-size="10.00">Base&lt; IStarSignData, IAspectPropertyMetaData &gt;</text>
</a>
</g>
</g>
<!-- Node0&#45;&gt;Node9 -->
<g id="edge9" class="edge">
<title>Node0&#45;&gt;Node9</title>
<path fill="none" stroke="orange" stroke-dasharray="5,2" d="M1101.1,-58.48C1153.97,-62.44 1217.21,-67.18 1271.99,-71.29"/>
<polygon fill="orange" stroke="orange" points="1101.24,-54.98 1091.01,-57.72 1100.72,-61.96 1101.24,-54.98"/>
<text text-anchor="start" x="1119.5" y="-83" font-family="Helvetica,sans-Serif" font-size="10.00"> &lt; IStarSignData, IAspect</text>
<text text-anchor="middle" x="1181.5" y="-72" font-family="Helvetica,sans-Serif" font-size="10.00">PropertyMetaData &gt;</text>
</g>
<!-- Node11 -->
<g id="node12" class="node">
<title>Node11</title>
<g id="a_node12"><a xlink:href="class_fifty_one_1_1_pipeline_1_1_engines_1_1_flow_elements_1_1_on_premise_aspect_engine_base.html" target="_top" xlink:title=" ">
<polygon fill="none" stroke="black" points="1282,-0.5 1282,-41.5 1523,-41.5 1523,-0.5 1282,-0.5"/>
<text text-anchor="start" x="1290" y="-29.5" font-family="Helvetica,sans-Serif" font-size="10.00">FiftyOne.Pipeline.Engines.</text>
<text text-anchor="start" x="1290" y="-18.5" font-family="Helvetica,sans-Serif" font-size="10.00">FlowElements.OnPremiseAspectEngine</text>
<text text-anchor="middle" x="1402.5" y="-7.5" font-family="Helvetica,sans-Serif" font-size="10.00">Base&lt; T, IFiftyOneAspectPropertyMetaData &gt;</text>
</a>
</g>
</g>
<!-- Node0&#45;&gt;Node11 -->
<g id="edge11" class="edge">
<title>Node0&#45;&gt;Node11</title>
<path fill="none" stroke="orange" stroke-dasharray="5,2" d="M1101.3,-33.74C1103.89,-33.48 1106.46,-33.23 1109,-33 1165.69,-27.87 1228.76,-24.93 1281.78,-23.25"/>
<polygon fill="orange" stroke="orange" points="1100.8,-30.27 1091.23,-34.8 1101.54,-37.23 1100.8,-30.27"/>
<text text-anchor="start" x="1109" y="-47" font-family="Helvetica,sans-Serif" font-size="10.00"> &lt; T, IFiftyOneAspectProperty</text>
<text text-anchor="middle" x="1181.5" y="-36" font-family="Helvetica,sans-Serif" font-size="10.00">MetaData &gt;</text>
</g>
<!-- Node1 -->
<g id="node2" class="node">
<title>Node1</title>
<g id="a_node2"><a xlink:href="class_fifty_one_1_1_pipeline_1_1_engines_1_1_flow_elements_1_1_aspect_engine_base.html" target="_top" xlink:title="Base class for 51Degrees aspect engines.">
<polygon fill="none" stroke="black" points="713,-58 713,-88 840,-88 840,-58 713,-58"/>
<text text-anchor="start" x="721" y="-76" font-family="Helvetica,sans-Serif" font-size="10.00">AspectEngineBase&lt; T,</text>
<text text-anchor="middle" x="776.5" y="-65" font-family="Helvetica,sans-Serif" font-size="10.00"> TMeta &gt;</text>
</a>
</g>
</g>
<!-- Node1&#45;&gt;Node0 -->
<g id="edge1" class="edge">
<title>Node1&#45;&gt;Node0</title>
<path fill="none" stroke="midnightblue" d="M850.09,-64.99C860.72,-63.82 871.84,-62.59 882.94,-61.37"/>
<polygon fill="midnightblue" stroke="midnightblue" points="849.61,-61.52 840.06,-66.1 850.38,-68.48 849.61,-61.52"/>
</g>
<!-- Node2 -->
<g id="node3" class="node">
<title>Node2</title>
<g id="a_node3"><a xlink:href="class_fifty_one_1_1_pipeline_1_1_core_1_1_flow_elements_1_1_flow_element_base.html" target="_top" xlink:title="Abstract base class for Flow Elements.">
<polygon fill="none" stroke="black" points="532,-99 532,-129 657,-129 657,-99 532,-99"/>
<text text-anchor="start" x="540" y="-117" font-family="Helvetica,sans-Serif" font-size="10.00">FlowElementBase&lt; T,</text>
<text text-anchor="middle" x="594.5" y="-106" font-family="Helvetica,sans-Serif" font-size="10.00"> TMeta &gt;</text>
</a>
</g>
</g>
<!-- Node2&#45;&gt;Node1 -->
<g id="edge2" class="edge">
<title>Node2&#45;&gt;Node1</title>
<path fill="none" stroke="midnightblue" d="M667.05,-97.7C682.23,-94.24 698.15,-90.62 712.97,-87.24"/>
<polygon fill="midnightblue" stroke="midnightblue" points="666.17,-94.31 657.19,-99.95 667.72,-101.14 666.17,-94.31"/>
</g>
<!-- Node3 -->
<g id="node4" class="node">
<title>Node3</title>
<g id="a_node4"><a xlink:href="interface_fifty_one_1_1_pipeline_1_1_core_1_1_flow_elements_1_1_i_flow_element.html" target="_top" xlink:title=" ">
<polygon fill="none" stroke="black" points="260.5,-104.5 260.5,-123.5 409.5,-123.5 409.5,-104.5 260.5,-104.5"/>
<text text-anchor="middle" x="335" y="-111.5" font-family="Helvetica,sans-Serif" font-size="10.00">IFlowElement&lt; T, TMeta &gt;</text>
</a>
</g>
</g>
<!-- Node3&#45;&gt;Node2 -->
<g id="edge3" class="edge">
<title>Node3&#45;&gt;Node2</title>
<path fill="none" stroke="midnightblue" d="M419.92,-114C456.39,-114 498.35,-114 531.88,-114"/>
<polygon fill="midnightblue" stroke="midnightblue" points="419.79,-110.5 409.79,-114 419.79,-117.5 419.79,-110.5"/>
</g>
<!-- Node4 -->
<g id="node5" class="node">
<title>Node4</title>
<g id="a_node5"><a xlink:href="interface_fifty_one_1_1_pipeline_1_1_core_1_1_flow_elements_1_1_i_flow_element.html" target="_top" xlink:title="IFlowElement is the basic building block of a pipeline.">
<polygon fill="none" stroke="black" points="0,-99 0,-129 151,-129 151,-99 0,-99"/>
<text text-anchor="start" x="8" y="-117" font-family="Helvetica,sans-Serif" font-size="10.00">FiftyOne.Pipeline.Core.Flow</text>
<text text-anchor="middle" x="75.5" y="-106" font-family="Helvetica,sans-Serif" font-size="10.00">Elements.IFlowElement</text>
</a>
</g>
</g>
<!-- Node4&#45;&gt;Node3 -->
<g id="edge4" class="edge">
<title>Node4&#45;&gt;Node3</title>
<path fill="none" stroke="orange" stroke-dasharray="5,2" d="M161.54,-114C193.48,-114 229.5,-114 260.32,-114"/>
<polygon fill="orange" stroke="orange" points="161.33,-110.5 151.33,-114 161.33,-117.5 161.33,-110.5"/>
<text text-anchor="middle" x="203.5" y="-117" font-family="Helvetica,sans-Serif" font-size="10.00"> &lt; T, TMeta &gt;</text>
</g>
<!-- Node5 -->
<g id="node6" class="node">
<title>Node5</title>
<g id="a_node6"><a xlink:href="interface_fifty_one_1_1_pipeline_1_1_engines_1_1_flow_elements_1_1_i_aspect_engine.html" target="_top" xlink:title=" ">
<polygon fill="none" stroke="black" points="519,-60.5 519,-79.5 670,-79.5 670,-60.5 519,-60.5"/>
<text text-anchor="middle" x="594.5" y="-67.5" font-family="Helvetica,sans-Serif" font-size="10.00">IAspectEngine&lt; T, TMeta &gt;</text>
</a>
</g>
</g>
<!-- Node5&#45;&gt;Node1 -->
<g id="edge5" class="edge">
<title>Node5&#45;&gt;Node1</title>
<path fill="none" stroke="midnightblue" d="M680.08,-71.41C691.09,-71.59 702.21,-71.78 712.78,-71.95"/>
<polygon fill="midnightblue" stroke="midnightblue" points="680.07,-67.91 670.01,-71.24 679.95,-74.91 680.07,-67.91"/>
</g>
<!-- Node6 -->
<g id="node7" class="node">
<title>Node6</title>
<g id="a_node7"><a xlink:href="interface_fifty_one_1_1_pipeline_1_1_engines_1_1_flow_elements_1_1_i_aspect_engine.html" target="_top" xlink:title="Interface representing 51Degrees on&#45;premise aspect engines.">
<polygon fill="none" stroke="black" points="256,-55 256,-85 414,-85 414,-55 256,-55"/>
<text text-anchor="start" x="264" y="-73" font-family="Helvetica,sans-Serif" font-size="10.00">FiftyOne.Pipeline.Engines.</text>
<text text-anchor="middle" x="335" y="-62" font-family="Helvetica,sans-Serif" font-size="10.00">FlowElements.IAspectEngine</text>
</a>
</g>
</g>
<!-- Node6&#45;&gt;Node5 -->
<g id="edge6" class="edge">
<title>Node6&#45;&gt;Node5</title>
<path fill="none" stroke="orange" stroke-dasharray="5,2" d="M424.56,-70C455.2,-70 489.22,-70 518.65,-70"/>
<polygon fill="orange" stroke="orange" points="424.31,-66.5 414.31,-70 424.31,-73.5 424.31,-66.5"/>
<text text-anchor="middle" x="466.5" y="-73" font-family="Helvetica,sans-Serif" font-size="10.00"> &lt; T, TMeta &gt;</text>
</g>
<!-- Node7 -->
<g id="node8" class="node">
<title>Node7</title>
<g id="a_node8"><a xlink:href="interface_fifty_one_1_1_pipeline_1_1_engines_1_1_flow_elements_1_1_i_on_premise_aspect_engine.html" target="_top" xlink:title="Interface for an AspectEngine that processes evidence using one or more local data files.">
<polygon fill="none" stroke="black" points="707,-19.5 707,-38.5 846,-38.5 846,-19.5 707,-19.5"/>
<text text-anchor="middle" x="776.5" y="-26.5" font-family="Helvetica,sans-Serif" font-size="10.00">IOnPremiseAspectEngine</text>
</a>
</g>
</g>
<!-- Node7&#45;&gt;Node0 -->
<g id="edge7" class="edge">
<title>Node7&#45;&gt;Node0</title>
<path fill="none" stroke="midnightblue" d="M856.12,-36.92C864.81,-37.79 873.74,-38.69 882.67,-39.59"/>
<polygon fill="midnightblue" stroke="midnightblue" points="856.36,-33.43 846.06,-35.91 855.66,-40.39 856.36,-33.43"/>
</g>
<!-- Node8 -->
<g id="node9" class="node">
<title>Node8</title>
<g id="a_node9"><a xlink:href="interface_fifty_one_1_1_pipeline_1_1_engines_1_1_flow_elements_1_1_i_aspect_engine.html" target="_top" xlink:title="Interface representing 51Degrees on&#45;premise aspect engines.">
<polygon fill="none" stroke="black" points="551.5,-19.5 551.5,-38.5 637.5,-38.5 637.5,-19.5 551.5,-19.5"/>
<text text-anchor="middle" x="594.5" y="-26.5" font-family="Helvetica,sans-Serif" font-size="10.00">IAspectEngine</text>
</a>
</g>
</g>
<!-- Node8&#45;&gt;Node7 -->
<g id="edge8" class="edge">
<title>Node8&#45;&gt;Node7</title>
<path fill="none" stroke="midnightblue" d="M647.92,-29C666.32,-29 687.27,-29 706.8,-29"/>
<polygon fill="midnightblue" stroke="midnightblue" points="647.7,-25.5 637.7,-29 647.7,-32.5 647.7,-25.5"/>
</g>
<!-- Node10 -->
<g id="node11" class="node">
<title>Node10</title>
<g id="a_node11"><a xlink:href="class_examples_1_1_on_premise_engine_1_1_flow_elements_1_1_simple_on_premise_engine.html" target="_top" xlink:title="[class] [constructor]">
<polygon fill="none" stroke="black" points="1570,-66 1570,-96 1779,-96 1779,-66 1570,-66"/>
<text text-anchor="start" x="1578" y="-84" font-family="Helvetica,sans-Serif" font-size="10.00">Examples.OnPremiseEngine.</text>
<text text-anchor="middle" x="1674.5" y="-73" font-family="Helvetica,sans-Serif" font-size="10.00">FlowElements.SimpleOnPremiseEngine</text>
</a>
</g>
</g>
<!-- Node9&#45;&gt;Node10 -->
<g id="edge10" class="edge">
<title>Node9&#45;&gt;Node10</title>
<path fill="none" stroke="midnightblue" d="M1543.62,-81C1552.36,-81 1561.07,-81 1569.61,-81"/>
<polygon fill="midnightblue" stroke="midnightblue" points="1543.36,-77.5 1533.36,-81 1543.36,-84.5 1543.36,-77.5"/>
</g>
<!-- Node12 -->
<g id="node13" class="node">
<title>Node12</title>
<g id="a_node13"><a xlink:href="class_fifty_one_1_1_pipeline_1_1_engines_1_1_fifty_one_1_1_flow_elements_1_1_fifty_one_on_premise_aspect_engine_base.html" target="_top" xlink:title="51Degrees specific Engine base class.">
<polygon fill="none" stroke="black" points="1580.5,-0.5 1580.5,-41.5 1768.5,-41.5 1768.5,-0.5 1580.5,-0.5"/>
<text text-anchor="start" x="1588.5" y="-29.5" font-family="Helvetica,sans-Serif" font-size="10.00">FiftyOne.Pipeline.Engines.</text>
<text text-anchor="start" x="1588.5" y="-18.5" font-family="Helvetica,sans-Serif" font-size="10.00">FiftyOne.FlowElements.FiftyOne</text>
<text text-anchor="middle" x="1674.5" y="-7.5" font-family="Helvetica,sans-Serif" font-size="10.00">OnPremiseAspectEngineBase&lt; T &gt;</text>
</a>
</g>
</g>
<!-- Node11&#45;&gt;Node12 -->
<g id="edge12" class="edge">
<title>Node11&#45;&gt;Node12</title>
<path fill="none" stroke="midnightblue" d="M1533.48,-21C1549.3,-21 1565.21,-21 1580.34,-21"/>
<polygon fill="midnightblue" stroke="midnightblue" points="1533.11,-17.5 1523.11,-21 1533.1,-24.5 1533.11,-17.5"/>
</g>
</g>
</svg>
