<?xml version="1.0" encoding="UTF-8" standalone="no"?>
<!DOCTYPE svg PUBLIC "-//W3C//DTD SVG 1.1//EN"
 "http://www.w3.org/Graphics/SVG/1.1/DTD/svg11.dtd">
<!-- Generated by graphviz version 2.43.0 (0)
 -->
<!-- Title: FiftyOne.Pipeline.Engines.Trackers.TrackerBase&lt; TValue &gt; Pages: 1 -->
<svg width="265pt" height="378pt"
 viewBox="0.00 0.00 265.00 378.00" xmlns="http://www.w3.org/2000/svg" xmlns:xlink="http://www.w3.org/1999/xlink">
<g id="graph0" class="graph" transform="scale(1 1) rotate(0) translate(4 374)">
<title>FiftyOne.Pipeline.Engines.Trackers.TrackerBase&lt; TValue &gt;</title>
<!-- Node0 -->
<g id="node1" class="node">
<title>Node0</title>
<g id="a_node1"><a xlink:title="The abstract base class for trackers.">
<polygon fill="#bfbfbf" stroke="black" points="72.5,-146.5 72.5,-176.5 245.5,-176.5 245.5,-146.5 72.5,-146.5"/>
<text text-anchor="start" x="80.5" y="-164.5" font-family="Helvetica,sans-Serif" font-size="10.00">FiftyOne.Pipeline.Engines.</text>
<text text-anchor="middle" x="159" y="-153.5" font-family="Helvetica,sans-Serif" font-size="10.00">Trackers.TrackerBase&lt; TValue &gt;</text>
</a>
</g>
</g>
<!-- Node5 -->
<g id="node6" class="node">
<title>Node5</title>
<g id="a_node6"><a xlink:href="class_fifty_one_1_1_pipeline_1_1_engines_1_1_trackers_1_1_tracker_base.html" target="_top" xlink:title=" ">
<polygon fill="none" stroke="black" points="63.5,-68.5 63.5,-98.5 254.5,-98.5 254.5,-68.5 63.5,-68.5"/>
<text text-anchor="start" x="71.5" y="-86.5" font-family="Helvetica,sans-Serif" font-size="10.00">FiftyOne.Pipeline.Engines.</text>
<text text-anchor="middle" x="159" y="-75.5" font-family="Helvetica,sans-Serif" font-size="10.00">Trackers.TrackerBase&lt; DateTime?&gt;</text>
</a>
</g>
</g>
<!-- Node0&#45;&gt;Node5 -->
<g id="edge5" class="edge">
<title>Node0&#45;&gt;Node5</title>
<path fill="none" stroke="orange" stroke-dasharray="5,2" d="M159,-136.09C159,-123.76 159,-109.22 159,-98.73"/>
<polygon fill="orange" stroke="orange" points="155.5,-136.2 159,-146.2 162.5,-136.21 155.5,-136.2"/>
<text text-anchor="middle" x="197" y="-120" font-family="Helvetica,sans-Serif" font-size="10.00"> &lt; DateTime?&gt;</text>
</g>
<!-- Node1 -->
<g id="node2" class="node">
<title>Node1</title>
<g id="a_node2"><a xlink:href="class_fifty_one_1_1_pipeline_1_1_engines_1_1_caching_1_1_data_keyed_cache_base.html" target="_top" xlink:title="Abstract base class for caches that use IFlowData as the key.">
<polygon fill="none" stroke="black" points="17,-214.5 17,-244.5 141,-244.5 141,-214.5 17,-214.5"/>
<text text-anchor="start" x="25" y="-232.5" font-family="Helvetica,sans-Serif" font-size="10.00">DataKeyedCacheBase</text>
<text text-anchor="middle" x="79" y="-221.5" font-family="Helvetica,sans-Serif" font-size="10.00">&lt; TValue &gt;</text>
</a>
</g>
</g>
<!-- Node1&#45;&gt;Node0 -->
<g id="edge1" class="edge">
<title>Node1&#45;&gt;Node0</title>
<path fill="none" stroke="midnightblue" d="M104.08,-207.81C116.4,-197.64 130.93,-185.66 141.95,-176.57"/>
<polygon fill="midnightblue" stroke="midnightblue" points="101.85,-205.12 96.36,-214.18 106.3,-210.51 101.85,-205.12"/>
</g>
<!-- Node2 -->
<g id="node3" class="node">
<title>Node2</title>
<g id="a_node3"><a xlink:href="interface_fifty_one_1_1_pipeline_1_1_engines_1_1_caching_1_1_i_data_keyed_cache.html" target="_top" xlink:title="Represents a put cache where the key is a IFlowData instance.">
<polygon fill="none" stroke="black" points="0,-282.5 0,-301.5 158,-301.5 158,-282.5 0,-282.5"/>
<text text-anchor="middle" x="79" y="-289.5" font-family="Helvetica,sans-Serif" font-size="10.00">IDataKeyedCache&lt; TValue &gt;</text>
</a>
</g>
</g>
<!-- Node2&#45;&gt;Node1 -->
<g id="edge2" class="edge">
<title>Node2&#45;&gt;Node1</title>
<path fill="none" stroke="midnightblue" d="M79,-272.22C79,-263.36 79,-252.96 79,-244.76"/>
<polygon fill="midnightblue" stroke="midnightblue" points="75.5,-272.33 79,-282.33 82.5,-272.33 75.5,-272.33"/>
</g>
<!-- Node3 -->
<g id="node4" class="node">
<title>Node3</title>
<g id="a_node4"><a xlink:title=" ">
<polygon fill="none" stroke="#bfbfbf" points="14.5,-339.5 14.5,-369.5 143.5,-369.5 143.5,-339.5 14.5,-339.5"/>
<text text-anchor="start" x="22.5" y="-357.5" font-family="Helvetica,sans-Serif" font-size="10.00">IPutCache&lt; IFlowData,</text>
<text text-anchor="middle" x="79" y="-346.5" font-family="Helvetica,sans-Serif" font-size="10.00"> TValue &gt;</text>
</a>
</g>
</g>
<!-- Node3&#45;&gt;Node2 -->
<g id="edge3" class="edge">
<title>Node3&#45;&gt;Node2</title>
<path fill="none" stroke="midnightblue" d="M79,-329.35C79,-319.51 79,-308.78 79,-301.54"/>
<polygon fill="midnightblue" stroke="midnightblue" points="75.5,-329.47 79,-339.47 82.5,-329.47 75.5,-329.47"/>
</g>
<!-- Node4 -->
<g id="node5" class="node">
<title>Node4</title>
<g id="a_node5"><a xlink:href="interface_fifty_one_1_1_pipeline_1_1_engines_1_1_trackers_1_1_i_tracker.html" target="_top" xlink:title=" ">
<polygon fill="none" stroke="black" points="159,-220 159,-239 213,-239 213,-220 159,-220"/>
<text text-anchor="middle" x="186" y="-227" font-family="Helvetica,sans-Serif" font-size="10.00">ITracker</text>
</a>
</g>
</g>
<!-- Node4&#45;&gt;Node0 -->
<g id="edge4" class="edge">
<title>Node4&#45;&gt;Node0</title>
<path fill="none" stroke="midnightblue" d="M178.57,-210.34C174.23,-199.73 168.83,-186.53 164.8,-176.68"/>
<polygon fill="midnightblue" stroke="midnightblue" points="175.44,-211.94 182.47,-219.87 181.92,-209.29 175.44,-211.94"/>
</g>
<!-- Node6 -->
<g id="node7" class="node">
<title>Node6</title>
<g id="a_node7"><a xlink:href="class_fifty_one_1_1_pipeline_1_1_engines_1_1_fifty_one_1_1_trackers_1_1_share_usage_tracker.html" target="_top" xlink:title="A tracker used by share usage to attempt to avoid repeatedly sending data relating to the same user s...">
<polygon fill="none" stroke="black" points="61,-0.5 61,-30.5 257,-30.5 257,-0.5 61,-0.5"/>
<text text-anchor="start" x="69" y="-18.5" font-family="Helvetica,sans-Serif" font-size="10.00">FiftyOne.Pipeline.Engines.</text>
<text text-anchor="middle" x="159" y="-7.5" font-family="Helvetica,sans-Serif" font-size="10.00">FiftyOne.Trackers.ShareUsageTracker</text>
</a>
</g>
</g>
<!-- Node5&#45;&gt;Node6 -->
<g id="edge6" class="edge">
<title>Node5&#45;&gt;Node6</title>
<path fill="none" stroke="midnightblue" d="M159,-58.03C159,-48.86 159,-38.74 159,-30.79"/>
<polygon fill="midnightblue" stroke="midnightblue" points="155.5,-58.18 159,-68.18 162.5,-58.18 155.5,-58.18"/>
</g>
</g>
</svg>
