<?xml version="1.0" encoding="UTF-8" standalone="no"?>
<!DOCTYPE svg PUBLIC "-//W3C//DTD SVG 1.1//EN"
 "http://www.w3.org/Graphics/SVG/1.1/DTD/svg11.dtd">
<!-- Generated by graphviz version 2.43.0 (0)
 -->
<!-- Title: FiftyOne.Pipeline.Engines.Data.AspectPropertyValue&lt; T &gt; Pages: 1 -->
<svg width="181pt" height="174pt"
 viewBox="0.00 0.00 181.00 174.00" xmlns="http://www.w3.org/2000/svg" xmlns:xlink="http://www.w3.org/1999/xlink">
<g id="graph0" class="graph" transform="scale(1 1) rotate(0) translate(4 170)">
<title>FiftyOne.Pipeline.Engines.Data.AspectPropertyValue&lt; T &gt;</title>
<!-- Node0 -->
<g id="node1" class="node">
<title>Node0</title>
<g id="a_node1"><a xlink:title="This class can be used where engines have a property that may be populated and may not.">
<polygon fill="#bfbfbf" stroke="black" points="0,-0.5 0,-30.5 173,-30.5 173,-0.5 0,-0.5"/>
<text text-anchor="start" x="8" y="-18.5" font-family="Helvetica,sans-Serif" font-size="10.00">FiftyOne.Pipeline.Engines.</text>
<text text-anchor="middle" x="86.5" y="-7.5" font-family="Helvetica,sans-Serif" font-size="10.00">Data.AspectPropertyValue&lt; T &gt;</text>
</a>
</g>
</g>
<!-- Node1 -->
<g id="node2" class="node">
<title>Node1</title>
<g id="a_node2"><a xlink:href="interface_fifty_one_1_1_pipeline_1_1_engines_1_1_data_1_1_i_aspect_property_value.html" target="_top" xlink:title=" ">
<polygon fill="none" stroke="black" points="12,-68.5 12,-87.5 161,-87.5 161,-68.5 12,-68.5"/>
<text text-anchor="middle" x="86.5" y="-75.5" font-family="Helvetica,sans-Serif" font-size="10.00">IAspectPropertyValue&lt; T &gt;</text>
</a>
</g>
</g>
<!-- Node1&#45;&gt;Node0 -->
<g id="edge1" class="edge">
<title>Node1&#45;&gt;Node0</title>
<path fill="none" stroke="midnightblue" d="M86.5,-58.22C86.5,-49.36 86.5,-38.96 86.5,-30.76"/>
<polygon fill="midnightblue" stroke="midnightblue" points="83,-58.33 86.5,-68.33 90,-58.33 83,-58.33"/>
</g>
<!-- Node2 -->
<g id="node3" class="node">
<title>Node2</title>
<g id="a_node3"><a xlink:href="interface_fifty_one_1_1_pipeline_1_1_engines_1_1_data_1_1_i_aspect_property_value.html" target="_top" xlink:title="See the Specification">
<polygon fill="none" stroke="black" points="13,-135.5 13,-165.5 160,-165.5 160,-135.5 13,-135.5"/>
<text text-anchor="start" x="21" y="-153.5" font-family="Helvetica,sans-Serif" font-size="10.00">FiftyOne.Pipeline.Engines.</text>
<text text-anchor="middle" x="86.5" y="-142.5" font-family="Helvetica,sans-Serif" font-size="10.00">Data.IAspectPropertyValue</text>
</a>
</g>
</g>
<!-- Node2&#45;&gt;Node1 -->
<g id="edge2" class="edge">
<title>Node2&#45;&gt;Node1</title>
<path fill="none" stroke="orange" stroke-dasharray="5,2" d="M86.5,-125.09C86.5,-112.21 86.5,-97.2 86.5,-87.89"/>
<polygon fill="orange" stroke="orange" points="83,-125.23 86.5,-135.23 90,-125.23 83,-125.23"/>
<text text-anchor="middle" x="102.5" y="-109" font-family="Helvetica,sans-Serif" font-size="10.00"> &lt; T &gt;</text>
</g>
</g>
</svg>
