<?xml version="1.0" encoding="UTF-8" standalone="no"?>
<!DOCTYPE svg PUBLIC "-//W3C//DTD SVG 1.1//EN"
 "http://www.w3.org/Graphics/SVG/1.1/DTD/svg11.dtd">
<!-- Generated by graphviz version 2.43.0 (0)
 -->
<!-- Title: FiftyOne.Pipeline.Engines.FiftyOne.FlowElements.SetHeadersElement Pages: 1 -->
<svg width="1412pt" height="137pt"
 viewBox="0.00 0.00 1412.00 136.50" xmlns="http://www.w3.org/2000/svg" xmlns:xlink="http://www.w3.org/1999/xlink">
<g id="graph0" class="graph" transform="scale(1 1) rotate(0) translate(4 132.5)">
<title>FiftyOne.Pipeline.Engines.FiftyOne.FlowElements.SetHeadersElement</title>
<!-- Node7 -->
<g id="node1" class="node">
<title>Node7</title>
<g id="a_node1"><a xlink:title="This element is used to determine the values for HTTP headers that other elements in the pipeline wan...">
<polygon fill="#bfbfbf" stroke="black" points="1216,-39 1216,-80 1404,-80 1404,-39 1216,-39"/>
<text text-anchor="start" x="1224" y="-68" font-family="Helvetica,sans-Serif" font-size="10.00">FiftyOne.Pipeline.Engines.</text>
<text text-anchor="start" x="1224" y="-57" font-family="Helvetica,sans-Serif" font-size="10.00">FiftyOne.FlowElements.SetHeaders</text>
<text text-anchor="middle" x="1310" y="-46" font-family="Helvetica,sans-Serif" font-size="10.00">Element</text>
</a>
</g>
</g>
<!-- Node8 -->
<g id="node2" class="node">
<title>Node8</title>
<g id="a_node2"><a xlink:href="class_fifty_one_1_1_pipeline_1_1_core_1_1_flow_elements_1_1_flow_element_base.html" target="_top" xlink:title=" ">
<polygon fill="none" stroke="black" points="899,-90.5 899,-120.5 1089,-120.5 1089,-90.5 899,-90.5"/>
<text text-anchor="start" x="907" y="-108.5" font-family="Helvetica,sans-Serif" font-size="10.00">FlowElementBase&lt; ISetHeaders</text>
<text text-anchor="middle" x="994" y="-97.5" font-family="Helvetica,sans-Serif" font-size="10.00">Data, IElementPropertyMetaData &gt;</text>
</a>
</g>
</g>
<!-- Node8&#45;&gt;Node7 -->
<g id="edge1" class="edge">
<title>Node8&#45;&gt;Node7</title>
<path fill="none" stroke="midnightblue" d="M1099.2,-90.23C1136.92,-84.71 1179.24,-78.51 1215.94,-73.13"/>
<polygon fill="midnightblue" stroke="midnightblue" points="1098.6,-86.79 1089.21,-91.7 1099.61,-93.71 1098.6,-86.79"/>
</g>
<!-- Node9 -->
<g id="node3" class="node">
<title>Node9</title>
<g id="a_node3"><a xlink:href="class_fifty_one_1_1_pipeline_1_1_core_1_1_flow_elements_1_1_flow_element_base.html" target="_top" xlink:title="Abstract base class for Flow Elements.">
<polygon fill="none" stroke="black" points="562,-87 562,-128 715,-128 715,-87 562,-87"/>
<text text-anchor="start" x="570" y="-116" font-family="Helvetica,sans-Serif" font-size="10.00">FiftyOne.Pipeline.Core.Flow</text>
<text text-anchor="start" x="570" y="-105" font-family="Helvetica,sans-Serif" font-size="10.00">Elements.FlowElementBase</text>
<text text-anchor="middle" x="638.5" y="-94" font-family="Helvetica,sans-Serif" font-size="10.00">&lt; T, TMeta &gt;</text>
</a>
</g>
</g>
<!-- Node9&#45;&gt;Node8 -->
<g id="edge2" class="edge">
<title>Node9&#45;&gt;Node8</title>
<path fill="none" stroke="orange" stroke-dasharray="5,2" d="M725.61,-107.01C777.98,-106.72 844.9,-106.34 898.7,-106.03"/>
<polygon fill="orange" stroke="orange" points="725.31,-103.51 715.33,-107.07 725.35,-110.51 725.31,-103.51"/>
<text text-anchor="start" x="733" y="-120.5" font-family="Helvetica,sans-Serif" font-size="10.00"> &lt; ISetHeadersData,</text>
<text text-anchor="middle" x="807" y="-109.5" font-family="Helvetica,sans-Serif" font-size="10.00"> IElementPropertyMetaData &gt;</text>
</g>
<!-- Node10 -->
<g id="node4" class="node">
<title>Node10</title>
<g id="a_node4"><a xlink:href="interface_fifty_one_1_1_pipeline_1_1_core_1_1_flow_elements_1_1_i_flow_element.html" target="_top" xlink:title=" ">
<polygon fill="none" stroke="black" points="355.5,-97 355.5,-116 504.5,-116 504.5,-97 355.5,-97"/>
<text text-anchor="middle" x="430" y="-104" font-family="Helvetica,sans-Serif" font-size="10.00">IFlowElement&lt; T, TMeta &gt;</text>
</a>
</g>
</g>
<!-- Node10&#45;&gt;Node9 -->
<g id="edge3" class="edge">
<title>Node10&#45;&gt;Node9</title>
<path fill="none" stroke="midnightblue" d="M514.79,-106.91C530.33,-106.98 546.48,-107.06 561.76,-107.13"/>
<polygon fill="midnightblue" stroke="midnightblue" points="514.69,-103.41 504.68,-106.86 514.66,-110.41 514.69,-103.41"/>
</g>
<!-- Node11 -->
<g id="node5" class="node">
<title>Node11</title>
<g id="a_node5"><a xlink:href="interface_fifty_one_1_1_pipeline_1_1_core_1_1_flow_elements_1_1_i_flow_element.html" target="_top" xlink:title="IFlowElement is the basic building block of a pipeline.">
<polygon fill="none" stroke="black" points="0,-68.5 0,-98.5 151,-98.5 151,-68.5 0,-68.5"/>
<text text-anchor="start" x="8" y="-86.5" font-family="Helvetica,sans-Serif" font-size="10.00">FiftyOne.Pipeline.Core.Flow</text>
<text text-anchor="middle" x="75.5" y="-75.5" font-family="Helvetica,sans-Serif" font-size="10.00">Elements.IFlowElement</text>
</a>
</g>
</g>
<!-- Node11&#45;&gt;Node10 -->
<g id="edge4" class="edge">
<title>Node11&#45;&gt;Node10</title>
<path fill="none" stroke="orange" stroke-dasharray="5,2" d="M161.33,-89.03C220.5,-92.9 298.68,-98 355.26,-101.69"/>
<polygon fill="orange" stroke="orange" points="161.46,-85.54 151.26,-88.38 161.01,-92.52 161.46,-85.54"/>
<text text-anchor="middle" x="243" y="-101.5" font-family="Helvetica,sans-Serif" font-size="10.00"> &lt; T, TMeta &gt;</text>
</g>
<!-- Node13 -->
<g id="node7" class="node">
<title>Node13</title>
<g id="a_node7"><a xlink:href="interface_fifty_one_1_1_pipeline_1_1_core_1_1_flow_elements_1_1_i_flow_element.html" target="_top" xlink:title=" ">
<polygon fill="none" stroke="black" points="335,-45.5 335,-75.5 525,-75.5 525,-45.5 335,-45.5"/>
<text text-anchor="start" x="343" y="-63.5" font-family="Helvetica,sans-Serif" font-size="10.00">IFlowElement&lt; ISetHeaders</text>
<text text-anchor="middle" x="430" y="-52.5" font-family="Helvetica,sans-Serif" font-size="10.00">Data, IElementPropertyMetaData &gt;</text>
</a>
</g>
</g>
<!-- Node11&#45;&gt;Node13 -->
<g id="edge7" class="edge">
<title>Node11&#45;&gt;Node13</title>
<path fill="none" stroke="orange" stroke-dasharray="5,2" d="M148.15,-66.53C155.16,-65.31 162.2,-64.27 169,-63.5 223.73,-57.33 285.34,-56.36 334.85,-57.04"/>
<polygon fill="orange" stroke="orange" points="147.11,-63.16 137.91,-68.42 148.38,-70.04 147.11,-63.16"/>
<text text-anchor="start" x="169" y="-77.5" font-family="Helvetica,sans-Serif" font-size="10.00"> &lt; ISetHeadersData,</text>
<text text-anchor="middle" x="243" y="-66.5" font-family="Helvetica,sans-Serif" font-size="10.00"> IElementPropertyMetaData &gt;</text>
</g>
<!-- Node12 -->
<g id="node6" class="node">
<title>Node12</title>
<g id="a_node6"><a xlink:href="interface_fifty_one_1_1_pipeline_1_1_engines_1_1_fifty_one_1_1_flow_elements_1_1_i_set_headers_element.html" target="_top" xlink:title="An IFlowElement that collates responses from all engines that want to set headers in the HTTP respons...">
<polygon fill="none" stroke="black" points="749,-50 749,-69 865,-69 865,-50 749,-50"/>
<text text-anchor="middle" x="807" y="-57" font-family="Helvetica,sans-Serif" font-size="10.00">ISetHeadersElement</text>
</a>
</g>
</g>
<!-- Node12&#45;&gt;Node7 -->
<g id="edge5" class="edge">
<title>Node12&#45;&gt;Node7</title>
<path fill="none" stroke="midnightblue" d="M875.57,-59.5C963.3,-59.5 1116.85,-59.5 1215.66,-59.5"/>
<polygon fill="midnightblue" stroke="midnightblue" points="875.47,-56 865.47,-59.5 875.47,-63 875.47,-56"/>
</g>
<!-- Node13&#45;&gt;Node12 -->
<g id="edge6" class="edge">
<title>Node13&#45;&gt;Node12</title>
<path fill="none" stroke="midnightblue" d="M535.19,-60.22C604.28,-60.04 692.31,-59.8 748.92,-59.65"/>
<polygon fill="midnightblue" stroke="midnightblue" points="535.13,-56.72 525.14,-60.25 535.15,-63.72 535.13,-56.72"/>
</g>
<!-- Node14 -->
<g id="node8" class="node">
<title>Node14</title>
<g id="a_node8"><a xlink:href="interface_fifty_one_1_1_pipeline_1_1_core_1_1_data_1_1_i_evidence_key_filter.html" target="_top" xlink:title="Represents an object that filters evidence key names based on some criteria.">
<polygon fill="none" stroke="black" points="917,-0.5 917,-30.5 1071,-30.5 1071,-0.5 917,-0.5"/>
<text text-anchor="start" x="925" y="-18.5" font-family="Helvetica,sans-Serif" font-size="10.00">FiftyOne.Pipeline.Core.Data.</text>
<text text-anchor="middle" x="994" y="-7.5" font-family="Helvetica,sans-Serif" font-size="10.00">IEvidenceKeyFilter</text>
</a>
</g>
</g>
<!-- Node14&#45;&gt;Node7 -->
<g id="edge8" class="edge">
<title>Node14&#45;&gt;Node7</title>
<path fill="none" stroke="#9a32cd" stroke-dasharray="5,2" d="M1081.47,-21.13C1117.61,-24.13 1159.97,-28.46 1198,-34.5 1206.1,-35.79 1214.48,-37.31 1222.86,-38.96"/>
<polygon fill="#9a32cd" stroke="#9a32cd" points="1081.69,-17.64 1071.44,-20.33 1081.13,-24.62 1081.69,-17.64"/>
<text text-anchor="middle" x="1152.5" y="-37.5" font-family="Helvetica,sans-Serif" font-size="10.00"> EvidenceKeyFilter</text>
</g>
</g>
</svg>
