<?xml version="1.0" encoding="UTF-8" standalone="no"?>
<!DOCTYPE svg PUBLIC "-//W3C//DTD SVG 1.1//EN"
 "http://www.w3.org/Graphics/SVG/1.1/DTD/svg11.dtd">
<!-- Generated by graphviz version 2.43.0 (0)
 -->
<!-- Title: FiftyOne.Pipeline.Core.FlowElements.PipelineBuilder Pages: 1 -->
<svg width="362pt" height="185pt"
 viewBox="0.00 0.00 362.00 185.00" xmlns="http://www.w3.org/2000/svg" xmlns:xlink="http://www.w3.org/1999/xlink">
<g id="graph0" class="graph" transform="scale(1 1) rotate(0) translate(4 181)">
<title>FiftyOne.Pipeline.Core.FlowElements.PipelineBuilder</title>
<!-- Node5 -->
<g id="node1" class="node">
<title>Node5</title>
<g id="a_node1"><a xlink:title="Default pipeline builder.">
<polygon fill="#bfbfbf" stroke="black" points="103,-0.5 103,-30.5 254,-30.5 254,-0.5 103,-0.5"/>
<text text-anchor="start" x="111" y="-18.5" font-family="Helvetica,sans-Serif" font-size="10.00">FiftyOne.Pipeline.Core.Flow</text>
<text text-anchor="middle" x="178.5" y="-7.5" font-family="Helvetica,sans-Serif" font-size="10.00">Elements.PipelineBuilder</text>
</a>
</g>
</g>
<!-- Node6 -->
<g id="node2" class="node">
<title>Node6</title>
<g id="a_node2"><a xlink:href="class_fifty_one_1_1_pipeline_1_1_core_1_1_flow_elements_1_1_pipeline_builder_base.html" target="_top" xlink:title=" ">
<polygon fill="none" stroke="black" points="38.5,-68.5 38.5,-98.5 152.5,-98.5 152.5,-68.5 38.5,-68.5"/>
<text text-anchor="start" x="46.5" y="-86.5" font-family="Helvetica,sans-Serif" font-size="10.00">PipelineBuilderBase</text>
<text text-anchor="middle" x="95.5" y="-75.5" font-family="Helvetica,sans-Serif" font-size="10.00">&lt; PipelineBuilder &gt;</text>
</a>
</g>
</g>
<!-- Node6&#45;&gt;Node5 -->
<g id="edge1" class="edge">
<title>Node6&#45;&gt;Node5</title>
<path fill="none" stroke="midnightblue" d="M121.52,-61.81C134.31,-51.64 149.38,-39.66 160.81,-30.57"/>
<polygon fill="midnightblue" stroke="midnightblue" points="119.16,-59.22 113.51,-68.18 123.52,-64.69 119.16,-59.22"/>
</g>
<!-- Node7 -->
<g id="node3" class="node">
<title>Node7</title>
<g id="a_node3"><a xlink:href="class_fifty_one_1_1_pipeline_1_1_core_1_1_flow_elements_1_1_pipeline_builder_base.html" target="_top" xlink:title="Abstract pipeline builder base class See the Specification">
<polygon fill="none" stroke="black" points="0,-146.5 0,-176.5 191,-176.5 191,-146.5 0,-146.5"/>
<text text-anchor="start" x="8" y="-164.5" font-family="Helvetica,sans-Serif" font-size="10.00">FiftyOne.Pipeline.Core.Flow</text>
<text text-anchor="middle" x="95.5" y="-153.5" font-family="Helvetica,sans-Serif" font-size="10.00">Elements.PipelineBuilderBase&lt; T &gt;</text>
</a>
</g>
</g>
<!-- Node7&#45;&gt;Node6 -->
<g id="edge2" class="edge">
<title>Node7&#45;&gt;Node6</title>
<path fill="none" stroke="orange" stroke-dasharray="5,2" d="M95.5,-136.09C95.5,-123.76 95.5,-109.22 95.5,-98.73"/>
<polygon fill="orange" stroke="orange" points="92,-136.2 95.5,-146.2 99,-136.21 92,-136.2"/>
<text text-anchor="middle" x="145.5" y="-120" font-family="Helvetica,sans-Serif" font-size="10.00"> &lt; PipelineBuilder &gt;</text>
</g>
<!-- Node8 -->
<g id="node4" class="node">
<title>Node8</title>
<g id="a_node4"><a xlink:href="interface_fifty_one_1_1_pipeline_1_1_core_1_1_flow_elements_1_1_i_pipeline_builder_from_configuration.html" target="_top" xlink:title="Pipeline builders implementing this interface are capable of building a IPipeline based on a supplied...">
<polygon fill="none" stroke="black" points="171,-74 171,-93 354,-93 354,-74 171,-74"/>
<text text-anchor="middle" x="262.5" y="-81" font-family="Helvetica,sans-Serif" font-size="10.00">IPipelineBuilderFromConfiguration</text>
</a>
</g>
</g>
<!-- Node8&#45;&gt;Node5 -->
<g id="edge3" class="edge">
<title>Node8&#45;&gt;Node5</title>
<path fill="none" stroke="midnightblue" d="M243.49,-67.57C229.43,-56.51 210.38,-41.55 196.55,-30.68"/>
<polygon fill="midnightblue" stroke="midnightblue" points="241.49,-70.45 251.52,-73.87 245.82,-64.94 241.49,-70.45"/>
</g>
</g>
</svg>
