<?xml version="1.0" encoding="UTF-8" standalone="no"?>
<!DOCTYPE svg PUBLIC "-//W3C//DTD SVG 1.1//EN"
 "http://www.w3.org/Graphics/SVG/1.1/DTD/svg11.dtd">
<!-- Generated by graphviz version 2.43.0 (0)
 -->
<!-- Title: FiftyOne.Pipeline.Engines.FlowElements.OnPremiseAspectEngineBase&lt; T, TMeta &gt; Pages: 1 -->
<svg width="462pt" height="342pt"
 viewBox="0.00 0.00 462.00 342.00" xmlns="http://www.w3.org/2000/svg" xmlns:xlink="http://www.w3.org/1999/xlink">
<g id="graph0" class="graph" transform="scale(1 1) rotate(0) translate(4 338)">
<title>FiftyOne.Pipeline.Engines.FlowElements.OnPremiseAspectEngineBase&lt; T, TMeta &gt;</title>
<!-- Node13 -->
<g id="node1" class="node">
<title>Node13</title>
<g id="a_node1"><a xlink:title="Base class for 51Degrees on&#45;premise aspect engines.">
<polygon fill="#bfbfbf" stroke="black" points="204.5,-0.5 204.5,-41.5 412.5,-41.5 412.5,-0.5 204.5,-0.5"/>
<text text-anchor="start" x="212.5" y="-29.5" font-family="Helvetica,sans-Serif" font-size="10.00">FiftyOne.Pipeline.Engines.</text>
<text text-anchor="start" x="212.5" y="-18.5" font-family="Helvetica,sans-Serif" font-size="10.00">FlowElements.OnPremiseAspectEngine</text>
<text text-anchor="middle" x="308.5" y="-7.5" font-family="Helvetica,sans-Serif" font-size="10.00">Base&lt; T, TMeta &gt;</text>
</a>
</g>
</g>
<!-- Node14 -->
<g id="node2" class="node">
<title>Node14</title>
<g id="a_node2"><a xlink:href="class_fifty_one_1_1_pipeline_1_1_engines_1_1_flow_elements_1_1_aspect_engine_base.html" target="_top" xlink:title="Base class for 51Degrees aspect engines.">
<polygon fill="none" stroke="black" points="170,-79.5 170,-109.5 297,-109.5 297,-79.5 170,-79.5"/>
<text text-anchor="start" x="178" y="-97.5" font-family="Helvetica,sans-Serif" font-size="10.00">AspectEngineBase&lt; T,</text>
<text text-anchor="middle" x="233.5" y="-86.5" font-family="Helvetica,sans-Serif" font-size="10.00"> TMeta &gt;</text>
</a>
</g>
</g>
<!-- Node14&#45;&gt;Node13 -->
<g id="edge1" class="edge">
<title>Node14&#45;&gt;Node13</title>
<path fill="none" stroke="midnightblue" d="M255.72,-72.31C265.96,-62.56 278.03,-51.05 288.04,-41.51"/>
<polygon fill="midnightblue" stroke="midnightblue" points="253.14,-69.94 248.32,-79.37 257.97,-75.01 253.14,-69.94"/>
</g>
<!-- Node15 -->
<g id="node3" class="node">
<title>Node15</title>
<g id="a_node3"><a xlink:href="class_fifty_one_1_1_pipeline_1_1_core_1_1_flow_elements_1_1_flow_element_base.html" target="_top" xlink:title="Abstract base class for Flow Elements.">
<polygon fill="none" stroke="black" points="22,-147.5 22,-177.5 147,-177.5 147,-147.5 22,-147.5"/>
<text text-anchor="start" x="30" y="-165.5" font-family="Helvetica,sans-Serif" font-size="10.00">FlowElementBase&lt; T,</text>
<text text-anchor="middle" x="84.5" y="-154.5" font-family="Helvetica,sans-Serif" font-size="10.00"> TMeta &gt;</text>
</a>
</g>
</g>
<!-- Node15&#45;&gt;Node14 -->
<g id="edge2" class="edge">
<title>Node15&#45;&gt;Node14</title>
<path fill="none" stroke="midnightblue" d="M125.7,-143.25C149.76,-132.59 179.65,-119.35 201.84,-109.52"/>
<polygon fill="midnightblue" stroke="midnightblue" points="124.19,-140.09 116.46,-147.34 127.02,-146.49 124.19,-140.09"/>
</g>
<!-- Node16 -->
<g id="node4" class="node">
<title>Node16</title>
<g id="a_node4"><a xlink:href="interface_fifty_one_1_1_pipeline_1_1_core_1_1_flow_elements_1_1_i_flow_element.html" target="_top" xlink:title=" ">
<polygon fill="none" stroke="black" points="1,-231 1,-250 150,-250 150,-231 1,-231"/>
<text text-anchor="middle" x="75.5" y="-238" font-family="Helvetica,sans-Serif" font-size="10.00">IFlowElement&lt; T, TMeta &gt;</text>
</a>
</g>
</g>
<!-- Node16&#45;&gt;Node15 -->
<g id="edge3" class="edge">
<title>Node16&#45;&gt;Node15</title>
<path fill="none" stroke="midnightblue" d="M77.72,-220.78C79.3,-207.4 81.4,-189.69 82.84,-177.52"/>
<polygon fill="midnightblue" stroke="midnightblue" points="74.23,-220.44 76.53,-230.78 81.18,-221.26 74.23,-220.44"/>
</g>
<!-- Node17 -->
<g id="node5" class="node">
<title>Node17</title>
<g id="a_node5"><a xlink:href="interface_fifty_one_1_1_pipeline_1_1_core_1_1_flow_elements_1_1_i_flow_element.html" target="_top" xlink:title="IFlowElement is the basic building block of a pipeline.">
<polygon fill="none" stroke="black" points="0,-303.5 0,-333.5 151,-333.5 151,-303.5 0,-303.5"/>
<text text-anchor="start" x="8" y="-321.5" font-family="Helvetica,sans-Serif" font-size="10.00">FiftyOne.Pipeline.Core.Flow</text>
<text text-anchor="middle" x="75.5" y="-310.5" font-family="Helvetica,sans-Serif" font-size="10.00">Elements.IFlowElement</text>
</a>
</g>
</g>
<!-- Node17&#45;&gt;Node16 -->
<g id="edge4" class="edge">
<title>Node17&#45;&gt;Node16</title>
<path fill="none" stroke="orange" stroke-dasharray="5,2" d="M75.5,-293.17C75.5,-278.4 75.5,-260.45 75.5,-250.06"/>
<polygon fill="orange" stroke="orange" points="72,-293.2 75.5,-303.2 79,-293.21 72,-293.2"/>
<text text-anchor="middle" x="110" y="-277" font-family="Helvetica,sans-Serif" font-size="10.00"> &lt; T, TMeta &gt;</text>
</g>
<!-- Node18 -->
<g id="node6" class="node">
<title>Node18</title>
<g id="a_node6"><a xlink:href="interface_fifty_one_1_1_pipeline_1_1_engines_1_1_flow_elements_1_1_i_aspect_engine.html" target="_top" xlink:title=" ">
<polygon fill="none" stroke="black" points="169,-153 169,-172 320,-172 320,-153 169,-153"/>
<text text-anchor="middle" x="244.5" y="-160" font-family="Helvetica,sans-Serif" font-size="10.00">IAspectEngine&lt; T, TMeta &gt;</text>
</a>
</g>
</g>
<!-- Node18&#45;&gt;Node14 -->
<g id="edge5" class="edge">
<title>Node18&#45;&gt;Node14</title>
<path fill="none" stroke="midnightblue" d="M241.36,-142.67C239.61,-132.18 237.47,-119.32 235.86,-109.68"/>
<polygon fill="midnightblue" stroke="midnightblue" points="237.97,-143.58 243.06,-152.87 244.87,-142.43 237.97,-143.58"/>
</g>
<!-- Node19 -->
<g id="node7" class="node">
<title>Node19</title>
<g id="a_node7"><a xlink:href="interface_fifty_one_1_1_pipeline_1_1_engines_1_1_flow_elements_1_1_i_aspect_engine.html" target="_top" xlink:title="Interface representing 51Degrees on&#45;premise aspect engines.">
<polygon fill="none" stroke="black" points="167.5,-225.5 167.5,-255.5 325.5,-255.5 325.5,-225.5 167.5,-225.5"/>
<text text-anchor="start" x="175.5" y="-243.5" font-family="Helvetica,sans-Serif" font-size="10.00">FiftyOne.Pipeline.Engines.</text>
<text text-anchor="middle" x="246.5" y="-232.5" font-family="Helvetica,sans-Serif" font-size="10.00">FlowElements.IAspectEngine</text>
</a>
</g>
</g>
<!-- Node19&#45;&gt;Node18 -->
<g id="edge6" class="edge">
<title>Node19&#45;&gt;Node18</title>
<path fill="none" stroke="orange" stroke-dasharray="5,2" d="M245.86,-215.17C245.47,-200.4 245,-182.45 244.73,-172.06"/>
<polygon fill="orange" stroke="orange" points="242.36,-215.3 246.12,-225.2 249.36,-215.12 242.36,-215.3"/>
<text text-anchor="middle" x="281" y="-199" font-family="Helvetica,sans-Serif" font-size="10.00"> &lt; T, TMeta &gt;</text>
</g>
<!-- Node20 -->
<g id="node8" class="node">
<title>Node20</title>
<g id="a_node8"><a xlink:href="interface_fifty_one_1_1_pipeline_1_1_engines_1_1_flow_elements_1_1_i_on_premise_aspect_engine.html" target="_top" xlink:title="Interface for an AspectEngine that processes evidence using one or more local data files.">
<polygon fill="none" stroke="black" points="315,-85 315,-104 454,-104 454,-85 315,-85"/>
<text text-anchor="middle" x="384.5" y="-92" font-family="Helvetica,sans-Serif" font-size="10.00">IOnPremiseAspectEngine</text>
</a>
</g>
</g>
<!-- Node20&#45;&gt;Node13 -->
<g id="edge7" class="edge">
<title>Node20&#45;&gt;Node13</title>
<path fill="none" stroke="midnightblue" d="M367.7,-77.7C356.41,-67.07 341.44,-52.99 329.38,-41.64"/>
<polygon fill="midnightblue" stroke="midnightblue" points="365.5,-80.43 375.18,-84.73 370.3,-75.33 365.5,-80.43"/>
</g>
<!-- Node21 -->
<g id="node9" class="node">
<title>Node21</title>
<g id="a_node9"><a xlink:href="interface_fifty_one_1_1_pipeline_1_1_engines_1_1_flow_elements_1_1_i_aspect_engine.html" target="_top" xlink:title="Interface representing 51Degrees on&#45;premise aspect engines.">
<polygon fill="none" stroke="black" points="341.5,-153 341.5,-172 427.5,-172 427.5,-153 341.5,-153"/>
<text text-anchor="middle" x="384.5" y="-160" font-family="Helvetica,sans-Serif" font-size="10.00">IAspectEngine</text>
</a>
</g>
</g>
<!-- Node21&#45;&gt;Node20 -->
<g id="edge8" class="edge">
<title>Node21&#45;&gt;Node20</title>
<path fill="none" stroke="midnightblue" d="M384.5,-142.54C384.5,-129.97 384.5,-114.06 384.5,-104.34"/>
<polygon fill="midnightblue" stroke="midnightblue" points="381,-142.87 384.5,-152.87 388,-142.87 381,-142.87"/>
</g>
</g>
</svg>
