<?xml version="1.0" encoding="UTF-8" standalone="no"?>
<!DOCTYPE svg PUBLIC "-//W3C//DTD SVG 1.1//EN"
 "http://www.w3.org/Graphics/SVG/1.1/DTD/svg11.dtd">
<!-- Generated by graphviz version 2.43.0 (0)
 -->
<!-- Title: FiftyOne.Pipeline.Core.Data.ElementPropertyMetaData Pages: 1 -->
<svg width="173pt" height="162pt"
 viewBox="0.00 0.00 173.00 162.00" xmlns="http://www.w3.org/2000/svg" xmlns:xlink="http://www.w3.org/1999/xlink">
<g id="graph0" class="graph" transform="scale(1 1) rotate(0) translate(4 158)">
<title>FiftyOne.Pipeline.Core.Data.ElementPropertyMetaData</title>
<!-- Node0 -->
<g id="node1" class="node">
<title>Node0</title>
<g id="a_node1"><a xlink:title="Meta&#45;data relating to properties that are populated by Flow Elements.">
<polygon fill="#bfbfbf" stroke="black" points="5.5,-67.5 5.5,-97.5 159.5,-97.5 159.5,-67.5 5.5,-67.5"/>
<text text-anchor="start" x="13.5" y="-85.5" font-family="Helvetica,sans-Serif" font-size="10.00">FiftyOne.Pipeline.Core.Data.</text>
<text text-anchor="middle" x="82.5" y="-74.5" font-family="Helvetica,sans-Serif" font-size="10.00">ElementPropertyMetaData</text>
</a>
</g>
</g>
<!-- Node2 -->
<g id="node3" class="node">
<title>Node2</title>
<g id="a_node3"><a xlink:href="class_fifty_one_1_1_pipeline_1_1_engines_1_1_data_1_1_aspect_property_meta_data.html" target="_top" xlink:title="Meta&#45;data relating to properties that are populated by Aspect Engines.">
<polygon fill="none" stroke="black" points="0,-0.5 0,-30.5 165,-30.5 165,-0.5 0,-0.5"/>
<text text-anchor="start" x="8" y="-18.5" font-family="Helvetica,sans-Serif" font-size="10.00">FiftyOne.Pipeline.Engines.</text>
<text text-anchor="middle" x="82.5" y="-7.5" font-family="Helvetica,sans-Serif" font-size="10.00">Data.AspectPropertyMetaData</text>
</a>
</g>
</g>
<!-- Node0&#45;&gt;Node2 -->
<g id="edge2" class="edge">
<title>Node0&#45;&gt;Node2</title>
<path fill="none" stroke="midnightblue" d="M82.5,-57.11C82.5,-48.15 82.5,-38.32 82.5,-30.58"/>
<polygon fill="midnightblue" stroke="midnightblue" points="79,-57.4 82.5,-67.4 86,-57.4 79,-57.4"/>
</g>
<!-- Node1 -->
<g id="node2" class="node">
<title>Node1</title>
<g id="a_node2"><a xlink:href="interface_fifty_one_1_1_pipeline_1_1_core_1_1_data_1_1_i_element_property_meta_data.html" target="_top" xlink:title="Represents meta&#45;data relating to a property that is populated by a IFlowElement instance.">
<polygon fill="none" stroke="black" points="8,-134.5 8,-153.5 157,-153.5 157,-134.5 8,-134.5"/>
<text text-anchor="middle" x="82.5" y="-141.5" font-family="Helvetica,sans-Serif" font-size="10.00">IElementPropertyMetaData</text>
</a>
</g>
</g>
<!-- Node1&#45;&gt;Node0 -->
<g id="edge1" class="edge">
<title>Node1&#45;&gt;Node0</title>
<path fill="none" stroke="midnightblue" d="M82.5,-124.23C82.5,-115.59 82.5,-105.5 82.5,-97.52"/>
<polygon fill="midnightblue" stroke="midnightblue" points="79,-124.48 82.5,-134.48 86,-124.48 79,-124.48"/>
</g>
</g>
</svg>
