<?xml version="1.0" encoding="UTF-8" standalone="no"?>
<!DOCTYPE svg PUBLIC "-//W3C//DTD SVG 1.1//EN"
 "http://www.w3.org/Graphics/SVG/1.1/DTD/svg11.dtd">
<!-- Generated by graphviz version 2.43.0 (0)
 -->
<!-- Title: Examples.OnPremiseEngine.FlowElements.SimpleOnPremiseEngine Pages: 1 -->
<svg width="462pt" height="510pt"
 viewBox="0.00 0.00 462.00 510.00" xmlns="http://www.w3.org/2000/svg" xmlns:xlink="http://www.w3.org/1999/xlink">
<g id="graph0" class="graph" transform="scale(1 1) rotate(0) translate(4 506)">
<title>Examples.OnPremiseEngine.FlowElements.SimpleOnPremiseEngine</title>
<!-- Node0 -->
<g id="node1" class="node">
<title>Node0</title>
<g id="a_node1"><a xlink:title="[class] [constructor]">
<polygon fill="#bfbfbf" stroke="black" points="204,-0.5 204,-30.5 413,-30.5 413,-0.5 204,-0.5"/>
<text text-anchor="start" x="212" y="-18.5" font-family="Helvetica,sans-Serif" font-size="10.00">Examples.OnPremiseEngine.</text>
<text text-anchor="middle" x="308.5" y="-7.5" font-family="Helvetica,sans-Serif" font-size="10.00">FlowElements.SimpleOnPremiseEngine</text>
</a>
</g>
</g>
<!-- Node1 -->
<g id="node2" class="node">
<title>Node1</title>
<g id="a_node2"><a xlink:href="class_fifty_one_1_1_pipeline_1_1_engines_1_1_flow_elements_1_1_on_premise_aspect_engine_base.html" target="_top" xlink:title=" ">
<polygon fill="none" stroke="black" points="219.5,-68.5 219.5,-109.5 397.5,-109.5 397.5,-68.5 219.5,-68.5"/>
<text text-anchor="start" x="227.5" y="-97.5" font-family="Helvetica,sans-Serif" font-size="10.00">OnPremiseAspectEngineBase</text>
<text text-anchor="start" x="227.5" y="-86.5" font-family="Helvetica,sans-Serif" font-size="10.00">&lt; IStarSignData, IAspectProperty</text>
<text text-anchor="middle" x="308.5" y="-75.5" font-family="Helvetica,sans-Serif" font-size="10.00">MetaData &gt;</text>
</a>
</g>
</g>
<!-- Node1&#45;&gt;Node0 -->
<g id="edge1" class="edge">
<title>Node1&#45;&gt;Node0</title>
<path fill="none" stroke="midnightblue" d="M308.5,-58.16C308.5,-48.69 308.5,-38.65 308.5,-30.8"/>
<polygon fill="midnightblue" stroke="midnightblue" points="305,-58.46 308.5,-68.46 312,-58.46 305,-58.46"/>
</g>
<!-- Node2 -->
<g id="node3" class="node">
<title>Node2</title>
<g id="a_node3"><a xlink:href="class_fifty_one_1_1_pipeline_1_1_engines_1_1_flow_elements_1_1_on_premise_aspect_engine_base.html" target="_top" xlink:title="Base class for 51Degrees on&#45;premise aspect engines.">
<polygon fill="none" stroke="black" points="204.5,-168.5 204.5,-209.5 412.5,-209.5 412.5,-168.5 204.5,-168.5"/>
<text text-anchor="start" x="212.5" y="-197.5" font-family="Helvetica,sans-Serif" font-size="10.00">FiftyOne.Pipeline.Engines.</text>
<text text-anchor="start" x="212.5" y="-186.5" font-family="Helvetica,sans-Serif" font-size="10.00">FlowElements.OnPremiseAspectEngine</text>
<text text-anchor="middle" x="308.5" y="-175.5" font-family="Helvetica,sans-Serif" font-size="10.00">Base&lt; T, TMeta &gt;</text>
</a>
</g>
</g>
<!-- Node2&#45;&gt;Node1 -->
<g id="edge2" class="edge">
<title>Node2&#45;&gt;Node1</title>
<path fill="none" stroke="orange" stroke-dasharray="5,2" d="M308.5,-157.92C308.5,-142.29 308.5,-123.61 308.5,-109.8"/>
<polygon fill="orange" stroke="orange" points="305,-158.17 308.5,-168.17 312,-158.17 305,-158.17"/>
<text text-anchor="start" x="308.5" y="-142" font-family="Helvetica,sans-Serif" font-size="10.00"> &lt; IStarSignData, IAspect</text>
<text text-anchor="middle" x="370.5" y="-131" font-family="Helvetica,sans-Serif" font-size="10.00">PropertyMetaData &gt;</text>
</g>
<!-- Node3 -->
<g id="node4" class="node">
<title>Node3</title>
<g id="a_node4"><a xlink:href="class_fifty_one_1_1_pipeline_1_1_engines_1_1_flow_elements_1_1_aspect_engine_base.html" target="_top" xlink:title="Base class for 51Degrees aspect engines.">
<polygon fill="none" stroke="black" points="170,-247.5 170,-277.5 297,-277.5 297,-247.5 170,-247.5"/>
<text text-anchor="start" x="178" y="-265.5" font-family="Helvetica,sans-Serif" font-size="10.00">AspectEngineBase&lt; T,</text>
<text text-anchor="middle" x="233.5" y="-254.5" font-family="Helvetica,sans-Serif" font-size="10.00"> TMeta &gt;</text>
</a>
</g>
</g>
<!-- Node3&#45;&gt;Node2 -->
<g id="edge3" class="edge">
<title>Node3&#45;&gt;Node2</title>
<path fill="none" stroke="midnightblue" d="M255.72,-240.31C265.96,-230.56 278.03,-219.05 288.04,-209.51"/>
<polygon fill="midnightblue" stroke="midnightblue" points="253.14,-237.94 248.32,-247.37 257.97,-243.01 253.14,-237.94"/>
</g>
<!-- Node4 -->
<g id="node5" class="node">
<title>Node4</title>
<g id="a_node5"><a xlink:href="class_fifty_one_1_1_pipeline_1_1_core_1_1_flow_elements_1_1_flow_element_base.html" target="_top" xlink:title="Abstract base class for Flow Elements.">
<polygon fill="none" stroke="black" points="22,-315.5 22,-345.5 147,-345.5 147,-315.5 22,-315.5"/>
<text text-anchor="start" x="30" y="-333.5" font-family="Helvetica,sans-Serif" font-size="10.00">FlowElementBase&lt; T,</text>
<text text-anchor="middle" x="84.5" y="-322.5" font-family="Helvetica,sans-Serif" font-size="10.00"> TMeta &gt;</text>
</a>
</g>
</g>
<!-- Node4&#45;&gt;Node3 -->
<g id="edge4" class="edge">
<title>Node4&#45;&gt;Node3</title>
<path fill="none" stroke="midnightblue" d="M125.7,-311.25C149.76,-300.59 179.65,-287.35 201.84,-277.52"/>
<polygon fill="midnightblue" stroke="midnightblue" points="124.19,-308.09 116.46,-315.34 127.02,-314.49 124.19,-308.09"/>
</g>
<!-- Node5 -->
<g id="node6" class="node">
<title>Node5</title>
<g id="a_node6"><a xlink:href="interface_fifty_one_1_1_pipeline_1_1_core_1_1_flow_elements_1_1_i_flow_element.html" target="_top" xlink:title=" ">
<polygon fill="none" stroke="black" points="1,-399 1,-418 150,-418 150,-399 1,-399"/>
<text text-anchor="middle" x="75.5" y="-406" font-family="Helvetica,sans-Serif" font-size="10.00">IFlowElement&lt; T, TMeta &gt;</text>
</a>
</g>
</g>
<!-- Node5&#45;&gt;Node4 -->
<g id="edge5" class="edge">
<title>Node5&#45;&gt;Node4</title>
<path fill="none" stroke="midnightblue" d="M77.72,-388.78C79.3,-375.4 81.4,-357.69 82.84,-345.52"/>
<polygon fill="midnightblue" stroke="midnightblue" points="74.23,-388.44 76.53,-398.78 81.18,-389.26 74.23,-388.44"/>
</g>
<!-- Node6 -->
<g id="node7" class="node">
<title>Node6</title>
<g id="a_node7"><a xlink:href="interface_fifty_one_1_1_pipeline_1_1_core_1_1_flow_elements_1_1_i_flow_element.html" target="_top" xlink:title="IFlowElement is the basic building block of a pipeline.">
<polygon fill="none" stroke="black" points="0,-471.5 0,-501.5 151,-501.5 151,-471.5 0,-471.5"/>
<text text-anchor="start" x="8" y="-489.5" font-family="Helvetica,sans-Serif" font-size="10.00">FiftyOne.Pipeline.Core.Flow</text>
<text text-anchor="middle" x="75.5" y="-478.5" font-family="Helvetica,sans-Serif" font-size="10.00">Elements.IFlowElement</text>
</a>
</g>
</g>
<!-- Node6&#45;&gt;Node5 -->
<g id="edge6" class="edge">
<title>Node6&#45;&gt;Node5</title>
<path fill="none" stroke="orange" stroke-dasharray="5,2" d="M75.5,-461.17C75.5,-446.4 75.5,-428.45 75.5,-418.06"/>
<polygon fill="orange" stroke="orange" points="72,-461.2 75.5,-471.2 79,-461.21 72,-461.2"/>
<text text-anchor="middle" x="110" y="-445" font-family="Helvetica,sans-Serif" font-size="10.00"> &lt; T, TMeta &gt;</text>
</g>
<!-- Node7 -->
<g id="node8" class="node">
<title>Node7</title>
<g id="a_node8"><a xlink:href="interface_fifty_one_1_1_pipeline_1_1_engines_1_1_flow_elements_1_1_i_aspect_engine.html" target="_top" xlink:title=" ">
<polygon fill="none" stroke="black" points="169,-321 169,-340 320,-340 320,-321 169,-321"/>
<text text-anchor="middle" x="244.5" y="-328" font-family="Helvetica,sans-Serif" font-size="10.00">IAspectEngine&lt; T, TMeta &gt;</text>
</a>
</g>
</g>
<!-- Node7&#45;&gt;Node3 -->
<g id="edge7" class="edge">
<title>Node7&#45;&gt;Node3</title>
<path fill="none" stroke="midnightblue" d="M241.36,-310.67C239.61,-300.18 237.47,-287.32 235.86,-277.68"/>
<polygon fill="midnightblue" stroke="midnightblue" points="237.97,-311.58 243.06,-320.87 244.87,-310.43 237.97,-311.58"/>
</g>
<!-- Node8 -->
<g id="node9" class="node">
<title>Node8</title>
<g id="a_node9"><a xlink:href="interface_fifty_one_1_1_pipeline_1_1_engines_1_1_flow_elements_1_1_i_aspect_engine.html" target="_top" xlink:title="Interface representing 51Degrees on&#45;premise aspect engines.">
<polygon fill="none" stroke="black" points="167.5,-393.5 167.5,-423.5 325.5,-423.5 325.5,-393.5 167.5,-393.5"/>
<text text-anchor="start" x="175.5" y="-411.5" font-family="Helvetica,sans-Serif" font-size="10.00">FiftyOne.Pipeline.Engines.</text>
<text text-anchor="middle" x="246.5" y="-400.5" font-family="Helvetica,sans-Serif" font-size="10.00">FlowElements.IAspectEngine</text>
</a>
</g>
</g>
<!-- Node8&#45;&gt;Node7 -->
<g id="edge8" class="edge">
<title>Node8&#45;&gt;Node7</title>
<path fill="none" stroke="orange" stroke-dasharray="5,2" d="M245.86,-383.17C245.47,-368.4 245,-350.45 244.73,-340.06"/>
<polygon fill="orange" stroke="orange" points="242.36,-383.3 246.12,-393.2 249.36,-383.12 242.36,-383.3"/>
<text text-anchor="middle" x="281" y="-367" font-family="Helvetica,sans-Serif" font-size="10.00"> &lt; T, TMeta &gt;</text>
</g>
<!-- Node9 -->
<g id="node10" class="node">
<title>Node9</title>
<g id="a_node10"><a xlink:href="interface_fifty_one_1_1_pipeline_1_1_engines_1_1_flow_elements_1_1_i_on_premise_aspect_engine.html" target="_top" xlink:title="Interface for an AspectEngine that processes evidence using one or more local data files.">
<polygon fill="none" stroke="black" points="315,-253 315,-272 454,-272 454,-253 315,-253"/>
<text text-anchor="middle" x="384.5" y="-260" font-family="Helvetica,sans-Serif" font-size="10.00">IOnPremiseAspectEngine</text>
</a>
</g>
</g>
<!-- Node9&#45;&gt;Node2 -->
<g id="edge9" class="edge">
<title>Node9&#45;&gt;Node2</title>
<path fill="none" stroke="midnightblue" d="M367.7,-245.7C356.41,-235.07 341.44,-220.99 329.38,-209.64"/>
<polygon fill="midnightblue" stroke="midnightblue" points="365.5,-248.43 375.18,-252.73 370.3,-243.33 365.5,-248.43"/>
</g>
<!-- Node10 -->
<g id="node11" class="node">
<title>Node10</title>
<g id="a_node11"><a xlink:href="interface_fifty_one_1_1_pipeline_1_1_engines_1_1_flow_elements_1_1_i_aspect_engine.html" target="_top" xlink:title="Interface representing 51Degrees on&#45;premise aspect engines.">
<polygon fill="none" stroke="black" points="341.5,-321 341.5,-340 427.5,-340 427.5,-321 341.5,-321"/>
<text text-anchor="middle" x="384.5" y="-328" font-family="Helvetica,sans-Serif" font-size="10.00">IAspectEngine</text>
</a>
</g>
</g>
<!-- Node10&#45;&gt;Node9 -->
<g id="edge10" class="edge">
<title>Node10&#45;&gt;Node9</title>
<path fill="none" stroke="midnightblue" d="M384.5,-310.54C384.5,-297.97 384.5,-282.06 384.5,-272.34"/>
<polygon fill="midnightblue" stroke="midnightblue" points="381,-310.87 384.5,-320.87 388,-310.87 381,-310.87"/>
</g>
</g>
</svg>
