<?xml version="1.0" encoding="UTF-8" standalone="no"?>
<!DOCTYPE svg PUBLIC "-//W3C//DTD SVG 1.1//EN"
 "http://www.w3.org/Graphics/SVG/1.1/DTD/svg11.dtd">
<!-- Generated by graphviz version 2.43.0 (0)
 -->
<!-- Title: FiftyOne.Pipeline.Core.Data.ElementDataBase Pages: 1 -->
<svg width="817pt" height="372pt"
 viewBox="0.00 0.00 817.00 372.00" xmlns="http://www.w3.org/2000/svg" xmlns:xlink="http://www.w3.org/1999/xlink">
<g id="graph0" class="graph" transform="scale(1 1) rotate(0) translate(4 368)">
<title>FiftyOne.Pipeline.Core.Data.ElementDataBase</title>
<!-- Node0 -->
<g id="node1" class="node">
<title>Node0</title>
<g id="a_node1"><a xlink:title="This class stores property values that have been determined by a specific FlowElement based on the su...">
<polygon fill="#bfbfbf" stroke="black" points="198,-161.5 198,-191.5 352,-191.5 352,-161.5 198,-161.5"/>
<text text-anchor="start" x="206" y="-179.5" font-family="Helvetica,sans-Serif" font-size="10.00">FiftyOne.Pipeline.Core.Data.</text>
<text text-anchor="middle" x="275" y="-168.5" font-family="Helvetica,sans-Serif" font-size="10.00">ElementDataBase</text>
</a>
</g>
</g>
<!-- Node4 -->
<g id="node5" class="node">
<title>Node4</title>
<g id="a_node5"><a xlink:href="class_examples_1_1_custom_flow_element_1_1_data_1_1_star_sign_data.html" target="_top" xlink:title="[class]">
<polygon fill="none" stroke="black" points="415.5,-333.5 415.5,-363.5 587.5,-363.5 587.5,-333.5 415.5,-333.5"/>
<text text-anchor="start" x="423.5" y="-351.5" font-family="Helvetica,sans-Serif" font-size="10.00">Examples.CustomFlowElement.</text>
<text text-anchor="middle" x="501.5" y="-340.5" font-family="Helvetica,sans-Serif" font-size="10.00">Data.StarSignData</text>
</a>
</g>
</g>
<!-- Node0&#45;&gt;Node4 -->
<g id="edge5" class="edge">
<title>Node0&#45;&gt;Node4</title>
<path fill="none" stroke="midnightblue" d="M287.61,-200.84C304.74,-234.02 340.03,-292.81 388,-323.5 396.34,-328.84 405.66,-333.05 415.28,-336.36"/>
<polygon fill="midnightblue" stroke="midnightblue" points="290.69,-199.18 283.07,-191.82 284.44,-202.32 290.69,-199.18"/>
</g>
<!-- Node5 -->
<g id="node6" class="node">
<title>Node5</title>
<g id="a_node6"><a xlink:href="class_fifty_one_1_1_pipeline_1_1_engines_1_1_data_1_1_aspect_data_base.html" target="_top" xlink:title="Base class for element data instances that are generated by an IAspectEngine.">
<polygon fill="none" stroke="black" points="430,-284.5 430,-314.5 573,-314.5 573,-284.5 430,-284.5"/>
<text text-anchor="start" x="438" y="-302.5" font-family="Helvetica,sans-Serif" font-size="10.00">FiftyOne.Pipeline.Engines.</text>
<text text-anchor="middle" x="501.5" y="-291.5" font-family="Helvetica,sans-Serif" font-size="10.00">Data.AspectDataBase</text>
</a>
</g>
</g>
<!-- Node0&#45;&gt;Node5 -->
<g id="edge6" class="edge">
<title>Node0&#45;&gt;Node5</title>
<path fill="none" stroke="midnightblue" d="M295.49,-199.2C316.15,-221.78 350.89,-255.71 388,-274.5 400.94,-281.05 415.57,-285.9 429.91,-289.48"/>
<polygon fill="midnightblue" stroke="midnightblue" points="298.07,-196.83 288.78,-191.73 292.85,-201.51 298.07,-196.83"/>
</g>
<!-- Node8 -->
<g id="node9" class="node">
<title>Node8</title>
<g id="a_node9"><a xlink:href="class_fifty_one_1_1_pipeline_1_1_engines_1_1_fifty_one_1_1_data_1_1_set_headers_data.html" target="_top" xlink:title="Element data instance for SetHeadersElement See the Specification">
<polygon fill="none" stroke="black" points="418.5,-235.5 418.5,-265.5 584.5,-265.5 584.5,-235.5 418.5,-235.5"/>
<text text-anchor="start" x="426.5" y="-253.5" font-family="Helvetica,sans-Serif" font-size="10.00">FiftyOne.Pipeline.Engines.</text>
<text text-anchor="middle" x="501.5" y="-242.5" font-family="Helvetica,sans-Serif" font-size="10.00">FiftyOne.Data.SetHeadersData</text>
</a>
</g>
</g>
<!-- Node0&#45;&gt;Node8 -->
<g id="edge9" class="edge">
<title>Node0&#45;&gt;Node8</title>
<path fill="none" stroke="midnightblue" d="M315.56,-196.05C336.68,-205.91 363.33,-217.45 388,-225.5 399.32,-229.19 411.45,-232.52 423.41,-235.45"/>
<polygon fill="midnightblue" stroke="midnightblue" points="316.81,-192.77 306.28,-191.66 313.82,-199.1 316.81,-192.77"/>
</g>
<!-- Node9 -->
<g id="node10" class="node">
<title>Node9</title>
<g id="a_node10"><a xlink:href="class_fifty_one_1_1_pipeline_1_1_ip_splitter_1_1_split_ip_data.html" target="_top" xlink:title=" ">
<polygon fill="none" stroke="black" points="427,-186.5 427,-216.5 576,-216.5 576,-186.5 427,-186.5"/>
<text text-anchor="start" x="435" y="-204.5" font-family="Helvetica,sans-Serif" font-size="10.00">FiftyOne.Pipeline.IpSplitter.</text>
<text text-anchor="middle" x="501.5" y="-193.5" font-family="Helvetica,sans-Serif" font-size="10.00">SplitIpData</text>
</a>
</g>
</g>
<!-- Node0&#45;&gt;Node9 -->
<g id="edge10" class="edge">
<title>Node0&#45;&gt;Node9</title>
<path fill="none" stroke="midnightblue" d="M362.05,-186.08C383.42,-188.46 406.14,-190.99 426.85,-193.3"/>
<polygon fill="midnightblue" stroke="midnightblue" points="362.33,-182.59 352.01,-184.96 361.56,-189.55 362.33,-182.59"/>
</g>
<!-- Node10 -->
<g id="node11" class="node">
<title>Node10</title>
<g id="a_node11"><a xlink:href="class_fifty_one_1_1_pipeline_1_1_java_script_builder_1_1_data_1_1_java_script_builder_element_data.html" target="_top" xlink:title="The IElementData class for JavaScriptBuilderElement.">
<polygon fill="none" stroke="black" points="388,-137.5 388,-167.5 615,-167.5 615,-137.5 388,-137.5"/>
<text text-anchor="start" x="396" y="-155.5" font-family="Helvetica,sans-Serif" font-size="10.00">FiftyOne.Pipeline.JavaScript</text>
<text text-anchor="middle" x="501.5" y="-144.5" font-family="Helvetica,sans-Serif" font-size="10.00">Builder.Data.JavaScriptBuilderElementData</text>
</a>
</g>
</g>
<!-- Node0&#45;&gt;Node10 -->
<g id="edge11" class="edge">
<title>Node0&#45;&gt;Node10</title>
<path fill="none" stroke="midnightblue" d="M362.17,-167.29C370.61,-166.39 379.25,-165.46 387.89,-164.54"/>
<polygon fill="midnightblue" stroke="midnightblue" points="361.58,-163.83 352.01,-168.37 362.32,-170.79 361.58,-163.83"/>
</g>
<!-- Node11 -->
<g id="node12" class="node">
<title>Node11</title>
<g id="a_node12"><a xlink:href="class_fifty_one_1_1_pipeline_1_1_json_builder_1_1_data_1_1_json_builder_element_data.html" target="_top" xlink:title="JsonBuilderElement data class.">
<polygon fill="none" stroke="black" points="421,-88.5 421,-118.5 582,-118.5 582,-88.5 421,-88.5"/>
<text text-anchor="start" x="429" y="-106.5" font-family="Helvetica,sans-Serif" font-size="10.00">FiftyOne.Pipeline.JsonBuilder.</text>
<text text-anchor="middle" x="501.5" y="-95.5" font-family="Helvetica,sans-Serif" font-size="10.00">Data.JsonBuilderElementData</text>
</a>
</g>
</g>
<!-- Node0&#45;&gt;Node11 -->
<g id="edge12" class="edge">
<title>Node0&#45;&gt;Node11</title>
<path fill="none" stroke="midnightblue" d="M315.08,-157.07C336.26,-147.15 363.12,-135.51 388,-127.5 398.55,-124.11 409.81,-121.05 420.99,-118.36"/>
<polygon fill="midnightblue" stroke="midnightblue" points="313.31,-154.04 305.78,-161.5 316.32,-160.36 313.31,-154.04"/>
</g>
<!-- Node12 -->
<g id="node13" class="node">
<title>Node12</title>
<g id="a_node13"><a xlink:href="class_fifty_one_1_1_pipeline_1_1_math_1_1_math_data.html" target="_top" xlink:title=" ">
<polygon fill="none" stroke="black" points="412.5,-50 412.5,-69 590.5,-69 590.5,-50 412.5,-50"/>
<text text-anchor="middle" x="501.5" y="-57" font-family="Helvetica,sans-Serif" font-size="10.00">FiftyOne.Pipeline.Math.MathData</text>
</a>
</g>
</g>
<!-- Node0&#45;&gt;Node12 -->
<g id="edge13" class="edge">
<title>Node0&#45;&gt;Node12</title>
<path fill="none" stroke="midnightblue" d="M294.95,-153.78C315.42,-130.88 350.21,-96.43 388,-78.5 396.14,-74.64 404.94,-71.55 413.91,-69.08"/>
<polygon fill="midnightblue" stroke="midnightblue" points="292.28,-151.53 288.33,-161.36 297.55,-156.13 292.28,-151.53"/>
</g>
<!-- Node13 -->
<g id="node14" class="node">
<title>Node13</title>
<g id="a_node14"><a xlink:href="class_simple_client_side_element_1_1_data_1_1_star_sign_data.html" target="_top" xlink:title="[class]">
<polygon fill="none" stroke="black" points="430,-0.5 430,-30.5 573,-30.5 573,-0.5 430,-0.5"/>
<text text-anchor="start" x="438" y="-18.5" font-family="Helvetica,sans-Serif" font-size="10.00">SimpleClientSideElement.</text>
<text text-anchor="middle" x="501.5" y="-7.5" font-family="Helvetica,sans-Serif" font-size="10.00">Data.StarSignData</text>
</a>
</g>
</g>
<!-- Node0&#45;&gt;Node13 -->
<g id="edge14" class="edge">
<title>Node0&#45;&gt;Node13</title>
<path fill="none" stroke="midnightblue" d="M288.87,-152.63C306.83,-121.71 342.4,-68.48 388,-40.5 400.62,-32.76 415.34,-27.4 429.9,-23.7"/>
<polygon fill="midnightblue" stroke="midnightblue" points="285.75,-151.03 283.87,-161.45 291.84,-154.48 285.75,-151.03"/>
</g>
<!-- Node1 -->
<g id="node2" class="node">
<title>Node1</title>
<g id="a_node2"><a xlink:href="class_fifty_one_1_1_pipeline_1_1_core_1_1_data_1_1_data_base.html" target="_top" xlink:title="This class stores data values as key/value pairs where the key is a string and the value can be any t...">
<polygon fill="none" stroke="black" points="88.5,-186 88.5,-205 152.5,-205 152.5,-186 88.5,-186"/>
<text text-anchor="middle" x="120.5" y="-193" font-family="Helvetica,sans-Serif" font-size="10.00">DataBase</text>
</a>
</g>
</g>
<!-- Node1&#45;&gt;Node0 -->
<g id="edge1" class="edge">
<title>Node1&#45;&gt;Node0</title>
<path fill="none" stroke="midnightblue" d="M162.74,-190.36C173.61,-189.01 185.69,-187.5 197.78,-186"/>
<polygon fill="midnightblue" stroke="midnightblue" points="162.22,-186.9 152.73,-191.61 163.08,-193.85 162.22,-186.9"/>
</g>
<!-- Node2 -->
<g id="node3" class="node">
<title>Node2</title>
<g id="a_node3"><a xlink:href="interface_fifty_one_1_1_pipeline_1_1_core_1_1_data_1_1_i_data.html" target="_top" xlink:title="Represents property values">
<polygon fill="none" stroke="black" points="0,-167 0,-186 43,-186 43,-167 0,-167"/>
<text text-anchor="middle" x="21.5" y="-174" font-family="Helvetica,sans-Serif" font-size="10.00">IData</text>
</a>
</g>
</g>
<!-- Node2&#45;&gt;Node1 -->
<g id="edge2" class="edge">
<title>Node2&#45;&gt;Node1</title>
<path fill="none" stroke="midnightblue" d="M52.9,-182.45C64.15,-184.66 76.93,-187.16 88.26,-189.38"/>
<polygon fill="midnightblue" stroke="midnightblue" points="53.56,-179.02 43.07,-180.53 52.21,-185.89 53.56,-179.02"/>
</g>
<!-- Node3 -->
<g id="node4" class="node">
<title>Node3</title>
<g id="a_node4"><a xlink:href="interface_fifty_one_1_1_pipeline_1_1_core_1_1_data_1_1_i_element_data.html" target="_top" xlink:title="Represents property values that have been determined by a specific FlowElement based on the supplied ...">
<polygon fill="none" stroke="black" points="79,-148 79,-167 162,-167 162,-148 79,-148"/>
<text text-anchor="middle" x="120.5" y="-155" font-family="Helvetica,sans-Serif" font-size="10.00">IElementData</text>
</a>
</g>
</g>
<!-- Node2&#45;&gt;Node3 -->
<g id="edge4" class="edge">
<title>Node2&#45;&gt;Node3</title>
<path fill="none" stroke="midnightblue" d="M52.99,-170.53C61.23,-168.91 70.28,-167.14 78.98,-165.44"/>
<polygon fill="midnightblue" stroke="midnightblue" points="52.21,-167.11 43.07,-172.47 53.56,-173.98 52.21,-167.11"/>
</g>
<!-- Node3&#45;&gt;Node0 -->
<g id="edge3" class="edge">
<title>Node3&#45;&gt;Node0</title>
<path fill="none" stroke="midnightblue" d="M172.49,-163.85C180.7,-164.88 189.34,-165.95 197.98,-167.03"/>
<polygon fill="midnightblue" stroke="midnightblue" points="172.72,-160.35 162.37,-162.59 171.86,-167.3 172.72,-160.35"/>
</g>
<!-- Node6 -->
<g id="node7" class="node">
<title>Node6</title>
<g id="a_node7"><a xlink:href="class_examples_1_1_cloud_engine_1_1_data_1_1_star_sign_data.html" target="_top" xlink:title="[class]">
<polygon fill="none" stroke="black" points="651,-308.5 651,-338.5 809,-338.5 809,-308.5 651,-308.5"/>
<text text-anchor="start" x="659" y="-326.5" font-family="Helvetica,sans-Serif" font-size="10.00">Examples.CloudEngine.Data.</text>
<text text-anchor="middle" x="730" y="-315.5" font-family="Helvetica,sans-Serif" font-size="10.00">StarSignData</text>
</a>
</g>
</g>
<!-- Node5&#45;&gt;Node6 -->
<g id="edge7" class="edge">
<title>Node5&#45;&gt;Node6</title>
<path fill="none" stroke="midnightblue" d="M583.21,-308.05C605.24,-310.39 629.06,-312.91 650.93,-315.23"/>
<polygon fill="midnightblue" stroke="midnightblue" points="583.55,-304.57 573.23,-307 582.81,-311.53 583.55,-304.57"/>
</g>
<!-- Node7 -->
<g id="node8" class="node">
<title>Node7</title>
<g id="a_node8"><a xlink:href="class_examples_1_1_on_premise_engine_1_1_data_1_1_star_sign_data.html" target="_top" xlink:title="[class]">
<polygon fill="none" stroke="black" points="651.5,-259.5 651.5,-289.5 808.5,-289.5 808.5,-259.5 651.5,-259.5"/>
<text text-anchor="start" x="659.5" y="-277.5" font-family="Helvetica,sans-Serif" font-size="10.00">Examples.OnPremiseEngine.</text>
<text text-anchor="middle" x="730" y="-266.5" font-family="Helvetica,sans-Serif" font-size="10.00">Data.StarSignData</text>
</a>
</g>
</g>
<!-- Node5&#45;&gt;Node7 -->
<g id="edge8" class="edge">
<title>Node5&#45;&gt;Node7</title>
<path fill="none" stroke="midnightblue" d="M583.27,-290.59C605.41,-288.14 629.36,-285.5 651.33,-283.07"/>
<polygon fill="midnightblue" stroke="midnightblue" points="582.79,-287.12 573.23,-291.69 583.56,-294.07 582.79,-287.12"/>
</g>
</g>
</svg>
