<?xml version="1.0" encoding="UTF-8" standalone="no"?>
<!DOCTYPE svg PUBLIC "-//W3C//DTD SVG 1.1//EN"
 "http://www.w3.org/Graphics/SVG/1.1/DTD/svg11.dtd">
<!-- Generated by graphviz version 2.43.0 (0)
 -->
<!-- Title: FiftyOne.Pipeline.Engines.FiftyOne.FlowElements.SequenceElement Pages: 1 -->
<svg width="234pt" height="353pt"
 viewBox="0.00 0.00 234.00 353.00" xmlns="http://www.w3.org/2000/svg" xmlns:xlink="http://www.w3.org/1999/xlink">
<g id="graph0" class="graph" transform="scale(1 1) rotate(0) translate(4 349)">
<title>FiftyOne.Pipeline.Engines.FiftyOne.FlowElements.SequenceElement</title>
<!-- Node5 -->
<g id="node1" class="node">
<title>Node5</title>
<g id="a_node1"><a xlink:title="Sequence element establishes session and sequence evidence in the pipeline.">
<polygon fill="#bfbfbf" stroke="black" points="5.5,-0.5 5.5,-41.5 184.5,-41.5 184.5,-0.5 5.5,-0.5"/>
<text text-anchor="start" x="13.5" y="-29.5" font-family="Helvetica,sans-Serif" font-size="10.00">FiftyOne.Pipeline.Engines.</text>
<text text-anchor="start" x="13.5" y="-18.5" font-family="Helvetica,sans-Serif" font-size="10.00">FiftyOne.FlowElements.Sequence</text>
<text text-anchor="middle" x="95" y="-7.5" font-family="Helvetica,sans-Serif" font-size="10.00">Element</text>
</a>
</g>
</g>
<!-- Node6 -->
<g id="node2" class="node">
<title>Node6</title>
<g id="a_node2"><a xlink:href="class_fifty_one_1_1_pipeline_1_1_core_1_1_flow_elements_1_1_flow_element_base.html" target="_top" xlink:title=" ">
<polygon fill="none" stroke="black" points="0,-79.5 0,-109.5 190,-109.5 190,-79.5 0,-79.5"/>
<text text-anchor="start" x="8" y="-97.5" font-family="Helvetica,sans-Serif" font-size="10.00">FlowElementBase&lt; IElement</text>
<text text-anchor="middle" x="95" y="-86.5" font-family="Helvetica,sans-Serif" font-size="10.00">Data, IElementPropertyMetaData &gt;</text>
</a>
</g>
</g>
<!-- Node6&#45;&gt;Node5 -->
<g id="edge1" class="edge">
<title>Node6&#45;&gt;Node5</title>
<path fill="none" stroke="midnightblue" d="M95,-69.1C95,-60.1 95,-50.02 95,-41.51"/>
<polygon fill="midnightblue" stroke="midnightblue" points="91.5,-69.37 95,-79.37 98.5,-69.37 91.5,-69.37"/>
</g>
<!-- Node7 -->
<g id="node3" class="node">
<title>Node7</title>
<g id="a_node3"><a xlink:href="class_fifty_one_1_1_pipeline_1_1_core_1_1_flow_elements_1_1_flow_element_base.html" target="_top" xlink:title="Abstract base class for Flow Elements.">
<polygon fill="none" stroke="black" points="18.5,-168.5 18.5,-209.5 171.5,-209.5 171.5,-168.5 18.5,-168.5"/>
<text text-anchor="start" x="26.5" y="-197.5" font-family="Helvetica,sans-Serif" font-size="10.00">FiftyOne.Pipeline.Core.Flow</text>
<text text-anchor="start" x="26.5" y="-186.5" font-family="Helvetica,sans-Serif" font-size="10.00">Elements.FlowElementBase</text>
<text text-anchor="middle" x="95" y="-175.5" font-family="Helvetica,sans-Serif" font-size="10.00">&lt; T, TMeta &gt;</text>
</a>
</g>
</g>
<!-- Node7&#45;&gt;Node6 -->
<g id="edge2" class="edge">
<title>Node7&#45;&gt;Node6</title>
<path fill="none" stroke="orange" stroke-dasharray="5,2" d="M95,-158.24C95,-141.96 95,-122.54 95,-109.66"/>
<polygon fill="orange" stroke="orange" points="91.5,-158.38 95,-168.38 98.5,-158.38 91.5,-158.38"/>
<text text-anchor="start" x="95" y="-142" font-family="Helvetica,sans-Serif" font-size="10.00"> &lt; IElementData, IElement</text>
<text text-anchor="middle" x="160.5" y="-131" font-family="Helvetica,sans-Serif" font-size="10.00">PropertyMetaData &gt;</text>
</g>
<!-- Node8 -->
<g id="node4" class="node">
<title>Node8</title>
<g id="a_node4"><a xlink:href="interface_fifty_one_1_1_pipeline_1_1_core_1_1_flow_elements_1_1_i_flow_element.html" target="_top" xlink:title=" ">
<polygon fill="none" stroke="black" points="20.5,-247.5 20.5,-266.5 169.5,-266.5 169.5,-247.5 20.5,-247.5"/>
<text text-anchor="middle" x="95" y="-254.5" font-family="Helvetica,sans-Serif" font-size="10.00">IFlowElement&lt; T, TMeta &gt;</text>
</a>
</g>
</g>
<!-- Node8&#45;&gt;Node7 -->
<g id="edge3" class="edge">
<title>Node8&#45;&gt;Node7</title>
<path fill="none" stroke="midnightblue" d="M95,-237.25C95,-228.65 95,-218.45 95,-209.74"/>
<polygon fill="midnightblue" stroke="midnightblue" points="91.5,-237.37 95,-247.37 98.5,-237.37 91.5,-237.37"/>
</g>
<!-- Node9 -->
<g id="node5" class="node">
<title>Node9</title>
<g id="a_node5"><a xlink:href="interface_fifty_one_1_1_pipeline_1_1_core_1_1_flow_elements_1_1_i_flow_element.html" target="_top" xlink:title="IFlowElement is the basic building block of a pipeline.">
<polygon fill="none" stroke="black" points="19.5,-314.5 19.5,-344.5 170.5,-344.5 170.5,-314.5 19.5,-314.5"/>
<text text-anchor="start" x="27.5" y="-332.5" font-family="Helvetica,sans-Serif" font-size="10.00">FiftyOne.Pipeline.Core.Flow</text>
<text text-anchor="middle" x="95" y="-321.5" font-family="Helvetica,sans-Serif" font-size="10.00">Elements.IFlowElement</text>
</a>
</g>
</g>
<!-- Node9&#45;&gt;Node8 -->
<g id="edge4" class="edge">
<title>Node9&#45;&gt;Node8</title>
<path fill="none" stroke="orange" stroke-dasharray="5,2" d="M95,-304.09C95,-291.21 95,-276.2 95,-266.89"/>
<polygon fill="orange" stroke="orange" points="91.5,-304.23 95,-314.23 98.5,-304.23 91.5,-304.23"/>
<text text-anchor="middle" x="129.5" y="-288" font-family="Helvetica,sans-Serif" font-size="10.00"> &lt; T, TMeta &gt;</text>
</g>
</g>
</svg>
