<?xml version="1.0" encoding="UTF-8" standalone="no"?>
<!DOCTYPE svg PUBLIC "-//W3C//DTD SVG 1.1//EN"
 "http://www.w3.org/Graphics/SVG/1.1/DTD/svg11.dtd">
<!-- Generated by graphviz version 2.43.0 (0)
 -->
<!-- Title: FiftyOne.Pipeline.JsonBuilder.FlowElement.JsonBuilderElement Pages: 1 -->
<svg width="1325pt" height="100pt"
 viewBox="0.00 0.00 1325.00 100.00" xmlns="http://www.w3.org/2000/svg" xmlns:xlink="http://www.w3.org/1999/xlink">
<g id="graph0" class="graph" transform="scale(1 1) rotate(0) translate(4 96)">
<title>FiftyOne.Pipeline.JsonBuilder.FlowElement.JsonBuilderElement</title>
<!-- Node0 -->
<g id="node1" class="node">
<title>Node0</title>
<g id="a_node1"><a xlink:title="The JsonBuilderElement takes accessible properties and adds the property key:values to the Json objec...">
<polygon fill="#bfbfbf" stroke="black" points="1138,-24 1138,-54 1317,-54 1317,-24 1138,-24"/>
<text text-anchor="start" x="1146" y="-42" font-family="Helvetica,sans-Serif" font-size="10.00">FiftyOne.Pipeline.JsonBuilder.</text>
<text text-anchor="middle" x="1227.5" y="-31" font-family="Helvetica,sans-Serif" font-size="10.00">FlowElement.JsonBuilderElement</text>
</a>
</g>
</g>
<!-- Node1 -->
<g id="node2" class="node">
<title>Node1</title>
<g id="a_node2"><a xlink:href="class_fifty_one_1_1_pipeline_1_1_core_1_1_flow_elements_1_1_flow_element_base.html" target="_top" xlink:title=" ">
<polygon fill="none" stroke="black" points="905,-49.5 905,-90.5 1101,-90.5 1101,-49.5 905,-49.5"/>
<text text-anchor="start" x="913" y="-78.5" font-family="Helvetica,sans-Serif" font-size="10.00">FlowElementBase&lt; IJsonBuilder</text>
<text text-anchor="start" x="913" y="-67.5" font-family="Helvetica,sans-Serif" font-size="10.00">ElementData, IElementPropertyMeta</text>
<text text-anchor="middle" x="1003" y="-56.5" font-family="Helvetica,sans-Serif" font-size="10.00">Data &gt;</text>
</a>
</g>
</g>
<!-- Node1&#45;&gt;Node0 -->
<g id="edge1" class="edge">
<title>Node1&#45;&gt;Node0</title>
<path fill="none" stroke="midnightblue" d="M1111.28,-55.05C1120.18,-53.81 1129.1,-52.57 1137.84,-51.35"/>
<polygon fill="midnightblue" stroke="midnightblue" points="1110.69,-51.6 1101.27,-56.45 1111.66,-58.53 1110.69,-51.6"/>
</g>
<!-- Node2 -->
<g id="node3" class="node">
<title>Node2</title>
<g id="a_node3"><a xlink:href="class_fifty_one_1_1_pipeline_1_1_core_1_1_flow_elements_1_1_flow_element_base.html" target="_top" xlink:title="Abstract base class for Flow Elements.">
<polygon fill="none" stroke="black" points="568,-49.5 568,-90.5 721,-90.5 721,-49.5 568,-49.5"/>
<text text-anchor="start" x="576" y="-78.5" font-family="Helvetica,sans-Serif" font-size="10.00">FiftyOne.Pipeline.Core.Flow</text>
<text text-anchor="start" x="576" y="-67.5" font-family="Helvetica,sans-Serif" font-size="10.00">Elements.FlowElementBase</text>
<text text-anchor="middle" x="644.5" y="-56.5" font-family="Helvetica,sans-Serif" font-size="10.00">&lt; T, TMeta &gt;</text>
</a>
</g>
</g>
<!-- Node2&#45;&gt;Node1 -->
<g id="edge2" class="edge">
<title>Node2&#45;&gt;Node1</title>
<path fill="none" stroke="orange" stroke-dasharray="5,2" d="M731.36,-70C783.64,-70 850.57,-70 904.79,-70"/>
<polygon fill="orange" stroke="orange" points="731.1,-66.5 721.1,-70 731.1,-73.5 731.1,-66.5"/>
<text text-anchor="start" x="739" y="-84" font-family="Helvetica,sans-Serif" font-size="10.00"> &lt; IJsonBuilderElementData,</text>
<text text-anchor="middle" x="813" y="-73" font-family="Helvetica,sans-Serif" font-size="10.00"> IElementPropertyMetaData &gt;</text>
</g>
<!-- Node3 -->
<g id="node4" class="node">
<title>Node3</title>
<g id="a_node4"><a xlink:href="interface_fifty_one_1_1_pipeline_1_1_core_1_1_flow_elements_1_1_i_flow_element.html" target="_top" xlink:title=" ">
<polygon fill="none" stroke="black" points="358.5,-60.5 358.5,-79.5 507.5,-79.5 507.5,-60.5 358.5,-60.5"/>
<text text-anchor="middle" x="433" y="-67.5" font-family="Helvetica,sans-Serif" font-size="10.00">IFlowElement&lt; T, TMeta &gt;</text>
</a>
</g>
</g>
<!-- Node3&#45;&gt;Node2 -->
<g id="edge3" class="edge">
<title>Node3&#45;&gt;Node2</title>
<path fill="none" stroke="midnightblue" d="M517.78,-70C534.37,-70 551.69,-70 567.98,-70"/>
<polygon fill="midnightblue" stroke="midnightblue" points="517.57,-66.5 507.57,-70 517.57,-73.5 517.57,-66.5"/>
</g>
<!-- Node4 -->
<g id="node5" class="node">
<title>Node4</title>
<g id="a_node5"><a xlink:href="interface_fifty_one_1_1_pipeline_1_1_core_1_1_flow_elements_1_1_i_flow_element.html" target="_top" xlink:title="IFlowElement is the basic building block of a pipeline.">
<polygon fill="none" stroke="black" points="0,-30 0,-60 151,-60 151,-30 0,-30"/>
<text text-anchor="start" x="8" y="-48" font-family="Helvetica,sans-Serif" font-size="10.00">FiftyOne.Pipeline.Core.Flow</text>
<text text-anchor="middle" x="75.5" y="-37" font-family="Helvetica,sans-Serif" font-size="10.00">Elements.IFlowElement</text>
</a>
</g>
</g>
<!-- Node4&#45;&gt;Node3 -->
<g id="edge4" class="edge">
<title>Node4&#45;&gt;Node3</title>
<path fill="none" stroke="orange" stroke-dasharray="5,2" d="M161.24,-50.96C221.31,-55.18 301.11,-60.8 358.49,-64.83"/>
<polygon fill="orange" stroke="orange" points="161.25,-47.45 151.02,-50.24 160.75,-54.43 161.25,-47.45"/>
<text text-anchor="middle" x="243" y="-64" font-family="Helvetica,sans-Serif" font-size="10.00"> &lt; T, TMeta &gt;</text>
</g>
<!-- Node6 -->
<g id="node7" class="node">
<title>Node6</title>
<g id="a_node7"><a xlink:href="interface_fifty_one_1_1_pipeline_1_1_core_1_1_flow_elements_1_1_i_flow_element.html" target="_top" xlink:title=" ">
<polygon fill="none" stroke="black" points="335,-0.5 335,-41.5 531,-41.5 531,-0.5 335,-0.5"/>
<text text-anchor="start" x="343" y="-29.5" font-family="Helvetica,sans-Serif" font-size="10.00">IFlowElement&lt; IJsonBuilder</text>
<text text-anchor="start" x="343" y="-18.5" font-family="Helvetica,sans-Serif" font-size="10.00">ElementData, IElementPropertyMeta</text>
<text text-anchor="middle" x="433" y="-7.5" font-family="Helvetica,sans-Serif" font-size="10.00">Data &gt;</text>
</a>
</g>
</g>
<!-- Node4&#45;&gt;Node6 -->
<g id="edge7" class="edge">
<title>Node4&#45;&gt;Node6</title>
<path fill="none" stroke="orange" stroke-dasharray="5,2" d="M148.15,-28.05C155.16,-26.83 162.2,-25.78 169,-25 223.67,-18.74 285.14,-17.48 334.9,-17.91"/>
<polygon fill="orange" stroke="orange" points="147.11,-24.69 137.92,-29.95 148.39,-31.57 147.11,-24.69"/>
<text text-anchor="start" x="169" y="-39" font-family="Helvetica,sans-Serif" font-size="10.00"> &lt; IJsonBuilderElementData,</text>
<text text-anchor="middle" x="243" y="-28" font-family="Helvetica,sans-Serif" font-size="10.00"> IElementPropertyMetaData &gt;</text>
</g>
<!-- Node5 -->
<g id="node6" class="node">
<title>Node5</title>
<g id="a_node6"><a xlink:href="interface_fifty_one_1_1_pipeline_1_1_json_builder_1_1_flow_element_1_1_i_json_builder_element.html" target="_top" xlink:title="The Interface for the JsonBuilderElement See the Specification">
<polygon fill="none" stroke="black" points="755.5,-11.5 755.5,-30.5 870.5,-30.5 870.5,-11.5 755.5,-11.5"/>
<text text-anchor="middle" x="813" y="-18.5" font-family="Helvetica,sans-Serif" font-size="10.00">IJsonBuilderElement</text>
</a>
</g>
</g>
<!-- Node5&#45;&gt;Node0 -->
<g id="edge5" class="edge">
<title>Node5&#45;&gt;Node0</title>
<path fill="none" stroke="midnightblue" d="M880.93,-23.92C950.77,-26.97 1060.62,-31.76 1137.68,-35.12"/>
<polygon fill="midnightblue" stroke="midnightblue" points="881.07,-20.42 870.92,-23.48 880.76,-27.42 881.07,-20.42"/>
</g>
<!-- Node6&#45;&gt;Node5 -->
<g id="edge6" class="edge">
<title>Node6&#45;&gt;Node5</title>
<path fill="none" stroke="midnightblue" d="M541.49,-21C611.17,-21 699.13,-21 755.48,-21"/>
<polygon fill="midnightblue" stroke="midnightblue" points="541.34,-17.5 531.34,-21 541.34,-24.5 541.34,-17.5"/>
</g>
</g>
</svg>
