<?xml version="1.0" encoding="UTF-8" standalone="no"?>
<!DOCTYPE svg PUBLIC "-//W3C//DTD SVG 1.1//EN"
 "http://www.w3.org/Graphics/SVG/1.1/DTD/svg11.dtd">
<!-- Generated by graphviz version 2.43.0 (0)
 -->
<!-- Title: FiftyOne.Pipeline.Core.Data.EvidenceKeyFilterWhitelist Pages: 1 -->
<svg width="166pt" height="162pt"
 viewBox="0.00 0.00 166.00 162.00" xmlns="http://www.w3.org/2000/svg" xmlns:xlink="http://www.w3.org/1999/xlink">
<g id="graph0" class="graph" transform="scale(1 1) rotate(0) translate(4 158)">
<title>FiftyOne.Pipeline.Core.Data.EvidenceKeyFilterWhitelist</title>
<!-- Node0 -->
<g id="node1" class="node">
<title>Node0</title>
<g id="a_node1"><a xlink:title="This evidence filter will only include keys that are in a list that is specified at construction time...">
<polygon fill="#bfbfbf" stroke="black" points="2,-67.5 2,-97.5 156,-97.5 156,-67.5 2,-67.5"/>
<text text-anchor="start" x="10" y="-85.5" font-family="Helvetica,sans-Serif" font-size="10.00">FiftyOne.Pipeline.Core.Data.</text>
<text text-anchor="middle" x="79" y="-74.5" font-family="Helvetica,sans-Serif" font-size="10.00">EvidenceKeyFilterWhitelist</text>
</a>
</g>
</g>
<!-- Node2 -->
<g id="node3" class="node">
<title>Node2</title>
<g id="a_node3"><a xlink:href="class_fifty_one_1_1_pipeline_1_1_core_1_1_data_1_1_evidence_key_filter_aggregator.html" target="_top" xlink:title="This implementation of IEvidenceKeyFilter aggregates multiple other filters using a logical OR approa...">
<polygon fill="none" stroke="black" points="0,-0.5 0,-30.5 158,-30.5 158,-0.5 0,-0.5"/>
<text text-anchor="start" x="8" y="-18.5" font-family="Helvetica,sans-Serif" font-size="10.00">FiftyOne.Pipeline.Core.Data.</text>
<text text-anchor="middle" x="79" y="-7.5" font-family="Helvetica,sans-Serif" font-size="10.00">EvidenceKeyFilterAggregator</text>
</a>
</g>
</g>
<!-- Node0&#45;&gt;Node2 -->
<g id="edge2" class="edge">
<title>Node0&#45;&gt;Node2</title>
<path fill="none" stroke="midnightblue" d="M79,-57.11C79,-48.15 79,-38.32 79,-30.58"/>
<polygon fill="midnightblue" stroke="midnightblue" points="75.5,-57.4 79,-67.4 82.5,-57.4 75.5,-57.4"/>
</g>
<!-- Node1 -->
<g id="node2" class="node">
<title>Node1</title>
<g id="a_node2"><a xlink:href="interface_fifty_one_1_1_pipeline_1_1_core_1_1_data_1_1_i_evidence_key_filter.html" target="_top" xlink:title="Represents an object that filters evidence key names based on some criteria.">
<polygon fill="none" stroke="black" points="25.5,-134.5 25.5,-153.5 132.5,-153.5 132.5,-134.5 25.5,-134.5"/>
<text text-anchor="middle" x="79" y="-141.5" font-family="Helvetica,sans-Serif" font-size="10.00">IEvidenceKeyFilter</text>
</a>
</g>
</g>
<!-- Node1&#45;&gt;Node0 -->
<g id="edge1" class="edge">
<title>Node1&#45;&gt;Node0</title>
<path fill="none" stroke="midnightblue" d="M79,-124.23C79,-115.59 79,-105.5 79,-97.52"/>
<polygon fill="midnightblue" stroke="midnightblue" points="75.5,-124.48 79,-134.48 82.5,-124.48 75.5,-124.48"/>
</g>
</g>
</svg>
