<?xml version="1.0" encoding="UTF-8" standalone="no"?>
<!DOCTYPE svg PUBLIC "-//W3C//DTD SVG 1.1//EN"
 "http://www.w3.org/Graphics/SVG/1.1/DTD/svg11.dtd">
<!-- Generated by graphviz version 2.43.0 (0)
 -->
<!-- Title: FiftyOne.Pipeline.Core.FlowElements.FlowElementBase&lt; T, TMeta &gt; Pages: 1 -->
<svg width="1954pt" height="614pt"
 viewBox="0.00 0.00 1954.00 613.50" xmlns="http://www.w3.org/2000/svg" xmlns:xlink="http://www.w3.org/1999/xlink">
<g id="graph0" class="graph" transform="scale(1 1) rotate(0) translate(4 609.5)">
<title>FiftyOne.Pipeline.Core.FlowElements.FlowElementBase&lt; T, TMeta &gt;</title>
<!-- Node0 -->
<g id="node1" class="node">
<title>Node0</title>
<g id="a_node1"><a xlink:title="Abstract base class for Flow Elements.">
<polygon fill="#bfbfbf" stroke="black" points="442,-273 442,-314 595,-314 595,-273 442,-273"/>
<text text-anchor="start" x="450" y="-302" font-family="Helvetica,sans-Serif" font-size="10.00">FiftyOne.Pipeline.Core.Flow</text>
<text text-anchor="start" x="450" y="-291" font-family="Helvetica,sans-Serif" font-size="10.00">Elements.FlowElementBase</text>
<text text-anchor="middle" x="518.5" y="-280" font-family="Helvetica,sans-Serif" font-size="10.00">&lt; T, TMeta &gt;</text>
</a>
</g>
</g>
<!-- Node3 -->
<g id="node4" class="node">
<title>Node3</title>
<g id="a_node4"><a xlink:href="class_fifty_one_1_1_pipeline_1_1_engines_1_1_flow_elements_1_1_aspect_engine_base.html" target="_top" xlink:title="Base class for 51Degrees aspect engines.">
<polygon fill="none" stroke="black" points="837.5,-524.5 837.5,-576.5 973.5,-576.5 973.5,-524.5 837.5,-524.5"/>
<text text-anchor="start" x="845.5" y="-564.5" font-family="Helvetica,sans-Serif" font-size="10.00">FiftyOne::Pipeline</text>
<text text-anchor="start" x="845.5" y="-553.5" font-family="Helvetica,sans-Serif" font-size="10.00">::Engines::FlowElements</text>
<text text-anchor="start" x="845.5" y="-542.5" font-family="Helvetica,sans-Serif" font-size="10.00">::AspectEngineBase&lt; T,</text>
<text text-anchor="middle" x="905.5" y="-531.5" font-family="Helvetica,sans-Serif" font-size="10.00"> TMeta &gt;</text>
</a>
</g>
</g>
<!-- Node0&#45;&gt;Node3 -->
<g id="edge3" class="edge">
<title>Node0&#45;&gt;Node3</title>
<path fill="none" stroke="midnightblue" d="M524.15,-324.16C532.84,-370.21 556.13,-456.53 613,-500.5 677.18,-550.13 773.18,-557.54 837.27,-555.95"/>
<polygon fill="midnightblue" stroke="midnightblue" points="527.57,-323.4 522.37,-314.17 520.67,-324.63 527.57,-323.4"/>
</g>
<!-- Node9 -->
<g id="node10" class="node">
<title>Node9</title>
<g id="a_node10"><a xlink:href="class_fifty_one_1_1_pipeline_1_1_core_1_1_flow_elements_1_1_flow_element_base.html" target="_top" xlink:title=" ">
<polygon fill="none" stroke="black" points="823.5,-453.5 823.5,-505.5 987.5,-505.5 987.5,-453.5 823.5,-453.5"/>
<text text-anchor="start" x="831.5" y="-493.5" font-family="Helvetica,sans-Serif" font-size="10.00">FiftyOne.Pipeline.Core.Flow</text>
<text text-anchor="start" x="831.5" y="-482.5" font-family="Helvetica,sans-Serif" font-size="10.00">Elements.FlowElementBase</text>
<text text-anchor="start" x="831.5" y="-471.5" font-family="Helvetica,sans-Serif" font-size="10.00">&lt; IJsonBuilderElementData,</text>
<text text-anchor="middle" x="905.5" y="-460.5" font-family="Helvetica,sans-Serif" font-size="10.00"> IElementPropertyMetaData &gt;</text>
</a>
</g>
</g>
<!-- Node0&#45;&gt;Node9 -->
<g id="edge9" class="edge">
<title>Node0&#45;&gt;Node9</title>
<path fill="none" stroke="orange" stroke-dasharray="5,2" d="M533.33,-323.4C548.57,-352.88 575.93,-396.85 613,-420.5 676.12,-460.77 761.25,-474.35 823.21,-478.56"/>
<polygon fill="orange" stroke="orange" points="536.42,-321.76 528.81,-314.38 530.16,-324.89 536.42,-321.76"/>
<text text-anchor="start" x="626" y="-488.5" font-family="Helvetica,sans-Serif" font-size="10.00"> &lt; IJsonBuilderElementData,</text>
<text text-anchor="middle" x="700" y="-477.5" font-family="Helvetica,sans-Serif" font-size="10.00"> IElementPropertyMetaData &gt;</text>
</g>
<!-- Node11 -->
<g id="node12" class="node">
<title>Node11</title>
<g id="a_node12"><a xlink:href="class_fifty_one_1_1_pipeline_1_1_core_1_1_flow_elements_1_1_flow_element_base.html" target="_top" xlink:title=" ">
<polygon fill="none" stroke="black" points="808.5,-382.5 808.5,-434.5 1002.5,-434.5 1002.5,-382.5 808.5,-382.5"/>
<text text-anchor="start" x="816.5" y="-422.5" font-family="Helvetica,sans-Serif" font-size="10.00">FiftyOne.Pipeline.Core.Flow</text>
<text text-anchor="start" x="816.5" y="-411.5" font-family="Helvetica,sans-Serif" font-size="10.00">Elements.FlowElementBase</text>
<text text-anchor="start" x="816.5" y="-400.5" font-family="Helvetica,sans-Serif" font-size="10.00">&lt; IMathData, IElementPropertyMeta</text>
<text text-anchor="middle" x="905.5" y="-389.5" font-family="Helvetica,sans-Serif" font-size="10.00">Data &gt;</text>
</a>
</g>
</g>
<!-- Node0&#45;&gt;Node11 -->
<g id="edge11" class="edge">
<title>Node0&#45;&gt;Node11</title>
<path fill="none" stroke="orange" stroke-dasharray="5,2" d="M555.13,-319.86C571.93,-331.14 592.71,-343.53 613,-351.5 675.64,-376.1 750.16,-390.43 808.18,-398.57"/>
<polygon fill="orange" stroke="orange" points="556.96,-316.87 546.73,-314.09 552.99,-322.64 556.96,-316.87"/>
<text text-anchor="start" x="621.5" y="-408.5" font-family="Helvetica,sans-Serif" font-size="10.00"> &lt; IMathData, IElementProperty</text>
<text text-anchor="middle" x="700" y="-397.5" font-family="Helvetica,sans-Serif" font-size="10.00">MetaData &gt;</text>
</g>
<!-- Node13 -->
<g id="node14" class="node">
<title>Node13</title>
<g id="a_node14"><a xlink:href="class_fifty_one_1_1_pipeline_1_1_core_1_1_flow_elements_1_1_flow_element_base.html" target="_top" xlink:title=" ">
<polygon fill="none" stroke="black" points="813,-310.5 813,-362.5 998,-362.5 998,-310.5 813,-310.5"/>
<text text-anchor="start" x="821" y="-350.5" font-family="Helvetica,sans-Serif" font-size="10.00">FiftyOne.Pipeline.Core.Flow</text>
<text text-anchor="start" x="821" y="-339.5" font-family="Helvetica,sans-Serif" font-size="10.00">Elements.FlowElementBase</text>
<text text-anchor="start" x="821" y="-328.5" font-family="Helvetica,sans-Serif" font-size="10.00">&lt; IElementData, IElementProperty</text>
<text text-anchor="middle" x="905.5" y="-317.5" font-family="Helvetica,sans-Serif" font-size="10.00">MetaData &gt;</text>
</a>
</g>
</g>
<!-- Node0&#45;&gt;Node13 -->
<g id="edge13" class="edge">
<title>Node0&#45;&gt;Node13</title>
<path fill="none" stroke="orange" stroke-dasharray="5,2" d="M605.31,-306.52C607.9,-306.86 610.47,-307.18 613,-307.5 679.74,-315.81 755.32,-323.28 812.8,-328.55"/>
<polygon fill="orange" stroke="orange" points="605.61,-303.03 595.24,-305.16 604.68,-309.96 605.61,-303.03"/>
<text text-anchor="start" x="634.5" y="-339.5" font-family="Helvetica,sans-Serif" font-size="10.00"> &lt; IElementData, IElement</text>
<text text-anchor="middle" x="700" y="-328.5" font-family="Helvetica,sans-Serif" font-size="10.00">PropertyMetaData &gt;</text>
</g>
<!-- Node18 -->
<g id="node19" class="node">
<title>Node18</title>
<g id="a_node19"><a xlink:href="class_fifty_one_1_1_pipeline_1_1_core_1_1_flow_elements_1_1_flow_element_base.html" target="_top" xlink:title=" ">
<polygon fill="none" stroke="black" points="815,-238.5 815,-290.5 996,-290.5 996,-238.5 815,-238.5"/>
<text text-anchor="start" x="823" y="-278.5" font-family="Helvetica,sans-Serif" font-size="10.00">FiftyOne.Pipeline.Core.Flow</text>
<text text-anchor="start" x="823" y="-267.5" font-family="Helvetica,sans-Serif" font-size="10.00">Elements.FlowElementBase</text>
<text text-anchor="start" x="823" y="-256.5" font-family="Helvetica,sans-Serif" font-size="10.00">&lt; IJavaScriptBuilderElementData,</text>
<text text-anchor="middle" x="905.5" y="-245.5" font-family="Helvetica,sans-Serif" font-size="10.00"> IElementPropertyMetaData &gt;</text>
</a>
</g>
</g>
<!-- Node0&#45;&gt;Node18 -->
<g id="edge18" class="edge">
<title>Node0&#45;&gt;Node18</title>
<path fill="none" stroke="orange" stroke-dasharray="5,2" d="M605.22,-286.12C607.84,-285.91 610.44,-285.7 613,-285.5 680.65,-280.17 757.18,-274.68 814.85,-270.65"/>
<polygon fill="orange" stroke="orange" points="604.7,-282.65 595.02,-286.95 605.27,-289.63 604.7,-282.65"/>
<text text-anchor="start" x="613" y="-299.5" font-family="Helvetica,sans-Serif" font-size="10.00"> &lt; IJavaScriptBuilderElement</text>
<text text-anchor="middle" x="700" y="-288.5" font-family="Helvetica,sans-Serif" font-size="10.00">Data, IElementPropertyMetaData &gt;</text>
</g>
<!-- Node20 -->
<g id="node21" class="node">
<title>Node20</title>
<g id="a_node21"><a xlink:href="class_fifty_one_1_1_pipeline_1_1_core_1_1_flow_elements_1_1_flow_element_base.html" target="_top" xlink:title=" ">
<polygon fill="none" stroke="black" points="805,-164.5 805,-216.5 1006,-216.5 1006,-164.5 805,-164.5"/>
<text text-anchor="start" x="813" y="-204.5" font-family="Helvetica,sans-Serif" font-size="10.00">FiftyOne.Pipeline.Core.Flow</text>
<text text-anchor="start" x="813" y="-193.5" font-family="Helvetica,sans-Serif" font-size="10.00">Elements.FlowElementBase</text>
<text text-anchor="start" x="813" y="-182.5" font-family="Helvetica,sans-Serif" font-size="10.00">&lt; ISetHeadersData, IElementProperty</text>
<text text-anchor="middle" x="905.5" y="-171.5" font-family="Helvetica,sans-Serif" font-size="10.00">MetaData &gt;</text>
</a>
</g>
</g>
<!-- Node0&#45;&gt;Node20 -->
<g id="edge20" class="edge">
<title>Node0&#45;&gt;Node20</title>
<path fill="none" stroke="orange" stroke-dasharray="5,2" d="M564.89,-268.18C579.85,-260.64 596.82,-252.96 613,-247.5 675.3,-226.5 747.85,-212.28 804.99,-203.29"/>
<polygon fill="orange" stroke="orange" points="563.14,-265.14 555.85,-272.82 566.34,-271.36 563.14,-265.14"/>
<text text-anchor="start" x="626" y="-261.5" font-family="Helvetica,sans-Serif" font-size="10.00"> &lt; ISetHeadersData,</text>
<text text-anchor="middle" x="700" y="-250.5" font-family="Helvetica,sans-Serif" font-size="10.00"> IElementPropertyMetaData &gt;</text>
</g>
<!-- Node22 -->
<g id="node23" class="node">
<title>Node22</title>
<g id="a_node23"><a xlink:href="class_fifty_one_1_1_pipeline_1_1_core_1_1_flow_elements_1_1_flow_element_base.html" target="_top" xlink:title=" ">
<polygon fill="none" stroke="black" points="813,-87.5 813,-139.5 998,-139.5 998,-87.5 813,-87.5"/>
<text text-anchor="start" x="821" y="-127.5" font-family="Helvetica,sans-Serif" font-size="10.00">FiftyOne.Pipeline.Core.Flow</text>
<text text-anchor="start" x="821" y="-116.5" font-family="Helvetica,sans-Serif" font-size="10.00">Elements.FlowElementBase</text>
<text text-anchor="start" x="821" y="-105.5" font-family="Helvetica,sans-Serif" font-size="10.00">&lt; IStarSignData, IElementProperty</text>
<text text-anchor="middle" x="905.5" y="-94.5" font-family="Helvetica,sans-Serif" font-size="10.00">MetaData &gt;</text>
</a>
</g>
</g>
<!-- Node0&#45;&gt;Node22 -->
<g id="edge22" class="edge">
<title>Node0&#45;&gt;Node22</title>
<path fill="none" stroke="orange" stroke-dasharray="5,2" d="M536.43,-264C552.75,-238.27 579.82,-201.94 613,-181.5 673.39,-144.29 752.26,-127.43 812.72,-119.8"/>
<polygon fill="orange" stroke="orange" points="533.39,-262.27 531.11,-272.62 539.34,-265.95 533.39,-262.27"/>
<text text-anchor="start" x="634.5" y="-195.5" font-family="Helvetica,sans-Serif" font-size="10.00"> &lt; IStarSignData, IElement</text>
<text text-anchor="middle" x="700" y="-184.5" font-family="Helvetica,sans-Serif" font-size="10.00">PropertyMetaData &gt;</text>
</g>
<!-- Node25 -->
<g id="node26" class="node">
<title>Node25</title>
<g id="a_node26"><a xlink:href="class_fifty_one_1_1_pipeline_1_1_core_1_1_flow_elements_1_1_flow_element_base.html" target="_top" xlink:title=" ">
<polygon fill="none" stroke="black" points="817.5,-3.5 817.5,-55.5 993.5,-55.5 993.5,-3.5 817.5,-3.5"/>
<text text-anchor="start" x="825.5" y="-43.5" font-family="Helvetica,sans-Serif" font-size="10.00">FiftyOne.Pipeline.Core.Flow</text>
<text text-anchor="start" x="825.5" y="-32.5" font-family="Helvetica,sans-Serif" font-size="10.00">Elements.FlowElementBase</text>
<text text-anchor="start" x="825.5" y="-21.5" font-family="Helvetica,sans-Serif" font-size="10.00">&lt; ISplitIpData, IElementProperty</text>
<text text-anchor="middle" x="905.5" y="-10.5" font-family="Helvetica,sans-Serif" font-size="10.00">MetaData &gt;</text>
</a>
</g>
</g>
<!-- Node0&#45;&gt;Node25 -->
<g id="edge25" class="edge">
<title>Node0&#45;&gt;Node25</title>
<path fill="none" stroke="orange" stroke-dasharray="5,2" d="M525.4,-262.95C535.47,-219.38 560.22,-139.96 613,-97.5 670.7,-51.08 754.48,-35.27 817.44,-30.38"/>
<polygon fill="orange" stroke="orange" points="521.93,-262.44 523.2,-272.96 528.77,-263.94 521.93,-262.44"/>
<text text-anchor="start" x="639.5" y="-111.5" font-family="Helvetica,sans-Serif" font-size="10.00"> &lt; ISplitIpData, IElement</text>
<text text-anchor="middle" x="700" y="-100.5" font-family="Helvetica,sans-Serif" font-size="10.00">PropertyMetaData &gt;</text>
</g>
<!-- Node1 -->
<g id="node2" class="node">
<title>Node1</title>
<g id="a_node2"><a xlink:href="interface_fifty_one_1_1_pipeline_1_1_core_1_1_flow_elements_1_1_i_flow_element.html" target="_top" xlink:title=" ">
<polygon fill="none" stroke="black" points="256,-284 256,-303 405,-303 405,-284 256,-284"/>
<text text-anchor="middle" x="330.5" y="-291" font-family="Helvetica,sans-Serif" font-size="10.00">IFlowElement&lt; T, TMeta &gt;</text>
</a>
</g>
</g>
<!-- Node1&#45;&gt;Node0 -->
<g id="edge1" class="edge">
<title>Node1&#45;&gt;Node0</title>
<path fill="none" stroke="midnightblue" d="M415.3,-293.5C424.12,-293.5 433.05,-293.5 441.78,-293.5"/>
<polygon fill="midnightblue" stroke="midnightblue" points="415.01,-290 405.01,-293.5 415.01,-297 415.01,-290"/>
</g>
<!-- Node2 -->
<g id="node3" class="node">
<title>Node2</title>
<g id="a_node3"><a xlink:href="interface_fifty_one_1_1_pipeline_1_1_core_1_1_flow_elements_1_1_i_flow_element.html" target="_top" xlink:title="IFlowElement is the basic building block of a pipeline.">
<polygon fill="none" stroke="black" points="0,-278.5 0,-308.5 151,-308.5 151,-278.5 0,-278.5"/>
<text text-anchor="start" x="8" y="-296.5" font-family="Helvetica,sans-Serif" font-size="10.00">FiftyOne.Pipeline.Core.Flow</text>
<text text-anchor="middle" x="75.5" y="-285.5" font-family="Helvetica,sans-Serif" font-size="10.00">Elements.IFlowElement</text>
</a>
</g>
</g>
<!-- Node2&#45;&gt;Node1 -->
<g id="edge2" class="edge">
<title>Node2&#45;&gt;Node1</title>
<path fill="none" stroke="orange" stroke-dasharray="5,2" d="M161.29,-293.5C191.95,-293.5 226.3,-293.5 255.93,-293.5"/>
<polygon fill="orange" stroke="orange" points="161.04,-290 151.04,-293.5 161.04,-297 161.04,-290"/>
<text text-anchor="middle" x="203.5" y="-296.5" font-family="Helvetica,sans-Serif" font-size="10.00"> &lt; T, TMeta &gt;</text>
</g>
<!-- Node4 -->
<g id="node5" class="node">
<title>Node4</title>
<g id="a_node5"><a xlink:href="class_fifty_one_1_1_pipeline_1_1_engines_1_1_flow_elements_1_1_on_premise_aspect_engine_base.html" target="_top" xlink:title="Base class for 51Degrees on&#45;premise aspect engines.">
<polygon fill="none" stroke="black" points="1067.5,-525.5 1067.5,-577.5 1233.5,-577.5 1233.5,-525.5 1067.5,-525.5"/>
<text text-anchor="start" x="1075.5" y="-565.5" font-family="Helvetica,sans-Serif" font-size="10.00">FiftyOne::Pipeline</text>
<text text-anchor="start" x="1075.5" y="-554.5" font-family="Helvetica,sans-Serif" font-size="10.00">::Engines::FlowElements</text>
<text text-anchor="start" x="1075.5" y="-543.5" font-family="Helvetica,sans-Serif" font-size="10.00">::OnPremiseAspectEngineBase</text>
<text text-anchor="middle" x="1150.5" y="-532.5" font-family="Helvetica,sans-Serif" font-size="10.00">&lt; T, TMeta &gt;</text>
</a>
</g>
</g>
<!-- Node3&#45;&gt;Node4 -->
<g id="edge4" class="edge">
<title>Node3&#45;&gt;Node4</title>
<path fill="none" stroke="midnightblue" d="M983.57,-550.82C1010.17,-550.93 1040.07,-551.05 1067.09,-551.16"/>
<polygon fill="midnightblue" stroke="midnightblue" points="983.56,-547.32 973.54,-550.78 983.53,-554.32 983.56,-547.32"/>
</g>
<!-- Node5 -->
<g id="node6" class="node">
<title>Node5</title>
<g id="a_node6"><a xlink:href="class_fifty_one_1_1_pipeline_1_1_engines_1_1_flow_elements_1_1_on_premise_aspect_engine_base.html" target="_top" xlink:title=" ">
<polygon fill="none" stroke="black" points="1439,-564 1439,-605 1700,-605 1700,-564 1439,-564"/>
<text text-anchor="start" x="1447" y="-593" font-family="Helvetica,sans-Serif" font-size="10.00">FiftyOne.Pipeline.Engines.</text>
<text text-anchor="start" x="1447" y="-582" font-family="Helvetica,sans-Serif" font-size="10.00">FlowElements.OnPremiseAspectEngine</text>
<text text-anchor="middle" x="1569.5" y="-571" font-family="Helvetica,sans-Serif" font-size="10.00">Base&lt; IStarSignData, IAspectPropertyMetaData &gt;</text>
</a>
</g>
</g>
<!-- Node4&#45;&gt;Node5 -->
<g id="edge5" class="edge">
<title>Node4&#45;&gt;Node5</title>
<path fill="none" stroke="orange" stroke-dasharray="5,2" d="M1244,-558.82C1301.24,-563.35 1375.59,-569.23 1438.68,-574.23"/>
<polygon fill="orange" stroke="orange" points="1244.13,-555.32 1233.89,-558.02 1243.58,-562.3 1244.13,-555.32"/>
<text text-anchor="start" x="1286.5" y="-585.5" font-family="Helvetica,sans-Serif" font-size="10.00"> &lt; IStarSignData, IAspect</text>
<text text-anchor="middle" x="1348.5" y="-574.5" font-family="Helvetica,sans-Serif" font-size="10.00">PropertyMetaData &gt;</text>
</g>
<!-- Node7 -->
<g id="node8" class="node">
<title>Node7</title>
<g id="a_node8"><a xlink:href="class_fifty_one_1_1_pipeline_1_1_engines_1_1_flow_elements_1_1_on_premise_aspect_engine_base.html" target="_top" xlink:title=" ">
<polygon fill="none" stroke="black" points="1449,-504 1449,-545 1690,-545 1690,-504 1449,-504"/>
<text text-anchor="start" x="1457" y="-533" font-family="Helvetica,sans-Serif" font-size="10.00">FiftyOne.Pipeline.Engines.</text>
<text text-anchor="start" x="1457" y="-522" font-family="Helvetica,sans-Serif" font-size="10.00">FlowElements.OnPremiseAspectEngine</text>
<text text-anchor="middle" x="1569.5" y="-511" font-family="Helvetica,sans-Serif" font-size="10.00">Base&lt; T, IFiftyOneAspectPropertyMetaData &gt;</text>
</a>
</g>
</g>
<!-- Node4&#45;&gt;Node7 -->
<g id="edge7" class="edge">
<title>Node4&#45;&gt;Node7</title>
<path fill="none" stroke="orange" stroke-dasharray="5,2" d="M1243.67,-536.99C1254.55,-535.63 1265.51,-534.42 1276,-533.5 1332.69,-528.55 1395.76,-526.2 1448.78,-525.14"/>
<polygon fill="orange" stroke="orange" points="1243.19,-533.52 1233.72,-538.28 1244.09,-540.46 1243.19,-533.52"/>
<text text-anchor="start" x="1276" y="-547.5" font-family="Helvetica,sans-Serif" font-size="10.00"> &lt; T, IFiftyOneAspectProperty</text>
<text text-anchor="middle" x="1348.5" y="-536.5" font-family="Helvetica,sans-Serif" font-size="10.00">MetaData &gt;</text>
</g>
<!-- Node6 -->
<g id="node7" class="node">
<title>Node6</title>
<g id="a_node7"><a xlink:href="class_examples_1_1_on_premise_engine_1_1_flow_elements_1_1_simple_on_premise_engine.html" target="_top" xlink:title="[class] [constructor]">
<polygon fill="none" stroke="black" points="1737,-569.5 1737,-599.5 1946,-599.5 1946,-569.5 1737,-569.5"/>
<text text-anchor="start" x="1745" y="-587.5" font-family="Helvetica,sans-Serif" font-size="10.00">Examples.OnPremiseEngine.</text>
<text text-anchor="middle" x="1841.5" y="-576.5" font-family="Helvetica,sans-Serif" font-size="10.00">FlowElements.SimpleOnPremiseEngine</text>
</a>
</g>
</g>
<!-- Node5&#45;&gt;Node6 -->
<g id="edge6" class="edge">
<title>Node5&#45;&gt;Node6</title>
<path fill="none" stroke="midnightblue" d="M1710.62,-584.5C1719.36,-584.5 1728.07,-584.5 1736.61,-584.5"/>
<polygon fill="midnightblue" stroke="midnightblue" points="1710.36,-581 1700.36,-584.5 1710.36,-588 1710.36,-581"/>
</g>
<!-- Node8 -->
<g id="node9" class="node">
<title>Node8</title>
<g id="a_node9"><a xlink:href="class_fifty_one_1_1_pipeline_1_1_engines_1_1_fifty_one_1_1_flow_elements_1_1_fifty_one_on_premise_aspect_engine_base.html" target="_top" xlink:title="51Degrees specific Engine base class.">
<polygon fill="none" stroke="black" points="1747.5,-504 1747.5,-545 1935.5,-545 1935.5,-504 1747.5,-504"/>
<text text-anchor="start" x="1755.5" y="-533" font-family="Helvetica,sans-Serif" font-size="10.00">FiftyOne.Pipeline.Engines.</text>
<text text-anchor="start" x="1755.5" y="-522" font-family="Helvetica,sans-Serif" font-size="10.00">FiftyOne.FlowElements.FiftyOne</text>
<text text-anchor="middle" x="1841.5" y="-511" font-family="Helvetica,sans-Serif" font-size="10.00">OnPremiseAspectEngineBase&lt; T &gt;</text>
</a>
</g>
</g>
<!-- Node7&#45;&gt;Node8 -->
<g id="edge8" class="edge">
<title>Node7&#45;&gt;Node8</title>
<path fill="none" stroke="midnightblue" d="M1700.48,-524.5C1716.3,-524.5 1732.21,-524.5 1747.34,-524.5"/>
<polygon fill="midnightblue" stroke="midnightblue" points="1700.11,-521 1690.11,-524.5 1700.1,-528 1700.11,-521"/>
</g>
<!-- Node10 -->
<g id="node11" class="node">
<title>Node10</title>
<g id="a_node11"><a xlink:href="class_fifty_one_1_1_pipeline_1_1_json_builder_1_1_flow_element_1_1_json_builder_element.html" target="_top" xlink:title="The JsonBuilderElement takes accessible properties and adds the property key:values to the Json objec...">
<polygon fill="none" stroke="black" points="1061,-476.5 1061,-506.5 1240,-506.5 1240,-476.5 1061,-476.5"/>
<text text-anchor="start" x="1069" y="-494.5" font-family="Helvetica,sans-Serif" font-size="10.00">FiftyOne.Pipeline.JsonBuilder.</text>
<text text-anchor="middle" x="1150.5" y="-483.5" font-family="Helvetica,sans-Serif" font-size="10.00">FlowElement.JsonBuilderElement</text>
</a>
</g>
</g>
<!-- Node9&#45;&gt;Node10 -->
<g id="edge10" class="edge">
<title>Node9&#45;&gt;Node10</title>
<path fill="none" stroke="midnightblue" d="M997.77,-484.01C1018.4,-485.03 1040.28,-486.11 1060.8,-487.12"/>
<polygon fill="midnightblue" stroke="midnightblue" points="997.91,-480.51 987.75,-483.51 997.57,-487.5 997.91,-480.51"/>
</g>
<!-- Node12 -->
<g id="node13" class="node">
<title>Node12</title>
<g id="a_node13"><a xlink:href="class_fifty_one_1_1_pipeline_1_1_math_1_1_math_element.html" target="_top" xlink:title=" ">
<polygon fill="none" stroke="black" points="1073,-427.5 1073,-457.5 1228,-457.5 1228,-427.5 1073,-427.5"/>
<text text-anchor="start" x="1081" y="-445.5" font-family="Helvetica,sans-Serif" font-size="10.00">FiftyOne.Pipeline.Math.Math</text>
<text text-anchor="middle" x="1150.5" y="-434.5" font-family="Helvetica,sans-Serif" font-size="10.00">Element</text>
</a>
</g>
</g>
<!-- Node11&#45;&gt;Node12 -->
<g id="edge12" class="edge">
<title>Node11&#45;&gt;Node12</title>
<path fill="none" stroke="midnightblue" d="M1012.46,-423.33C1032.78,-426.17 1053.69,-429.09 1072.86,-431.78"/>
<polygon fill="midnightblue" stroke="midnightblue" points="1012.93,-419.86 1002.54,-421.94 1011.96,-426.79 1012.93,-419.86"/>
</g>
<!-- Node14 -->
<g id="node15" class="node">
<title>Node14</title>
<g id="a_node15"><a xlink:href="class_fifty_one_1_1_pipeline_1_1_core_1_1_flow_elements_1_1_parallel_elements.html" target="_top" xlink:title="ParallelElements executes it&#39;s child IFlowElement objects in parallel.">
<polygon fill="none" stroke="black" points="1075,-378.5 1075,-408.5 1226,-408.5 1226,-378.5 1075,-378.5"/>
<text text-anchor="start" x="1083" y="-396.5" font-family="Helvetica,sans-Serif" font-size="10.00">FiftyOne.Pipeline.Core.Flow</text>
<text text-anchor="middle" x="1150.5" y="-385.5" font-family="Helvetica,sans-Serif" font-size="10.00">Elements.ParallelElements</text>
</a>
</g>
</g>
<!-- Node13&#45;&gt;Node14 -->
<g id="edge14" class="edge">
<title>Node13&#45;&gt;Node14</title>
<path fill="none" stroke="midnightblue" d="M1007.98,-360.3C1034.16,-366.44 1061.61,-372.88 1085.29,-378.44"/>
<polygon fill="midnightblue" stroke="midnightblue" points="1008.56,-356.84 998.02,-357.97 1006.96,-363.66 1008.56,-356.84"/>
</g>
<!-- Node15 -->
<g id="node16" class="node">
<title>Node15</title>
<g id="a_node16"><a xlink:href="class_fifty_one_1_1_pipeline_1_1_engines_1_1_fifty_one_1_1_flow_elements_1_1_sequence_element.html" target="_top" xlink:title="Sequence element establishes session and sequence evidence in the pipeline.">
<polygon fill="none" stroke="black" points="1061,-318 1061,-359 1240,-359 1240,-318 1061,-318"/>
<text text-anchor="start" x="1069" y="-347" font-family="Helvetica,sans-Serif" font-size="10.00">FiftyOne.Pipeline.Engines.</text>
<text text-anchor="start" x="1069" y="-336" font-family="Helvetica,sans-Serif" font-size="10.00">FiftyOne.FlowElements.Sequence</text>
<text text-anchor="middle" x="1150.5" y="-325" font-family="Helvetica,sans-Serif" font-size="10.00">Element</text>
</a>
</g>
</g>
<!-- Node13&#45;&gt;Node15 -->
<g id="edge15" class="edge">
<title>Node13&#45;&gt;Node15</title>
<path fill="none" stroke="midnightblue" d="M1008.24,-337.34C1025.73,-337.48 1043.77,-337.63 1060.88,-337.77"/>
<polygon fill="midnightblue" stroke="midnightblue" points="1008.05,-333.84 998.02,-337.25 1007.99,-340.84 1008.05,-333.84"/>
</g>
<!-- Node16 -->
<g id="node17" class="node">
<title>Node16</title>
<g id="a_node17"><a xlink:href="class_fifty_one_1_1_pipeline_1_1_engines_1_1_fifty_one_1_1_flow_elements_1_1_share_usage_base.html" target="_top" xlink:title="Abstract base class for ShareUsage elements.">
<polygon fill="none" stroke="black" points="1043,-268.5 1043,-298.5 1258,-298.5 1258,-268.5 1043,-268.5"/>
<text text-anchor="start" x="1051" y="-286.5" font-family="Helvetica,sans-Serif" font-size="10.00">FiftyOne.Pipeline.Engines.</text>
<text text-anchor="middle" x="1150.5" y="-275.5" font-family="Helvetica,sans-Serif" font-size="10.00">FiftyOne.FlowElements.ShareUsageBase</text>
</a>
</g>
</g>
<!-- Node13&#45;&gt;Node16 -->
<g id="edge16" class="edge">
<title>Node13&#45;&gt;Node16</title>
<path fill="none" stroke="midnightblue" d="M1008.03,-314.36C1032.41,-309.04 1057.9,-303.48 1080.42,-298.57"/>
<polygon fill="midnightblue" stroke="midnightblue" points="1007.05,-310.99 998.02,-316.54 1008.54,-317.83 1007.05,-310.99"/>
</g>
<!-- Node17 -->
<g id="node18" class="node">
<title>Node17</title>
<g id="a_node18"><a xlink:href="class_fifty_one_1_1_pipeline_1_1_engines_1_1_fifty_one_1_1_flow_elements_1_1_share_usage_element.html" target="_top" xlink:title="Flow element that sends usage data to 51Degrees for analysis.">
<polygon fill="none" stroke="black" points="1474,-263 1474,-304 1665,-304 1665,-263 1474,-263"/>
<text text-anchor="start" x="1482" y="-292" font-family="Helvetica,sans-Serif" font-size="10.00">FiftyOne.Pipeline.Engines.</text>
<text text-anchor="start" x="1482" y="-281" font-family="Helvetica,sans-Serif" font-size="10.00">FiftyOne.FlowElements.ShareUsage</text>
<text text-anchor="middle" x="1569.5" y="-270" font-family="Helvetica,sans-Serif" font-size="10.00">Element</text>
</a>
</g>
</g>
<!-- Node16&#45;&gt;Node17 -->
<g id="edge17" class="edge">
<title>Node16&#45;&gt;Node17</title>
<path fill="none" stroke="midnightblue" d="M1268.36,-283.5C1333.26,-283.5 1412.94,-283.5 1473.89,-283.5"/>
<polygon fill="midnightblue" stroke="midnightblue" points="1268.08,-280 1258.08,-283.5 1268.08,-287 1268.08,-280"/>
</g>
<!-- Node19 -->
<g id="node20" class="node">
<title>Node19</title>
<g id="a_node20"><a xlink:href="class_fifty_one_1_1_pipeline_1_1_java_script_builder_1_1_flow_element_1_1_java_script_builder_element.html" target="_top" xlink:title="JavaScript Builder Element generates a JavaScript include to be run on the client device.">
<polygon fill="none" stroke="black" points="1049,-208 1049,-249 1252,-249 1252,-208 1049,-208"/>
<text text-anchor="start" x="1057" y="-237" font-family="Helvetica,sans-Serif" font-size="10.00">FiftyOne.Pipeline.JavaScript</text>
<text text-anchor="start" x="1057" y="-226" font-family="Helvetica,sans-Serif" font-size="10.00">Builder.FlowElement.JavaScriptBuilder</text>
<text text-anchor="middle" x="1150.5" y="-215" font-family="Helvetica,sans-Serif" font-size="10.00">Element</text>
</a>
</g>
</g>
<!-- Node18&#45;&gt;Node19 -->
<g id="edge19" class="edge">
<title>Node18&#45;&gt;Node19</title>
<path fill="none" stroke="midnightblue" d="M1006.37,-249.7C1020.31,-247.64 1034.65,-245.52 1048.61,-243.45"/>
<polygon fill="midnightblue" stroke="midnightblue" points="1005.67,-246.27 996.29,-251.2 1006.7,-253.19 1005.67,-246.27"/>
</g>
<!-- Node21 -->
<g id="node22" class="node">
<title>Node21</title>
<g id="a_node22"><a xlink:href="class_fifty_one_1_1_pipeline_1_1_engines_1_1_fifty_one_1_1_flow_elements_1_1_set_headers_element.html" target="_top" xlink:title="This element is used to determine the values for HTTP headers that other elements in the pipeline wan...">
<polygon fill="none" stroke="black" points="1056.5,-148 1056.5,-189 1244.5,-189 1244.5,-148 1056.5,-148"/>
<text text-anchor="start" x="1064.5" y="-177" font-family="Helvetica,sans-Serif" font-size="10.00">FiftyOne.Pipeline.Engines.</text>
<text text-anchor="start" x="1064.5" y="-166" font-family="Helvetica,sans-Serif" font-size="10.00">FiftyOne.FlowElements.SetHeaders</text>
<text text-anchor="middle" x="1150.5" y="-155" font-family="Helvetica,sans-Serif" font-size="10.00">Element</text>
</a>
</g>
</g>
<!-- Node20&#45;&gt;Node21 -->
<g id="edge21" class="edge">
<title>Node20&#45;&gt;Node21</title>
<path fill="none" stroke="midnightblue" d="M1016.24,-180.56C1029.65,-179.35 1043.25,-178.12 1056.38,-176.93"/>
<polygon fill="midnightblue" stroke="midnightblue" points="1015.68,-177.1 1006.04,-181.49 1016.31,-184.07 1015.68,-177.1"/>
</g>
<!-- Node23 -->
<g id="node24" class="node">
<title>Node23</title>
<g id="a_node24"><a xlink:href="class_examples_1_1_client_side_evidence_1_1_shared_1_1_simple_client_side_element.html" target="_top" xlink:title="[class] [constructor]">
<polygon fill="none" stroke="black" points="1062,-98.5 1062,-128.5 1239,-128.5 1239,-98.5 1062,-98.5"/>
<text text-anchor="start" x="1070" y="-116.5" font-family="Helvetica,sans-Serif" font-size="10.00">Examples.ClientSideEvidence.</text>
<text text-anchor="middle" x="1150.5" y="-105.5" font-family="Helvetica,sans-Serif" font-size="10.00">Shared.SimpleClientSideElement</text>
</a>
</g>
</g>
<!-- Node22&#45;&gt;Node23 -->
<g id="edge23" class="edge">
<title>Node22&#45;&gt;Node23</title>
<path fill="none" stroke="midnightblue" d="M1008.38,-113.5C1026.09,-113.5 1044.38,-113.5 1061.68,-113.5"/>
<polygon fill="midnightblue" stroke="midnightblue" points="1008.02,-110 998.02,-113.5 1008.02,-117 1008.02,-110"/>
</g>
<!-- Node24 -->
<g id="node25" class="node">
<title>Node24</title>
<g id="a_node25"><a xlink:href="class_examples_1_1_custom_flow_element_1_1_flow_elements_1_1_simple_flow_element.html" target="_top" xlink:title="[class] [constructor]">
<polygon fill="none" stroke="black" points="1057.5,-49.5 1057.5,-79.5 1243.5,-79.5 1243.5,-49.5 1057.5,-49.5"/>
<text text-anchor="start" x="1065.5" y="-67.5" font-family="Helvetica,sans-Serif" font-size="10.00">Examples.CustomFlowElement.</text>
<text text-anchor="middle" x="1150.5" y="-56.5" font-family="Helvetica,sans-Serif" font-size="10.00">FlowElements.SimpleFlowElement</text>
</a>
</g>
</g>
<!-- Node22&#45;&gt;Node24 -->
<g id="edge24" class="edge">
<title>Node22&#45;&gt;Node24</title>
<path fill="none" stroke="midnightblue" d="M1007.94,-93.05C1030.44,-88.51 1053.88,-83.78 1075.07,-79.51"/>
<polygon fill="midnightblue" stroke="midnightblue" points="1007.13,-89.64 998.02,-95.05 1008.52,-96.5 1007.13,-89.64"/>
</g>
<!-- Node26 -->
<g id="node27" class="node">
<title>Node26</title>
<g id="a_node27"><a xlink:href="class_fifty_one_1_1_pipeline_1_1_ip_splitter_1_1_ip_splitter_element.html" target="_top" xlink:title=" ">
<polygon fill="none" stroke="black" points="1076,-0.5 1076,-30.5 1225,-30.5 1225,-0.5 1076,-0.5"/>
<text text-anchor="start" x="1084" y="-18.5" font-family="Helvetica,sans-Serif" font-size="10.00">FiftyOne.Pipeline.IpSplitter.</text>
<text text-anchor="middle" x="1150.5" y="-7.5" font-family="Helvetica,sans-Serif" font-size="10.00">IpSplitterElement</text>
</a>
</g>
</g>
<!-- Node25&#45;&gt;Node26 -->
<g id="edge26" class="edge">
<title>Node25&#45;&gt;Node26</title>
<path fill="none" stroke="midnightblue" d="M1003.76,-23.9C1027.81,-22.51 1053.18,-21.05 1075.9,-19.74"/>
<polygon fill="midnightblue" stroke="midnightblue" points="1003.32,-20.42 993.54,-24.49 1003.73,-27.4 1003.32,-20.42"/>
</g>
</g>
</svg>
