<?xml version="1.0" encoding="UTF-8" standalone="no"?>
<!DOCTYPE svg PUBLIC "-//W3C//DTD SVG 1.1//EN"
 "http://www.w3.org/Graphics/SVG/1.1/DTD/svg11.dtd">
<!-- Generated by graphviz version 2.43.0 (0)
 -->
<!-- Title: FiftyOne.Pipeline.Engines.FiftyOne.FlowElements.ShareUsageBase Pages: 1 -->
<svg width="247pt" height="421pt"
 viewBox="0.00 0.00 246.50 421.00" xmlns="http://www.w3.org/2000/svg" xmlns:xlink="http://www.w3.org/1999/xlink">
<g id="graph0" class="graph" transform="scale(1 1) rotate(0) translate(4 417)">
<title>FiftyOne.Pipeline.Engines.FiftyOne.FlowElements.ShareUsageBase</title>
<!-- Node0 -->
<g id="node1" class="node">
<title>Node0</title>
<g id="a_node1"><a xlink:title="Abstract base class for ShareUsage elements.">
<polygon fill="#bfbfbf" stroke="black" points="0,-79.5 0,-109.5 215,-109.5 215,-79.5 0,-79.5"/>
<text text-anchor="start" x="8" y="-97.5" font-family="Helvetica,sans-Serif" font-size="10.00">FiftyOne.Pipeline.Engines.</text>
<text text-anchor="middle" x="107.5" y="-86.5" font-family="Helvetica,sans-Serif" font-size="10.00">FiftyOne.FlowElements.ShareUsageBase</text>
</a>
</g>
</g>
<!-- Node5 -->
<g id="node6" class="node">
<title>Node5</title>
<g id="a_node6"><a xlink:href="class_fifty_one_1_1_pipeline_1_1_engines_1_1_fifty_one_1_1_flow_elements_1_1_share_usage_element.html" target="_top" xlink:title="Flow element that sends usage data to 51Degrees for analysis.">
<polygon fill="none" stroke="black" points="12,-0.5 12,-41.5 203,-41.5 203,-0.5 12,-0.5"/>
<text text-anchor="start" x="20" y="-29.5" font-family="Helvetica,sans-Serif" font-size="10.00">FiftyOne.Pipeline.Engines.</text>
<text text-anchor="start" x="20" y="-18.5" font-family="Helvetica,sans-Serif" font-size="10.00">FiftyOne.FlowElements.ShareUsage</text>
<text text-anchor="middle" x="107.5" y="-7.5" font-family="Helvetica,sans-Serif" font-size="10.00">Element</text>
</a>
</g>
</g>
<!-- Node0&#45;&gt;Node5 -->
<g id="edge5" class="edge">
<title>Node0&#45;&gt;Node5</title>
<path fill="none" stroke="midnightblue" d="M107.5,-69.1C107.5,-60.1 107.5,-50.02 107.5,-41.51"/>
<polygon fill="midnightblue" stroke="midnightblue" points="104,-69.37 107.5,-79.37 111,-69.37 104,-69.37"/>
</g>
<!-- Node1 -->
<g id="node2" class="node">
<title>Node1</title>
<g id="a_node2"><a xlink:href="class_fifty_one_1_1_pipeline_1_1_core_1_1_flow_elements_1_1_flow_element_base.html" target="_top" xlink:title=" ">
<polygon fill="none" stroke="black" points="12.5,-147.5 12.5,-177.5 202.5,-177.5 202.5,-147.5 12.5,-147.5"/>
<text text-anchor="start" x="20.5" y="-165.5" font-family="Helvetica,sans-Serif" font-size="10.00">FlowElementBase&lt; IElement</text>
<text text-anchor="middle" x="107.5" y="-154.5" font-family="Helvetica,sans-Serif" font-size="10.00">Data, IElementPropertyMetaData &gt;</text>
</a>
</g>
</g>
<!-- Node1&#45;&gt;Node0 -->
<g id="edge1" class="edge">
<title>Node1&#45;&gt;Node0</title>
<path fill="none" stroke="midnightblue" d="M107.5,-137.03C107.5,-127.86 107.5,-117.74 107.5,-109.79"/>
<polygon fill="midnightblue" stroke="midnightblue" points="104,-137.18 107.5,-147.18 111,-137.18 104,-137.18"/>
</g>
<!-- Node2 -->
<g id="node3" class="node">
<title>Node2</title>
<g id="a_node3"><a xlink:href="class_fifty_one_1_1_pipeline_1_1_core_1_1_flow_elements_1_1_flow_element_base.html" target="_top" xlink:title="Abstract base class for Flow Elements.">
<polygon fill="none" stroke="black" points="31,-236.5 31,-277.5 184,-277.5 184,-236.5 31,-236.5"/>
<text text-anchor="start" x="39" y="-265.5" font-family="Helvetica,sans-Serif" font-size="10.00">FiftyOne.Pipeline.Core.Flow</text>
<text text-anchor="start" x="39" y="-254.5" font-family="Helvetica,sans-Serif" font-size="10.00">Elements.FlowElementBase</text>
<text text-anchor="middle" x="107.5" y="-243.5" font-family="Helvetica,sans-Serif" font-size="10.00">&lt; T, TMeta &gt;</text>
</a>
</g>
</g>
<!-- Node2&#45;&gt;Node1 -->
<g id="edge2" class="edge">
<title>Node2&#45;&gt;Node1</title>
<path fill="none" stroke="orange" stroke-dasharray="5,2" d="M107.5,-226.24C107.5,-209.96 107.5,-190.54 107.5,-177.66"/>
<polygon fill="orange" stroke="orange" points="104,-226.38 107.5,-236.38 111,-226.38 104,-226.38"/>
<text text-anchor="start" x="107.5" y="-210" font-family="Helvetica,sans-Serif" font-size="10.00"> &lt; IElementData, IElement</text>
<text text-anchor="middle" x="173" y="-199" font-family="Helvetica,sans-Serif" font-size="10.00">PropertyMetaData &gt;</text>
</g>
<!-- Node3 -->
<g id="node4" class="node">
<title>Node3</title>
<g id="a_node4"><a xlink:href="interface_fifty_one_1_1_pipeline_1_1_core_1_1_flow_elements_1_1_i_flow_element.html" target="_top" xlink:title=" ">
<polygon fill="none" stroke="black" points="33,-315.5 33,-334.5 182,-334.5 182,-315.5 33,-315.5"/>
<text text-anchor="middle" x="107.5" y="-322.5" font-family="Helvetica,sans-Serif" font-size="10.00">IFlowElement&lt; T, TMeta &gt;</text>
</a>
</g>
</g>
<!-- Node3&#45;&gt;Node2 -->
<g id="edge3" class="edge">
<title>Node3&#45;&gt;Node2</title>
<path fill="none" stroke="midnightblue" d="M107.5,-305.25C107.5,-296.65 107.5,-286.45 107.5,-277.74"/>
<polygon fill="midnightblue" stroke="midnightblue" points="104,-305.37 107.5,-315.37 111,-305.37 104,-305.37"/>
</g>
<!-- Node4 -->
<g id="node5" class="node">
<title>Node4</title>
<g id="a_node5"><a xlink:href="interface_fifty_one_1_1_pipeline_1_1_core_1_1_flow_elements_1_1_i_flow_element.html" target="_top" xlink:title="IFlowElement is the basic building block of a pipeline.">
<polygon fill="none" stroke="black" points="32,-382.5 32,-412.5 183,-412.5 183,-382.5 32,-382.5"/>
<text text-anchor="start" x="40" y="-400.5" font-family="Helvetica,sans-Serif" font-size="10.00">FiftyOne.Pipeline.Core.Flow</text>
<text text-anchor="middle" x="107.5" y="-389.5" font-family="Helvetica,sans-Serif" font-size="10.00">Elements.IFlowElement</text>
</a>
</g>
</g>
<!-- Node4&#45;&gt;Node3 -->
<g id="edge4" class="edge">
<title>Node4&#45;&gt;Node3</title>
<path fill="none" stroke="orange" stroke-dasharray="5,2" d="M107.5,-372.09C107.5,-359.21 107.5,-344.2 107.5,-334.89"/>
<polygon fill="orange" stroke="orange" points="104,-372.23 107.5,-382.23 111,-372.23 104,-372.23"/>
<text text-anchor="middle" x="142" y="-356" font-family="Helvetica,sans-Serif" font-size="10.00"> &lt; T, TMeta &gt;</text>
</g>
</g>
</svg>
