<?xml version="1.0" encoding="UTF-8" standalone="no"?>
<!DOCTYPE svg PUBLIC "-//W3C//DTD SVG 1.1//EN"
 "http://www.w3.org/Graphics/SVG/1.1/DTD/svg11.dtd">
<!-- Generated by graphviz version 2.43.0 (0)
 -->
<!-- Title: Examples.CloudEngine.FlowElements.SimpleCloudEngine Pages: 1 -->
<svg width="449pt" height="88pt"
 viewBox="0.00 0.00 449.00 88.00" xmlns="http://www.w3.org/2000/svg" xmlns:xlink="http://www.w3.org/1999/xlink">
<g id="graph0" class="graph" transform="scale(1 1) rotate(0) translate(4 84)">
<title>Examples.CloudEngine.FlowElements.SimpleCloudEngine</title>
<!-- Node2 -->
<g id="node1" class="node">
<title>Node2</title>
<g id="a_node1"><a xlink:title="[class] [constructor]">
<polygon fill="#bfbfbf" stroke="black" points="281,-24.5 281,-54.5 441,-54.5 441,-24.5 281,-24.5"/>
<text text-anchor="start" x="289" y="-42.5" font-family="Helvetica,sans-Serif" font-size="10.00">Examples.CloudEngine.Flow</text>
<text text-anchor="middle" x="361" y="-31.5" font-family="Helvetica,sans-Serif" font-size="10.00">Elements.SimpleCloudEngine</text>
</a>
</g>
</g>
<!-- Node3 -->
<g id="node2" class="node">
<title>Node3</title>
<g id="a_node2"><a xlink:title=" ">
<polygon fill="none" stroke="#bfbfbf" points="10,-49.5 10,-79.5 144,-79.5 144,-49.5 10,-49.5"/>
<text text-anchor="start" x="18" y="-67.5" font-family="Helvetica,sans-Serif" font-size="10.00">CloudAspectEngineBase</text>
<text text-anchor="middle" x="77" y="-56.5" font-family="Helvetica,sans-Serif" font-size="10.00">&lt; IStarSignData &gt;</text>
</a>
</g>
</g>
<!-- Node3&#45;&gt;Node2 -->
<g id="edge1" class="edge">
<title>Node3&#45;&gt;Node2</title>
<path fill="none" stroke="midnightblue" d="M154.15,-57.75C193.35,-54.27 241.11,-50.04 280.75,-46.53"/>
<polygon fill="midnightblue" stroke="midnightblue" points="153.77,-54.27 144.12,-58.64 154.39,-61.24 153.77,-54.27"/>
</g>
<!-- Node4 -->
<g id="node3" class="node">
<title>Node4</title>
<g id="a_node3"><a xlink:href="interface_fifty_one_1_1_pipeline_1_1_core_1_1_data_1_1_i_evidence_key_filter.html" target="_top" xlink:title="Represents an object that filters evidence key names based on some criteria.">
<polygon fill="none" stroke="black" points="0,-0.5 0,-30.5 154,-30.5 154,-0.5 0,-0.5"/>
<text text-anchor="start" x="8" y="-18.5" font-family="Helvetica,sans-Serif" font-size="10.00">FiftyOne.Pipeline.Core.Data.</text>
<text text-anchor="middle" x="77" y="-7.5" font-family="Helvetica,sans-Serif" font-size="10.00">IEvidenceKeyFilter</text>
</a>
</g>
</g>
<!-- Node4&#45;&gt;Node2 -->
<g id="edge2" class="edge">
<title>Node4&#45;&gt;Node2</title>
<path fill="none" stroke="#9a32cd" stroke-dasharray="5,2" d="M164.58,-22.87C201.59,-26.02 244.5,-29.67 280.67,-32.75"/>
<polygon fill="#9a32cd" stroke="#9a32cd" points="164.57,-19.36 154.31,-21.99 163.98,-26.33 164.57,-19.36"/>
<text text-anchor="middle" x="217.5" y="-33.5" font-family="Helvetica,sans-Serif" font-size="10.00"> EvidenceKeyFilter</text>
</g>
</g>
</svg>
