<?xml version="1.0" encoding="UTF-8" standalone="no"?>
<!DOCTYPE svg PUBLIC "-//W3C//DTD SVG 1.1//EN"
 "http://www.w3.org/Graphics/SVG/1.1/DTD/svg11.dtd">
<!-- Generated by graphviz version 2.43.0 (0)
 -->
<!-- Title: FiftyOne.Pipeline.Core.Exceptions.PipelineDataException Pages: 1 -->
<svg width="192pt" height="151pt"
 viewBox="0.00 0.00 192.00 151.00" xmlns="http://www.w3.org/2000/svg" xmlns:xlink="http://www.w3.org/1999/xlink">
<g id="graph0" class="graph" transform="scale(1 1) rotate(0) translate(4 147)">
<title>FiftyOne.Pipeline.Core.Exceptions.PipelineDataException</title>
<!-- Node0 -->
<g id="node1" class="node">
<title>Node0</title>
<g id="a_node1"><a xlink:title="Exception that can be thrown when the available data does not match that which is expected.">
<polygon fill="#bfbfbf" stroke="black" points="0,-0.5 0,-30.5 184,-30.5 184,-0.5 0,-0.5"/>
<text text-anchor="start" x="8" y="-18.5" font-family="Helvetica,sans-Serif" font-size="10.00">FiftyOne.Pipeline.Core.Exceptions.</text>
<text text-anchor="middle" x="92" y="-7.5" font-family="Helvetica,sans-Serif" font-size="10.00">PipelineDataException</text>
</a>
</g>
</g>
<!-- Node1 -->
<g id="node2" class="node">
<title>Node1</title>
<g id="a_node2"><a xlink:href="class_fifty_one_1_1_pipeline_1_1_core_1_1_exceptions_1_1_pipeline_exception.html" target="_top" xlink:title="Base class for all exceptions thrown by Pipeline API components">
<polygon fill="none" stroke="black" points="40,-67.5 40,-86.5 144,-86.5 144,-67.5 40,-67.5"/>
<text text-anchor="middle" x="92" y="-74.5" font-family="Helvetica,sans-Serif" font-size="10.00">PipelineException</text>
</a>
</g>
</g>
<!-- Node1&#45;&gt;Node0 -->
<g id="edge1" class="edge">
<title>Node1&#45;&gt;Node0</title>
<path fill="none" stroke="midnightblue" d="M92,-57.23C92,-48.59 92,-38.5 92,-30.52"/>
<polygon fill="midnightblue" stroke="midnightblue" points="88.5,-57.48 92,-67.48 95.5,-57.48 88.5,-57.48"/>
</g>
<!-- Node2 -->
<g id="node3" class="node">
<title>Node2</title>
<g id="a_node3"><a xlink:title=" ">
<polygon fill="none" stroke="#bfbfbf" points="59.5,-123.5 59.5,-142.5 124.5,-142.5 124.5,-123.5 59.5,-123.5"/>
<text text-anchor="middle" x="92" y="-130.5" font-family="Helvetica,sans-Serif" font-size="10.00">Exception</text>
</a>
</g>
</g>
<!-- Node2&#45;&gt;Node1 -->
<g id="edge2" class="edge">
<title>Node2&#45;&gt;Node1</title>
<path fill="none" stroke="midnightblue" d="M92,-112.8C92,-103.91 92,-93.78 92,-86.75"/>
<polygon fill="midnightblue" stroke="midnightblue" points="88.5,-113.08 92,-123.08 95.5,-113.08 88.5,-113.08"/>
</g>
</g>
</svg>
