<?xml version="1.0" encoding="UTF-8" standalone="no"?>
<!DOCTYPE svg PUBLIC "-//W3C//DTD SVG 1.1//EN"
 "http://www.w3.org/Graphics/SVG/1.1/DTD/svg11.dtd">
<!-- Generated by graphviz version 2.43.0 (0)
 -->
<!-- Title: FiftyOne.Pipeline.Engines.FiftyOne.FlowElements.SetHeadersElement Pages: 1 -->
<svg width="1322pt" height="92pt"
 viewBox="0.00 0.00 1322.00 91.50" xmlns="http://www.w3.org/2000/svg" xmlns:xlink="http://www.w3.org/1999/xlink">
<g id="graph0" class="graph" transform="scale(1 1) rotate(0) translate(4 87.5)">
<title>FiftyOne.Pipeline.Engines.FiftyOne.FlowElements.SetHeadersElement</title>
<!-- Node0 -->
<g id="node1" class="node">
<title>Node0</title>
<g id="a_node1"><a xlink:title="This element is used to determine the values for HTTP headers that other elements in the pipeline wan...">
<polygon fill="#bfbfbf" stroke="black" points="1126,-13 1126,-54 1314,-54 1314,-13 1126,-13"/>
<text text-anchor="start" x="1134" y="-42" font-family="Helvetica,sans-Serif" font-size="10.00">FiftyOne.Pipeline.Engines.</text>
<text text-anchor="start" x="1134" y="-31" font-family="Helvetica,sans-Serif" font-size="10.00">FiftyOne.FlowElements.SetHeaders</text>
<text text-anchor="middle" x="1220" y="-20" font-family="Helvetica,sans-Serif" font-size="10.00">Element</text>
</a>
</g>
</g>
<!-- Node1 -->
<g id="node2" class="node">
<title>Node1</title>
<g id="a_node2"><a xlink:href="class_fifty_one_1_1_pipeline_1_1_core_1_1_flow_elements_1_1_flow_element_base.html" target="_top" xlink:title=" ">
<polygon fill="none" stroke="black" points="899,-46.5 899,-76.5 1089,-76.5 1089,-46.5 899,-46.5"/>
<text text-anchor="start" x="907" y="-64.5" font-family="Helvetica,sans-Serif" font-size="10.00">FlowElementBase&lt; ISetHeaders</text>
<text text-anchor="middle" x="994" y="-53.5" font-family="Helvetica,sans-Serif" font-size="10.00">Data, IElementPropertyMetaData &gt;</text>
</a>
</g>
</g>
<!-- Node1&#45;&gt;Node0 -->
<g id="edge1" class="edge">
<title>Node1&#45;&gt;Node0</title>
<path fill="none" stroke="midnightblue" d="M1099.09,-48.49C1108.05,-47.37 1117.07,-46.24 1125.94,-45.13"/>
<polygon fill="midnightblue" stroke="midnightblue" points="1098.51,-45.03 1089.02,-49.75 1099.38,-51.98 1098.51,-45.03"/>
</g>
<!-- Node2 -->
<g id="node3" class="node">
<title>Node2</title>
<g id="a_node3"><a xlink:href="class_fifty_one_1_1_pipeline_1_1_core_1_1_flow_elements_1_1_flow_element_base.html" target="_top" xlink:title="Abstract base class for Flow Elements.">
<polygon fill="none" stroke="black" points="562,-42 562,-83 715,-83 715,-42 562,-42"/>
<text text-anchor="start" x="570" y="-71" font-family="Helvetica,sans-Serif" font-size="10.00">FiftyOne.Pipeline.Core.Flow</text>
<text text-anchor="start" x="570" y="-60" font-family="Helvetica,sans-Serif" font-size="10.00">Elements.FlowElementBase</text>
<text text-anchor="middle" x="638.5" y="-49" font-family="Helvetica,sans-Serif" font-size="10.00">&lt; T, TMeta &gt;</text>
</a>
</g>
</g>
<!-- Node2&#45;&gt;Node1 -->
<g id="edge2" class="edge">
<title>Node2&#45;&gt;Node1</title>
<path fill="none" stroke="orange" stroke-dasharray="5,2" d="M725.61,-62.26C777.98,-62.11 844.9,-61.92 898.7,-61.77"/>
<polygon fill="orange" stroke="orange" points="725.32,-58.76 715.33,-62.29 725.34,-65.76 725.32,-58.76"/>
<text text-anchor="start" x="733" y="-75.5" font-family="Helvetica,sans-Serif" font-size="10.00"> &lt; ISetHeadersData,</text>
<text text-anchor="middle" x="807" y="-64.5" font-family="Helvetica,sans-Serif" font-size="10.00"> IElementPropertyMetaData &gt;</text>
</g>
<!-- Node3 -->
<g id="node4" class="node">
<title>Node3</title>
<g id="a_node4"><a xlink:href="interface_fifty_one_1_1_pipeline_1_1_core_1_1_flow_elements_1_1_i_flow_element.html" target="_top" xlink:title=" ">
<polygon fill="none" stroke="black" points="355.5,-52 355.5,-71 504.5,-71 504.5,-52 355.5,-52"/>
<text text-anchor="middle" x="430" y="-59" font-family="Helvetica,sans-Serif" font-size="10.00">IFlowElement&lt; T, TMeta &gt;</text>
</a>
</g>
</g>
<!-- Node3&#45;&gt;Node2 -->
<g id="edge3" class="edge">
<title>Node3&#45;&gt;Node2</title>
<path fill="none" stroke="midnightblue" d="M514.79,-61.91C530.33,-61.98 546.48,-62.06 561.76,-62.13"/>
<polygon fill="midnightblue" stroke="midnightblue" points="514.69,-58.41 504.68,-61.86 514.66,-65.41 514.69,-58.41"/>
</g>
<!-- Node4 -->
<g id="node5" class="node">
<title>Node4</title>
<g id="a_node5"><a xlink:href="interface_fifty_one_1_1_pipeline_1_1_core_1_1_flow_elements_1_1_i_flow_element.html" target="_top" xlink:title="IFlowElement is the basic building block of a pipeline.">
<polygon fill="none" stroke="black" points="0,-23.5 0,-53.5 151,-53.5 151,-23.5 0,-23.5"/>
<text text-anchor="start" x="8" y="-41.5" font-family="Helvetica,sans-Serif" font-size="10.00">FiftyOne.Pipeline.Core.Flow</text>
<text text-anchor="middle" x="75.5" y="-30.5" font-family="Helvetica,sans-Serif" font-size="10.00">Elements.IFlowElement</text>
</a>
</g>
</g>
<!-- Node4&#45;&gt;Node3 -->
<g id="edge4" class="edge">
<title>Node4&#45;&gt;Node3</title>
<path fill="none" stroke="orange" stroke-dasharray="5,2" d="M161.33,-44.03C220.5,-47.9 298.68,-53 355.26,-56.69"/>
<polygon fill="orange" stroke="orange" points="161.46,-40.54 151.26,-43.38 161.01,-47.52 161.46,-40.54"/>
<text text-anchor="middle" x="243" y="-57.5" font-family="Helvetica,sans-Serif" font-size="10.00"> &lt; T, TMeta &gt;</text>
</g>
<!-- Node6 -->
<g id="node7" class="node">
<title>Node6</title>
<g id="a_node7"><a xlink:href="interface_fifty_one_1_1_pipeline_1_1_core_1_1_flow_elements_1_1_i_flow_element.html" target="_top" xlink:title=" ">
<polygon fill="none" stroke="black" points="335,-0.5 335,-30.5 525,-30.5 525,-0.5 335,-0.5"/>
<text text-anchor="start" x="343" y="-18.5" font-family="Helvetica,sans-Serif" font-size="10.00">IFlowElement&lt; ISetHeaders</text>
<text text-anchor="middle" x="430" y="-7.5" font-family="Helvetica,sans-Serif" font-size="10.00">Data, IElementPropertyMetaData &gt;</text>
</a>
</g>
</g>
<!-- Node4&#45;&gt;Node6 -->
<g id="edge7" class="edge">
<title>Node4&#45;&gt;Node6</title>
<path fill="none" stroke="orange" stroke-dasharray="5,2" d="M152.16,-21.76C157.84,-20.88 163.5,-20.1 169,-19.5 223.75,-13.51 285.36,-12.32 334.87,-12.72"/>
<polygon fill="orange" stroke="orange" points="151.23,-18.37 141.95,-23.48 152.39,-25.27 151.23,-18.37"/>
<text text-anchor="start" x="169" y="-33.5" font-family="Helvetica,sans-Serif" font-size="10.00"> &lt; ISetHeadersData,</text>
<text text-anchor="middle" x="243" y="-22.5" font-family="Helvetica,sans-Serif" font-size="10.00"> IElementPropertyMetaData &gt;</text>
</g>
<!-- Node5 -->
<g id="node6" class="node">
<title>Node5</title>
<g id="a_node6"><a xlink:href="interface_fifty_one_1_1_pipeline_1_1_engines_1_1_fifty_one_1_1_flow_elements_1_1_i_set_headers_element.html" target="_top" xlink:title="An IFlowElement that collates responses from all engines that want to set headers in the HTTP respons...">
<polygon fill="none" stroke="black" points="749,-5 749,-24 865,-24 865,-5 749,-5"/>
<text text-anchor="middle" x="807" y="-12" font-family="Helvetica,sans-Serif" font-size="10.00">ISetHeadersElement</text>
</a>
</g>
</g>
<!-- Node5&#45;&gt;Node0 -->
<g id="edge5" class="edge">
<title>Node5&#45;&gt;Node0</title>
<path fill="none" stroke="midnightblue" d="M875.34,-17.61C943.48,-20.76 1049.4,-25.66 1125.63,-29.18"/>
<polygon fill="midnightblue" stroke="midnightblue" points="875.3,-14.11 865.15,-17.14 874.98,-21.1 875.3,-14.11"/>
</g>
<!-- Node6&#45;&gt;Node5 -->
<g id="edge6" class="edge">
<title>Node6&#45;&gt;Node5</title>
<path fill="none" stroke="midnightblue" d="M535.19,-15.22C604.28,-15.04 692.31,-14.8 748.92,-14.65"/>
<polygon fill="midnightblue" stroke="midnightblue" points="535.13,-11.72 525.14,-15.25 535.15,-18.72 535.13,-11.72"/>
</g>
</g>
</svg>
