<?xml version="1.0" encoding="UTF-8" standalone="no"?>
<!DOCTYPE svg PUBLIC "-//W3C//DTD SVG 1.1//EN"
 "http://www.w3.org/Graphics/SVG/1.1/DTD/svg11.dtd">
<!-- Generated by graphviz version 2.43.0 (0)
 -->
<!-- Title: FiftyOne.Pipeline.Engines.Configuration.DataFileConfigurationBuilderBase&lt; TBuilder, TConfig &gt; Pages: 1 -->
<svg width="895pt" height="132pt"
 viewBox="0.00 0.00 895.00 132.00" xmlns="http://www.w3.org/2000/svg" xmlns:xlink="http://www.w3.org/1999/xlink">
<g id="graph0" class="graph" transform="scale(1 1) rotate(0) translate(4 128)">
<title>FiftyOne.Pipeline.Engines.Configuration.DataFileConfigurationBuilderBase&lt; TBuilder, TConfig &gt;</title>
<!-- Node0 -->
<g id="node1" class="node">
<title>Node0</title>
<g id="a_node1"><a xlink:title="Builder class that is used to create instances of DataFileConfiguration objects.">
<polygon fill="#bfbfbf" stroke="black" points="0,-41 0,-82 191,-82 191,-41 0,-41"/>
<text text-anchor="start" x="8" y="-70" font-family="Helvetica,sans-Serif" font-size="10.00">FiftyOne.Pipeline.Engines.</text>
<text text-anchor="start" x="8" y="-59" font-family="Helvetica,sans-Serif" font-size="10.00">Configuration.DataFileConfiguration</text>
<text text-anchor="middle" x="95.5" y="-48" font-family="Helvetica,sans-Serif" font-size="10.00">BuilderBase&lt; TBuilder, TConfig &gt;</text>
</a>
</g>
</g>
<!-- Node1 -->
<g id="node2" class="node">
<title>Node1</title>
<g id="a_node2"><a xlink:href="class_fifty_one_1_1_pipeline_1_1_engines_1_1_configuration_1_1_data_file_configuration_builder_base.html" target="_top" xlink:title=" ">
<polygon fill="none" stroke="black" points="427.5,-71.5 427.5,-123.5 657.5,-123.5 657.5,-71.5 427.5,-71.5"/>
<text text-anchor="start" x="435.5" y="-111.5" font-family="Helvetica,sans-Serif" font-size="10.00">FiftyOne.Pipeline.Engines.</text>
<text text-anchor="start" x="435.5" y="-100.5" font-family="Helvetica,sans-Serif" font-size="10.00">Configuration.DataFileConfiguration</text>
<text text-anchor="start" x="435.5" y="-89.5" font-family="Helvetica,sans-Serif" font-size="10.00">BuilderBase&lt; DataFileConfigurationBuilder,</text>
<text text-anchor="middle" x="542.5" y="-78.5" font-family="Helvetica,sans-Serif" font-size="10.00"> DataFileConfiguration &gt;</text>
</a>
</g>
</g>
<!-- Node0&#45;&gt;Node1 -->
<g id="edge1" class="edge">
<title>Node0&#45;&gt;Node1</title>
<path fill="none" stroke="orange" stroke-dasharray="5,2" d="M201.43,-69.99C269.29,-75.48 357.63,-82.63 427.26,-88.26"/>
<polygon fill="orange" stroke="orange" points="201.4,-66.47 191.15,-69.16 200.83,-73.45 201.4,-66.47"/>
<text text-anchor="start" x="229.5" y="-99.5" font-family="Helvetica,sans-Serif" font-size="10.00"> &lt; DataFileConfigurationBuilder,</text>
<text text-anchor="middle" x="308.5" y="-88.5" font-family="Helvetica,sans-Serif" font-size="10.00"> DataFileConfiguration &gt;</text>
</g>
<!-- Node3 -->
<g id="node4" class="node">
<title>Node3</title>
<g id="a_node4"><a xlink:href="class_fifty_one_1_1_pipeline_1_1_engines_1_1_configuration_1_1_data_file_configuration_builder_base.html" target="_top" xlink:title=" ">
<polygon fill="none" stroke="black" points="426,-0.5 426,-52.5 659,-52.5 659,-0.5 426,-0.5"/>
<text text-anchor="start" x="434" y="-40.5" font-family="Helvetica,sans-Serif" font-size="10.00">FiftyOne.Pipeline.Engines.</text>
<text text-anchor="start" x="434" y="-29.5" font-family="Helvetica,sans-Serif" font-size="10.00">Configuration.DataFileConfiguration</text>
<text text-anchor="start" x="434" y="-18.5" font-family="Helvetica,sans-Serif" font-size="10.00">BuilderBase&lt; FiftyOneDataFileConfiguration</text>
<text text-anchor="middle" x="542.5" y="-7.5" font-family="Helvetica,sans-Serif" font-size="10.00">Builder, FiftyOneDataFileConfiguration &gt;</text>
</a>
</g>
</g>
<!-- Node0&#45;&gt;Node3 -->
<g id="edge3" class="edge">
<title>Node0&#45;&gt;Node3</title>
<path fill="none" stroke="orange" stroke-dasharray="5,2" d="M201.32,-47.27C203.91,-47 206.47,-46.74 209,-46.5 280.95,-39.55 361.91,-34.62 425.93,-31.39"/>
<polygon fill="orange" stroke="orange" points="200.84,-43.8 191.28,-48.36 201.59,-50.76 200.84,-43.8"/>
<text text-anchor="start" x="209" y="-60.5" font-family="Helvetica,sans-Serif" font-size="10.00"> &lt; FiftyOneDataFileConfiguration</text>
<text text-anchor="middle" x="308.5" y="-49.5" font-family="Helvetica,sans-Serif" font-size="10.00">Builder, FiftyOneDataFileConfiguration &gt;</text>
</g>
<!-- Node2 -->
<g id="node3" class="node">
<title>Node2</title>
<g id="a_node3"><a xlink:href="class_fifty_one_1_1_pipeline_1_1_engines_1_1_configuration_1_1_data_file_configuration_builder.html" target="_top" xlink:title="Builder class for DataFileConfiguration instances.">
<polygon fill="none" stroke="black" points="696,-77 696,-118 887,-118 887,-77 696,-77"/>
<text text-anchor="start" x="704" y="-106" font-family="Helvetica,sans-Serif" font-size="10.00">FiftyOne.Pipeline.Engines.</text>
<text text-anchor="start" x="704" y="-95" font-family="Helvetica,sans-Serif" font-size="10.00">Configuration.DataFileConfiguration</text>
<text text-anchor="middle" x="791.5" y="-84" font-family="Helvetica,sans-Serif" font-size="10.00">Builder</text>
</a>
</g>
</g>
<!-- Node1&#45;&gt;Node2 -->
<g id="edge2" class="edge">
<title>Node1&#45;&gt;Node2</title>
<path fill="none" stroke="midnightblue" d="M667.79,-97.5C677.19,-97.5 686.59,-97.5 695.76,-97.5"/>
<polygon fill="midnightblue" stroke="midnightblue" points="667.6,-94 657.6,-97.5 667.6,-101 667.6,-94"/>
</g>
<!-- Node4 -->
<g id="node5" class="node">
<title>Node4</title>
<g id="a_node5"><a xlink:href="class_fifty_one_1_1_pipeline_1_1_engines_1_1_fifty_one_1_1_configuration_1_1_fifty_one_data_file_configuration_builder.html" target="_top" xlink:title="Builder class for 51Degrees specific data file configuration instances.">
<polygon fill="none" stroke="black" points="707,-6 707,-47 876,-47 876,-6 707,-6"/>
<text text-anchor="start" x="715" y="-35" font-family="Helvetica,sans-Serif" font-size="10.00">FiftyOne.Pipeline.Engines.</text>
<text text-anchor="start" x="715" y="-24" font-family="Helvetica,sans-Serif" font-size="10.00">FiftyOne.Configuration.FiftyOne</text>
<text text-anchor="middle" x="791.5" y="-13" font-family="Helvetica,sans-Serif" font-size="10.00">DataFileConfigurationBuilder</text>
</a>
</g>
</g>
<!-- Node3&#45;&gt;Node4 -->
<g id="edge4" class="edge">
<title>Node3&#45;&gt;Node4</title>
<path fill="none" stroke="midnightblue" d="M669.23,-26.5C681.93,-26.5 694.6,-26.5 706.7,-26.5"/>
<polygon fill="midnightblue" stroke="midnightblue" points="669.04,-23 659.04,-26.5 669.04,-30 669.04,-23"/>
</g>
</g>
</svg>
