<?xml version="1.0" encoding="UTF-8" standalone="no"?>
<!DOCTYPE svg PUBLIC "-//W3C//DTD SVG 1.1//EN"
 "http://www.w3.org/Graphics/SVG/1.1/DTD/svg11.dtd">
<!-- Generated by graphviz version 2.43.0 (0)
 -->
<!-- Title: FiftyOne.Pipeline.JsonBuilder.Data.JsonBuilderElementData Pages: 1 -->
<svg width="268pt" height="207pt"
 viewBox="0.00 0.00 268.00 207.00" xmlns="http://www.w3.org/2000/svg" xmlns:xlink="http://www.w3.org/1999/xlink">
<g id="graph0" class="graph" transform="scale(1 1) rotate(0) translate(4 203)">
<title>FiftyOne.Pipeline.JsonBuilder.Data.JsonBuilderElementData</title>
<!-- Node6 -->
<g id="node1" class="node">
<title>Node6</title>
<g id="a_node1"><a xlink:title="JsonBuilderElement data class.">
<polygon fill="#bfbfbf" stroke="black" points="40.5,-0.5 40.5,-30.5 201.5,-30.5 201.5,-0.5 40.5,-0.5"/>
<text text-anchor="start" x="48.5" y="-18.5" font-family="Helvetica,sans-Serif" font-size="10.00">FiftyOne.Pipeline.JsonBuilder.</text>
<text text-anchor="middle" x="121" y="-7.5" font-family="Helvetica,sans-Serif" font-size="10.00">Data.JsonBuilderElementData</text>
</a>
</g>
</g>
<!-- Node7 -->
<g id="node2" class="node">
<title>Node7</title>
<g id="a_node2"><a xlink:href="class_fifty_one_1_1_pipeline_1_1_core_1_1_data_1_1_element_data_base.html" target="_top" xlink:title="This class stores property values that have been determined by a specific FlowElement based on the su...">
<polygon fill="none" stroke="black" points="0,-67.5 0,-86.5 104,-86.5 104,-67.5 0,-67.5"/>
<text text-anchor="middle" x="52" y="-74.5" font-family="Helvetica,sans-Serif" font-size="10.00">ElementDataBase</text>
</a>
</g>
</g>
<!-- Node7&#45;&gt;Node6 -->
<g id="edge1" class="edge">
<title>Node7&#45;&gt;Node6</title>
<path fill="none" stroke="midnightblue" d="M69.49,-60.92C80.32,-51.58 94.14,-39.66 104.74,-30.52"/>
<polygon fill="midnightblue" stroke="midnightblue" points="67.17,-58.29 61.89,-67.48 71.74,-63.6 67.17,-58.29"/>
</g>
<!-- Node8 -->
<g id="node3" class="node">
<title>Node8</title>
<g id="a_node3"><a xlink:href="class_fifty_one_1_1_pipeline_1_1_core_1_1_data_1_1_data_base.html" target="_top" xlink:title="This class stores data values as key/value pairs where the key is a string and the value can be any t...">
<polygon fill="none" stroke="black" points="20,-123.5 20,-142.5 84,-142.5 84,-123.5 20,-123.5"/>
<text text-anchor="middle" x="52" y="-130.5" font-family="Helvetica,sans-Serif" font-size="10.00">DataBase</text>
</a>
</g>
</g>
<!-- Node8&#45;&gt;Node7 -->
<g id="edge2" class="edge">
<title>Node8&#45;&gt;Node7</title>
<path fill="none" stroke="midnightblue" d="M52,-112.8C52,-103.91 52,-93.78 52,-86.75"/>
<polygon fill="midnightblue" stroke="midnightblue" points="48.5,-113.08 52,-123.08 55.5,-113.08 48.5,-113.08"/>
</g>
<!-- Node9 -->
<g id="node4" class="node">
<title>Node9</title>
<g id="a_node4"><a xlink:href="interface_fifty_one_1_1_pipeline_1_1_core_1_1_data_1_1_i_data.html" target="_top" xlink:title="Represents property values">
<polygon fill="none" stroke="black" points="76.5,-179.5 76.5,-198.5 119.5,-198.5 119.5,-179.5 76.5,-179.5"/>
<text text-anchor="middle" x="98" y="-186.5" font-family="Helvetica,sans-Serif" font-size="10.00">IData</text>
</a>
</g>
</g>
<!-- Node9&#45;&gt;Node8 -->
<g id="edge3" class="edge">
<title>Node9&#45;&gt;Node8</title>
<path fill="none" stroke="midnightblue" d="M83.89,-171.43C75.82,-161.97 66.04,-150.48 59.45,-142.75"/>
<polygon fill="midnightblue" stroke="midnightblue" points="81.25,-173.74 90.4,-179.08 86.58,-169.2 81.25,-173.74"/>
</g>
<!-- Node10 -->
<g id="node5" class="node">
<title>Node10</title>
<g id="a_node5"><a xlink:href="interface_fifty_one_1_1_pipeline_1_1_core_1_1_data_1_1_i_element_data.html" target="_top" xlink:title="Represents property values that have been determined by a specific FlowElement based on the supplied ...">
<polygon fill="none" stroke="black" points="102.5,-123.5 102.5,-142.5 185.5,-142.5 185.5,-123.5 102.5,-123.5"/>
<text text-anchor="middle" x="144" y="-130.5" font-family="Helvetica,sans-Serif" font-size="10.00">IElementData</text>
</a>
</g>
</g>
<!-- Node9&#45;&gt;Node10 -->
<g id="edge5" class="edge">
<title>Node9&#45;&gt;Node10</title>
<path fill="none" stroke="midnightblue" d="M112.11,-171.43C120.18,-161.97 129.96,-150.48 136.55,-142.75"/>
<polygon fill="midnightblue" stroke="midnightblue" points="109.42,-169.2 105.6,-179.08 114.75,-173.74 109.42,-169.2"/>
</g>
<!-- Node10&#45;&gt;Node7 -->
<g id="edge4" class="edge">
<title>Node10&#45;&gt;Node7</title>
<path fill="none" stroke="midnightblue" d="M120.45,-118.18C103.52,-108.24 81.22,-95.15 66.74,-86.65"/>
<polygon fill="midnightblue" stroke="midnightblue" points="118.82,-121.28 129.22,-123.32 122.37,-115.24 118.82,-121.28"/>
</g>
<!-- Node11 -->
<g id="node6" class="node">
<title>Node11</title>
<g id="a_node6"><a xlink:href="interface_fifty_one_1_1_pipeline_1_1_json_builder_1_1_data_1_1_i_json_builder_element_data.html" target="_top" xlink:title="The IElementData interface for JsonBuilderElement.">
<polygon fill="none" stroke="black" points="122,-67.5 122,-86.5 260,-86.5 260,-67.5 122,-67.5"/>
<text text-anchor="middle" x="191" y="-74.5" font-family="Helvetica,sans-Serif" font-size="10.00">IJsonBuilderElementData</text>
</a>
</g>
</g>
<!-- Node10&#45;&gt;Node11 -->
<g id="edge7" class="edge">
<title>Node10&#45;&gt;Node11</title>
<path fill="none" stroke="midnightblue" d="M158.42,-115.43C166.66,-105.97 176.65,-94.48 183.38,-86.75"/>
<polygon fill="midnightblue" stroke="midnightblue" points="155.69,-113.24 151.76,-123.08 160.97,-117.84 155.69,-113.24"/>
</g>
<!-- Node11&#45;&gt;Node6 -->
<g id="edge6" class="edge">
<title>Node11&#45;&gt;Node6</title>
<path fill="none" stroke="midnightblue" d="M173.26,-60.92C162.27,-51.58 148.25,-39.66 137.5,-30.52"/>
<polygon fill="midnightblue" stroke="midnightblue" points="171.08,-63.67 180.97,-67.48 175.62,-58.33 171.08,-63.67"/>
</g>
</g>
</svg>
