<?xml version="1.0" encoding="UTF-8" standalone="no"?>
<!DOCTYPE svg PUBLIC "-//W3C//DTD SVG 1.1//EN"
 "http://www.w3.org/Graphics/SVG/1.1/DTD/svg11.dtd">
<!-- Generated by graphviz version 2.43.0 (0)
 -->
<!-- Title: FiftyOne.Pipeline.Engines.FiftyOne.FlowElements.FiftyOneOnPremiseAspectEngineBase&lt; T &gt; Pages: 1 -->
<svg width="1687pt" height="122pt"
 viewBox="0.00 0.00 1687.00 121.50" xmlns="http://www.w3.org/2000/svg" xmlns:xlink="http://www.w3.org/1999/xlink">
<g id="graph0" class="graph" transform="scale(1 1) rotate(0) translate(4 117.5)">
<title>FiftyOne.Pipeline.Engines.FiftyOne.FlowElements.FiftyOneOnPremiseAspectEngineBase&lt; T &gt;</title>
<!-- Node12 -->
<g id="node1" class="node">
<title>Node12</title>
<g id="a_node1"><a xlink:title="51Degrees specific Engine base class.">
<polygon fill="#bfbfbf" stroke="black" points="1491,-1.5 1491,-42.5 1679,-42.5 1679,-1.5 1491,-1.5"/>
<text text-anchor="start" x="1499" y="-30.5" font-family="Helvetica,sans-Serif" font-size="10.00">FiftyOne.Pipeline.Engines.</text>
<text text-anchor="start" x="1499" y="-19.5" font-family="Helvetica,sans-Serif" font-size="10.00">FiftyOne.FlowElements.FiftyOne</text>
<text text-anchor="middle" x="1585" y="-8.5" font-family="Helvetica,sans-Serif" font-size="10.00">OnPremiseAspectEngineBase&lt; T &gt;</text>
</a>
</g>
</g>
<!-- Node13 -->
<g id="node2" class="node">
<title>Node13</title>
<g id="a_node2"><a xlink:href="class_fifty_one_1_1_pipeline_1_1_engines_1_1_flow_elements_1_1_on_premise_aspect_engine_base.html" target="_top" xlink:title=" ">
<polygon fill="none" stroke="black" points="1272,-38.5 1272,-79.5 1454,-79.5 1454,-38.5 1272,-38.5"/>
<text text-anchor="start" x="1280" y="-67.5" font-family="Helvetica,sans-Serif" font-size="10.00">OnPremiseAspectEngineBase</text>
<text text-anchor="start" x="1280" y="-56.5" font-family="Helvetica,sans-Serif" font-size="10.00">&lt; T, IFiftyOneAspectPropertyMeta</text>
<text text-anchor="middle" x="1363" y="-45.5" font-family="Helvetica,sans-Serif" font-size="10.00">Data &gt;</text>
</a>
</g>
</g>
<!-- Node13&#45;&gt;Node12 -->
<g id="edge1" class="edge">
<title>Node13&#45;&gt;Node12</title>
<path fill="none" stroke="midnightblue" d="M1464.11,-42.16C1473,-40.67 1481.98,-39.16 1490.81,-37.67"/>
<polygon fill="midnightblue" stroke="midnightblue" points="1463.4,-38.73 1454.12,-43.84 1464.56,-45.64 1463.4,-38.73"/>
</g>
<!-- Node14 -->
<g id="node3" class="node">
<title>Node14</title>
<g id="a_node3"><a xlink:href="class_fifty_one_1_1_pipeline_1_1_engines_1_1_flow_elements_1_1_on_premise_aspect_engine_base.html" target="_top" xlink:title="Base class for 51Degrees on&#45;premise aspect engines.">
<polygon fill="none" stroke="black" points="883,-38.5 883,-79.5 1091,-79.5 1091,-38.5 883,-38.5"/>
<text text-anchor="start" x="891" y="-67.5" font-family="Helvetica,sans-Serif" font-size="10.00">FiftyOne.Pipeline.Engines.</text>
<text text-anchor="start" x="891" y="-56.5" font-family="Helvetica,sans-Serif" font-size="10.00">FlowElements.OnPremiseAspectEngine</text>
<text text-anchor="middle" x="987" y="-45.5" font-family="Helvetica,sans-Serif" font-size="10.00">Base&lt; T, TMeta &gt;</text>
</a>
</g>
</g>
<!-- Node14&#45;&gt;Node13 -->
<g id="edge2" class="edge">
<title>Node14&#45;&gt;Node13</title>
<path fill="none" stroke="orange" stroke-dasharray="5,2" d="M1101.27,-59C1155.94,-59 1220.61,-59 1271.87,-59"/>
<polygon fill="orange" stroke="orange" points="1101.19,-55.5 1091.19,-59 1101.19,-62.5 1101.19,-55.5"/>
<text text-anchor="start" x="1109" y="-73" font-family="Helvetica,sans-Serif" font-size="10.00"> &lt; T, IFiftyOneAspectProperty</text>
<text text-anchor="middle" x="1181.5" y="-62" font-family="Helvetica,sans-Serif" font-size="10.00">MetaData &gt;</text>
</g>
<!-- Node15 -->
<g id="node4" class="node">
<title>Node15</title>
<g id="a_node4"><a xlink:href="class_fifty_one_1_1_pipeline_1_1_engines_1_1_flow_elements_1_1_aspect_engine_base.html" target="_top" xlink:title="Base class for 51Degrees aspect engines.">
<polygon fill="none" stroke="black" points="713,-45 713,-75 840,-75 840,-45 713,-45"/>
<text text-anchor="start" x="721" y="-63" font-family="Helvetica,sans-Serif" font-size="10.00">AspectEngineBase&lt; T,</text>
<text text-anchor="middle" x="776.5" y="-52" font-family="Helvetica,sans-Serif" font-size="10.00"> TMeta &gt;</text>
</a>
</g>
</g>
<!-- Node15&#45;&gt;Node14 -->
<g id="edge3" class="edge">
<title>Node15&#45;&gt;Node14</title>
<path fill="none" stroke="midnightblue" d="M850.09,-59.65C860.72,-59.6 871.84,-59.55 882.94,-59.49"/>
<polygon fill="midnightblue" stroke="midnightblue" points="850.04,-56.15 840.06,-59.7 850.07,-63.15 850.04,-56.15"/>
</g>
<!-- Node16 -->
<g id="node5" class="node">
<title>Node16</title>
<g id="a_node5"><a xlink:href="class_fifty_one_1_1_pipeline_1_1_core_1_1_flow_elements_1_1_flow_element_base.html" target="_top" xlink:title="Abstract base class for Flow Elements.">
<polygon fill="none" stroke="black" points="532,-83 532,-113 657,-113 657,-83 532,-83"/>
<text text-anchor="start" x="540" y="-101" font-family="Helvetica,sans-Serif" font-size="10.00">FlowElementBase&lt; T,</text>
<text text-anchor="middle" x="594.5" y="-90" font-family="Helvetica,sans-Serif" font-size="10.00"> TMeta &gt;</text>
</a>
</g>
</g>
<!-- Node16&#45;&gt;Node15 -->
<g id="edge4" class="edge">
<title>Node16&#45;&gt;Node15</title>
<path fill="none" stroke="midnightblue" d="M667.05,-82.9C682.23,-79.69 698.15,-76.33 712.97,-73.2"/>
<polygon fill="midnightblue" stroke="midnightblue" points="666.26,-79.49 657.19,-84.98 667.7,-86.33 666.26,-79.49"/>
</g>
<!-- Node17 -->
<g id="node6" class="node">
<title>Node17</title>
<g id="a_node6"><a xlink:href="interface_fifty_one_1_1_pipeline_1_1_core_1_1_flow_elements_1_1_i_flow_element.html" target="_top" xlink:title=" ">
<polygon fill="none" stroke="black" points="260.5,-88.5 260.5,-107.5 409.5,-107.5 409.5,-88.5 260.5,-88.5"/>
<text text-anchor="middle" x="335" y="-95.5" font-family="Helvetica,sans-Serif" font-size="10.00">IFlowElement&lt; T, TMeta &gt;</text>
</a>
</g>
</g>
<!-- Node17&#45;&gt;Node16 -->
<g id="edge5" class="edge">
<title>Node17&#45;&gt;Node16</title>
<path fill="none" stroke="midnightblue" d="M419.92,-98C456.39,-98 498.35,-98 531.88,-98"/>
<polygon fill="midnightblue" stroke="midnightblue" points="419.79,-94.5 409.79,-98 419.79,-101.5 419.79,-94.5"/>
</g>
<!-- Node18 -->
<g id="node7" class="node">
<title>Node18</title>
<g id="a_node7"><a xlink:href="interface_fifty_one_1_1_pipeline_1_1_core_1_1_flow_elements_1_1_i_flow_element.html" target="_top" xlink:title="IFlowElement is the basic building block of a pipeline.">
<polygon fill="none" stroke="black" points="0,-83 0,-113 151,-113 151,-83 0,-83"/>
<text text-anchor="start" x="8" y="-101" font-family="Helvetica,sans-Serif" font-size="10.00">FiftyOne.Pipeline.Core.Flow</text>
<text text-anchor="middle" x="75.5" y="-90" font-family="Helvetica,sans-Serif" font-size="10.00">Elements.IFlowElement</text>
</a>
</g>
</g>
<!-- Node18&#45;&gt;Node17 -->
<g id="edge6" class="edge">
<title>Node18&#45;&gt;Node17</title>
<path fill="none" stroke="orange" stroke-dasharray="5,2" d="M161.54,-98C193.48,-98 229.5,-98 260.32,-98"/>
<polygon fill="orange" stroke="orange" points="161.33,-94.5 151.33,-98 161.33,-101.5 161.33,-94.5"/>
<text text-anchor="middle" x="203.5" y="-101" font-family="Helvetica,sans-Serif" font-size="10.00"> &lt; T, TMeta &gt;</text>
</g>
<!-- Node19 -->
<g id="node8" class="node">
<title>Node19</title>
<g id="a_node8"><a xlink:href="interface_fifty_one_1_1_pipeline_1_1_engines_1_1_flow_elements_1_1_i_aspect_engine.html" target="_top" xlink:title=" ">
<polygon fill="none" stroke="black" points="519,-44.5 519,-63.5 670,-63.5 670,-44.5 519,-44.5"/>
<text text-anchor="middle" x="594.5" y="-51.5" font-family="Helvetica,sans-Serif" font-size="10.00">IAspectEngine&lt; T, TMeta &gt;</text>
</a>
</g>
</g>
<!-- Node19&#45;&gt;Node15 -->
<g id="edge7" class="edge">
<title>Node19&#45;&gt;Node15</title>
<path fill="none" stroke="midnightblue" d="M680.08,-56.82C691.09,-57.19 702.21,-57.56 712.78,-57.91"/>
<polygon fill="midnightblue" stroke="midnightblue" points="680.12,-53.32 670.01,-56.48 679.89,-60.32 680.12,-53.32"/>
</g>
<!-- Node20 -->
<g id="node9" class="node">
<title>Node20</title>
<g id="a_node9"><a xlink:href="interface_fifty_one_1_1_pipeline_1_1_engines_1_1_flow_elements_1_1_i_aspect_engine.html" target="_top" xlink:title="Interface representing 51Degrees on&#45;premise aspect engines.">
<polygon fill="none" stroke="black" points="256,-39 256,-69 414,-69 414,-39 256,-39"/>
<text text-anchor="start" x="264" y="-57" font-family="Helvetica,sans-Serif" font-size="10.00">FiftyOne.Pipeline.Engines.</text>
<text text-anchor="middle" x="335" y="-46" font-family="Helvetica,sans-Serif" font-size="10.00">FlowElements.IAspectEngine</text>
</a>
</g>
</g>
<!-- Node20&#45;&gt;Node19 -->
<g id="edge8" class="edge">
<title>Node20&#45;&gt;Node19</title>
<path fill="none" stroke="orange" stroke-dasharray="5,2" d="M424.56,-54C455.2,-54 489.22,-54 518.65,-54"/>
<polygon fill="orange" stroke="orange" points="424.31,-50.5 414.31,-54 424.31,-57.5 424.31,-50.5"/>
<text text-anchor="middle" x="466.5" y="-57" font-family="Helvetica,sans-Serif" font-size="10.00"> &lt; T, TMeta &gt;</text>
</g>
<!-- Node21 -->
<g id="node10" class="node">
<title>Node21</title>
<g id="a_node10"><a xlink:href="interface_fifty_one_1_1_pipeline_1_1_engines_1_1_flow_elements_1_1_i_on_premise_aspect_engine.html" target="_top" xlink:title="Interface for an AspectEngine that processes evidence using one or more local data files.">
<polygon fill="none" stroke="black" points="707,-3.5 707,-22.5 846,-22.5 846,-3.5 707,-3.5"/>
<text text-anchor="middle" x="776.5" y="-10.5" font-family="Helvetica,sans-Serif" font-size="10.00">IOnPremiseAspectEngine</text>
</a>
</g>
</g>
<!-- Node21&#45;&gt;Node14 -->
<g id="edge9" class="edge">
<title>Node21&#45;&gt;Node14</title>
<path fill="none" stroke="midnightblue" d="M830.63,-24.72C849.62,-28.91 871.63,-33.77 892.99,-38.48"/>
<polygon fill="midnightblue" stroke="midnightblue" points="831.22,-21.27 820.7,-22.53 829.71,-28.1 831.22,-21.27"/>
</g>
<!-- Node23 -->
<g id="node12" class="node">
<title>Node23</title>
<g id="a_node12"><a xlink:href="interface_fifty_one_1_1_pipeline_1_1_engines_1_1_fifty_one_1_1_flow_elements_1_1_i_fifty_one_aspect_engine.html" target="_top" xlink:title="51Degrees specific Engine interface.">
<polygon fill="none" stroke="black" points="1118.5,-0.5 1118.5,-19.5 1244.5,-19.5 1244.5,-0.5 1118.5,-0.5"/>
<text text-anchor="middle" x="1181.5" y="-7.5" font-family="Helvetica,sans-Serif" font-size="10.00">IFiftyOneAspectEngine</text>
</a>
</g>
</g>
<!-- Node21&#45;&gt;Node23 -->
<g id="edge12" class="edge">
<title>Node21&#45;&gt;Node23</title>
<path fill="none" stroke="midnightblue" d="M856.4,-12.41C933.04,-11.84 1047.84,-10.99 1118.25,-10.46"/>
<polygon fill="midnightblue" stroke="midnightblue" points="856.29,-8.91 846.32,-12.49 856.35,-15.91 856.29,-8.91"/>
</g>
<!-- Node22 -->
<g id="node11" class="node">
<title>Node22</title>
<g id="a_node11"><a xlink:href="interface_fifty_one_1_1_pipeline_1_1_engines_1_1_flow_elements_1_1_i_aspect_engine.html" target="_top" xlink:title="Interface representing 51Degrees on&#45;premise aspect engines.">
<polygon fill="none" stroke="black" points="551.5,-3.5 551.5,-22.5 637.5,-22.5 637.5,-3.5 551.5,-3.5"/>
<text text-anchor="middle" x="594.5" y="-10.5" font-family="Helvetica,sans-Serif" font-size="10.00">IAspectEngine</text>
</a>
</g>
</g>
<!-- Node22&#45;&gt;Node21 -->
<g id="edge10" class="edge">
<title>Node22&#45;&gt;Node21</title>
<path fill="none" stroke="midnightblue" d="M647.92,-13C666.32,-13 687.27,-13 706.8,-13"/>
<polygon fill="midnightblue" stroke="midnightblue" points="647.7,-9.5 637.7,-13 647.7,-16.5 647.7,-9.5"/>
</g>
<!-- Node23&#45;&gt;Node12 -->
<g id="edge11" class="edge">
<title>Node23&#45;&gt;Node12</title>
<path fill="none" stroke="midnightblue" d="M1255.12,-12.17C1321.2,-14.15 1419.11,-17.07 1490.92,-19.22"/>
<polygon fill="midnightblue" stroke="midnightblue" points="1254.89,-8.66 1244.79,-11.86 1254.68,-15.66 1254.89,-8.66"/>
</g>
</g>
</svg>
