<?xml version="1.0" encoding="UTF-8" standalone="no"?>
<!DOCTYPE svg PUBLIC "-//W3C//DTD SVG 1.1//EN"
 "http://www.w3.org/Graphics/SVG/1.1/DTD/svg11.dtd">
<!-- Generated by graphviz version 2.43.0 (0)
 -->
<!-- Title: FiftyOne.Pipeline.JavaScriptBuilder.FlowElement.JavaScriptBuilderElement Pages: 1 -->
<svg width="1349pt" height="101pt"
 viewBox="0.00 0.00 1349.00 100.50" xmlns="http://www.w3.org/2000/svg" xmlns:xlink="http://www.w3.org/1999/xlink">
<g id="graph0" class="graph" transform="scale(1 1) rotate(0) translate(4 96.5)">
<title>FiftyOne.Pipeline.JavaScriptBuilder.FlowElement.JavaScriptBuilderElement</title>
<!-- Node5 -->
<g id="node1" class="node">
<title>Node5</title>
<g id="a_node1"><a xlink:title="JavaScript Builder Element generates a JavaScript include to be run on the client device.">
<polygon fill="#bfbfbf" stroke="black" points="1138,-8 1138,-49 1341,-49 1341,-8 1138,-8"/>
<text text-anchor="start" x="1146" y="-37" font-family="Helvetica,sans-Serif" font-size="10.00">FiftyOne.Pipeline.JavaScript</text>
<text text-anchor="start" x="1146" y="-26" font-family="Helvetica,sans-Serif" font-size="10.00">Builder.FlowElement.JavaScriptBuilder</text>
<text text-anchor="middle" x="1239.5" y="-15" font-family="Helvetica,sans-Serif" font-size="10.00">Element</text>
</a>
</g>
</g>
<!-- Node6 -->
<g id="node2" class="node">
<title>Node6</title>
<g id="a_node2"><a xlink:href="class_fifty_one_1_1_pipeline_1_1_core_1_1_flow_elements_1_1_flow_element_base.html" target="_top" xlink:title=" ">
<polygon fill="none" stroke="black" points="805,-50 805,-91 1011,-91 1011,-50 805,-50"/>
<text text-anchor="start" x="813" y="-79" font-family="Helvetica,sans-Serif" font-size="10.00">FlowElementBase&lt; IJavaScript</text>
<text text-anchor="start" x="813" y="-68" font-family="Helvetica,sans-Serif" font-size="10.00">BuilderElementData, IElementProperty</text>
<text text-anchor="middle" x="908" y="-57" font-family="Helvetica,sans-Serif" font-size="10.00">MetaData &gt;</text>
</a>
</g>
</g>
<!-- Node6&#45;&gt;Node5 -->
<g id="edge1" class="edge">
<title>Node6&#45;&gt;Node5</title>
<path fill="none" stroke="midnightblue" d="M1021.46,-56.16C1059.2,-51.35 1101.03,-46.02 1137.81,-41.33"/>
<polygon fill="midnightblue" stroke="midnightblue" points="1020.93,-52.7 1011.45,-57.44 1021.81,-59.65 1020.93,-52.7"/>
</g>
<!-- Node7 -->
<g id="node3" class="node">
<title>Node7</title>
<g id="a_node3"><a xlink:href="class_fifty_one_1_1_pipeline_1_1_core_1_1_flow_elements_1_1_flow_element_base.html" target="_top" xlink:title="Abstract base class for Flow Elements.">
<polygon fill="none" stroke="black" points="442,-50 442,-91 595,-91 595,-50 442,-50"/>
<text text-anchor="start" x="450" y="-79" font-family="Helvetica,sans-Serif" font-size="10.00">FiftyOne.Pipeline.Core.Flow</text>
<text text-anchor="start" x="450" y="-68" font-family="Helvetica,sans-Serif" font-size="10.00">Elements.FlowElementBase</text>
<text text-anchor="middle" x="518.5" y="-57" font-family="Helvetica,sans-Serif" font-size="10.00">&lt; T, TMeta &gt;</text>
</a>
</g>
</g>
<!-- Node7&#45;&gt;Node6 -->
<g id="edge2" class="edge">
<title>Node7&#45;&gt;Node6</title>
<path fill="none" stroke="orange" stroke-dasharray="5,2" d="M605.16,-70.5C664.07,-70.5 742.6,-70.5 804.79,-70.5"/>
<polygon fill="orange" stroke="orange" points="605.13,-67 595.13,-70.5 605.13,-74 605.13,-67"/>
<text text-anchor="start" x="613" y="-84.5" font-family="Helvetica,sans-Serif" font-size="10.00"> &lt; IJavaScriptBuilderElement</text>
<text text-anchor="middle" x="700" y="-73.5" font-family="Helvetica,sans-Serif" font-size="10.00">Data, IElementPropertyMetaData &gt;</text>
</g>
<!-- Node8 -->
<g id="node4" class="node">
<title>Node8</title>
<g id="a_node4"><a xlink:href="interface_fifty_one_1_1_pipeline_1_1_core_1_1_flow_elements_1_1_i_flow_element.html" target="_top" xlink:title=" ">
<polygon fill="none" stroke="black" points="256,-61 256,-80 405,-80 405,-61 256,-61"/>
<text text-anchor="middle" x="330.5" y="-68" font-family="Helvetica,sans-Serif" font-size="10.00">IFlowElement&lt; T, TMeta &gt;</text>
</a>
</g>
</g>
<!-- Node8&#45;&gt;Node7 -->
<g id="edge3" class="edge">
<title>Node8&#45;&gt;Node7</title>
<path fill="none" stroke="midnightblue" d="M415.3,-70.5C424.12,-70.5 433.05,-70.5 441.78,-70.5"/>
<polygon fill="midnightblue" stroke="midnightblue" points="415.01,-67 405.01,-70.5 415.01,-74 415.01,-67"/>
</g>
<!-- Node9 -->
<g id="node5" class="node">
<title>Node9</title>
<g id="a_node5"><a xlink:href="interface_fifty_one_1_1_pipeline_1_1_core_1_1_flow_elements_1_1_i_flow_element.html" target="_top" xlink:title="IFlowElement is the basic building block of a pipeline.">
<polygon fill="none" stroke="black" points="0,-55.5 0,-85.5 151,-85.5 151,-55.5 0,-55.5"/>
<text text-anchor="start" x="8" y="-73.5" font-family="Helvetica,sans-Serif" font-size="10.00">FiftyOne.Pipeline.Core.Flow</text>
<text text-anchor="middle" x="75.5" y="-62.5" font-family="Helvetica,sans-Serif" font-size="10.00">Elements.IFlowElement</text>
</a>
</g>
</g>
<!-- Node9&#45;&gt;Node8 -->
<g id="edge4" class="edge">
<title>Node9&#45;&gt;Node8</title>
<path fill="none" stroke="orange" stroke-dasharray="5,2" d="M161.29,-70.5C191.95,-70.5 226.3,-70.5 255.93,-70.5"/>
<polygon fill="orange" stroke="orange" points="161.04,-67 151.04,-70.5 161.04,-74 161.04,-67"/>
<text text-anchor="middle" x="203.5" y="-73.5" font-family="Helvetica,sans-Serif" font-size="10.00"> &lt; T, TMeta &gt;</text>
</g>
<!-- Node10 -->
<g id="node6" class="node">
<title>Node10</title>
<g id="a_node6"><a xlink:href="interface_fifty_one_1_1_pipeline_1_1_core_1_1_data_1_1_i_evidence_key_filter.html" target="_top" xlink:title="Represents an object that filters evidence key names based on some criteria.">
<polygon fill="none" stroke="black" points="831,-0.5 831,-30.5 985,-30.5 985,-0.5 831,-0.5"/>
<text text-anchor="start" x="839" y="-18.5" font-family="Helvetica,sans-Serif" font-size="10.00">FiftyOne.Pipeline.Core.Data.</text>
<text text-anchor="middle" x="908" y="-7.5" font-family="Helvetica,sans-Serif" font-size="10.00">IEvidenceKeyFilter</text>
</a>
</g>
</g>
<!-- Node10&#45;&gt;Node5 -->
<g id="edge5" class="edge">
<title>Node10&#45;&gt;Node5</title>
<path fill="none" stroke="#9a32cd" stroke-dasharray="5,2" d="M995.05,-18.89C1038.8,-20.62 1092.24,-22.73 1137.89,-24.53"/>
<polygon fill="#9a32cd" stroke="#9a32cd" points="995.14,-15.4 985.01,-18.5 994.86,-22.39 995.14,-15.4"/>
<text text-anchor="middle" x="1074.5" y="-27.5" font-family="Helvetica,sans-Serif" font-size="10.00"> EvidenceKeyFilter</text>
</g>
</g>
</svg>
