<?xml version="1.0" encoding="UTF-8" standalone="no"?>
<!DOCTYPE svg PUBLIC "-//W3C//DTD SVG 1.1//EN"
 "http://www.w3.org/Graphics/SVG/1.1/DTD/svg11.dtd">
<!-- Generated by graphviz version 2.43.0 (0)
 -->
<!-- Title: FiftyOne.Pipeline.Core.Exceptions.PipelineException Pages: 1 -->
<svg width="513pt" height="137pt"
 viewBox="0.00 0.00 513.00 137.00" xmlns="http://www.w3.org/2000/svg" xmlns:xlink="http://www.w3.org/1999/xlink">
<g id="graph0" class="graph" transform="scale(1 1) rotate(0) translate(4 133)">
<title>FiftyOne.Pipeline.Core.Exceptions.PipelineException</title>
<!-- Node0 -->
<g id="node1" class="node">
<title>Node0</title>
<g id="a_node1"><a xlink:title="Base class for all exceptions thrown by Pipeline API components">
<polygon fill="#bfbfbf" stroke="black" points="101,-49.5 101,-79.5 285,-79.5 285,-49.5 101,-49.5"/>
<text text-anchor="start" x="109" y="-67.5" font-family="Helvetica,sans-Serif" font-size="10.00">FiftyOne.Pipeline.Core.Exceptions.</text>
<text text-anchor="middle" x="193" y="-56.5" font-family="Helvetica,sans-Serif" font-size="10.00">PipelineException</text>
</a>
</g>
</g>
<!-- Node2 -->
<g id="node3" class="node">
<title>Node2</title>
<g id="a_node3"><a xlink:href="class_fifty_one_1_1_pipeline_1_1_core_1_1_exceptions_1_1_pipeline_configuration_exception.html" target="_top" xlink:title="Exception that is thrown when the configuration options provided to PipelineBuilder are invalid See t...">
<polygon fill="none" stroke="black" points="321,-98.5 321,-128.5 505,-128.5 505,-98.5 321,-98.5"/>
<text text-anchor="start" x="329" y="-116.5" font-family="Helvetica,sans-Serif" font-size="10.00">FiftyOne.Pipeline.Core.Exceptions.</text>
<text text-anchor="middle" x="413" y="-105.5" font-family="Helvetica,sans-Serif" font-size="10.00">PipelineConfigurationException</text>
</a>
</g>
</g>
<!-- Node0&#45;&gt;Node2 -->
<g id="edge2" class="edge">
<title>Node0&#45;&gt;Node2</title>
<path fill="none" stroke="midnightblue" d="M270.78,-81.76C295.07,-87.22 321.71,-93.21 345.24,-98.49"/>
<polygon fill="midnightblue" stroke="midnightblue" points="271.41,-78.31 260.89,-79.53 269.88,-85.14 271.41,-78.31"/>
</g>
<!-- Node3 -->
<g id="node4" class="node">
<title>Node3</title>
<g id="a_node4"><a xlink:href="class_fifty_one_1_1_pipeline_1_1_core_1_1_exceptions_1_1_pipeline_data_exception.html" target="_top" xlink:title="Exception that can be thrown when the available data does not match that which is expected.">
<polygon fill="none" stroke="black" points="321,-49.5 321,-79.5 505,-79.5 505,-49.5 321,-49.5"/>
<text text-anchor="start" x="329" y="-67.5" font-family="Helvetica,sans-Serif" font-size="10.00">FiftyOne.Pipeline.Core.Exceptions.</text>
<text text-anchor="middle" x="413" y="-56.5" font-family="Helvetica,sans-Serif" font-size="10.00">PipelineDataException</text>
</a>
</g>
</g>
<!-- Node0&#45;&gt;Node3 -->
<g id="edge3" class="edge">
<title>Node0&#45;&gt;Node3</title>
<path fill="none" stroke="midnightblue" d="M295.47,-64.5C303.93,-64.5 312.45,-64.5 320.83,-64.5"/>
<polygon fill="midnightblue" stroke="midnightblue" points="295.19,-61 285.19,-64.5 295.19,-68 295.19,-61"/>
</g>
<!-- Node4 -->
<g id="node5" class="node">
<title>Node4</title>
<g id="a_node5"><a xlink:href="class_fifty_one_1_1_pipeline_1_1_core_1_1_exceptions_1_1_properties_not_yet_loaded_exception.html" target="_top" xlink:title="Thrown by FlowElements.IFlowElement.Properties to indicate that properties are not available yet but ...">
<polygon fill="none" stroke="black" points="321,-0.5 321,-30.5 505,-30.5 505,-0.5 321,-0.5"/>
<text text-anchor="start" x="329" y="-18.5" font-family="Helvetica,sans-Serif" font-size="10.00">FiftyOne.Pipeline.Core.Exceptions.</text>
<text text-anchor="middle" x="413" y="-7.5" font-family="Helvetica,sans-Serif" font-size="10.00">PropertiesNotYetLoadedException</text>
</a>
</g>
</g>
<!-- Node0&#45;&gt;Node4 -->
<g id="edge4" class="edge">
<title>Node0&#45;&gt;Node4</title>
<path fill="none" stroke="midnightblue" d="M270.78,-47.24C295.07,-41.78 321.71,-35.79 345.24,-30.51"/>
<polygon fill="midnightblue" stroke="midnightblue" points="269.88,-43.86 260.89,-49.47 271.41,-50.69 269.88,-43.86"/>
</g>
<!-- Node1 -->
<g id="node2" class="node">
<title>Node1</title>
<g id="a_node2"><a xlink:title=" ">
<polygon fill="none" stroke="#bfbfbf" points="0,-55 0,-74 65,-74 65,-55 0,-55"/>
<text text-anchor="middle" x="32.5" y="-62" font-family="Helvetica,sans-Serif" font-size="10.00">Exception</text>
</a>
</g>
</g>
<!-- Node1&#45;&gt;Node0 -->
<g id="edge1" class="edge">
<title>Node1&#45;&gt;Node0</title>
<path fill="none" stroke="midnightblue" d="M75.32,-64.5C83.34,-64.5 92.02,-64.5 100.91,-64.5"/>
<polygon fill="midnightblue" stroke="midnightblue" points="75.19,-61 65.19,-64.5 75.19,-68 75.19,-61"/>
</g>
</g>
</svg>
