<?xml version="1.0" encoding="UTF-8" standalone="no"?>
<!DOCTYPE svg PUBLIC "-//W3C//DTD SVG 1.1//EN"
 "http://www.w3.org/Graphics/SVG/1.1/DTD/svg11.dtd">
<!-- Generated by graphviz version 2.43.0 (0)
 -->
<!-- Title: FiftyOne.Pipeline.Core.Data.Types.JavaScript Pages: 1 -->
<svg width="274pt" height="95pt"
 viewBox="0.00 0.00 274.00 95.00" xmlns="http://www.w3.org/2000/svg" xmlns:xlink="http://www.w3.org/1999/xlink">
<g id="graph0" class="graph" transform="scale(1 1) rotate(0) translate(4 91)">
<title>FiftyOne.Pipeline.Core.Data.Types.JavaScript</title>
<!-- Node0 -->
<g id="node1" class="node">
<title>Node0</title>
<g id="a_node1"><a xlink:title="JavaScript type which can be returned as a value by an ElementData.">
<polygon fill="#bfbfbf" stroke="black" points="58.5,-0.5 58.5,-30.5 212.5,-30.5 212.5,-0.5 58.5,-0.5"/>
<text text-anchor="start" x="66.5" y="-18.5" font-family="Helvetica,sans-Serif" font-size="10.00">FiftyOne.Pipeline.Core.Data.</text>
<text text-anchor="middle" x="135.5" y="-7.5" font-family="Helvetica,sans-Serif" font-size="10.00">Types.JavaScript</text>
</a>
</g>
</g>
<!-- Node1 -->
<g id="node2" class="node">
<title>Node1</title>
<g id="a_node2"><a xlink:title=" ">
<polygon fill="none" stroke="#bfbfbf" points="0,-67.5 0,-86.5 129,-86.5 129,-67.5 0,-67.5"/>
<text text-anchor="middle" x="64.5" y="-74.5" font-family="Helvetica,sans-Serif" font-size="10.00">IComparable&lt; string &gt;</text>
</a>
</g>
</g>
<!-- Node1&#45;&gt;Node0 -->
<g id="edge1" class="edge">
<title>Node1&#45;&gt;Node0</title>
<path fill="none" stroke="midnightblue" d="M82.49,-60.92C93.64,-51.58 107.86,-39.66 118.77,-30.52"/>
<polygon fill="midnightblue" stroke="midnightblue" points="80.09,-58.37 74.67,-67.48 84.59,-63.73 80.09,-58.37"/>
</g>
<!-- Node2 -->
<g id="node3" class="node">
<title>Node2</title>
<g id="a_node3"><a xlink:title=" ">
<polygon fill="none" stroke="#bfbfbf" points="147,-67.5 147,-86.5 266,-86.5 266,-67.5 147,-67.5"/>
<text text-anchor="middle" x="206.5" y="-74.5" font-family="Helvetica,sans-Serif" font-size="10.00">IEquatable&lt; string &gt;</text>
</a>
</g>
</g>
<!-- Node2&#45;&gt;Node0 -->
<g id="edge2" class="edge">
<title>Node2&#45;&gt;Node0</title>
<path fill="none" stroke="midnightblue" d="M188.51,-60.92C177.36,-51.58 163.14,-39.66 152.23,-30.52"/>
<polygon fill="midnightblue" stroke="midnightblue" points="186.41,-63.73 196.33,-67.48 190.91,-58.37 186.41,-63.73"/>
</g>
</g>
</svg>
