<?xml version="1.0" encoding="UTF-8" standalone="no"?>
<!DOCTYPE svg PUBLIC "-//W3C//DTD SVG 1.1//EN"
 "http://www.w3.org/Graphics/SVG/1.1/DTD/svg11.dtd">
<!-- Generated by graphviz version 2.43.0 (0)
 -->
<!-- Title: FiftyOne.Pipeline.Core.FlowElements.PipelineBuilder Pages: 1 -->
<svg width="362pt" height="264pt"
 viewBox="0.00 0.00 362.00 264.00" xmlns="http://www.w3.org/2000/svg" xmlns:xlink="http://www.w3.org/1999/xlink">
<g id="graph0" class="graph" transform="scale(1 1) rotate(0) translate(4 260)">
<title>FiftyOne.Pipeline.Core.FlowElements.PipelineBuilder</title>
<!-- Node0 -->
<g id="node1" class="node">
<title>Node0</title>
<g id="a_node1"><a xlink:title="Default pipeline builder.">
<polygon fill="#bfbfbf" stroke="black" points="103,-79.5 103,-109.5 254,-109.5 254,-79.5 103,-79.5"/>
<text text-anchor="start" x="111" y="-97.5" font-family="Helvetica,sans-Serif" font-size="10.00">FiftyOne.Pipeline.Core.Flow</text>
<text text-anchor="middle" x="178.5" y="-86.5" font-family="Helvetica,sans-Serif" font-size="10.00">Elements.PipelineBuilder</text>
</a>
</g>
</g>
<!-- Node4 -->
<g id="node5" class="node">
<title>Node4</title>
<g id="a_node5"><a xlink:href="class_fifty_one_1_1_pipeline_1_1_engines_1_1_fifty_one_1_1_flow_elements_1_1_fifty_one_pipeline_builder.html" target="_top" xlink:title="Pipeline builder class that allows the 51Degrees share usage element to be enabled/disabled.">
<polygon fill="none" stroke="black" points="92,-0.5 92,-41.5 265,-41.5 265,-0.5 92,-0.5"/>
<text text-anchor="start" x="100" y="-29.5" font-family="Helvetica,sans-Serif" font-size="10.00">FiftyOne.Pipeline.Engines.</text>
<text text-anchor="start" x="100" y="-18.5" font-family="Helvetica,sans-Serif" font-size="10.00">FiftyOne.FlowElements.FiftyOne</text>
<text text-anchor="middle" x="178.5" y="-7.5" font-family="Helvetica,sans-Serif" font-size="10.00">PipelineBuilder</text>
</a>
</g>
</g>
<!-- Node0&#45;&gt;Node4 -->
<g id="edge4" class="edge">
<title>Node0&#45;&gt;Node4</title>
<path fill="none" stroke="midnightblue" d="M178.5,-69.1C178.5,-60.1 178.5,-50.02 178.5,-41.51"/>
<polygon fill="midnightblue" stroke="midnightblue" points="175,-69.37 178.5,-79.37 182,-69.37 175,-69.37"/>
</g>
<!-- Node1 -->
<g id="node2" class="node">
<title>Node1</title>
<g id="a_node2"><a xlink:href="class_fifty_one_1_1_pipeline_1_1_core_1_1_flow_elements_1_1_pipeline_builder_base.html" target="_top" xlink:title=" ">
<polygon fill="none" stroke="black" points="38.5,-147.5 38.5,-177.5 152.5,-177.5 152.5,-147.5 38.5,-147.5"/>
<text text-anchor="start" x="46.5" y="-165.5" font-family="Helvetica,sans-Serif" font-size="10.00">PipelineBuilderBase</text>
<text text-anchor="middle" x="95.5" y="-154.5" font-family="Helvetica,sans-Serif" font-size="10.00">&lt; PipelineBuilder &gt;</text>
</a>
</g>
</g>
<!-- Node1&#45;&gt;Node0 -->
<g id="edge1" class="edge">
<title>Node1&#45;&gt;Node0</title>
<path fill="none" stroke="midnightblue" d="M121.52,-140.81C134.31,-130.64 149.38,-118.66 160.81,-109.57"/>
<polygon fill="midnightblue" stroke="midnightblue" points="119.16,-138.22 113.51,-147.18 123.52,-143.69 119.16,-138.22"/>
</g>
<!-- Node2 -->
<g id="node3" class="node">
<title>Node2</title>
<g id="a_node3"><a xlink:href="class_fifty_one_1_1_pipeline_1_1_core_1_1_flow_elements_1_1_pipeline_builder_base.html" target="_top" xlink:title="Abstract pipeline builder base class See the Specification">
<polygon fill="none" stroke="black" points="0,-225.5 0,-255.5 191,-255.5 191,-225.5 0,-225.5"/>
<text text-anchor="start" x="8" y="-243.5" font-family="Helvetica,sans-Serif" font-size="10.00">FiftyOne.Pipeline.Core.Flow</text>
<text text-anchor="middle" x="95.5" y="-232.5" font-family="Helvetica,sans-Serif" font-size="10.00">Elements.PipelineBuilderBase&lt; T &gt;</text>
</a>
</g>
</g>
<!-- Node2&#45;&gt;Node1 -->
<g id="edge2" class="edge">
<title>Node2&#45;&gt;Node1</title>
<path fill="none" stroke="orange" stroke-dasharray="5,2" d="M95.5,-215.09C95.5,-202.76 95.5,-188.22 95.5,-177.73"/>
<polygon fill="orange" stroke="orange" points="92,-215.2 95.5,-225.2 99,-215.21 92,-215.2"/>
<text text-anchor="middle" x="145.5" y="-199" font-family="Helvetica,sans-Serif" font-size="10.00"> &lt; PipelineBuilder &gt;</text>
</g>
<!-- Node3 -->
<g id="node4" class="node">
<title>Node3</title>
<g id="a_node4"><a xlink:href="interface_fifty_one_1_1_pipeline_1_1_core_1_1_flow_elements_1_1_i_pipeline_builder_from_configuration.html" target="_top" xlink:title="Pipeline builders implementing this interface are capable of building a IPipeline based on a supplied...">
<polygon fill="none" stroke="black" points="171,-153 171,-172 354,-172 354,-153 171,-153"/>
<text text-anchor="middle" x="262.5" y="-160" font-family="Helvetica,sans-Serif" font-size="10.00">IPipelineBuilderFromConfiguration</text>
</a>
</g>
</g>
<!-- Node3&#45;&gt;Node0 -->
<g id="edge3" class="edge">
<title>Node3&#45;&gt;Node0</title>
<path fill="none" stroke="midnightblue" d="M243.49,-146.57C229.43,-135.51 210.38,-120.55 196.55,-109.68"/>
<polygon fill="midnightblue" stroke="midnightblue" points="241.49,-149.45 251.52,-152.87 245.82,-143.94 241.49,-149.45"/>
</g>
</g>
</svg>
