<?xml version="1.0" encoding="UTF-8" standalone="no"?>
<!DOCTYPE svg PUBLIC "-//W3C//DTD SVG 1.1//EN"
 "http://www.w3.org/Graphics/SVG/1.1/DTD/svg11.dtd">
<!-- Generated by graphviz version 2.43.0 (0)
 -->
<!-- Title: FiftyOne.Pipeline.Engines.Data.AspectPropertyMetaData Pages: 1 -->
<svg width="314pt" height="151pt"
 viewBox="0.00 0.00 314.00 151.00" xmlns="http://www.w3.org/2000/svg" xmlns:xlink="http://www.w3.org/1999/xlink">
<g id="graph0" class="graph" transform="scale(1 1) rotate(0) translate(4 147)">
<title>FiftyOne.Pipeline.Engines.Data.AspectPropertyMetaData</title>
<!-- Node0 -->
<g id="node1" class="node">
<title>Node0</title>
<g id="a_node1"><a xlink:title="Meta&#45;data relating to properties that are populated by Aspect Engines.">
<polygon fill="#bfbfbf" stroke="black" points="71.5,-0.5 71.5,-30.5 236.5,-30.5 236.5,-0.5 71.5,-0.5"/>
<text text-anchor="start" x="79.5" y="-18.5" font-family="Helvetica,sans-Serif" font-size="10.00">FiftyOne.Pipeline.Engines.</text>
<text text-anchor="middle" x="154" y="-7.5" font-family="Helvetica,sans-Serif" font-size="10.00">Data.AspectPropertyMetaData</text>
</a>
</g>
</g>
<!-- Node1 -->
<g id="node2" class="node">
<title>Node1</title>
<g id="a_node2"><a xlink:href="class_fifty_one_1_1_pipeline_1_1_core_1_1_data_1_1_element_property_meta_data.html" target="_top" xlink:title="Meta&#45;data relating to properties that are populated by Flow Elements.">
<polygon fill="none" stroke="black" points="0,-67.5 0,-86.5 146,-86.5 146,-67.5 0,-67.5"/>
<text text-anchor="middle" x="73" y="-74.5" font-family="Helvetica,sans-Serif" font-size="10.00">ElementPropertyMetaData</text>
</a>
</g>
</g>
<!-- Node1&#45;&gt;Node0 -->
<g id="edge1" class="edge">
<title>Node1&#45;&gt;Node0</title>
<path fill="none" stroke="midnightblue" d="M92.78,-61.47C105.61,-52.05 122.23,-39.84 134.91,-30.52"/>
<polygon fill="midnightblue" stroke="midnightblue" points="90.59,-58.73 84.61,-67.48 94.74,-64.38 90.59,-58.73"/>
</g>
<!-- Node2 -->
<g id="node3" class="node">
<title>Node2</title>
<g id="a_node3"><a xlink:href="interface_fifty_one_1_1_pipeline_1_1_core_1_1_data_1_1_i_element_property_meta_data.html" target="_top" xlink:title="Represents meta&#45;data relating to a property that is populated by a IFlowElement instance.">
<polygon fill="none" stroke="black" points="79.5,-123.5 79.5,-142.5 228.5,-142.5 228.5,-123.5 79.5,-123.5"/>
<text text-anchor="middle" x="154" y="-130.5" font-family="Helvetica,sans-Serif" font-size="10.00">IElementPropertyMetaData</text>
</a>
</g>
</g>
<!-- Node2&#45;&gt;Node1 -->
<g id="edge2" class="edge">
<title>Node2&#45;&gt;Node1</title>
<path fill="none" stroke="midnightblue" d="M132.43,-117.62C117.64,-107.76 98.49,-94.99 85.98,-86.65"/>
<polygon fill="midnightblue" stroke="midnightblue" points="130.72,-120.69 140.99,-123.32 134.61,-114.86 130.72,-120.69"/>
</g>
<!-- Node3 -->
<g id="node4" class="node">
<title>Node3</title>
<g id="a_node4"><a xlink:href="interface_fifty_one_1_1_pipeline_1_1_engines_1_1_data_1_1_i_aspect_property_meta_data.html" target="_top" xlink:title="Represents meta&#45;data relating to a property that is populated by an IAspectEngine instance.">
<polygon fill="none" stroke="black" points="164,-67.5 164,-86.5 306,-86.5 306,-67.5 164,-67.5"/>
<text text-anchor="middle" x="235" y="-74.5" font-family="Helvetica,sans-Serif" font-size="10.00">IAspectPropertyMetaData</text>
</a>
</g>
</g>
<!-- Node2&#45;&gt;Node3 -->
<g id="edge4" class="edge">
<title>Node2&#45;&gt;Node3</title>
<path fill="none" stroke="midnightblue" d="M175.57,-117.62C190.36,-107.76 209.51,-94.99 222.02,-86.65"/>
<polygon fill="midnightblue" stroke="midnightblue" points="173.39,-114.86 167.01,-123.32 177.28,-120.69 173.39,-114.86"/>
</g>
<!-- Node3&#45;&gt;Node0 -->
<g id="edge3" class="edge">
<title>Node3&#45;&gt;Node0</title>
<path fill="none" stroke="midnightblue" d="M215.22,-61.47C202.39,-52.05 185.77,-39.84 173.09,-30.52"/>
<polygon fill="midnightblue" stroke="midnightblue" points="213.26,-64.38 223.39,-67.48 217.41,-58.73 213.26,-64.38"/>
</g>
</g>
</svg>
