<?xml version="1.0" encoding="UTF-8" standalone="no"?>
<!DOCTYPE svg PUBLIC "-//W3C//DTD SVG 1.1//EN"
 "http://www.w3.org/Graphics/SVG/1.1/DTD/svg11.dtd">
<!-- Generated by graphviz version 2.43.0 (0)
 -->
<!-- Title: FiftyOne.Pipeline.Engines.Services.DataUpdateEventArgs Pages: 1 -->
<svg width="196pt" height="162pt"
 viewBox="0.00 0.00 196.00 162.00" xmlns="http://www.w3.org/2000/svg" xmlns:xlink="http://www.w3.org/1999/xlink">
<g id="graph0" class="graph" transform="scale(1 1) rotate(0) translate(4 158)">
<title>FiftyOne.Pipeline.Engines.Services.DataUpdateEventArgs</title>
<!-- Node0 -->
<g id="node1" class="node">
<title>Node0</title>
<g id="a_node1"><a xlink:title="Event arguments used when events are fired by an IDataUpdateService">
<polygon fill="#bfbfbf" stroke="black" points="9.5,-67.5 9.5,-97.5 178.5,-97.5 178.5,-67.5 9.5,-67.5"/>
<text text-anchor="start" x="17.5" y="-85.5" font-family="Helvetica,sans-Serif" font-size="10.00">FiftyOne.Pipeline.Engines.</text>
<text text-anchor="middle" x="94" y="-74.5" font-family="Helvetica,sans-Serif" font-size="10.00">Services.DataUpdateEventArgs</text>
</a>
</g>
</g>
<!-- Node2 -->
<g id="node3" class="node">
<title>Node2</title>
<g id="a_node3"><a xlink:href="class_fifty_one_1_1_pipeline_1_1_engines_1_1_services_1_1_data_update_complete_args.html" target="_top" xlink:title="Event arguments used when an &#39;UpdteComplete&#39; event is fired by an IDataUpdateService">
<polygon fill="none" stroke="black" points="0,-0.5 0,-30.5 188,-30.5 188,-0.5 0,-0.5"/>
<text text-anchor="start" x="8" y="-18.5" font-family="Helvetica,sans-Serif" font-size="10.00">FiftyOne.Pipeline.Engines.</text>
<text text-anchor="middle" x="94" y="-7.5" font-family="Helvetica,sans-Serif" font-size="10.00">Services.DataUpdateCompleteArgs</text>
</a>
</g>
</g>
<!-- Node0&#45;&gt;Node2 -->
<g id="edge2" class="edge">
<title>Node0&#45;&gt;Node2</title>
<path fill="none" stroke="midnightblue" d="M94,-57.11C94,-48.15 94,-38.32 94,-30.58"/>
<polygon fill="midnightblue" stroke="midnightblue" points="90.5,-57.4 94,-67.4 97.5,-57.4 90.5,-57.4"/>
</g>
<!-- Node1 -->
<g id="node2" class="node">
<title>Node1</title>
<g id="a_node2"><a xlink:title=" ">
<polygon fill="none" stroke="#bfbfbf" points="61,-134.5 61,-153.5 127,-153.5 127,-134.5 61,-134.5"/>
<text text-anchor="middle" x="94" y="-141.5" font-family="Helvetica,sans-Serif" font-size="10.00">EventArgs</text>
</a>
</g>
</g>
<!-- Node1&#45;&gt;Node0 -->
<g id="edge1" class="edge">
<title>Node1&#45;&gt;Node0</title>
<path fill="none" stroke="midnightblue" d="M94,-124.23C94,-115.59 94,-105.5 94,-97.52"/>
<polygon fill="midnightblue" stroke="midnightblue" points="90.5,-124.48 94,-134.48 97.5,-124.48 90.5,-124.48"/>
</g>
</g>
</svg>
