<?xml version="1.0" encoding="UTF-8" standalone="no"?>
<!DOCTYPE svg PUBLIC "-//W3C//DTD SVG 1.1//EN"
 "http://www.w3.org/Graphics/SVG/1.1/DTD/svg11.dtd">
<!-- Generated by graphviz version 2.43.0 (0)
 -->
<!-- Title: FiftyOne.Pipeline.JsonBuilder.FlowElement.JsonBuilderElement Pages: 1 -->
<svg width="1415pt" height="139pt"
 viewBox="0.00 0.00 1415.00 138.50" xmlns="http://www.w3.org/2000/svg" xmlns:xlink="http://www.w3.org/1999/xlink">
<g id="graph0" class="graph" transform="scale(1 1) rotate(0) translate(4 134.5)">
<title>FiftyOne.Pipeline.JsonBuilder.FlowElement.JsonBuilderElement</title>
<!-- Node7 -->
<g id="node1" class="node">
<title>Node7</title>
<g id="a_node1"><a xlink:title="The JsonBuilderElement takes accessible properties and adds the property key:values to the Json objec...">
<polygon fill="#bfbfbf" stroke="black" points="1228,-44.5 1228,-74.5 1407,-74.5 1407,-44.5 1228,-44.5"/>
<text text-anchor="start" x="1236" y="-62.5" font-family="Helvetica,sans-Serif" font-size="10.00">FiftyOne.Pipeline.JsonBuilder.</text>
<text text-anchor="middle" x="1317.5" y="-51.5" font-family="Helvetica,sans-Serif" font-size="10.00">FlowElement.JsonBuilderElement</text>
</a>
</g>
</g>
<!-- Node8 -->
<g id="node2" class="node">
<title>Node8</title>
<g id="a_node2"><a xlink:href="class_fifty_one_1_1_pipeline_1_1_core_1_1_flow_elements_1_1_flow_element_base.html" target="_top" xlink:title=" ">
<polygon fill="none" stroke="black" points="905,-88 905,-129 1101,-129 1101,-88 905,-88"/>
<text text-anchor="start" x="913" y="-117" font-family="Helvetica,sans-Serif" font-size="10.00">FlowElementBase&lt; IJsonBuilder</text>
<text text-anchor="start" x="913" y="-106" font-family="Helvetica,sans-Serif" font-size="10.00">ElementData, IElementPropertyMeta</text>
<text text-anchor="middle" x="1003" y="-95" font-family="Helvetica,sans-Serif" font-size="10.00">Data &gt;</text>
</a>
</g>
</g>
<!-- Node8&#45;&gt;Node7 -->
<g id="edge1" class="edge">
<title>Node8&#45;&gt;Node7</title>
<path fill="none" stroke="midnightblue" d="M1111.25,-91.68C1149.27,-85.72 1191.6,-79.08 1227.9,-73.39"/>
<polygon fill="midnightblue" stroke="midnightblue" points="1110.5,-88.26 1101.16,-93.26 1111.59,-95.17 1110.5,-88.26"/>
</g>
<!-- Node9 -->
<g id="node3" class="node">
<title>Node9</title>
<g id="a_node3"><a xlink:href="class_fifty_one_1_1_pipeline_1_1_core_1_1_flow_elements_1_1_flow_element_base.html" target="_top" xlink:title="Abstract base class for Flow Elements.">
<polygon fill="none" stroke="black" points="568,-88 568,-129 721,-129 721,-88 568,-88"/>
<text text-anchor="start" x="576" y="-117" font-family="Helvetica,sans-Serif" font-size="10.00">FiftyOne.Pipeline.Core.Flow</text>
<text text-anchor="start" x="576" y="-106" font-family="Helvetica,sans-Serif" font-size="10.00">Elements.FlowElementBase</text>
<text text-anchor="middle" x="644.5" y="-95" font-family="Helvetica,sans-Serif" font-size="10.00">&lt; T, TMeta &gt;</text>
</a>
</g>
</g>
<!-- Node9&#45;&gt;Node8 -->
<g id="edge2" class="edge">
<title>Node9&#45;&gt;Node8</title>
<path fill="none" stroke="orange" stroke-dasharray="5,2" d="M731.36,-108.5C783.64,-108.5 850.57,-108.5 904.79,-108.5"/>
<polygon fill="orange" stroke="orange" points="731.1,-105 721.1,-108.5 731.1,-112 731.1,-105"/>
<text text-anchor="start" x="739" y="-122.5" font-family="Helvetica,sans-Serif" font-size="10.00"> &lt; IJsonBuilderElementData,</text>
<text text-anchor="middle" x="813" y="-111.5" font-family="Helvetica,sans-Serif" font-size="10.00"> IElementPropertyMetaData &gt;</text>
</g>
<!-- Node10 -->
<g id="node4" class="node">
<title>Node10</title>
<g id="a_node4"><a xlink:href="interface_fifty_one_1_1_pipeline_1_1_core_1_1_flow_elements_1_1_i_flow_element.html" target="_top" xlink:title=" ">
<polygon fill="none" stroke="black" points="358.5,-99 358.5,-118 507.5,-118 507.5,-99 358.5,-99"/>
<text text-anchor="middle" x="433" y="-106" font-family="Helvetica,sans-Serif" font-size="10.00">IFlowElement&lt; T, TMeta &gt;</text>
</a>
</g>
</g>
<!-- Node10&#45;&gt;Node9 -->
<g id="edge3" class="edge">
<title>Node10&#45;&gt;Node9</title>
<path fill="none" stroke="midnightblue" d="M517.78,-108.5C534.37,-108.5 551.69,-108.5 567.98,-108.5"/>
<polygon fill="midnightblue" stroke="midnightblue" points="517.57,-105 507.57,-108.5 517.57,-112 517.57,-105"/>
</g>
<!-- Node11 -->
<g id="node5" class="node">
<title>Node11</title>
<g id="a_node5"><a xlink:href="interface_fifty_one_1_1_pipeline_1_1_core_1_1_flow_elements_1_1_i_flow_element.html" target="_top" xlink:title="IFlowElement is the basic building block of a pipeline.">
<polygon fill="none" stroke="black" points="0,-68.5 0,-98.5 151,-98.5 151,-68.5 0,-68.5"/>
<text text-anchor="start" x="8" y="-86.5" font-family="Helvetica,sans-Serif" font-size="10.00">FiftyOne.Pipeline.Core.Flow</text>
<text text-anchor="middle" x="75.5" y="-75.5" font-family="Helvetica,sans-Serif" font-size="10.00">Elements.IFlowElement</text>
</a>
</g>
</g>
<!-- Node11&#45;&gt;Node10 -->
<g id="edge4" class="edge">
<title>Node11&#45;&gt;Node10</title>
<path fill="none" stroke="orange" stroke-dasharray="5,2" d="M161.24,-89.46C221.31,-93.68 301.11,-99.3 358.49,-103.33"/>
<polygon fill="orange" stroke="orange" points="161.25,-85.95 151.02,-88.74 160.75,-92.93 161.25,-85.95"/>
<text text-anchor="middle" x="243" y="-102.5" font-family="Helvetica,sans-Serif" font-size="10.00"> &lt; T, TMeta &gt;</text>
</g>
<!-- Node13 -->
<g id="node7" class="node">
<title>Node13</title>
<g id="a_node7"><a xlink:href="interface_fifty_one_1_1_pipeline_1_1_core_1_1_flow_elements_1_1_i_flow_element.html" target="_top" xlink:title=" ">
<polygon fill="none" stroke="black" points="335,-39 335,-80 531,-80 531,-39 335,-39"/>
<text text-anchor="start" x="343" y="-68" font-family="Helvetica,sans-Serif" font-size="10.00">IFlowElement&lt; IJsonBuilder</text>
<text text-anchor="start" x="343" y="-57" font-family="Helvetica,sans-Serif" font-size="10.00">ElementData, IElementPropertyMeta</text>
<text text-anchor="middle" x="433" y="-46" font-family="Helvetica,sans-Serif" font-size="10.00">Data &gt;</text>
</a>
</g>
</g>
<!-- Node11&#45;&gt;Node13 -->
<g id="edge7" class="edge">
<title>Node11&#45;&gt;Node13</title>
<path fill="none" stroke="orange" stroke-dasharray="5,2" d="M148.15,-66.55C155.16,-65.33 162.2,-64.28 169,-63.5 223.67,-57.24 285.14,-55.98 334.9,-56.41"/>
<polygon fill="orange" stroke="orange" points="147.11,-63.19 137.92,-68.45 148.39,-70.07 147.11,-63.19"/>
<text text-anchor="start" x="169" y="-77.5" font-family="Helvetica,sans-Serif" font-size="10.00"> &lt; IJsonBuilderElementData,</text>
<text text-anchor="middle" x="243" y="-66.5" font-family="Helvetica,sans-Serif" font-size="10.00"> IElementPropertyMetaData &gt;</text>
</g>
<!-- Node12 -->
<g id="node6" class="node">
<title>Node12</title>
<g id="a_node6"><a xlink:href="interface_fifty_one_1_1_pipeline_1_1_json_builder_1_1_flow_element_1_1_i_json_builder_element.html" target="_top" xlink:title="The Interface for the JsonBuilderElement See the Specification">
<polygon fill="none" stroke="black" points="755.5,-50 755.5,-69 870.5,-69 870.5,-50 755.5,-50"/>
<text text-anchor="middle" x="813" y="-57" font-family="Helvetica,sans-Serif" font-size="10.00">IJsonBuilderElement</text>
</a>
</g>
</g>
<!-- Node12&#45;&gt;Node7 -->
<g id="edge5" class="edge">
<title>Node12&#45;&gt;Node7</title>
<path fill="none" stroke="midnightblue" d="M880.68,-59.5C970,-59.5 1128.74,-59.5 1228,-59.5"/>
<polygon fill="midnightblue" stroke="midnightblue" points="880.67,-56 870.67,-59.5 880.67,-63 880.67,-56"/>
</g>
<!-- Node13&#45;&gt;Node12 -->
<g id="edge6" class="edge">
<title>Node13&#45;&gt;Node12</title>
<path fill="none" stroke="midnightblue" d="M541.49,-59.5C611.17,-59.5 699.13,-59.5 755.48,-59.5"/>
<polygon fill="midnightblue" stroke="midnightblue" points="541.34,-56 531.34,-59.5 541.34,-63 541.34,-56"/>
</g>
<!-- Node14 -->
<g id="node8" class="node">
<title>Node14</title>
<g id="a_node8"><a xlink:href="interface_fifty_one_1_1_pipeline_1_1_core_1_1_data_1_1_i_evidence_key_filter.html" target="_top" xlink:title="Represents an object that filters evidence key names based on some criteria.">
<polygon fill="none" stroke="black" points="926,-0.5 926,-30.5 1080,-30.5 1080,-0.5 926,-0.5"/>
<text text-anchor="start" x="934" y="-18.5" font-family="Helvetica,sans-Serif" font-size="10.00">FiftyOne.Pipeline.Core.Data.</text>
<text text-anchor="middle" x="1003" y="-7.5" font-family="Helvetica,sans-Serif" font-size="10.00">IEvidenceKeyFilter</text>
</a>
</g>
</g>
<!-- Node14&#45;&gt;Node7 -->
<g id="edge8" class="edge">
<title>Node14&#45;&gt;Node7</title>
<path fill="none" stroke="#9a32cd" stroke-dasharray="5,2" d="M1090.39,-20.79C1127.37,-23.74 1170.95,-28.15 1210,-34.5 1226.03,-37.11 1243.23,-40.76 1259.03,-44.47"/>
<polygon fill="#9a32cd" stroke="#9a32cd" points="1090.38,-17.28 1080.14,-19.99 1089.84,-24.26 1090.38,-17.28"/>
<text text-anchor="middle" x="1164.5" y="-37.5" font-family="Helvetica,sans-Serif" font-size="10.00"> EvidenceKeyFilter</text>
</g>
</g>
</svg>
