<?xml version="1.0" encoding="UTF-8" standalone="no"?>
<!DOCTYPE svg PUBLIC "-//W3C//DTD SVG 1.1//EN"
 "http://www.w3.org/Graphics/SVG/1.1/DTD/svg11.dtd">
<!-- Generated by graphviz version 2.43.0 (0)
 -->
<!-- Title: FiftyOne.Pipeline.Engines.Caching.DefaultFlowCache Pages: 1 -->
<svg width="1065pt" height="101pt"
 viewBox="0.00 0.00 1065.00 101.00" xmlns="http://www.w3.org/2000/svg" xmlns:xlink="http://www.w3.org/1999/xlink">
<g id="graph0" class="graph" transform="scale(1 1) rotate(0) translate(4 97)">
<title>FiftyOne.Pipeline.Engines.Caching.DefaultFlowCache</title>
<!-- Node0 -->
<g id="node1" class="node">
<title>Node0</title>
<g id="a_node1"><a xlink:title="The default &#39;flow cache&#39; implementation.">
<polygon fill="#bfbfbf" stroke="black" points="909,-34 909,-64 1057,-64 1057,-34 909,-34"/>
<text text-anchor="start" x="917" y="-52" font-family="Helvetica,sans-Serif" font-size="10.00">FiftyOne.Pipeline.Engines.</text>
<text text-anchor="middle" x="983" y="-41" font-family="Helvetica,sans-Serif" font-size="10.00">Caching.DefaultFlowCache</text>
</a>
</g>
</g>
<!-- Node1 -->
<g id="node2" class="node">
<title>Node1</title>
<g id="a_node2"><a xlink:href="class_fifty_one_1_1_pipeline_1_1_engines_1_1_caching_1_1_data_keyed_cache_base.html" target="_top" xlink:title=" ">
<polygon fill="none" stroke="black" points="748,-55 748,-85 872,-85 872,-55 748,-55"/>
<text text-anchor="start" x="756" y="-73" font-family="Helvetica,sans-Serif" font-size="10.00">DataKeyedCacheBase</text>
<text text-anchor="middle" x="810" y="-62" font-family="Helvetica,sans-Serif" font-size="10.00">&lt; IElementData &gt;</text>
</a>
</g>
</g>
<!-- Node1&#45;&gt;Node0 -->
<g id="edge1" class="edge">
<title>Node1&#45;&gt;Node0</title>
<path fill="none" stroke="midnightblue" d="M882.42,-61.23C891.18,-60.15 900.14,-59.05 908.92,-57.97"/>
<polygon fill="midnightblue" stroke="midnightblue" points="881.75,-57.78 872.25,-62.48 882.6,-64.73 881.75,-57.78"/>
</g>
<!-- Node2 -->
<g id="node3" class="node">
<title>Node2</title>
<g id="a_node3"><a xlink:href="class_fifty_one_1_1_pipeline_1_1_engines_1_1_caching_1_1_data_keyed_cache_base.html" target="_top" xlink:title="Abstract base class for caches that use IFlowData as the key.">
<polygon fill="none" stroke="black" points="453,-51.5 453,-92.5 619,-92.5 619,-51.5 453,-51.5"/>
<text text-anchor="start" x="461" y="-80.5" font-family="Helvetica,sans-Serif" font-size="10.00">FiftyOne.Pipeline.Engines.</text>
<text text-anchor="start" x="461" y="-69.5" font-family="Helvetica,sans-Serif" font-size="10.00">Caching.DataKeyedCacheBase</text>
<text text-anchor="middle" x="536" y="-58.5" font-family="Helvetica,sans-Serif" font-size="10.00">&lt; TValue &gt;</text>
</a>
</g>
</g>
<!-- Node2&#45;&gt;Node1 -->
<g id="edge2" class="edge">
<title>Node2&#45;&gt;Node1</title>
<path fill="none" stroke="orange" stroke-dasharray="5,2" d="M629.65,-71.32C668.61,-71.03 712.87,-70.71 747.67,-70.45"/>
<polygon fill="orange" stroke="orange" points="629.32,-67.82 619.35,-71.39 629.37,-74.82 629.32,-67.82"/>
<text text-anchor="middle" x="683.5" y="-74" font-family="Helvetica,sans-Serif" font-size="10.00"> &lt; IElementData &gt;</text>
</g>
<!-- Node3 -->
<g id="node4" class="node">
<title>Node3</title>
<g id="a_node4"><a xlink:href="interface_fifty_one_1_1_pipeline_1_1_engines_1_1_caching_1_1_i_data_keyed_cache.html" target="_top" xlink:title="Represents a put cache where the key is a IFlowData instance.">
<polygon fill="none" stroke="black" points="166,-61.5 166,-80.5 324,-80.5 324,-61.5 166,-61.5"/>
<text text-anchor="middle" x="245" y="-68.5" font-family="Helvetica,sans-Serif" font-size="10.00">IDataKeyedCache&lt; TValue &gt;</text>
</a>
</g>
</g>
<!-- Node3&#45;&gt;Node2 -->
<g id="edge3" class="edge">
<title>Node3&#45;&gt;Node2</title>
<path fill="none" stroke="midnightblue" d="M334.67,-71.31C372.35,-71.44 416.01,-71.59 452.94,-71.72"/>
<polygon fill="midnightblue" stroke="midnightblue" points="334.22,-67.81 324.21,-71.27 334.2,-74.81 334.22,-67.81"/>
</g>
<!-- Node4 -->
<g id="node5" class="node">
<title>Node4</title>
<g id="a_node5"><a xlink:title=" ">
<polygon fill="none" stroke="#bfbfbf" points="0,-30 0,-60 129,-60 129,-30 0,-30"/>
<text text-anchor="start" x="8" y="-48" font-family="Helvetica,sans-Serif" font-size="10.00">IPutCache&lt; IFlowData,</text>
<text text-anchor="middle" x="64.5" y="-37" font-family="Helvetica,sans-Serif" font-size="10.00"> TValue &gt;</text>
</a>
</g>
</g>
<!-- Node4&#45;&gt;Node3 -->
<g id="edge4" class="edge">
<title>Node4&#45;&gt;Node3</title>
<path fill="none" stroke="midnightblue" d="M139.46,-55.77C152.42,-57.66 165.82,-59.61 178.53,-61.46"/>
<polygon fill="midnightblue" stroke="midnightblue" points="139.59,-52.25 129.19,-54.28 138.58,-59.18 139.59,-52.25"/>
</g>
<!-- Node7 -->
<g id="node8" class="node">
<title>Node7</title>
<g id="a_node8"><a xlink:href="interface_fifty_one_1_1_pipeline_1_1_engines_1_1_caching_1_1_i_data_keyed_cache.html" target="_top" xlink:title="Represents a put cache where the key is a IFlowData instance.">
<polygon fill="none" stroke="black" points="172.5,-0.5 172.5,-41.5 317.5,-41.5 317.5,-0.5 172.5,-0.5"/>
<text text-anchor="start" x="180.5" y="-29.5" font-family="Helvetica,sans-Serif" font-size="10.00">FiftyOne.Pipeline.Engines.</text>
<text text-anchor="start" x="180.5" y="-18.5" font-family="Helvetica,sans-Serif" font-size="10.00">Caching.IDataKeyedCache</text>
<text text-anchor="middle" x="245" y="-7.5" font-family="Helvetica,sans-Serif" font-size="10.00">&lt; TValue &gt;</text>
</a>
</g>
</g>
<!-- Node4&#45;&gt;Node7 -->
<g id="edge8" class="edge">
<title>Node4&#45;&gt;Node7</title>
<path fill="none" stroke="midnightblue" d="M139.17,-35.09C150.17,-33.62 161.49,-32.09 172.44,-30.62"/>
<polygon fill="midnightblue" stroke="midnightblue" points="138.63,-31.64 129.19,-36.44 139.56,-38.57 138.63,-31.64"/>
</g>
<!-- Node5 -->
<g id="node6" class="node">
<title>Node5</title>
<g id="a_node6"><a xlink:href="interface_fifty_one_1_1_pipeline_1_1_engines_1_1_caching_1_1_i_flow_cache.html" target="_top" xlink:title="Represents a &#39;flow cache&#39; See the Specification">
<polygon fill="none" stroke="black" points="773.5,-15.5 773.5,-34.5 846.5,-34.5 846.5,-15.5 773.5,-15.5"/>
<text text-anchor="middle" x="810" y="-22.5" font-family="Helvetica,sans-Serif" font-size="10.00">IFlowCache</text>
</a>
</g>
</g>
<!-- Node5&#45;&gt;Node0 -->
<g id="edge5" class="edge">
<title>Node5&#45;&gt;Node0</title>
<path fill="none" stroke="midnightblue" d="M856.97,-31.45C872.93,-33.69 891.25,-36.26 908.85,-38.73"/>
<polygon fill="midnightblue" stroke="midnightblue" points="857.24,-27.96 846.85,-30.03 856.26,-34.89 857.24,-27.96"/>
</g>
<!-- Node6 -->
<g id="node7" class="node">
<title>Node6</title>
<g id="a_node7"><a xlink:href="interface_fifty_one_1_1_pipeline_1_1_engines_1_1_caching_1_1_i_data_keyed_cache.html" target="_top" xlink:title=" ">
<polygon fill="none" stroke="black" points="457,-2 457,-32 615,-32 615,-2 457,-2"/>
<text text-anchor="start" x="465" y="-20" font-family="Helvetica,sans-Serif" font-size="10.00">IDataKeyedCache&lt; IElement</text>
<text text-anchor="middle" x="536" y="-9" font-family="Helvetica,sans-Serif" font-size="10.00">Data &gt;</text>
</a>
</g>
</g>
<!-- Node6&#45;&gt;Node5 -->
<g id="edge6" class="edge">
<title>Node6&#45;&gt;Node5</title>
<path fill="none" stroke="midnightblue" d="M625.55,-19.6C675.81,-21.08 735.96,-22.85 773.33,-23.95"/>
<polygon fill="midnightblue" stroke="midnightblue" points="625.41,-16.1 615.31,-19.3 625.2,-23.1 625.41,-16.1"/>
</g>
<!-- Node7&#45;&gt;Node6 -->
<g id="edge7" class="edge">
<title>Node7&#45;&gt;Node6</title>
<path fill="none" stroke="orange" stroke-dasharray="5,2" d="M327.92,-19.87C368.41,-19.31 417.02,-18.63 456.96,-18.08"/>
<polygon fill="orange" stroke="orange" points="327.76,-16.37 317.81,-20.01 327.86,-23.37 327.76,-16.37"/>
<text text-anchor="middle" x="388.5" y="-23" font-family="Helvetica,sans-Serif" font-size="10.00"> &lt; IElementData &gt;</text>
</g>
</g>
</svg>
