<?xml version="1.0" encoding="UTF-8" standalone="no"?>
<!DOCTYPE svg PUBLIC "-//W3C//DTD SVG 1.1//EN"
 "http://www.w3.org/Graphics/SVG/1.1/DTD/svg11.dtd">
<!-- Generated by graphviz version 2.43.0 (0)
 -->
<!-- Title: FiftyOne.Pipeline.Core.FlowElements.PipelineBuilderBase&lt; T &gt; Pages: 1 -->
<svg width="934pt" height="110pt"
 viewBox="0.00 0.00 934.00 110.00" xmlns="http://www.w3.org/2000/svg" xmlns:xlink="http://www.w3.org/1999/xlink">
<g id="graph0" class="graph" transform="scale(1 1) rotate(0) translate(4 106)">
<title>FiftyOne.Pipeline.Core.FlowElements.PipelineBuilderBase&lt; T &gt;</title>
<!-- Node0 -->
<g id="node1" class="node">
<title>Node0</title>
<g id="a_node1"><a xlink:title="Abstract pipeline builder base class See the Specification">
<polygon fill="#bfbfbf" stroke="black" points="0,-36 0,-66 191,-66 191,-36 0,-36"/>
<text text-anchor="start" x="8" y="-54" font-family="Helvetica,sans-Serif" font-size="10.00">FiftyOne.Pipeline.Core.Flow</text>
<text text-anchor="middle" x="95.5" y="-43" font-family="Helvetica,sans-Serif" font-size="10.00">Elements.PipelineBuilderBase&lt; T &gt;</text>
</a>
</g>
</g>
<!-- Node1 -->
<g id="node2" class="node">
<title>Node1</title>
<g id="a_node2"><a xlink:href="class_fifty_one_1_1_pipeline_1_1_core_1_1_flow_elements_1_1_pipeline_builder_base.html" target="_top" xlink:title=" ">
<polygon fill="none" stroke="black" points="327,-60.5 327,-101.5 490,-101.5 490,-60.5 327,-60.5"/>
<text text-anchor="start" x="335" y="-89.5" font-family="Helvetica,sans-Serif" font-size="10.00">FiftyOne.Pipeline.Core.Flow</text>
<text text-anchor="start" x="335" y="-78.5" font-family="Helvetica,sans-Serif" font-size="10.00">Elements.PipelineBuilderBase</text>
<text text-anchor="middle" x="408.5" y="-67.5" font-family="Helvetica,sans-Serif" font-size="10.00">&lt; PipelineBuilder &gt;</text>
</a>
</g>
</g>
<!-- Node0&#45;&gt;Node1 -->
<g id="edge1" class="edge">
<title>Node0&#45;&gt;Node1</title>
<path fill="none" stroke="orange" stroke-dasharray="5,2" d="M201.1,-61.09C242.1,-65.05 288.41,-69.51 326.76,-73.21"/>
<polygon fill="orange" stroke="orange" points="201.37,-57.6 191.08,-60.12 200.69,-64.57 201.37,-57.6"/>
<text text-anchor="middle" x="259" y="-75" font-family="Helvetica,sans-Serif" font-size="10.00"> &lt; PipelineBuilder &gt;</text>
</g>
<!-- Node4 -->
<g id="node5" class="node">
<title>Node4</title>
<g id="a_node5"><a xlink:href="class_fifty_one_1_1_pipeline_1_1_core_1_1_flow_elements_1_1_pipeline_builder_base.html" target="_top" xlink:title=" ">
<polygon fill="none" stroke="black" points="327,-0.5 327,-41.5 490,-41.5 490,-0.5 327,-0.5"/>
<text text-anchor="start" x="335" y="-29.5" font-family="Helvetica,sans-Serif" font-size="10.00">FiftyOne.Pipeline.Core.Flow</text>
<text text-anchor="start" x="335" y="-18.5" font-family="Helvetica,sans-Serif" font-size="10.00">Elements.PipelineBuilderBase</text>
<text text-anchor="middle" x="408.5" y="-7.5" font-family="Helvetica,sans-Serif" font-size="10.00">&lt; TBuilder &gt;</text>
</a>
</g>
</g>
<!-- Node0&#45;&gt;Node4 -->
<g id="edge4" class="edge">
<title>Node0&#45;&gt;Node4</title>
<path fill="none" stroke="orange" stroke-dasharray="5,2" d="M201.1,-40.91C242.1,-36.95 288.41,-32.49 326.76,-28.79"/>
<polygon fill="orange" stroke="orange" points="200.69,-37.43 191.08,-41.88 201.37,-44.4 200.69,-37.43"/>
<text text-anchor="middle" x="259" y="-43" font-family="Helvetica,sans-Serif" font-size="10.00"> &lt; TBuilder &gt;</text>
</g>
<!-- Node2 -->
<g id="node3" class="node">
<title>Node2</title>
<g id="a_node3"><a xlink:href="class_fifty_one_1_1_pipeline_1_1_core_1_1_flow_elements_1_1_pipeline_builder.html" target="_top" xlink:title="Default pipeline builder.">
<polygon fill="none" stroke="black" points="546,-66 546,-96 697,-96 697,-66 546,-66"/>
<text text-anchor="start" x="554" y="-84" font-family="Helvetica,sans-Serif" font-size="10.00">FiftyOne.Pipeline.Core.Flow</text>
<text text-anchor="middle" x="621.5" y="-73" font-family="Helvetica,sans-Serif" font-size="10.00">Elements.PipelineBuilder</text>
</a>
</g>
</g>
<!-- Node1&#45;&gt;Node2 -->
<g id="edge2" class="edge">
<title>Node1&#45;&gt;Node2</title>
<path fill="none" stroke="midnightblue" d="M500.54,-81C515.64,-81 531.13,-81 545.76,-81"/>
<polygon fill="midnightblue" stroke="midnightblue" points="500.17,-77.5 490.17,-81 500.17,-84.5 500.17,-77.5"/>
</g>
<!-- Node3 -->
<g id="node4" class="node">
<title>Node3</title>
<g id="a_node4"><a xlink:href="class_fifty_one_1_1_pipeline_1_1_engines_1_1_fifty_one_1_1_flow_elements_1_1_fifty_one_pipeline_builder.html" target="_top" xlink:title="Pipeline builder class that allows the 51Degrees share usage element to be enabled/disabled.">
<polygon fill="none" stroke="black" points="753,-60.5 753,-101.5 926,-101.5 926,-60.5 753,-60.5"/>
<text text-anchor="start" x="761" y="-89.5" font-family="Helvetica,sans-Serif" font-size="10.00">FiftyOne.Pipeline.Engines.</text>
<text text-anchor="start" x="761" y="-78.5" font-family="Helvetica,sans-Serif" font-size="10.00">FiftyOne.FlowElements.FiftyOne</text>
<text text-anchor="middle" x="839.5" y="-67.5" font-family="Helvetica,sans-Serif" font-size="10.00">PipelineBuilder</text>
</a>
</g>
</g>
<!-- Node2&#45;&gt;Node3 -->
<g id="edge3" class="edge">
<title>Node2&#45;&gt;Node3</title>
<path fill="none" stroke="midnightblue" d="M707.35,-81C722.26,-81 737.8,-81 752.73,-81"/>
<polygon fill="midnightblue" stroke="midnightblue" points="707.14,-77.5 697.14,-81 707.14,-84.5 707.14,-77.5"/>
</g>
<!-- Node5 -->
<g id="node6" class="node">
<title>Node5</title>
<g id="a_node6"><a xlink:href="class_fifty_one_1_1_pipeline_1_1_engines_1_1_flow_elements_1_1_pre_packaged_pipeline_builder_base.html" target="_top" xlink:title="Base class for pipeline builders that will produce a pipeline with specific flow elements.">
<polygon fill="none" stroke="black" points="527,-0.5 527,-41.5 716,-41.5 716,-0.5 527,-0.5"/>
<text text-anchor="start" x="535" y="-29.5" font-family="Helvetica,sans-Serif" font-size="10.00">FiftyOne.Pipeline.Engines.</text>
<text text-anchor="start" x="535" y="-18.5" font-family="Helvetica,sans-Serif" font-size="10.00">FlowElements.PrePackagedPipeline</text>
<text text-anchor="middle" x="621.5" y="-7.5" font-family="Helvetica,sans-Serif" font-size="10.00">BuilderBase&lt; TBuilder &gt;</text>
</a>
</g>
</g>
<!-- Node4&#45;&gt;Node5 -->
<g id="edge5" class="edge">
<title>Node4&#45;&gt;Node5</title>
<path fill="none" stroke="midnightblue" d="M500.38,-21C509.13,-21 518.03,-21 526.81,-21"/>
<polygon fill="midnightblue" stroke="midnightblue" points="500.17,-17.5 490.17,-21 500.17,-24.5 500.17,-17.5"/>
</g>
</g>
</svg>
