<?xml version="1.0" encoding="UTF-8" standalone="no"?>
<!DOCTYPE svg PUBLIC "-//W3C//DTD SVG 1.1//EN"
 "http://www.w3.org/Graphics/SVG/1.1/DTD/svg11.dtd">
<!-- Generated by graphviz version 2.43.0 (0)
 -->
<!-- Title: FiftyOne.Pipeline.Engines.Data.AspectDataBase Pages: 1 -->
<svg width="342pt" height="274pt"
 viewBox="0.00 0.00 341.50 274.00" xmlns="http://www.w3.org/2000/svg" xmlns:xlink="http://www.w3.org/1999/xlink">
<g id="graph0" class="graph" transform="scale(1 1) rotate(0) translate(4 270)">
<title>FiftyOne.Pipeline.Engines.Data.AspectDataBase</title>
<!-- Node0 -->
<g id="node1" class="node">
<title>Node0</title>
<g id="a_node1"><a xlink:title="Base class for element data instances that are generated by an IAspectEngine.">
<polygon fill="#bfbfbf" stroke="black" points="95.5,-67.5 95.5,-97.5 238.5,-97.5 238.5,-67.5 95.5,-67.5"/>
<text text-anchor="start" x="103.5" y="-85.5" font-family="Helvetica,sans-Serif" font-size="10.00">FiftyOne.Pipeline.Engines.</text>
<text text-anchor="middle" x="167" y="-74.5" font-family="Helvetica,sans-Serif" font-size="10.00">Data.AspectDataBase</text>
</a>
</g>
</g>
<!-- Node6 -->
<g id="node7" class="node">
<title>Node6</title>
<g id="a_node7"><a xlink:href="class_examples_1_1_cloud_engine_1_1_data_1_1_star_sign_data.html" target="_top" xlink:title="[class]">
<polygon fill="none" stroke="black" points="0,-0.5 0,-30.5 158,-30.5 158,-0.5 0,-0.5"/>
<text text-anchor="start" x="8" y="-18.5" font-family="Helvetica,sans-Serif" font-size="10.00">Examples.CloudEngine.Data.</text>
<text text-anchor="middle" x="79" y="-7.5" font-family="Helvetica,sans-Serif" font-size="10.00">StarSignData</text>
</a>
</g>
</g>
<!-- Node0&#45;&gt;Node6 -->
<g id="edge8" class="edge">
<title>Node0&#45;&gt;Node6</title>
<path fill="none" stroke="midnightblue" d="M139.86,-61.45C126.32,-51.45 110.27,-39.6 98.06,-30.58"/>
<polygon fill="midnightblue" stroke="midnightblue" points="137.78,-64.27 147.91,-67.4 141.94,-58.64 137.78,-64.27"/>
</g>
<!-- Node7 -->
<g id="node8" class="node">
<title>Node7</title>
<g id="a_node8"><a xlink:href="class_examples_1_1_on_premise_engine_1_1_data_1_1_star_sign_data.html" target="_top" xlink:title="[class]">
<polygon fill="none" stroke="black" points="176.5,-0.5 176.5,-30.5 333.5,-30.5 333.5,-0.5 176.5,-0.5"/>
<text text-anchor="start" x="184.5" y="-18.5" font-family="Helvetica,sans-Serif" font-size="10.00">Examples.OnPremiseEngine.</text>
<text text-anchor="middle" x="255" y="-7.5" font-family="Helvetica,sans-Serif" font-size="10.00">Data.StarSignData</text>
</a>
</g>
</g>
<!-- Node0&#45;&gt;Node7 -->
<g id="edge9" class="edge">
<title>Node0&#45;&gt;Node7</title>
<path fill="none" stroke="midnightblue" d="M194.14,-61.45C207.68,-51.45 223.73,-39.6 235.94,-30.58"/>
<polygon fill="midnightblue" stroke="midnightblue" points="192.06,-58.64 186.09,-67.4 196.22,-64.27 192.06,-58.64"/>
</g>
<!-- Node1 -->
<g id="node2" class="node">
<title>Node1</title>
<g id="a_node2"><a xlink:href="class_fifty_one_1_1_pipeline_1_1_core_1_1_data_1_1_element_data_base.html" target="_top" xlink:title="This class stores property values that have been determined by a specific FlowElement based on the su...">
<polygon fill="none" stroke="black" points="61,-134.5 61,-153.5 165,-153.5 165,-134.5 61,-134.5"/>
<text text-anchor="middle" x="113" y="-141.5" font-family="Helvetica,sans-Serif" font-size="10.00">ElementDataBase</text>
</a>
</g>
</g>
<!-- Node1&#45;&gt;Node0 -->
<g id="edge1" class="edge">
<title>Node1&#45;&gt;Node0</title>
<path fill="none" stroke="midnightblue" d="M127.69,-126.81C136.01,-117.65 146.3,-106.3 154.27,-97.52"/>
<polygon fill="midnightblue" stroke="midnightblue" points="124.87,-124.72 120.74,-134.48 130.05,-129.42 124.87,-124.72"/>
</g>
<!-- Node2 -->
<g id="node3" class="node">
<title>Node2</title>
<g id="a_node3"><a xlink:href="class_fifty_one_1_1_pipeline_1_1_core_1_1_data_1_1_data_base.html" target="_top" xlink:title="This class stores data values as key/value pairs where the key is a string and the value can be any t...">
<polygon fill="none" stroke="black" points="81,-190.5 81,-209.5 145,-209.5 145,-190.5 81,-190.5"/>
<text text-anchor="middle" x="113" y="-197.5" font-family="Helvetica,sans-Serif" font-size="10.00">DataBase</text>
</a>
</g>
</g>
<!-- Node2&#45;&gt;Node1 -->
<g id="edge2" class="edge">
<title>Node2&#45;&gt;Node1</title>
<path fill="none" stroke="midnightblue" d="M113,-179.8C113,-170.91 113,-160.78 113,-153.75"/>
<polygon fill="midnightblue" stroke="midnightblue" points="109.5,-180.08 113,-190.08 116.5,-180.08 109.5,-180.08"/>
</g>
<!-- Node3 -->
<g id="node4" class="node">
<title>Node3</title>
<g id="a_node4"><a xlink:href="interface_fifty_one_1_1_pipeline_1_1_core_1_1_data_1_1_i_data.html" target="_top" xlink:title="Represents property values">
<polygon fill="none" stroke="black" points="137.5,-246.5 137.5,-265.5 180.5,-265.5 180.5,-246.5 137.5,-246.5"/>
<text text-anchor="middle" x="159" y="-253.5" font-family="Helvetica,sans-Serif" font-size="10.00">IData</text>
</a>
</g>
</g>
<!-- Node3&#45;&gt;Node2 -->
<g id="edge3" class="edge">
<title>Node3&#45;&gt;Node2</title>
<path fill="none" stroke="midnightblue" d="M144.89,-238.43C136.82,-228.97 127.04,-217.48 120.45,-209.75"/>
<polygon fill="midnightblue" stroke="midnightblue" points="142.25,-240.74 151.4,-246.08 147.58,-236.2 142.25,-240.74"/>
</g>
<!-- Node4 -->
<g id="node5" class="node">
<title>Node4</title>
<g id="a_node5"><a xlink:href="interface_fifty_one_1_1_pipeline_1_1_core_1_1_data_1_1_i_element_data.html" target="_top" xlink:title="Represents property values that have been determined by a specific FlowElement based on the supplied ...">
<polygon fill="none" stroke="black" points="163.5,-190.5 163.5,-209.5 246.5,-209.5 246.5,-190.5 163.5,-190.5"/>
<text text-anchor="middle" x="205" y="-197.5" font-family="Helvetica,sans-Serif" font-size="10.00">IElementData</text>
</a>
</g>
</g>
<!-- Node3&#45;&gt;Node4 -->
<g id="edge5" class="edge">
<title>Node3&#45;&gt;Node4</title>
<path fill="none" stroke="midnightblue" d="M173.11,-238.43C181.18,-228.97 190.96,-217.48 197.55,-209.75"/>
<polygon fill="midnightblue" stroke="midnightblue" points="170.42,-236.2 166.6,-246.08 175.75,-240.74 170.42,-236.2"/>
</g>
<!-- Node4&#45;&gt;Node1 -->
<g id="edge4" class="edge">
<title>Node4&#45;&gt;Node1</title>
<path fill="none" stroke="midnightblue" d="M181.45,-185.18C164.52,-175.24 142.22,-162.15 127.74,-153.65"/>
<polygon fill="midnightblue" stroke="midnightblue" points="179.82,-188.28 190.22,-190.32 183.37,-182.24 179.82,-188.28"/>
</g>
<!-- Node5 -->
<g id="node6" class="node">
<title>Node5</title>
<g id="a_node6"><a xlink:href="interface_fifty_one_1_1_pipeline_1_1_engines_1_1_data_1_1_i_aspect_data.html" target="_top" xlink:title="Represents an ElementData instance that is generated by an IAspectEngine.">
<polygon fill="none" stroke="black" points="183,-134.5 183,-153.5 259,-153.5 259,-134.5 183,-134.5"/>
<text text-anchor="middle" x="221" y="-141.5" font-family="Helvetica,sans-Serif" font-size="10.00">IAspectData</text>
</a>
</g>
</g>
<!-- Node4&#45;&gt;Node5 -->
<g id="edge7" class="edge">
<title>Node4&#45;&gt;Node5</title>
<path fill="none" stroke="midnightblue" d="M210.51,-180.4C213.19,-171.36 216.28,-160.94 218.41,-153.75"/>
<polygon fill="midnightblue" stroke="midnightblue" points="207.13,-179.5 207.64,-190.08 213.84,-181.49 207.13,-179.5"/>
</g>
<!-- Node5&#45;&gt;Node0 -->
<g id="edge6" class="edge">
<title>Node5&#45;&gt;Node0</title>
<path fill="none" stroke="midnightblue" d="M206.31,-126.81C197.99,-117.65 187.7,-106.3 179.73,-97.52"/>
<polygon fill="midnightblue" stroke="midnightblue" points="203.95,-129.42 213.26,-134.48 209.13,-124.72 203.95,-129.42"/>
</g>
</g>
</svg>
