<?xml version="1.0" encoding="UTF-8" standalone="no"?>
<!DOCTYPE svg PUBLIC "-//W3C//DTD SVG 1.1//EN"
 "http://www.w3.org/Graphics/SVG/1.1/DTD/svg11.dtd">
<!-- Generated by graphviz version 2.43.0 (0)
 -->
<!-- Title: FiftyOne.Pipeline.Engines.FiftyOne.Configuration.FiftyOneDataFileConfiguration Pages: 1 -->
<svg width="177pt" height="162pt"
 viewBox="0.00 0.00 177.00 162.00" xmlns="http://www.w3.org/2000/svg" xmlns:xlink="http://www.w3.org/1999/xlink">
<g id="graph0" class="graph" transform="scale(1 1) rotate(0) translate(4 158)">
<title>FiftyOne.Pipeline.Engines.FiftyOne.Configuration.FiftyOneDataFileConfiguration</title>
<!-- Node0 -->
<g id="node1" class="node">
<title>Node0</title>
<g id="a_node1"><a xlink:title="Data file configuration class for 51Degrees data files.">
<polygon fill="#bfbfbf" stroke="black" points="0,-0.5 0,-41.5 169,-41.5 169,-0.5 0,-0.5"/>
<text text-anchor="start" x="8" y="-29.5" font-family="Helvetica,sans-Serif" font-size="10.00">FiftyOne.Pipeline.Engines.</text>
<text text-anchor="start" x="8" y="-18.5" font-family="Helvetica,sans-Serif" font-size="10.00">FiftyOne.Configuration.FiftyOne</text>
<text text-anchor="middle" x="84.5" y="-7.5" font-family="Helvetica,sans-Serif" font-size="10.00">DataFileConfiguration</text>
</a>
</g>
</g>
<!-- Node1 -->
<g id="node2" class="node">
<title>Node1</title>
<g id="a_node2"><a xlink:href="class_fifty_one_1_1_pipeline_1_1_engines_1_1_configuration_1_1_data_file_configuration.html" target="_top" xlink:title="This class contains the automatic update configuration parameters that can be supplied to an engine f...">
<polygon fill="none" stroke="black" points="23.5,-78.5 23.5,-97.5 145.5,-97.5 145.5,-78.5 23.5,-78.5"/>
<text text-anchor="middle" x="84.5" y="-85.5" font-family="Helvetica,sans-Serif" font-size="10.00">DataFileConfiguration</text>
</a>
</g>
</g>
<!-- Node1&#45;&gt;Node0 -->
<g id="edge1" class="edge">
<title>Node1&#45;&gt;Node0</title>
<path fill="none" stroke="midnightblue" d="M84.5,-68.04C84.5,-59.71 84.5,-49.94 84.5,-41.54"/>
<polygon fill="midnightblue" stroke="midnightblue" points="81,-68.23 84.5,-78.23 88,-68.23 81,-68.23"/>
</g>
<!-- Node2 -->
<g id="node3" class="node">
<title>Node2</title>
<g id="a_node3"><a xlink:href="interface_fifty_one_1_1_pipeline_1_1_engines_1_1_configuration_1_1_i_data_file_configuration.html" target="_top" xlink:title="Interface representing the configuration parameters controlling the automatic update checks for a spe...">
<polygon fill="none" stroke="black" points="22,-134.5 22,-153.5 147,-153.5 147,-134.5 22,-134.5"/>
<text text-anchor="middle" x="84.5" y="-141.5" font-family="Helvetica,sans-Serif" font-size="10.00">IDataFileConfiguration</text>
</a>
</g>
</g>
<!-- Node2&#45;&gt;Node1 -->
<g id="edge2" class="edge">
<title>Node2&#45;&gt;Node1</title>
<path fill="none" stroke="midnightblue" d="M84.5,-123.8C84.5,-114.91 84.5,-104.78 84.5,-97.75"/>
<polygon fill="midnightblue" stroke="midnightblue" points="81,-124.08 84.5,-134.08 88,-124.08 81,-124.08"/>
</g>
</g>
</svg>
