<?xml version="1.0" encoding="UTF-8" standalone="no"?>
<!DOCTYPE svg PUBLIC "-//W3C//DTD SVG 1.1//EN"
 "http://www.w3.org/Graphics/SVG/1.1/DTD/svg11.dtd">
<!-- Generated by graphviz version 2.43.0 (0)
 -->
<!-- Title: FiftyOne.Pipeline.Engines.FlowElements.OnPremiseAspectEngineBuilderBase&lt; TBuilder, TEngine &gt; Pages: 1 -->
<svg width="1299pt" height="144pt"
 viewBox="0.00 0.00 1299.00 143.50" xmlns="http://www.w3.org/2000/svg" xmlns:xlink="http://www.w3.org/1999/xlink">
<g id="graph0" class="graph" transform="scale(1 1) rotate(0) translate(4 139.5)">
<title>FiftyOne.Pipeline.Engines.FlowElements.OnPremiseAspectEngineBuilderBase&lt; TBuilder, TEngine &gt;</title>
<!-- Node0 -->
<g id="node1" class="node">
<title>Node0</title>
<g id="a_node1"><a xlink:title="Abstract base class that exposes the common options that all 51Degrees on&#45;premise engine builders sho...">
<polygon fill="#bfbfbf" stroke="black" points="178,-44 178,-85 386,-85 386,-44 178,-44"/>
<text text-anchor="start" x="186" y="-73" font-family="Helvetica,sans-Serif" font-size="10.00">FiftyOne.Pipeline.Engines.</text>
<text text-anchor="start" x="186" y="-62" font-family="Helvetica,sans-Serif" font-size="10.00">FlowElements.OnPremiseAspectEngine</text>
<text text-anchor="middle" x="282" y="-51" font-family="Helvetica,sans-Serif" font-size="10.00">BuilderBase&lt; TBuilder, TEngine &gt;</text>
</a>
</g>
</g>
<!-- Node2 -->
<g id="node3" class="node">
<title>Node2</title>
<g id="a_node3"><a xlink:href="class_fifty_one_1_1_pipeline_1_1_engines_1_1_flow_elements_1_1_single_file_aspect_engine_builder_base.html" target="_top" xlink:title="Abstract base class that exposes the common options that all on&#45;premise engine builders using a singl...">
<polygon fill="none" stroke="black" points="423,-38.5 423,-90.5 593,-90.5 593,-38.5 423,-38.5"/>
<text text-anchor="start" x="431" y="-78.5" font-family="Helvetica,sans-Serif" font-size="10.00">FiftyOne::Pipeline</text>
<text text-anchor="start" x="431" y="-67.5" font-family="Helvetica,sans-Serif" font-size="10.00">::Engines::FlowElements</text>
<text text-anchor="start" x="431" y="-56.5" font-family="Helvetica,sans-Serif" font-size="10.00">::SingleFileAspectEngineBuilder</text>
<text text-anchor="middle" x="508" y="-45.5" font-family="Helvetica,sans-Serif" font-size="10.00">Base&lt; TBuilder, TEngine &gt;</text>
</a>
</g>
</g>
<!-- Node0&#45;&gt;Node2 -->
<g id="edge2" class="edge">
<title>Node0&#45;&gt;Node2</title>
<path fill="none" stroke="midnightblue" d="M396.25,-64.5C405.2,-64.5 414.14,-64.5 422.84,-64.5"/>
<polygon fill="midnightblue" stroke="midnightblue" points="396.15,-61 386.15,-64.5 396.15,-68 396.15,-61"/>
</g>
<!-- Node1 -->
<g id="node2" class="node">
<title>Node1</title>
<g id="a_node2"><a xlink:href="class_fifty_one_1_1_pipeline_1_1_engines_1_1_flow_elements_1_1_aspect_engine_builder_base.html" target="_top" xlink:title="Abstract base class that exposes the common options that all 51Degrees engine builders should make us...">
<polygon fill="none" stroke="black" points="0,-49.5 0,-79.5 141,-79.5 141,-49.5 0,-49.5"/>
<text text-anchor="start" x="8" y="-67.5" font-family="Helvetica,sans-Serif" font-size="10.00">AspectEngineBuilderBase</text>
<text text-anchor="middle" x="70.5" y="-56.5" font-family="Helvetica,sans-Serif" font-size="10.00">&lt; TBuilder, TEngine &gt;</text>
</a>
</g>
</g>
<!-- Node1&#45;&gt;Node0 -->
<g id="edge1" class="edge">
<title>Node1&#45;&gt;Node0</title>
<path fill="none" stroke="midnightblue" d="M151.35,-64.5C160.05,-64.5 168.99,-64.5 177.92,-64.5"/>
<polygon fill="midnightblue" stroke="midnightblue" points="151.26,-61 141.26,-64.5 151.26,-68 151.26,-61"/>
</g>
<!-- Node3 -->
<g id="node4" class="node">
<title>Node3</title>
<g id="a_node4"><a xlink:href="class_fifty_one_1_1_pipeline_1_1_engines_1_1_fifty_one_1_1_flow_elements_1_1_fifty_one_on_premise_aspect_engine_builder_base.html" target="_top" xlink:title="A base class for engine builders for on&#45;premise engines that use a single data file and use the 51Deg...">
<polygon fill="none" stroke="black" points="825,-72 825,-135 1021,-135 1021,-72 825,-72"/>
<text text-anchor="start" x="833" y="-123" font-family="Helvetica,sans-Serif" font-size="10.00">FiftyOne::Pipeline</text>
<text text-anchor="start" x="833" y="-112" font-family="Helvetica,sans-Serif" font-size="10.00">::Engines::FiftyOne</text>
<text text-anchor="start" x="833" y="-101" font-family="Helvetica,sans-Serif" font-size="10.00">::FlowElements::FiftyOneOnPremise</text>
<text text-anchor="start" x="833" y="-90" font-family="Helvetica,sans-Serif" font-size="10.00">AspectEngineBuilderBase&lt; TBuilder,</text>
<text text-anchor="middle" x="923" y="-79" font-family="Helvetica,sans-Serif" font-size="10.00"> TEngine &gt;</text>
</a>
</g>
</g>
<!-- Node2&#45;&gt;Node3 -->
<g id="edge3" class="edge">
<title>Node2&#45;&gt;Node3</title>
<path fill="none" stroke="midnightblue" d="M603.32,-79.58C605.9,-79.9 608.47,-80.21 611,-80.5 682.4,-88.73 763.38,-94.61 824.8,-98.36"/>
<polygon fill="midnightblue" stroke="midnightblue" points="603.62,-76.09 593.25,-78.27 602.72,-83.03 603.62,-76.09"/>
</g>
<!-- Node4 -->
<g id="node5" class="node">
<title>Node4</title>
<g id="a_node5"><a xlink:href="class_fifty_one_1_1_pipeline_1_1_engines_1_1_flow_elements_1_1_single_file_aspect_engine_builder_base.html" target="_top" xlink:title=" ">
<polygon fill="none" stroke="black" points="801,-0.5 801,-52.5 1045,-52.5 1045,-0.5 801,-0.5"/>
<text text-anchor="start" x="809" y="-40.5" font-family="Helvetica,sans-Serif" font-size="10.00">FiftyOne.Pipeline.Engines.</text>
<text text-anchor="start" x="809" y="-29.5" font-family="Helvetica,sans-Serif" font-size="10.00">FlowElements.SingleFileAspectEngine</text>
<text text-anchor="start" x="809" y="-18.5" font-family="Helvetica,sans-Serif" font-size="10.00">BuilderBase&lt; SimpleOnPremiseEngineBuilder,</text>
<text text-anchor="middle" x="923" y="-7.5" font-family="Helvetica,sans-Serif" font-size="10.00"> SimpleOnPremiseEngine &gt;</text>
</a>
</g>
</g>
<!-- Node2&#45;&gt;Node4 -->
<g id="edge4" class="edge">
<title>Node2&#45;&gt;Node4</title>
<path fill="none" stroke="orange" stroke-dasharray="5,2" d="M603.07,-55.84C661.7,-50.45 737.73,-43.45 800.85,-37.65"/>
<polygon fill="orange" stroke="orange" points="602.71,-52.36 593.07,-56.76 603.35,-59.33 602.71,-52.36"/>
<text text-anchor="start" x="611" y="-68.5" font-family="Helvetica,sans-Serif" font-size="10.00"> &lt; SimpleOnPremiseEngineBuilder,</text>
<text text-anchor="middle" x="697" y="-57.5" font-family="Helvetica,sans-Serif" font-size="10.00"> SimpleOnPremiseEngine &gt;</text>
</g>
<!-- Node5 -->
<g id="node6" class="node">
<title>Node5</title>
<g id="a_node6"><a xlink:href="class_examples_1_1_on_premise_engine_1_1_flow_elements_1_1_simple_on_premise_engine_builder.html" target="_top" xlink:title="[class]">
<polygon fill="none" stroke="black" points="1082,-6 1082,-47 1291,-47 1291,-6 1082,-6"/>
<text text-anchor="start" x="1090" y="-35" font-family="Helvetica,sans-Serif" font-size="10.00">Examples.OnPremiseEngine.</text>
<text text-anchor="start" x="1090" y="-24" font-family="Helvetica,sans-Serif" font-size="10.00">FlowElements.SimpleOnPremiseEngine</text>
<text text-anchor="middle" x="1186.5" y="-13" font-family="Helvetica,sans-Serif" font-size="10.00">Builder</text>
</a>
</g>
</g>
<!-- Node4&#45;&gt;Node5 -->
<g id="edge5" class="edge">
<title>Node4&#45;&gt;Node5</title>
<path fill="none" stroke="midnightblue" d="M1055.28,-26.5C1064.23,-26.5 1073.18,-26.5 1081.96,-26.5"/>
<polygon fill="midnightblue" stroke="midnightblue" points="1055.18,-23 1045.18,-26.5 1055.18,-30 1055.18,-23"/>
</g>
</g>
</svg>
