<?xml version="1.0" encoding="UTF-8" standalone="no"?>
<!DOCTYPE svg PUBLIC "-//W3C//DTD SVG 1.1//EN"
 "http://www.w3.org/Graphics/SVG/1.1/DTD/svg11.dtd">
<!-- Generated by graphviz version 2.43.0 (0)
 -->
<!-- Title: FiftyOne.Pipeline.Engines.FlowElements.SingleFileAspectEngineBuilderBase&lt; TBuilder, TEngine &gt; Pages: 1 -->
<svg width="1293pt" height="144pt"
 viewBox="0.00 0.00 1293.00 143.50" xmlns="http://www.w3.org/2000/svg" xmlns:xlink="http://www.w3.org/1999/xlink">
<g id="graph0" class="graph" transform="scale(1 1) rotate(0) translate(4 139.5)">
<title>FiftyOne.Pipeline.Engines.FlowElements.SingleFileAspectEngineBuilderBase&lt; TBuilder, TEngine &gt;</title>
<!-- Node0 -->
<g id="node1" class="node">
<title>Node0</title>
<g id="a_node1"><a xlink:title="Abstract base class that exposes the common options that all on&#45;premise engine builders using a singl...">
<polygon fill="#bfbfbf" stroke="black" points="385,-44 385,-85 587,-85 587,-44 385,-44"/>
<text text-anchor="start" x="393" y="-73" font-family="Helvetica,sans-Serif" font-size="10.00">FiftyOne.Pipeline.Engines.</text>
<text text-anchor="start" x="393" y="-62" font-family="Helvetica,sans-Serif" font-size="10.00">FlowElements.SingleFileAspectEngine</text>
<text text-anchor="middle" x="486" y="-51" font-family="Helvetica,sans-Serif" font-size="10.00">BuilderBase&lt; TBuilder, TEngine &gt;</text>
</a>
</g>
</g>
<!-- Node3 -->
<g id="node4" class="node">
<title>Node3</title>
<g id="a_node4"><a xlink:href="class_fifty_one_1_1_pipeline_1_1_engines_1_1_fifty_one_1_1_flow_elements_1_1_fifty_one_on_premise_aspect_engine_builder_base.html" target="_top" xlink:title="A base class for engine builders for on&#45;premise engines that use a single data file and use the 51Deg...">
<polygon fill="none" stroke="black" points="819,-72 819,-135 1015,-135 1015,-72 819,-72"/>
<text text-anchor="start" x="827" y="-123" font-family="Helvetica,sans-Serif" font-size="10.00">FiftyOne::Pipeline</text>
<text text-anchor="start" x="827" y="-112" font-family="Helvetica,sans-Serif" font-size="10.00">::Engines::FiftyOne</text>
<text text-anchor="start" x="827" y="-101" font-family="Helvetica,sans-Serif" font-size="10.00">::FlowElements::FiftyOneOnPremise</text>
<text text-anchor="start" x="827" y="-90" font-family="Helvetica,sans-Serif" font-size="10.00">AspectEngineBuilderBase&lt; TBuilder,</text>
<text text-anchor="middle" x="917" y="-79" font-family="Helvetica,sans-Serif" font-size="10.00"> TEngine &gt;</text>
</a>
</g>
</g>
<!-- Node0&#45;&gt;Node3 -->
<g id="edge3" class="edge">
<title>Node0&#45;&gt;Node3</title>
<path fill="none" stroke="midnightblue" d="M597.23,-78.69C599.85,-78.97 602.44,-79.24 605,-79.5 676.52,-86.8 757.49,-92.98 818.88,-97.24"/>
<polygon fill="midnightblue" stroke="midnightblue" points="597.39,-75.18 587.07,-77.57 596.62,-82.14 597.39,-75.18"/>
</g>
<!-- Node4 -->
<g id="node5" class="node">
<title>Node4</title>
<g id="a_node5"><a xlink:href="class_fifty_one_1_1_pipeline_1_1_engines_1_1_flow_elements_1_1_single_file_aspect_engine_builder_base.html" target="_top" xlink:title=" ">
<polygon fill="none" stroke="black" points="795,-0.5 795,-52.5 1039,-52.5 1039,-0.5 795,-0.5"/>
<text text-anchor="start" x="803" y="-40.5" font-family="Helvetica,sans-Serif" font-size="10.00">FiftyOne.Pipeline.Engines.</text>
<text text-anchor="start" x="803" y="-29.5" font-family="Helvetica,sans-Serif" font-size="10.00">FlowElements.SingleFileAspectEngine</text>
<text text-anchor="start" x="803" y="-18.5" font-family="Helvetica,sans-Serif" font-size="10.00">BuilderBase&lt; SimpleOnPremiseEngineBuilder,</text>
<text text-anchor="middle" x="917" y="-7.5" font-family="Helvetica,sans-Serif" font-size="10.00"> SimpleOnPremiseEngine &gt;</text>
</a>
</g>
</g>
<!-- Node0&#45;&gt;Node4 -->
<g id="edge4" class="edge">
<title>Node0&#45;&gt;Node4</title>
<path fill="none" stroke="orange" stroke-dasharray="5,2" d="M597.37,-54.72C657.78,-49.37 732.73,-42.73 794.76,-37.24"/>
<polygon fill="orange" stroke="orange" points="596.69,-51.27 587.04,-55.64 597.31,-58.24 596.69,-51.27"/>
<text text-anchor="start" x="605" y="-67.5" font-family="Helvetica,sans-Serif" font-size="10.00"> &lt; SimpleOnPremiseEngineBuilder,</text>
<text text-anchor="middle" x="691" y="-56.5" font-family="Helvetica,sans-Serif" font-size="10.00"> SimpleOnPremiseEngine &gt;</text>
</g>
<!-- Node1 -->
<g id="node2" class="node">
<title>Node1</title>
<g id="a_node2"><a xlink:href="class_fifty_one_1_1_pipeline_1_1_engines_1_1_flow_elements_1_1_on_premise_aspect_engine_builder_base.html" target="_top" xlink:title="Abstract base class that exposes the common options that all 51Degrees on&#45;premise engine builders sho...">
<polygon fill="none" stroke="black" points="178,-49.5 178,-79.5 348,-79.5 348,-49.5 178,-49.5"/>
<text text-anchor="start" x="186" y="-67.5" font-family="Helvetica,sans-Serif" font-size="10.00">OnPremiseAspectEngineBuilder</text>
<text text-anchor="middle" x="263" y="-56.5" font-family="Helvetica,sans-Serif" font-size="10.00">Base&lt; TBuilder, TEngine &gt;</text>
</a>
</g>
</g>
<!-- Node1&#45;&gt;Node0 -->
<g id="edge1" class="edge">
<title>Node1&#45;&gt;Node0</title>
<path fill="none" stroke="midnightblue" d="M358.36,-64.5C367.09,-64.5 375.96,-64.5 384.75,-64.5"/>
<polygon fill="midnightblue" stroke="midnightblue" points="358.18,-61 348.18,-64.5 358.18,-68 358.18,-61"/>
</g>
<!-- Node2 -->
<g id="node3" class="node">
<title>Node2</title>
<g id="a_node3"><a xlink:href="class_fifty_one_1_1_pipeline_1_1_engines_1_1_flow_elements_1_1_aspect_engine_builder_base.html" target="_top" xlink:title="Abstract base class that exposes the common options that all 51Degrees engine builders should make us...">
<polygon fill="none" stroke="black" points="0,-49.5 0,-79.5 141,-79.5 141,-49.5 0,-49.5"/>
<text text-anchor="start" x="8" y="-67.5" font-family="Helvetica,sans-Serif" font-size="10.00">AspectEngineBuilderBase</text>
<text text-anchor="middle" x="70.5" y="-56.5" font-family="Helvetica,sans-Serif" font-size="10.00">&lt; TBuilder, TEngine &gt;</text>
</a>
</g>
</g>
<!-- Node2&#45;&gt;Node1 -->
<g id="edge2" class="edge">
<title>Node2&#45;&gt;Node1</title>
<path fill="none" stroke="midnightblue" d="M151.25,-64.5C159.99,-64.5 168.91,-64.5 177.71,-64.5"/>
<polygon fill="midnightblue" stroke="midnightblue" points="151.08,-61 141.08,-64.5 151.08,-68 151.08,-61"/>
</g>
<!-- Node5 -->
<g id="node6" class="node">
<title>Node5</title>
<g id="a_node6"><a xlink:href="class_examples_1_1_on_premise_engine_1_1_flow_elements_1_1_simple_on_premise_engine_builder.html" target="_top" xlink:title="[class]">
<polygon fill="none" stroke="black" points="1076,-6 1076,-47 1285,-47 1285,-6 1076,-6"/>
<text text-anchor="start" x="1084" y="-35" font-family="Helvetica,sans-Serif" font-size="10.00">Examples.OnPremiseEngine.</text>
<text text-anchor="start" x="1084" y="-24" font-family="Helvetica,sans-Serif" font-size="10.00">FlowElements.SimpleOnPremiseEngine</text>
<text text-anchor="middle" x="1180.5" y="-13" font-family="Helvetica,sans-Serif" font-size="10.00">Builder</text>
</a>
</g>
</g>
<!-- Node4&#45;&gt;Node5 -->
<g id="edge5" class="edge">
<title>Node4&#45;&gt;Node5</title>
<path fill="none" stroke="midnightblue" d="M1049.28,-26.5C1058.23,-26.5 1067.18,-26.5 1075.96,-26.5"/>
<polygon fill="midnightblue" stroke="midnightblue" points="1049.18,-23 1039.18,-26.5 1049.18,-30 1049.18,-23"/>
</g>
</g>
</svg>
