<?xml version="1.0" encoding="UTF-8" standalone="no"?>
<!DOCTYPE svg PUBLIC "-//W3C//DTD SVG 1.1//EN"
 "http://www.w3.org/Graphics/SVG/1.1/DTD/svg11.dtd">
<!-- Generated by graphviz version 2.43.0 (0)
 -->
<!-- Title: FiftyOne.Pipeline.Engines.FlowElements.PrePackagedPipelineBuilderBase&lt; TBuilder &gt; Pages: 1 -->
<svg width="199pt" height="196pt"
 viewBox="0.00 0.00 199.00 196.00" xmlns="http://www.w3.org/2000/svg" xmlns:xlink="http://www.w3.org/1999/xlink">
<g id="graph0" class="graph" transform="scale(1 1) rotate(0) translate(4 192)">
<title>FiftyOne.Pipeline.Engines.FlowElements.PrePackagedPipelineBuilderBase&lt; TBuilder &gt;</title>
<!-- Node0 -->
<g id="node1" class="node">
<title>Node0</title>
<g id="a_node1"><a xlink:title="Base class for pipeline builders that will produce a pipeline with specific flow elements.">
<polygon fill="#bfbfbf" stroke="black" points="1,-0.5 1,-41.5 190,-41.5 190,-0.5 1,-0.5"/>
<text text-anchor="start" x="9" y="-29.5" font-family="Helvetica,sans-Serif" font-size="10.00">FiftyOne.Pipeline.Engines.</text>
<text text-anchor="start" x="9" y="-18.5" font-family="Helvetica,sans-Serif" font-size="10.00">FlowElements.PrePackagedPipeline</text>
<text text-anchor="middle" x="95.5" y="-7.5" font-family="Helvetica,sans-Serif" font-size="10.00">BuilderBase&lt; TBuilder &gt;</text>
</a>
</g>
</g>
<!-- Node1 -->
<g id="node2" class="node">
<title>Node1</title>
<g id="a_node2"><a xlink:href="class_fifty_one_1_1_pipeline_1_1_core_1_1_flow_elements_1_1_pipeline_builder_base.html" target="_top" xlink:title=" ">
<polygon fill="none" stroke="black" points="38.5,-79.5 38.5,-109.5 152.5,-109.5 152.5,-79.5 38.5,-79.5"/>
<text text-anchor="start" x="46.5" y="-97.5" font-family="Helvetica,sans-Serif" font-size="10.00">PipelineBuilderBase</text>
<text text-anchor="middle" x="95.5" y="-86.5" font-family="Helvetica,sans-Serif" font-size="10.00">&lt; TBuilder &gt;</text>
</a>
</g>
</g>
<!-- Node1&#45;&gt;Node0 -->
<g id="edge1" class="edge">
<title>Node1&#45;&gt;Node0</title>
<path fill="none" stroke="midnightblue" d="M95.5,-69.1C95.5,-60.1 95.5,-50.02 95.5,-41.51"/>
<polygon fill="midnightblue" stroke="midnightblue" points="92,-69.37 95.5,-79.37 99,-69.37 92,-69.37"/>
</g>
<!-- Node2 -->
<g id="node3" class="node">
<title>Node2</title>
<g id="a_node3"><a xlink:href="class_fifty_one_1_1_pipeline_1_1_core_1_1_flow_elements_1_1_pipeline_builder_base.html" target="_top" xlink:title="Abstract pipeline builder base class See the Specification">
<polygon fill="none" stroke="black" points="0,-157.5 0,-187.5 191,-187.5 191,-157.5 0,-157.5"/>
<text text-anchor="start" x="8" y="-175.5" font-family="Helvetica,sans-Serif" font-size="10.00">FiftyOne.Pipeline.Core.Flow</text>
<text text-anchor="middle" x="95.5" y="-164.5" font-family="Helvetica,sans-Serif" font-size="10.00">Elements.PipelineBuilderBase&lt; T &gt;</text>
</a>
</g>
</g>
<!-- Node2&#45;&gt;Node1 -->
<g id="edge2" class="edge">
<title>Node2&#45;&gt;Node1</title>
<path fill="none" stroke="orange" stroke-dasharray="5,2" d="M95.5,-147.09C95.5,-134.76 95.5,-120.22 95.5,-109.73"/>
<polygon fill="orange" stroke="orange" points="92,-147.2 95.5,-157.2 99,-147.21 92,-147.2"/>
<text text-anchor="middle" x="129" y="-131" font-family="Helvetica,sans-Serif" font-size="10.00"> &lt; TBuilder &gt;</text>
</g>
</g>
</svg>
