<?xml version="1.0" encoding="UTF-8" standalone="no"?>
<!DOCTYPE svg PUBLIC "-//W3C//DTD SVG 1.1//EN"
 "http://www.w3.org/Graphics/SVG/1.1/DTD/svg11.dtd">
<!-- Generated by graphviz version 2.43.0 (0)
 -->
<!-- Title: FiftyOne.Pipeline.Engines.FiftyOne.FlowElements.FiftyOneOnPremiseAspectEngineBuilderBase&lt; TBuilder, TEngine &gt; Pages: 1 -->
<svg width="202pt" height="262pt"
 viewBox="0.00 0.00 202.00 262.00" xmlns="http://www.w3.org/2000/svg" xmlns:xlink="http://www.w3.org/1999/xlink">
<g id="graph0" class="graph" transform="scale(1 1) rotate(0) translate(4 258)">
<title>FiftyOne.Pipeline.Engines.FiftyOne.FlowElements.FiftyOneOnPremiseAspectEngineBuilderBase&lt; TBuilder, TEngine &gt;</title>
<!-- Node4 -->
<g id="node1" class="node">
<title>Node4</title>
<g id="a_node1"><a xlink:title="A base class for engine builders for on&#45;premise engines that use a single data file and use the 51Deg...">
<polygon fill="#bfbfbf" stroke="black" points="0,-0.5 0,-52.5 194,-52.5 194,-0.5 0,-0.5"/>
<text text-anchor="start" x="8" y="-40.5" font-family="Helvetica,sans-Serif" font-size="10.00">FiftyOne.Pipeline.Engines.</text>
<text text-anchor="start" x="8" y="-29.5" font-family="Helvetica,sans-Serif" font-size="10.00">FiftyOne.FlowElements.FiftyOne</text>
<text text-anchor="start" x="8" y="-18.5" font-family="Helvetica,sans-Serif" font-size="10.00">OnPremiseAspectEngineBuilderBase</text>
<text text-anchor="middle" x="97" y="-7.5" font-family="Helvetica,sans-Serif" font-size="10.00">&lt; TBuilder, TEngine &gt;</text>
</a>
</g>
</g>
<!-- Node5 -->
<g id="node2" class="node">
<title>Node5</title>
<g id="a_node2"><a xlink:href="class_fifty_one_1_1_pipeline_1_1_engines_1_1_flow_elements_1_1_single_file_aspect_engine_builder_base.html" target="_top" xlink:title="Abstract base class that exposes the common options that all on&#45;premise engine builders using a singl...">
<polygon fill="none" stroke="black" points="15,-89.5 15,-119.5 179,-119.5 179,-89.5 15,-89.5"/>
<text text-anchor="start" x="23" y="-107.5" font-family="Helvetica,sans-Serif" font-size="10.00">SingleFileAspectEngineBuilder</text>
<text text-anchor="middle" x="97" y="-96.5" font-family="Helvetica,sans-Serif" font-size="10.00">Base&lt; TBuilder, TEngine &gt;</text>
</a>
</g>
</g>
<!-- Node5&#45;&gt;Node4 -->
<g id="edge1" class="edge">
<title>Node5&#45;&gt;Node4</title>
<path fill="none" stroke="midnightblue" d="M97,-79.14C97,-70.63 97,-61.07 97,-52.5"/>
<polygon fill="midnightblue" stroke="midnightblue" points="93.5,-79.2 97,-89.2 100.5,-79.21 93.5,-79.2"/>
</g>
<!-- Node6 -->
<g id="node3" class="node">
<title>Node6</title>
<g id="a_node3"><a xlink:href="class_fifty_one_1_1_pipeline_1_1_engines_1_1_flow_elements_1_1_on_premise_aspect_engine_builder_base.html" target="_top" xlink:title="Abstract base class that exposes the common options that all 51Degrees on&#45;premise engine builders sho...">
<polygon fill="none" stroke="black" points="12,-156.5 12,-186.5 182,-186.5 182,-156.5 12,-156.5"/>
<text text-anchor="start" x="20" y="-174.5" font-family="Helvetica,sans-Serif" font-size="10.00">OnPremiseAspectEngineBuilder</text>
<text text-anchor="middle" x="97" y="-163.5" font-family="Helvetica,sans-Serif" font-size="10.00">Base&lt; TBuilder, TEngine &gt;</text>
</a>
</g>
</g>
<!-- Node6&#45;&gt;Node5 -->
<g id="edge2" class="edge">
<title>Node6&#45;&gt;Node5</title>
<path fill="none" stroke="midnightblue" d="M97,-146.11C97,-137.15 97,-127.32 97,-119.58"/>
<polygon fill="midnightblue" stroke="midnightblue" points="93.5,-146.4 97,-156.4 100.5,-146.4 93.5,-146.4"/>
</g>
<!-- Node7 -->
<g id="node4" class="node">
<title>Node7</title>
<g id="a_node4"><a xlink:href="class_fifty_one_1_1_pipeline_1_1_engines_1_1_flow_elements_1_1_aspect_engine_builder_base.html" target="_top" xlink:title="Abstract base class that exposes the common options that all 51Degrees engine builders should make us...">
<polygon fill="none" stroke="black" points="26.5,-223.5 26.5,-253.5 167.5,-253.5 167.5,-223.5 26.5,-223.5"/>
<text text-anchor="start" x="34.5" y="-241.5" font-family="Helvetica,sans-Serif" font-size="10.00">AspectEngineBuilderBase</text>
<text text-anchor="middle" x="97" y="-230.5" font-family="Helvetica,sans-Serif" font-size="10.00">&lt; TBuilder, TEngine &gt;</text>
</a>
</g>
</g>
<!-- Node7&#45;&gt;Node6 -->
<g id="edge3" class="edge">
<title>Node7&#45;&gt;Node6</title>
<path fill="none" stroke="midnightblue" d="M97,-213.11C97,-204.15 97,-194.32 97,-186.58"/>
<polygon fill="midnightblue" stroke="midnightblue" points="93.5,-213.4 97,-223.4 100.5,-213.4 93.5,-213.4"/>
</g>
</g>
</svg>
