<?xml version="1.0" encoding="UTF-8" standalone="no"?>
<!DOCTYPE svg PUBLIC "-//W3C//DTD SVG 1.1//EN"
 "http://www.w3.org/Graphics/SVG/1.1/DTD/svg11.dtd">
<!-- Generated by graphviz version 2.43.0 (0)
 -->
<!-- Title: FiftyOne.Pipeline.Engines.FiftyOne.FlowElements.ShareUsageElement Pages: 1 -->
<svg width="235pt" height="410pt"
 viewBox="0.00 0.00 234.50 410.00" xmlns="http://www.w3.org/2000/svg" xmlns:xlink="http://www.w3.org/1999/xlink">
<g id="graph0" class="graph" transform="scale(1 1) rotate(0) translate(4 406)">
<title>FiftyOne.Pipeline.Engines.FiftyOne.FlowElements.ShareUsageElement</title>
<!-- Node0 -->
<g id="node1" class="node">
<title>Node0</title>
<g id="a_node1"><a xlink:title="Flow element that sends usage data to 51Degrees for analysis.">
<polygon fill="#bfbfbf" stroke="black" points="0,-0.5 0,-41.5 191,-41.5 191,-0.5 0,-0.5"/>
<text text-anchor="start" x="8" y="-29.5" font-family="Helvetica,sans-Serif" font-size="10.00">FiftyOne.Pipeline.Engines.</text>
<text text-anchor="start" x="8" y="-18.5" font-family="Helvetica,sans-Serif" font-size="10.00">FiftyOne.FlowElements.ShareUsage</text>
<text text-anchor="middle" x="95.5" y="-7.5" font-family="Helvetica,sans-Serif" font-size="10.00">Element</text>
</a>
</g>
</g>
<!-- Node1 -->
<g id="node2" class="node">
<title>Node1</title>
<g id="a_node2"><a xlink:href="class_fifty_one_1_1_pipeline_1_1_engines_1_1_fifty_one_1_1_flow_elements_1_1_share_usage_base.html" target="_top" xlink:title="Abstract base class for ShareUsage elements.">
<polygon fill="none" stroke="black" points="46,-79.5 46,-98.5 145,-98.5 145,-79.5 46,-79.5"/>
<text text-anchor="middle" x="95.5" y="-86.5" font-family="Helvetica,sans-Serif" font-size="10.00">ShareUsageBase</text>
</a>
</g>
</g>
<!-- Node1&#45;&gt;Node0 -->
<g id="edge1" class="edge">
<title>Node1&#45;&gt;Node0</title>
<path fill="none" stroke="midnightblue" d="M95.5,-69.25C95.5,-60.65 95.5,-50.45 95.5,-41.74"/>
<polygon fill="midnightblue" stroke="midnightblue" points="92,-69.37 95.5,-79.37 99,-69.37 92,-69.37"/>
</g>
<!-- Node2 -->
<g id="node3" class="node">
<title>Node2</title>
<g id="a_node3"><a xlink:href="class_fifty_one_1_1_pipeline_1_1_core_1_1_flow_elements_1_1_flow_element_base.html" target="_top" xlink:title=" ">
<polygon fill="none" stroke="black" points="0.5,-136.5 0.5,-166.5 190.5,-166.5 190.5,-136.5 0.5,-136.5"/>
<text text-anchor="start" x="8.5" y="-154.5" font-family="Helvetica,sans-Serif" font-size="10.00">FlowElementBase&lt; IElement</text>
<text text-anchor="middle" x="95.5" y="-143.5" font-family="Helvetica,sans-Serif" font-size="10.00">Data, IElementPropertyMetaData &gt;</text>
</a>
</g>
</g>
<!-- Node2&#45;&gt;Node1 -->
<g id="edge2" class="edge">
<title>Node2&#45;&gt;Node1</title>
<path fill="none" stroke="midnightblue" d="M95.5,-126.35C95.5,-116.51 95.5,-105.78 95.5,-98.54"/>
<polygon fill="midnightblue" stroke="midnightblue" points="92,-126.47 95.5,-136.47 99,-126.47 92,-126.47"/>
</g>
<!-- Node3 -->
<g id="node4" class="node">
<title>Node3</title>
<g id="a_node4"><a xlink:href="class_fifty_one_1_1_pipeline_1_1_core_1_1_flow_elements_1_1_flow_element_base.html" target="_top" xlink:title="Abstract base class for Flow Elements.">
<polygon fill="none" stroke="black" points="19,-225.5 19,-266.5 172,-266.5 172,-225.5 19,-225.5"/>
<text text-anchor="start" x="27" y="-254.5" font-family="Helvetica,sans-Serif" font-size="10.00">FiftyOne.Pipeline.Core.Flow</text>
<text text-anchor="start" x="27" y="-243.5" font-family="Helvetica,sans-Serif" font-size="10.00">Elements.FlowElementBase</text>
<text text-anchor="middle" x="95.5" y="-232.5" font-family="Helvetica,sans-Serif" font-size="10.00">&lt; T, TMeta &gt;</text>
</a>
</g>
</g>
<!-- Node3&#45;&gt;Node2 -->
<g id="edge3" class="edge">
<title>Node3&#45;&gt;Node2</title>
<path fill="none" stroke="orange" stroke-dasharray="5,2" d="M95.5,-215.24C95.5,-198.96 95.5,-179.54 95.5,-166.66"/>
<polygon fill="orange" stroke="orange" points="92,-215.38 95.5,-225.38 99,-215.38 92,-215.38"/>
<text text-anchor="start" x="95.5" y="-199" font-family="Helvetica,sans-Serif" font-size="10.00"> &lt; IElementData, IElement</text>
<text text-anchor="middle" x="161" y="-188" font-family="Helvetica,sans-Serif" font-size="10.00">PropertyMetaData &gt;</text>
</g>
<!-- Node4 -->
<g id="node5" class="node">
<title>Node4</title>
<g id="a_node5"><a xlink:href="interface_fifty_one_1_1_pipeline_1_1_core_1_1_flow_elements_1_1_i_flow_element.html" target="_top" xlink:title=" ">
<polygon fill="none" stroke="black" points="21,-304.5 21,-323.5 170,-323.5 170,-304.5 21,-304.5"/>
<text text-anchor="middle" x="95.5" y="-311.5" font-family="Helvetica,sans-Serif" font-size="10.00">IFlowElement&lt; T, TMeta &gt;</text>
</a>
</g>
</g>
<!-- Node4&#45;&gt;Node3 -->
<g id="edge4" class="edge">
<title>Node4&#45;&gt;Node3</title>
<path fill="none" stroke="midnightblue" d="M95.5,-294.25C95.5,-285.65 95.5,-275.45 95.5,-266.74"/>
<polygon fill="midnightblue" stroke="midnightblue" points="92,-294.37 95.5,-304.37 99,-294.37 92,-294.37"/>
</g>
<!-- Node5 -->
<g id="node6" class="node">
<title>Node5</title>
<g id="a_node6"><a xlink:href="interface_fifty_one_1_1_pipeline_1_1_core_1_1_flow_elements_1_1_i_flow_element.html" target="_top" xlink:title="IFlowElement is the basic building block of a pipeline.">
<polygon fill="none" stroke="black" points="20,-371.5 20,-401.5 171,-401.5 171,-371.5 20,-371.5"/>
<text text-anchor="start" x="28" y="-389.5" font-family="Helvetica,sans-Serif" font-size="10.00">FiftyOne.Pipeline.Core.Flow</text>
<text text-anchor="middle" x="95.5" y="-378.5" font-family="Helvetica,sans-Serif" font-size="10.00">Elements.IFlowElement</text>
</a>
</g>
</g>
<!-- Node5&#45;&gt;Node4 -->
<g id="edge5" class="edge">
<title>Node5&#45;&gt;Node4</title>
<path fill="none" stroke="orange" stroke-dasharray="5,2" d="M95.5,-361.09C95.5,-348.21 95.5,-333.2 95.5,-323.89"/>
<polygon fill="orange" stroke="orange" points="92,-361.23 95.5,-371.23 99,-361.23 92,-361.23"/>
<text text-anchor="middle" x="130" y="-345" font-family="Helvetica,sans-Serif" font-size="10.00"> &lt; T, TMeta &gt;</text>
</g>
</g>
</svg>
