<?xml version="1.0" encoding="UTF-8" standalone="no"?>
<!DOCTYPE svg PUBLIC "-//W3C//DTD SVG 1.1//EN"
 "http://www.w3.org/Graphics/SVG/1.1/DTD/svg11.dtd">
<!-- Generated by graphviz version 2.43.0 (0)
 -->
<!-- Title: FiftyOne.Pipeline.JavaScriptBuilder.FlowElement.JavaScriptBuilderElement Pages: 1 -->
<svg width="285pt" height="364pt"
 viewBox="0.00 0.00 285.00 364.00" xmlns="http://www.w3.org/2000/svg" xmlns:xlink="http://www.w3.org/1999/xlink">
<g id="graph0" class="graph" transform="scale(1 1) rotate(0) translate(4 360)">
<title>FiftyOne.Pipeline.JavaScriptBuilder.FlowElement.JavaScriptBuilderElement</title>
<!-- Node0 -->
<g id="node1" class="node">
<title>Node0</title>
<g id="a_node1"><a xlink:title="JavaScript Builder Element generates a JavaScript include to be run on the client device.">
<polygon fill="#bfbfbf" stroke="black" points="1.5,-0.5 1.5,-41.5 204.5,-41.5 204.5,-0.5 1.5,-0.5"/>
<text text-anchor="start" x="9.5" y="-29.5" font-family="Helvetica,sans-Serif" font-size="10.00">FiftyOne.Pipeline.JavaScript</text>
<text text-anchor="start" x="9.5" y="-18.5" font-family="Helvetica,sans-Serif" font-size="10.00">Builder.FlowElement.JavaScriptBuilder</text>
<text text-anchor="middle" x="103" y="-7.5" font-family="Helvetica,sans-Serif" font-size="10.00">Element</text>
</a>
</g>
</g>
<!-- Node1 -->
<g id="node2" class="node">
<title>Node1</title>
<g id="a_node2"><a xlink:href="class_fifty_one_1_1_pipeline_1_1_core_1_1_flow_elements_1_1_flow_element_base.html" target="_top" xlink:title=" ">
<polygon fill="none" stroke="black" points="0,-79.5 0,-120.5 206,-120.5 206,-79.5 0,-79.5"/>
<text text-anchor="start" x="8" y="-108.5" font-family="Helvetica,sans-Serif" font-size="10.00">FlowElementBase&lt; IJavaScript</text>
<text text-anchor="start" x="8" y="-97.5" font-family="Helvetica,sans-Serif" font-size="10.00">BuilderElementData, IElementProperty</text>
<text text-anchor="middle" x="103" y="-86.5" font-family="Helvetica,sans-Serif" font-size="10.00">MetaData &gt;</text>
</a>
</g>
</g>
<!-- Node1&#45;&gt;Node0 -->
<g id="edge1" class="edge">
<title>Node1&#45;&gt;Node0</title>
<path fill="none" stroke="midnightblue" d="M103,-68.91C103,-59.79 103,-50.02 103,-41.76"/>
<polygon fill="midnightblue" stroke="midnightblue" points="99.5,-69.17 103,-79.17 106.5,-69.17 99.5,-69.17"/>
</g>
<!-- Node2 -->
<g id="node3" class="node">
<title>Node2</title>
<g id="a_node3"><a xlink:href="class_fifty_one_1_1_pipeline_1_1_core_1_1_flow_elements_1_1_flow_element_base.html" target="_top" xlink:title="Abstract base class for Flow Elements.">
<polygon fill="none" stroke="black" points="26.5,-179.5 26.5,-220.5 179.5,-220.5 179.5,-179.5 26.5,-179.5"/>
<text text-anchor="start" x="34.5" y="-208.5" font-family="Helvetica,sans-Serif" font-size="10.00">FiftyOne.Pipeline.Core.Flow</text>
<text text-anchor="start" x="34.5" y="-197.5" font-family="Helvetica,sans-Serif" font-size="10.00">Elements.FlowElementBase</text>
<text text-anchor="middle" x="103" y="-186.5" font-family="Helvetica,sans-Serif" font-size="10.00">&lt; T, TMeta &gt;</text>
</a>
</g>
</g>
<!-- Node2&#45;&gt;Node1 -->
<g id="edge2" class="edge">
<title>Node2&#45;&gt;Node1</title>
<path fill="none" stroke="orange" stroke-dasharray="5,2" d="M103,-168.92C103,-153.29 103,-134.61 103,-120.8"/>
<polygon fill="orange" stroke="orange" points="99.5,-169.17 103,-179.17 106.5,-169.17 99.5,-169.17"/>
<text text-anchor="start" x="103" y="-153" font-family="Helvetica,sans-Serif" font-size="10.00"> &lt; IJavaScriptBuilderElement</text>
<text text-anchor="middle" x="190" y="-142" font-family="Helvetica,sans-Serif" font-size="10.00">Data, IElementPropertyMetaData &gt;</text>
</g>
<!-- Node3 -->
<g id="node4" class="node">
<title>Node3</title>
<g id="a_node4"><a xlink:href="interface_fifty_one_1_1_pipeline_1_1_core_1_1_flow_elements_1_1_i_flow_element.html" target="_top" xlink:title=" ">
<polygon fill="none" stroke="black" points="28.5,-258.5 28.5,-277.5 177.5,-277.5 177.5,-258.5 28.5,-258.5"/>
<text text-anchor="middle" x="103" y="-265.5" font-family="Helvetica,sans-Serif" font-size="10.00">IFlowElement&lt; T, TMeta &gt;</text>
</a>
</g>
</g>
<!-- Node3&#45;&gt;Node2 -->
<g id="edge3" class="edge">
<title>Node3&#45;&gt;Node2</title>
<path fill="none" stroke="midnightblue" d="M103,-248.25C103,-239.65 103,-229.45 103,-220.74"/>
<polygon fill="midnightblue" stroke="midnightblue" points="99.5,-248.37 103,-258.37 106.5,-248.37 99.5,-248.37"/>
</g>
<!-- Node4 -->
<g id="node5" class="node">
<title>Node4</title>
<g id="a_node5"><a xlink:href="interface_fifty_one_1_1_pipeline_1_1_core_1_1_flow_elements_1_1_i_flow_element.html" target="_top" xlink:title="IFlowElement is the basic building block of a pipeline.">
<polygon fill="none" stroke="black" points="27.5,-325.5 27.5,-355.5 178.5,-355.5 178.5,-325.5 27.5,-325.5"/>
<text text-anchor="start" x="35.5" y="-343.5" font-family="Helvetica,sans-Serif" font-size="10.00">FiftyOne.Pipeline.Core.Flow</text>
<text text-anchor="middle" x="103" y="-332.5" font-family="Helvetica,sans-Serif" font-size="10.00">Elements.IFlowElement</text>
</a>
</g>
</g>
<!-- Node4&#45;&gt;Node3 -->
<g id="edge4" class="edge">
<title>Node4&#45;&gt;Node3</title>
<path fill="none" stroke="orange" stroke-dasharray="5,2" d="M103,-315.09C103,-302.21 103,-287.2 103,-277.89"/>
<polygon fill="orange" stroke="orange" points="99.5,-315.23 103,-325.23 106.5,-315.23 99.5,-315.23"/>
<text text-anchor="middle" x="137.5" y="-299" font-family="Helvetica,sans-Serif" font-size="10.00"> &lt; T, TMeta &gt;</text>
</g>
</g>
</svg>
