<?xml version="1.0" encoding="UTF-8" standalone="no"?>
<!DOCTYPE svg PUBLIC "-//W3C//DTD SVG 1.1//EN"
 "http://www.w3.org/Graphics/SVG/1.1/DTD/svg11.dtd">
<!-- Generated by graphviz version 2.43.0 (0)
 -->
<!-- Title: FiftyOne.Pipeline.Core.Data.DataBase Pages: 1 -->
<svg width="888pt" height="372pt"
 viewBox="0.00 0.00 888.00 372.00" xmlns="http://www.w3.org/2000/svg" xmlns:xlink="http://www.w3.org/1999/xlink">
<g id="graph0" class="graph" transform="scale(1 1) rotate(0) translate(4 368)">
<title>FiftyOne.Pipeline.Core.Data.DataBase</title>
<!-- Node0 -->
<g id="node1" class="node">
<title>Node0</title>
<g id="a_node1"><a xlink:title="This class stores data values as key/value pairs where the key is a string and the value can be any t...">
<polygon fill="#bfbfbf" stroke="black" points="79,-136.5 79,-166.5 233,-166.5 233,-136.5 79,-136.5"/>
<text text-anchor="start" x="87" y="-154.5" font-family="Helvetica,sans-Serif" font-size="10.00">FiftyOne.Pipeline.Core.Data.</text>
<text text-anchor="middle" x="156" y="-143.5" font-family="Helvetica,sans-Serif" font-size="10.00">DataBase</text>
</a>
</g>
</g>
<!-- Node2 -->
<g id="node3" class="node">
<title>Node2</title>
<g id="a_node3"><a xlink:href="class_fifty_one_1_1_pipeline_1_1_core_1_1_data_1_1_element_data_base.html" target="_top" xlink:title="This class stores property values that have been determined by a specific FlowElement based on the su...">
<polygon fill="none" stroke="black" points="269,-161.5 269,-191.5 423,-191.5 423,-161.5 269,-161.5"/>
<text text-anchor="start" x="277" y="-179.5" font-family="Helvetica,sans-Serif" font-size="10.00">FiftyOne.Pipeline.Core.Data.</text>
<text text-anchor="middle" x="346" y="-168.5" font-family="Helvetica,sans-Serif" font-size="10.00">ElementDataBase</text>
</a>
</g>
</g>
<!-- Node0&#45;&gt;Node2 -->
<g id="edge2" class="edge">
<title>Node0&#45;&gt;Node2</title>
<path fill="none" stroke="midnightblue" d="M243.15,-162.96C251.67,-164.09 260.28,-165.23 268.7,-166.35"/>
<polygon fill="midnightblue" stroke="midnightblue" points="243.57,-159.48 233.2,-161.63 242.65,-166.42 243.57,-159.48"/>
</g>
<!-- Node13 -->
<g id="node14" class="node">
<title>Node13</title>
<g id="a_node14"><a xlink:href="class_fifty_one_1_1_pipeline_1_1_core_1_1_data_1_1_evidence.html" target="_top" xlink:title="This class contains the evidence that is passed in to a Pipeline as part of a FlowData object See the...">
<polygon fill="none" stroke="black" points="269,-112.5 269,-142.5 423,-142.5 423,-112.5 269,-112.5"/>
<text text-anchor="start" x="277" y="-130.5" font-family="Helvetica,sans-Serif" font-size="10.00">FiftyOne.Pipeline.Core.Data.</text>
<text text-anchor="middle" x="346" y="-119.5" font-family="Helvetica,sans-Serif" font-size="10.00">Evidence</text>
</a>
</g>
</g>
<!-- Node0&#45;&gt;Node13 -->
<g id="edge13" class="edge">
<title>Node0&#45;&gt;Node13</title>
<path fill="none" stroke="midnightblue" d="M243.15,-140.5C251.67,-139.41 260.28,-138.32 268.7,-137.24"/>
<polygon fill="midnightblue" stroke="midnightblue" points="242.67,-137.03 233.2,-141.77 243.56,-143.98 242.67,-137.03"/>
</g>
<!-- Node1 -->
<g id="node2" class="node">
<title>Node1</title>
<g id="a_node2"><a xlink:href="interface_fifty_one_1_1_pipeline_1_1_core_1_1_data_1_1_i_data.html" target="_top" xlink:title="Represents property values">
<polygon fill="none" stroke="black" points="0,-142 0,-161 43,-161 43,-142 0,-142"/>
<text text-anchor="middle" x="21.5" y="-149" font-family="Helvetica,sans-Serif" font-size="10.00">IData</text>
</a>
</g>
</g>
<!-- Node1&#45;&gt;Node0 -->
<g id="edge1" class="edge">
<title>Node1&#45;&gt;Node0</title>
<path fill="none" stroke="midnightblue" d="M53.27,-151.5C61.13,-151.5 69.93,-151.5 78.98,-151.5"/>
<polygon fill="midnightblue" stroke="midnightblue" points="53.2,-148 43.2,-151.5 53.2,-155 53.2,-148"/>
</g>
<!-- Node3 -->
<g id="node4" class="node">
<title>Node3</title>
<g id="a_node4"><a xlink:href="class_examples_1_1_custom_flow_element_1_1_data_1_1_star_sign_data.html" target="_top" xlink:title="[class]">
<polygon fill="none" stroke="black" points="486.5,-333.5 486.5,-363.5 658.5,-363.5 658.5,-333.5 486.5,-333.5"/>
<text text-anchor="start" x="494.5" y="-351.5" font-family="Helvetica,sans-Serif" font-size="10.00">Examples.CustomFlowElement.</text>
<text text-anchor="middle" x="572.5" y="-340.5" font-family="Helvetica,sans-Serif" font-size="10.00">Data.StarSignData</text>
</a>
</g>
</g>
<!-- Node2&#45;&gt;Node3 -->
<g id="edge3" class="edge">
<title>Node2&#45;&gt;Node3</title>
<path fill="none" stroke="midnightblue" d="M358.53,-201.07C375.57,-234.53 410.75,-293.8 459,-324.5 467.34,-329.81 476.66,-333.96 486.27,-337.2"/>
<polygon fill="midnightblue" stroke="midnightblue" points="361.59,-199.37 354.02,-191.96 355.32,-202.47 361.59,-199.37"/>
</g>
<!-- Node4 -->
<g id="node5" class="node">
<title>Node4</title>
<g id="a_node5"><a xlink:href="class_fifty_one_1_1_pipeline_1_1_engines_1_1_data_1_1_aspect_data_base.html" target="_top" xlink:title="Base class for element data instances that are generated by an IAspectEngine.">
<polygon fill="none" stroke="black" points="501,-284.5 501,-314.5 644,-314.5 644,-284.5 501,-284.5"/>
<text text-anchor="start" x="509" y="-302.5" font-family="Helvetica,sans-Serif" font-size="10.00">FiftyOne.Pipeline.Engines.</text>
<text text-anchor="middle" x="572.5" y="-291.5" font-family="Helvetica,sans-Serif" font-size="10.00">Data.AspectDataBase</text>
</a>
</g>
</g>
<!-- Node2&#45;&gt;Node4 -->
<g id="edge4" class="edge">
<title>Node2&#45;&gt;Node4</title>
<path fill="none" stroke="midnightblue" d="M366.06,-199.12C386.62,-221.99 421.48,-256.58 459,-275.5 471.93,-282.02 486.56,-286.77 500.89,-290.23"/>
<polygon fill="midnightblue" stroke="midnightblue" points="368.64,-196.76 359.41,-191.57 363.39,-201.38 368.64,-196.76"/>
</g>
<!-- Node7 -->
<g id="node8" class="node">
<title>Node7</title>
<g id="a_node8"><a xlink:href="class_fifty_one_1_1_pipeline_1_1_engines_1_1_fifty_one_1_1_data_1_1_set_headers_data.html" target="_top" xlink:title="Element data instance for SetHeadersElement See the Specification">
<polygon fill="none" stroke="black" points="489.5,-235.5 489.5,-265.5 655.5,-265.5 655.5,-235.5 489.5,-235.5"/>
<text text-anchor="start" x="497.5" y="-253.5" font-family="Helvetica,sans-Serif" font-size="10.00">FiftyOne.Pipeline.Engines.</text>
<text text-anchor="middle" x="572.5" y="-242.5" font-family="Helvetica,sans-Serif" font-size="10.00">FiftyOne.Data.SetHeadersData</text>
</a>
</g>
</g>
<!-- Node2&#45;&gt;Node7 -->
<g id="edge7" class="edge">
<title>Node2&#45;&gt;Node7</title>
<path fill="none" stroke="midnightblue" d="M385.31,-196.01C406.59,-206.22 433.78,-218.28 459,-226.5 469.25,-229.84 480.19,-232.84 491.06,-235.49"/>
<polygon fill="midnightblue" stroke="midnightblue" points="386.8,-192.84 376.28,-191.61 383.74,-199.13 386.8,-192.84"/>
</g>
<!-- Node8 -->
<g id="node9" class="node">
<title>Node8</title>
<g id="a_node9"><a xlink:href="class_fifty_one_1_1_pipeline_1_1_ip_splitter_1_1_split_ip_data.html" target="_top" xlink:title=" ">
<polygon fill="none" stroke="black" points="498,-186.5 498,-216.5 647,-216.5 647,-186.5 498,-186.5"/>
<text text-anchor="start" x="506" y="-204.5" font-family="Helvetica,sans-Serif" font-size="10.00">FiftyOne.Pipeline.IpSplitter.</text>
<text text-anchor="middle" x="572.5" y="-193.5" font-family="Helvetica,sans-Serif" font-size="10.00">SplitIpData</text>
</a>
</g>
</g>
<!-- Node2&#45;&gt;Node8 -->
<g id="edge8" class="edge">
<title>Node2&#45;&gt;Node8</title>
<path fill="none" stroke="midnightblue" d="M433.05,-186.08C454.42,-188.46 477.14,-190.99 497.85,-193.3"/>
<polygon fill="midnightblue" stroke="midnightblue" points="433.33,-182.59 423.01,-184.96 432.56,-189.55 433.33,-182.59"/>
</g>
<!-- Node9 -->
<g id="node10" class="node">
<title>Node9</title>
<g id="a_node10"><a xlink:href="class_fifty_one_1_1_pipeline_1_1_java_script_builder_1_1_data_1_1_java_script_builder_element_data.html" target="_top" xlink:title="The IElementData class for JavaScriptBuilderElement.">
<polygon fill="none" stroke="black" points="459,-137.5 459,-167.5 686,-167.5 686,-137.5 459,-137.5"/>
<text text-anchor="start" x="467" y="-155.5" font-family="Helvetica,sans-Serif" font-size="10.00">FiftyOne.Pipeline.JavaScript</text>
<text text-anchor="middle" x="572.5" y="-144.5" font-family="Helvetica,sans-Serif" font-size="10.00">Builder.Data.JavaScriptBuilderElementData</text>
</a>
</g>
</g>
<!-- Node2&#45;&gt;Node9 -->
<g id="edge9" class="edge">
<title>Node2&#45;&gt;Node9</title>
<path fill="none" stroke="midnightblue" d="M433.17,-167.29C441.61,-166.39 450.25,-165.46 458.89,-164.54"/>
<polygon fill="midnightblue" stroke="midnightblue" points="432.58,-163.83 423.01,-168.37 433.32,-170.79 432.58,-163.83"/>
</g>
<!-- Node10 -->
<g id="node11" class="node">
<title>Node10</title>
<g id="a_node11"><a xlink:href="class_fifty_one_1_1_pipeline_1_1_json_builder_1_1_data_1_1_json_builder_element_data.html" target="_top" xlink:title="JsonBuilderElement data class.">
<polygon fill="none" stroke="black" points="492,-88.5 492,-118.5 653,-118.5 653,-88.5 492,-88.5"/>
<text text-anchor="start" x="500" y="-106.5" font-family="Helvetica,sans-Serif" font-size="10.00">FiftyOne.Pipeline.JsonBuilder.</text>
<text text-anchor="middle" x="572.5" y="-95.5" font-family="Helvetica,sans-Serif" font-size="10.00">Data.JsonBuilderElementData</text>
</a>
</g>
</g>
<!-- Node2&#45;&gt;Node10 -->
<g id="edge10" class="edge">
<title>Node2&#45;&gt;Node10</title>
<path fill="none" stroke="midnightblue" d="M408.73,-157.78C413.62,-155.82 418.43,-153.72 423,-151.5 440.29,-143.09 441.28,-134.97 459,-127.5 469.4,-123.12 480.68,-119.5 491.96,-116.52"/>
<polygon fill="midnightblue" stroke="midnightblue" points="407.35,-154.56 399.25,-161.39 409.85,-161.1 407.35,-154.56"/>
</g>
<!-- Node11 -->
<g id="node12" class="node">
<title>Node11</title>
<g id="a_node12"><a xlink:href="class_fifty_one_1_1_pipeline_1_1_math_1_1_math_data.html" target="_top" xlink:title=" ">
<polygon fill="none" stroke="black" points="483.5,-50 483.5,-69 661.5,-69 661.5,-50 483.5,-50"/>
<text text-anchor="middle" x="572.5" y="-57" font-family="Helvetica,sans-Serif" font-size="10.00">FiftyOne.Pipeline.Math.MathData</text>
</a>
</g>
</g>
<!-- Node2&#45;&gt;Node11 -->
<g id="edge11" class="edge">
<title>Node2&#45;&gt;Node11</title>
<path fill="none" stroke="midnightblue" d="M416.9,-156.19C419.03,-154.74 421.07,-153.17 423,-151.5 450.31,-127.78 429.98,-100.1 459,-78.5 466.31,-73.06 474.62,-68.96 483.35,-65.9"/>
<polygon fill="midnightblue" stroke="midnightblue" points="415.1,-153.19 408.3,-161.32 418.68,-159.21 415.1,-153.19"/>
</g>
<!-- Node12 -->
<g id="node13" class="node">
<title>Node12</title>
<g id="a_node13"><a xlink:href="class_simple_client_side_element_1_1_data_1_1_star_sign_data.html" target="_top" xlink:title="[class]">
<polygon fill="none" stroke="black" points="501,-0.5 501,-30.5 644,-30.5 644,-0.5 501,-0.5"/>
<text text-anchor="start" x="509" y="-18.5" font-family="Helvetica,sans-Serif" font-size="10.00">SimpleClientSideElement.</text>
<text text-anchor="middle" x="572.5" y="-7.5" font-family="Helvetica,sans-Serif" font-size="10.00">Data.StarSignData</text>
</a>
</g>
</g>
<!-- Node2&#45;&gt;Node12 -->
<g id="edge12" class="edge">
<title>Node2&#45;&gt;Node12</title>
<path fill="none" stroke="midnightblue" d="M418.46,-155.57C420.05,-154.3 421.57,-152.94 423,-151.5 459.6,-114.75 420.63,-75.39 459,-40.5 470.55,-30 485.5,-23.58 500.71,-19.72"/>
<polygon fill="midnightblue" stroke="midnightblue" points="416.3,-152.81 410.01,-161.34 420.24,-158.6 416.3,-152.81"/>
</g>
<!-- Node5 -->
<g id="node6" class="node">
<title>Node5</title>
<g id="a_node6"><a xlink:href="class_examples_1_1_cloud_engine_1_1_data_1_1_star_sign_data.html" target="_top" xlink:title="[class]">
<polygon fill="none" stroke="black" points="722,-308.5 722,-338.5 880,-338.5 880,-308.5 722,-308.5"/>
<text text-anchor="start" x="730" y="-326.5" font-family="Helvetica,sans-Serif" font-size="10.00">Examples.CloudEngine.Data.</text>
<text text-anchor="middle" x="801" y="-315.5" font-family="Helvetica,sans-Serif" font-size="10.00">StarSignData</text>
</a>
</g>
</g>
<!-- Node4&#45;&gt;Node5 -->
<g id="edge5" class="edge">
<title>Node4&#45;&gt;Node5</title>
<path fill="none" stroke="midnightblue" d="M654.21,-308.05C676.24,-310.39 700.06,-312.91 721.93,-315.23"/>
<polygon fill="midnightblue" stroke="midnightblue" points="654.55,-304.57 644.23,-307 653.81,-311.53 654.55,-304.57"/>
</g>
<!-- Node6 -->
<g id="node7" class="node">
<title>Node6</title>
<g id="a_node7"><a xlink:href="class_examples_1_1_on_premise_engine_1_1_data_1_1_star_sign_data.html" target="_top" xlink:title="[class]">
<polygon fill="none" stroke="black" points="722.5,-259.5 722.5,-289.5 879.5,-289.5 879.5,-259.5 722.5,-259.5"/>
<text text-anchor="start" x="730.5" y="-277.5" font-family="Helvetica,sans-Serif" font-size="10.00">Examples.OnPremiseEngine.</text>
<text text-anchor="middle" x="801" y="-266.5" font-family="Helvetica,sans-Serif" font-size="10.00">Data.StarSignData</text>
</a>
</g>
</g>
<!-- Node4&#45;&gt;Node6 -->
<g id="edge6" class="edge">
<title>Node4&#45;&gt;Node6</title>
<path fill="none" stroke="midnightblue" d="M654.27,-290.59C676.41,-288.14 700.36,-285.5 722.33,-283.07"/>
<polygon fill="midnightblue" stroke="midnightblue" points="653.79,-287.12 644.23,-291.69 654.56,-294.07 653.79,-287.12"/>
</g>
</g>
</svg>
