<?xml version="1.0" encoding="UTF-8" standalone="no"?>
<!DOCTYPE svg PUBLIC "-//W3C//DTD SVG 1.1//EN"
 "http://www.w3.org/Graphics/SVG/1.1/DTD/svg11.dtd">
<!-- Generated by graphviz version 2.43.0 (0)
 -->
<!-- Title: FiftyOne.Pipeline.Engines.Configuration.IDataFileConfiguration Pages: 1 -->
<svg width="202pt" height="184pt"
 viewBox="0.00 0.00 202.00 184.00" xmlns="http://www.w3.org/2000/svg" xmlns:xlink="http://www.w3.org/1999/xlink">
<g id="graph0" class="graph" transform="scale(1 1) rotate(0) translate(4 180)">
<title>FiftyOne.Pipeline.Engines.Configuration.IDataFileConfiguration</title>
<!-- Node0 -->
<g id="node1" class="node">
<title>Node0</title>
<g id="a_node1"><a xlink:title="Interface representing the configuration parameters controlling the automatic update checks for a spe...">
<polygon fill="#bfbfbf" stroke="black" points="0,-145.5 0,-175.5 194,-175.5 194,-145.5 0,-145.5"/>
<text text-anchor="start" x="8" y="-163.5" font-family="Helvetica,sans-Serif" font-size="10.00">FiftyOne.Pipeline.Engines.</text>
<text text-anchor="middle" x="97" y="-152.5" font-family="Helvetica,sans-Serif" font-size="10.00">Configuration.IDataFileConfiguration</text>
</a>
</g>
</g>
<!-- Node1 -->
<g id="node2" class="node">
<title>Node1</title>
<g id="a_node2"><a xlink:href="class_fifty_one_1_1_pipeline_1_1_engines_1_1_configuration_1_1_data_file_configuration.html" target="_top" xlink:title="This class contains the automatic update configuration parameters that can be supplied to an engine f...">
<polygon fill="none" stroke="black" points="1.5,-78.5 1.5,-108.5 192.5,-108.5 192.5,-78.5 1.5,-78.5"/>
<text text-anchor="start" x="9.5" y="-96.5" font-family="Helvetica,sans-Serif" font-size="10.00">FiftyOne.Pipeline.Engines.</text>
<text text-anchor="middle" x="97" y="-85.5" font-family="Helvetica,sans-Serif" font-size="10.00">Configuration.DataFileConfiguration</text>
</a>
</g>
</g>
<!-- Node0&#45;&gt;Node1 -->
<g id="edge1" class="edge">
<title>Node0&#45;&gt;Node1</title>
<path fill="none" stroke="midnightblue" d="M97,-135.11C97,-126.15 97,-116.32 97,-108.58"/>
<polygon fill="midnightblue" stroke="midnightblue" points="93.5,-135.4 97,-145.4 100.5,-135.4 93.5,-135.4"/>
</g>
<!-- Node2 -->
<g id="node3" class="node">
<title>Node2</title>
<g id="a_node3"><a xlink:href="class_fifty_one_1_1_pipeline_1_1_engines_1_1_fifty_one_1_1_configuration_1_1_fifty_one_data_file_configuration.html" target="_top" xlink:title="Data file configuration class for 51Degrees data files.">
<polygon fill="none" stroke="black" points="12.5,-0.5 12.5,-41.5 181.5,-41.5 181.5,-0.5 12.5,-0.5"/>
<text text-anchor="start" x="20.5" y="-29.5" font-family="Helvetica,sans-Serif" font-size="10.00">FiftyOne.Pipeline.Engines.</text>
<text text-anchor="start" x="20.5" y="-18.5" font-family="Helvetica,sans-Serif" font-size="10.00">FiftyOne.Configuration.FiftyOne</text>
<text text-anchor="middle" x="97" y="-7.5" font-family="Helvetica,sans-Serif" font-size="10.00">DataFileConfiguration</text>
</a>
</g>
</g>
<!-- Node1&#45;&gt;Node2 -->
<g id="edge2" class="edge">
<title>Node1&#45;&gt;Node2</title>
<path fill="none" stroke="midnightblue" d="M97,-67.98C97,-59.35 97,-49.76 97,-41.59"/>
<polygon fill="midnightblue" stroke="midnightblue" points="93.5,-68.23 97,-78.23 100.5,-68.23 93.5,-68.23"/>
</g>
</g>
</svg>
