<?xml version="1.0" encoding="UTF-8" standalone="no"?>
<!DOCTYPE svg PUBLIC "-//W3C//DTD SVG 1.1//EN"
 "http://www.w3.org/Graphics/SVG/1.1/DTD/svg11.dtd">
<!-- Generated by graphviz version 2.43.0 (0)
 -->
<!-- Title: FiftyOne.Pipeline.JsonBuilder.Data.IJsonBuilderElementData Pages: 1 -->
<svg width="172pt" height="218pt"
 viewBox="0.00 0.00 172.00 218.00" xmlns="http://www.w3.org/2000/svg" xmlns:xlink="http://www.w3.org/1999/xlink">
<g id="graph0" class="graph" transform="scale(1 1) rotate(0) translate(4 214)">
<title>FiftyOne.Pipeline.JsonBuilder.Data.IJsonBuilderElementData</title>
<!-- Node0 -->
<g id="node1" class="node">
<title>Node0</title>
<g id="a_node1"><a xlink:title="The IElementData interface for JsonBuilderElement.">
<polygon fill="#bfbfbf" stroke="black" points="0,-67.5 0,-97.5 164,-97.5 164,-67.5 0,-67.5"/>
<text text-anchor="start" x="8" y="-85.5" font-family="Helvetica,sans-Serif" font-size="10.00">FiftyOne.Pipeline.JsonBuilder.</text>
<text text-anchor="middle" x="82" y="-74.5" font-family="Helvetica,sans-Serif" font-size="10.00">Data.IJsonBuilderElementData</text>
</a>
</g>
</g>
<!-- Node3 -->
<g id="node4" class="node">
<title>Node3</title>
<g id="a_node4"><a xlink:href="class_fifty_one_1_1_pipeline_1_1_json_builder_1_1_data_1_1_json_builder_element_data.html" target="_top" xlink:title="JsonBuilderElement data class.">
<polygon fill="none" stroke="black" points="1.5,-0.5 1.5,-30.5 162.5,-30.5 162.5,-0.5 1.5,-0.5"/>
<text text-anchor="start" x="9.5" y="-18.5" font-family="Helvetica,sans-Serif" font-size="10.00">FiftyOne.Pipeline.JsonBuilder.</text>
<text text-anchor="middle" x="82" y="-7.5" font-family="Helvetica,sans-Serif" font-size="10.00">Data.JsonBuilderElementData</text>
</a>
</g>
</g>
<!-- Node0&#45;&gt;Node3 -->
<g id="edge3" class="edge">
<title>Node0&#45;&gt;Node3</title>
<path fill="none" stroke="midnightblue" d="M82,-57.11C82,-48.15 82,-38.32 82,-30.58"/>
<polygon fill="midnightblue" stroke="midnightblue" points="78.5,-57.4 82,-67.4 85.5,-57.4 78.5,-57.4"/>
</g>
<!-- Node1 -->
<g id="node2" class="node">
<title>Node1</title>
<g id="a_node2"><a xlink:href="interface_fifty_one_1_1_pipeline_1_1_core_1_1_data_1_1_i_element_data.html" target="_top" xlink:title="Represents property values that have been determined by a specific FlowElement based on the supplied ...">
<polygon fill="none" stroke="black" points="40.5,-134.5 40.5,-153.5 123.5,-153.5 123.5,-134.5 40.5,-134.5"/>
<text text-anchor="middle" x="82" y="-141.5" font-family="Helvetica,sans-Serif" font-size="10.00">IElementData</text>
</a>
</g>
</g>
<!-- Node1&#45;&gt;Node0 -->
<g id="edge1" class="edge">
<title>Node1&#45;&gt;Node0</title>
<path fill="none" stroke="midnightblue" d="M82,-124.23C82,-115.59 82,-105.5 82,-97.52"/>
<polygon fill="midnightblue" stroke="midnightblue" points="78.5,-124.48 82,-134.48 85.5,-124.48 78.5,-124.48"/>
</g>
<!-- Node2 -->
<g id="node3" class="node">
<title>Node2</title>
<g id="a_node3"><a xlink:href="interface_fifty_one_1_1_pipeline_1_1_core_1_1_data_1_1_i_data.html" target="_top" xlink:title="Represents property values">
<polygon fill="none" stroke="black" points="60.5,-190.5 60.5,-209.5 103.5,-209.5 103.5,-190.5 60.5,-190.5"/>
<text text-anchor="middle" x="82" y="-197.5" font-family="Helvetica,sans-Serif" font-size="10.00">IData</text>
</a>
</g>
</g>
<!-- Node2&#45;&gt;Node1 -->
<g id="edge2" class="edge">
<title>Node2&#45;&gt;Node1</title>
<path fill="none" stroke="midnightblue" d="M82,-179.8C82,-170.91 82,-160.78 82,-153.75"/>
<polygon fill="midnightblue" stroke="midnightblue" points="78.5,-180.08 82,-190.08 85.5,-180.08 78.5,-180.08"/>
</g>
</g>
</svg>
