<?xml version="1.0" encoding="UTF-8" standalone="no"?>
<!DOCTYPE svg PUBLIC "-//W3C//DTD SVG 1.1//EN"
 "http://www.w3.org/Graphics/SVG/1.1/DTD/svg11.dtd">
<!-- Generated by graphviz version 2.43.0 (0)
 -->
<!-- Title: FiftyOne.Pipeline.Engines.Data.IAspectData Pages: 1 -->
<svg width="737pt" height="186pt"
 viewBox="0.00 0.00 737.00 186.00" xmlns="http://www.w3.org/2000/svg" xmlns:xlink="http://www.w3.org/1999/xlink">
<g id="graph0" class="graph" transform="scale(1 1) rotate(0) translate(4 182)">
<title>FiftyOne.Pipeline.Engines.Data.IAspectData</title>
<!-- Node0 -->
<g id="node1" class="node">
<title>Node0</title>
<g id="a_node1"><a xlink:title="Represents an ElementData instance that is generated by an IAspectEngine.">
<polygon fill="#bfbfbf" stroke="black" points="198,-73.5 198,-103.5 341,-103.5 341,-73.5 198,-73.5"/>
<text text-anchor="start" x="206" y="-91.5" font-family="Helvetica,sans-Serif" font-size="10.00">FiftyOne.Pipeline.Engines.</text>
<text text-anchor="middle" x="269.5" y="-80.5" font-family="Helvetica,sans-Serif" font-size="10.00">Data.IAspectData</text>
</a>
</g>
</g>
<!-- Node3 -->
<g id="node4" class="node">
<title>Node3</title>
<g id="a_node4"><a xlink:href="interface_examples_1_1_cloud_engine_1_1_data_1_1_i_star_sign_data.html" target="_top" xlink:title="[class]">
<polygon fill="none" stroke="black" points="377,-147.5 377,-177.5 535,-177.5 535,-147.5 377,-147.5"/>
<text text-anchor="start" x="385" y="-165.5" font-family="Helvetica,sans-Serif" font-size="10.00">Examples.CloudEngine.Data.</text>
<text text-anchor="middle" x="456" y="-154.5" font-family="Helvetica,sans-Serif" font-size="10.00">IStarSignData</text>
</a>
</g>
</g>
<!-- Node0&#45;&gt;Node3 -->
<g id="edge3" class="edge">
<title>Node0&#45;&gt;Node3</title>
<path fill="none" stroke="midnightblue" d="M309.89,-108.01C329.77,-117.5 354.4,-128.72 377,-137.5 385.88,-140.95 395.46,-144.31 404.75,-147.38"/>
<polygon fill="midnightblue" stroke="midnightblue" points="311.36,-104.83 300.84,-103.65 308.33,-111.14 311.36,-104.83"/>
</g>
<!-- Node5 -->
<g id="node6" class="node">
<title>Node5</title>
<g id="a_node6"><a xlink:href="interface_examples_1_1_on_premise_engine_1_1_data_1_1_i_star_sign_data.html" target="_top" xlink:title="[class]">
<polygon fill="none" stroke="black" points="377.5,-49.5 377.5,-79.5 534.5,-79.5 534.5,-49.5 377.5,-49.5"/>
<text text-anchor="start" x="385.5" y="-67.5" font-family="Helvetica,sans-Serif" font-size="10.00">Examples.OnPremiseEngine.</text>
<text text-anchor="middle" x="456" y="-56.5" font-family="Helvetica,sans-Serif" font-size="10.00">Data.IStarSignData</text>
</a>
</g>
</g>
<!-- Node0&#45;&gt;Node5 -->
<g id="edge5" class="edge">
<title>Node0&#45;&gt;Node5</title>
<path fill="none" stroke="midnightblue" d="M351.19,-78C359.9,-76.87 368.75,-75.72 377.43,-74.59"/>
<polygon fill="midnightblue" stroke="midnightblue" points="350.51,-74.56 341.04,-79.32 351.41,-81.5 350.51,-74.56"/>
</g>
<!-- Node7 -->
<g id="node8" class="node">
<title>Node7</title>
<g id="a_node8"><a xlink:href="class_fifty_one_1_1_pipeline_1_1_engines_1_1_data_1_1_aspect_data_base.html" target="_top" xlink:title="Base class for element data instances that are generated by an IAspectEngine.">
<polygon fill="none" stroke="black" points="384.5,-98.5 384.5,-128.5 527.5,-128.5 527.5,-98.5 384.5,-98.5"/>
<text text-anchor="start" x="392.5" y="-116.5" font-family="Helvetica,sans-Serif" font-size="10.00">FiftyOne.Pipeline.Engines.</text>
<text text-anchor="middle" x="456" y="-105.5" font-family="Helvetica,sans-Serif" font-size="10.00">Data.AspectDataBase</text>
</a>
</g>
</g>
<!-- Node0&#45;&gt;Node7 -->
<g id="edge7" class="edge">
<title>Node0&#45;&gt;Node7</title>
<path fill="none" stroke="midnightblue" d="M351.16,-99.43C362.26,-100.93 373.59,-102.47 384.5,-103.95"/>
<polygon fill="midnightblue" stroke="midnightblue" points="351.42,-95.93 341.04,-98.06 350.48,-102.87 351.42,-95.93"/>
</g>
<!-- Node8 -->
<g id="node9" class="node">
<title>Node8</title>
<g id="a_node9"><a xlink:href="interface_fifty_one_1_1_pipeline_1_1_engines_1_1_data_1_1_i_multi_profile_data.html" target="_top" xlink:title="Represents a specific type of IAspectData that contains multiple IAspectData instances.">
<polygon fill="none" stroke="black" points="379.5,-0.5 379.5,-30.5 532.5,-30.5 532.5,-0.5 379.5,-0.5"/>
<text text-anchor="start" x="387.5" y="-18.5" font-family="Helvetica,sans-Serif" font-size="10.00">FiftyOne.Pipeline.Engines.</text>
<text text-anchor="middle" x="456" y="-7.5" font-family="Helvetica,sans-Serif" font-size="10.00">Data.IMultiProfileData&lt; T &gt;</text>
</a>
</g>
</g>
<!-- Node0&#45;&gt;Node8 -->
<g id="edge10" class="edge">
<title>Node0&#45;&gt;Node8</title>
<path fill="none" stroke="midnightblue" d="M309.42,-69.08C329.36,-59.53 354.19,-48.21 377,-39.5 385.21,-36.37 394.01,-33.34 402.65,-30.56"/>
<polygon fill="midnightblue" stroke="midnightblue" points="307.82,-65.97 300.34,-73.48 310.87,-72.27 307.82,-65.97"/>
</g>
<!-- Node1 -->
<g id="node2" class="node">
<title>Node1</title>
<g id="a_node2"><a xlink:href="interface_fifty_one_1_1_pipeline_1_1_core_1_1_data_1_1_i_element_data.html" target="_top" xlink:title="Represents property values that have been determined by a specific FlowElement based on the supplied ...">
<polygon fill="none" stroke="black" points="79,-79 79,-98 162,-98 162,-79 79,-79"/>
<text text-anchor="middle" x="120.5" y="-86" font-family="Helvetica,sans-Serif" font-size="10.00">IElementData</text>
</a>
</g>
</g>
<!-- Node1&#45;&gt;Node0 -->
<g id="edge1" class="edge">
<title>Node1&#45;&gt;Node0</title>
<path fill="none" stroke="midnightblue" d="M172.27,-88.5C180.55,-88.5 189.24,-88.5 197.89,-88.5"/>
<polygon fill="midnightblue" stroke="midnightblue" points="172.06,-85 162.06,-88.5 172.06,-92 172.06,-85"/>
</g>
<!-- Node2 -->
<g id="node3" class="node">
<title>Node2</title>
<g id="a_node3"><a xlink:href="interface_fifty_one_1_1_pipeline_1_1_core_1_1_data_1_1_i_data.html" target="_top" xlink:title="Represents property values">
<polygon fill="none" stroke="black" points="0,-79 0,-98 43,-98 43,-79 0,-79"/>
<text text-anchor="middle" x="21.5" y="-86" font-family="Helvetica,sans-Serif" font-size="10.00">IData</text>
</a>
</g>
</g>
<!-- Node2&#45;&gt;Node1 -->
<g id="edge2" class="edge">
<title>Node2&#45;&gt;Node1</title>
<path fill="none" stroke="midnightblue" d="M53.26,-88.5C61.43,-88.5 70.38,-88.5 78.98,-88.5"/>
<polygon fill="midnightblue" stroke="midnightblue" points="53.07,-85 43.07,-88.5 53.07,-92 53.07,-85"/>
</g>
<!-- Node4 -->
<g id="node5" class="node">
<title>Node4</title>
<g id="a_node5"><a xlink:href="class_examples_1_1_cloud_engine_1_1_data_1_1_star_sign_data.html" target="_top" xlink:title="[class]">
<polygon fill="none" stroke="black" points="571,-134.5 571,-164.5 729,-164.5 729,-134.5 571,-134.5"/>
<text text-anchor="start" x="579" y="-152.5" font-family="Helvetica,sans-Serif" font-size="10.00">Examples.CloudEngine.Data.</text>
<text text-anchor="middle" x="650" y="-141.5" font-family="Helvetica,sans-Serif" font-size="10.00">StarSignData</text>
</a>
</g>
</g>
<!-- Node3&#45;&gt;Node4 -->
<g id="edge4" class="edge">
<title>Node3&#45;&gt;Node4</title>
<path fill="none" stroke="midnightblue" d="M545.15,-156.53C553.77,-155.95 562.47,-155.36 570.98,-154.78"/>
<polygon fill="midnightblue" stroke="midnightblue" points="544.83,-153.04 535.09,-157.21 545.31,-160.03 544.83,-153.04"/>
</g>
<!-- Node6 -->
<g id="node7" class="node">
<title>Node6</title>
<g id="a_node7"><a xlink:href="class_examples_1_1_on_premise_engine_1_1_data_1_1_star_sign_data.html" target="_top" xlink:title="[class]">
<polygon fill="none" stroke="black" points="571.5,-73.5 571.5,-103.5 728.5,-103.5 728.5,-73.5 571.5,-73.5"/>
<text text-anchor="start" x="579.5" y="-91.5" font-family="Helvetica,sans-Serif" font-size="10.00">Examples.OnPremiseEngine.</text>
<text text-anchor="middle" x="650" y="-80.5" font-family="Helvetica,sans-Serif" font-size="10.00">Data.StarSignData</text>
</a>
</g>
</g>
<!-- Node5&#45;&gt;Node6 -->
<g id="edge6" class="edge">
<title>Node5&#45;&gt;Node6</title>
<path fill="none" stroke="midnightblue" d="M544.6,-75.45C553.57,-76.57 562.64,-77.7 571.48,-78.81"/>
<polygon fill="midnightblue" stroke="midnightblue" points="544.9,-71.96 534.54,-74.19 544.03,-78.91 544.9,-71.96"/>
</g>
<!-- Node7&#45;&gt;Node4 -->
<g id="edge8" class="edge">
<title>Node7&#45;&gt;Node4</title>
<path fill="none" stroke="midnightblue" d="M537.64,-128.62C548.58,-130.67 559.8,-132.78 570.71,-134.82"/>
<polygon fill="midnightblue" stroke="midnightblue" points="538.15,-125.15 527.68,-126.75 536.86,-132.03 538.15,-125.15"/>
</g>
<!-- Node7&#45;&gt;Node6 -->
<g id="edge9" class="edge">
<title>Node7&#45;&gt;Node6</title>
<path fill="none" stroke="midnightblue" d="M537.79,-102.98C548.91,-101.53 560.3,-100.05 571.36,-98.61"/>
<polygon fill="midnightblue" stroke="midnightblue" points="537.14,-99.54 527.68,-104.3 538.04,-106.48 537.14,-99.54"/>
</g>
</g>
</svg>
