<?xml version="1.0" encoding="UTF-8" standalone="no"?>
<!DOCTYPE svg PUBLIC "-//W3C//DTD SVG 1.1//EN"
 "http://www.w3.org/Graphics/SVG/1.1/DTD/svg11.dtd">
<!-- Generated by graphviz version 2.43.0 (0)
 -->
<!-- Title: FiftyOne.Pipeline.Core.FlowElements.IPipelineBuilderFromConfiguration Pages: 1 -->
<svg width="240pt" height="184pt"
 viewBox="0.00 0.00 240.00 184.00" xmlns="http://www.w3.org/2000/svg" xmlns:xlink="http://www.w3.org/1999/xlink">
<g id="graph0" class="graph" transform="scale(1 1) rotate(0) translate(4 180)">
<title>FiftyOne.Pipeline.Core.FlowElements.IPipelineBuilderFromConfiguration</title>
<!-- Node0 -->
<g id="node1" class="node">
<title>Node0</title>
<g id="a_node1"><a xlink:title="Pipeline builders implementing this interface are capable of building a IPipeline based on a supplied...">
<polygon fill="#bfbfbf" stroke="black" points="0,-145.5 0,-175.5 232,-175.5 232,-145.5 0,-145.5"/>
<text text-anchor="start" x="8" y="-163.5" font-family="Helvetica,sans-Serif" font-size="10.00">FiftyOne.Pipeline.Core.Flow</text>
<text text-anchor="middle" x="116" y="-152.5" font-family="Helvetica,sans-Serif" font-size="10.00">Elements.IPipelineBuilderFromConfiguration</text>
</a>
</g>
</g>
<!-- Node1 -->
<g id="node2" class="node">
<title>Node1</title>
<g id="a_node2"><a xlink:href="class_fifty_one_1_1_pipeline_1_1_core_1_1_flow_elements_1_1_pipeline_builder.html" target="_top" xlink:title="Default pipeline builder.">
<polygon fill="none" stroke="black" points="40.5,-78.5 40.5,-108.5 191.5,-108.5 191.5,-78.5 40.5,-78.5"/>
<text text-anchor="start" x="48.5" y="-96.5" font-family="Helvetica,sans-Serif" font-size="10.00">FiftyOne.Pipeline.Core.Flow</text>
<text text-anchor="middle" x="116" y="-85.5" font-family="Helvetica,sans-Serif" font-size="10.00">Elements.PipelineBuilder</text>
</a>
</g>
</g>
<!-- Node0&#45;&gt;Node1 -->
<g id="edge1" class="edge">
<title>Node0&#45;&gt;Node1</title>
<path fill="none" stroke="midnightblue" d="M116,-135.11C116,-126.15 116,-116.32 116,-108.58"/>
<polygon fill="midnightblue" stroke="midnightblue" points="112.5,-135.4 116,-145.4 119.5,-135.4 112.5,-135.4"/>
</g>
<!-- Node2 -->
<g id="node3" class="node">
<title>Node2</title>
<g id="a_node3"><a xlink:href="class_fifty_one_1_1_pipeline_1_1_engines_1_1_fifty_one_1_1_flow_elements_1_1_fifty_one_pipeline_builder.html" target="_top" xlink:title="Pipeline builder class that allows the 51Degrees share usage element to be enabled/disabled.">
<polygon fill="none" stroke="black" points="29.5,-0.5 29.5,-41.5 202.5,-41.5 202.5,-0.5 29.5,-0.5"/>
<text text-anchor="start" x="37.5" y="-29.5" font-family="Helvetica,sans-Serif" font-size="10.00">FiftyOne.Pipeline.Engines.</text>
<text text-anchor="start" x="37.5" y="-18.5" font-family="Helvetica,sans-Serif" font-size="10.00">FiftyOne.FlowElements.FiftyOne</text>
<text text-anchor="middle" x="116" y="-7.5" font-family="Helvetica,sans-Serif" font-size="10.00">PipelineBuilder</text>
</a>
</g>
</g>
<!-- Node1&#45;&gt;Node2 -->
<g id="edge2" class="edge">
<title>Node1&#45;&gt;Node2</title>
<path fill="none" stroke="midnightblue" d="M116,-67.98C116,-59.35 116,-49.76 116,-41.59"/>
<polygon fill="midnightblue" stroke="midnightblue" points="112.5,-68.23 116,-78.23 119.5,-68.23 112.5,-68.23"/>
</g>
</g>
</svg>
