<?xml version="1.0" encoding="UTF-8" standalone="no"?>
<!DOCTYPE svg PUBLIC "-//W3C//DTD SVG 1.1//EN"
 "http://www.w3.org/Graphics/SVG/1.1/DTD/svg11.dtd">
<!-- Generated by graphviz version 2.43.0 (0)
 -->
<!-- Title: FiftyOne.Pipeline.Core.TypedMap.ITypedKey&lt; T &gt; Pages: 1 -->
<svg width="728pt" height="110pt"
 viewBox="0.00 0.00 728.00 110.00" xmlns="http://www.w3.org/2000/svg" xmlns:xlink="http://www.w3.org/1999/xlink">
<g id="graph0" class="graph" transform="scale(1 1) rotate(0) translate(4 106)">
<title>FiftyOne.Pipeline.Core.TypedMap.ITypedKey&lt; T &gt;</title>
<!-- Node0 -->
<g id="node1" class="node">
<title>Node0</title>
<g id="a_node1"><a xlink:title="Represents a key to a ITypedKeyMap data store.">
<polygon fill="#bfbfbf" stroke="black" points="0,-36 0,-66 156,-66 156,-36 0,-36"/>
<text text-anchor="start" x="8" y="-54" font-family="Helvetica,sans-Serif" font-size="10.00">FiftyOne.Pipeline.Core.Typed</text>
<text text-anchor="middle" x="78" y="-43" font-family="Helvetica,sans-Serif" font-size="10.00">Map.ITypedKey&lt; T &gt;</text>
</a>
</g>
</g>
<!-- Node1 -->
<g id="node2" class="node">
<title>Node1</title>
<g id="a_node2"><a xlink:href="class_fifty_one_1_1_pipeline_1_1_core_1_1_typed_map_1_1_typed_key.html" target="_top" xlink:title="A key to a ITypedKeyMap data store.">
<polygon fill="none" stroke="black" points="193,-36 193,-66 375,-66 375,-36 193,-36"/>
<text text-anchor="start" x="201" y="-54" font-family="Helvetica,sans-Serif" font-size="10.00">FiftyOne::Pipeline</text>
<text text-anchor="middle" x="284" y="-43" font-family="Helvetica,sans-Serif" font-size="10.00">::Core::TypedMap::TypedKey&lt; T &gt;</text>
</a>
</g>
</g>
<!-- Node0&#45;&gt;Node1 -->
<g id="edge1" class="edge">
<title>Node0&#45;&gt;Node1</title>
<path fill="none" stroke="midnightblue" d="M166.31,-51C175.07,-51 183.97,-51 192.75,-51"/>
<polygon fill="midnightblue" stroke="midnightblue" points="166.12,-47.5 156.12,-51 166.12,-54.5 166.12,-47.5"/>
</g>
<!-- Node2 -->
<g id="node3" class="node">
<title>Node2</title>
<g id="a_node3"><a xlink:href="class_fifty_one_1_1_pipeline_1_1_core_1_1_typed_map_1_1_typed_key.html" target="_top" xlink:title=" ">
<polygon fill="none" stroke="black" points="536,-60.5 536,-101.5 720,-101.5 720,-60.5 536,-60.5"/>
<text text-anchor="start" x="544" y="-89.5" font-family="Helvetica,sans-Serif" font-size="10.00">FiftyOne.Pipeline.Core.Typed</text>
<text text-anchor="start" x="544" y="-78.5" font-family="Helvetica,sans-Serif" font-size="10.00">Map.TypedKey&lt; FiftyOne.Pipeline.</text>
<text text-anchor="middle" x="628" y="-67.5" font-family="Helvetica,sans-Serif" font-size="10.00">Math.IMathData &gt;</text>
</a>
</g>
</g>
<!-- Node1&#45;&gt;Node2 -->
<g id="edge2" class="edge">
<title>Node1&#45;&gt;Node2</title>
<path fill="none" stroke="orange" stroke-dasharray="5,2" d="M385.33,-59.8C432.97,-63.98 489.49,-68.94 535.89,-73.01"/>
<polygon fill="orange" stroke="orange" points="385.57,-56.31 375.3,-58.92 384.96,-63.28 385.57,-56.31"/>
<text text-anchor="start" x="405.5" y="-85" font-family="Helvetica,sans-Serif" font-size="10.00"> &lt; FiftyOne::Pipeline</text>
<text text-anchor="middle" x="455.5" y="-74" font-family="Helvetica,sans-Serif" font-size="10.00">::Math::IMathData &gt;</text>
</g>
<!-- Node3 -->
<g id="node4" class="node">
<title>Node3</title>
<g id="a_node4"><a xlink:href="class_fifty_one_1_1_pipeline_1_1_core_1_1_typed_map_1_1_typed_key.html" target="_top" xlink:title=" ">
<polygon fill="none" stroke="black" points="536,-0.5 536,-41.5 720,-41.5 720,-0.5 536,-0.5"/>
<text text-anchor="start" x="544" y="-29.5" font-family="Helvetica,sans-Serif" font-size="10.00">FiftyOne.Pipeline.Core.Typed</text>
<text text-anchor="start" x="544" y="-18.5" font-family="Helvetica,sans-Serif" font-size="10.00">Map.TypedKey&lt; FiftyOne.Pipeline.</text>
<text text-anchor="middle" x="628" y="-7.5" font-family="Helvetica,sans-Serif" font-size="10.00">IpSplitter.ISplitIpData &gt;</text>
</a>
</g>
</g>
<!-- Node1&#45;&gt;Node3 -->
<g id="edge3" class="edge">
<title>Node1&#45;&gt;Node3</title>
<path fill="none" stroke="orange" stroke-dasharray="5,2" d="M385.24,-34.87C387.85,-34.56 390.44,-34.27 393,-34 440.03,-29 492.61,-25.87 535.98,-23.93"/>
<polygon fill="orange" stroke="orange" points="384.57,-31.43 375.07,-36.13 385.43,-38.37 384.57,-31.43"/>
<text text-anchor="start" x="393" y="-48" font-family="Helvetica,sans-Serif" font-size="10.00"> &lt; FiftyOne::Pipeline</text>
<text text-anchor="middle" x="455.5" y="-37" font-family="Helvetica,sans-Serif" font-size="10.00">::IpSplitter::ISplitIpData &gt;</text>
</g>
</g>
</svg>
