<?xml version="1.0" encoding="UTF-8" standalone="no"?>
<!DOCTYPE svg PUBLIC "-//W3C//DTD SVG 1.1//EN"
 "http://www.w3.org/Graphics/SVG/1.1/DTD/svg11.dtd">
<!-- Generated by graphviz version 2.43.0 (0)
 -->
<!-- Title: FiftyOne.Pipeline.Engines.Data.IAspectEngineDataFile Pages: 1 -->
<svg width="679pt" height="88pt"
 viewBox="0.00 0.00 679.00 88.00" xmlns="http://www.w3.org/2000/svg" xmlns:xlink="http://www.w3.org/1999/xlink">
<g id="graph0" class="graph" transform="scale(1 1) rotate(0) translate(4 84)">
<title>FiftyOne.Pipeline.Engines.Data.IAspectEngineDataFile</title>
<!-- Node0 -->
<g id="node1" class="node">
<title>Node0</title>
<g id="a_node1"><a xlink:title="Interface for the details of a data file used by an Aspect engine.">
<polygon fill="#bfbfbf" stroke="black" points="110,-24.5 110,-54.5 262,-54.5 262,-24.5 110,-24.5"/>
<text text-anchor="start" x="118" y="-42.5" font-family="Helvetica,sans-Serif" font-size="10.00">FiftyOne.Pipeline.Engines.</text>
<text text-anchor="middle" x="186" y="-31.5" font-family="Helvetica,sans-Serif" font-size="10.00">Data.IAspectEngineDataFile</text>
</a>
</g>
</g>
<!-- Node2 -->
<g id="node3" class="node">
<title>Node2</title>
<g id="a_node3"><a xlink:href="class_fifty_one_1_1_pipeline_1_1_engines_1_1_data_1_1_aspect_engine_data_file.html" target="_top" xlink:title="This class contains all configuration and run&#45;time state information that is associated with a partic...">
<polygon fill="none" stroke="black" points="308.5,-49.5 308.5,-79.5 457.5,-79.5 457.5,-49.5 308.5,-49.5"/>
<text text-anchor="start" x="316.5" y="-67.5" font-family="Helvetica,sans-Serif" font-size="10.00">FiftyOne.Pipeline.Engines.</text>
<text text-anchor="middle" x="383" y="-56.5" font-family="Helvetica,sans-Serif" font-size="10.00">Data.AspectEngineDataFile</text>
</a>
</g>
</g>
<!-- Node0&#45;&gt;Node2 -->
<g id="edge2" class="edge">
<title>Node0&#45;&gt;Node2</title>
<path fill="none" stroke="midnightblue" d="M272.13,-50.41C284.15,-51.96 296.43,-53.53 308.21,-55.04"/>
<polygon fill="midnightblue" stroke="midnightblue" points="272.48,-46.93 262.11,-49.13 271.59,-53.87 272.48,-46.93"/>
</g>
<!-- Node4 -->
<g id="node5" class="node">
<title>Node4</title>
<g id="a_node5"><a xlink:href="interface_fifty_one_1_1_pipeline_1_1_engines_1_1_fifty_one_1_1_data_1_1_i_fifty_one_data_file.html" target="_top" xlink:title="A specialized can of IAspectEngineDataFile for files that will be distributed by the 51Degrees &#39;Distr...">
<polygon fill="none" stroke="black" points="298,-0.5 298,-30.5 468,-30.5 468,-0.5 298,-0.5"/>
<text text-anchor="start" x="306" y="-18.5" font-family="Helvetica,sans-Serif" font-size="10.00">FiftyOne.Pipeline.Engines.</text>
<text text-anchor="middle" x="383" y="-7.5" font-family="Helvetica,sans-Serif" font-size="10.00">FiftyOne.Data.IFiftyOneDataFile</text>
</a>
</g>
</g>
<!-- Node0&#45;&gt;Node4 -->
<g id="edge4" class="edge">
<title>Node0&#45;&gt;Node4</title>
<path fill="none" stroke="midnightblue" d="M272.07,-29.03C280.62,-27.98 289.3,-26.91 297.84,-25.86"/>
<polygon fill="midnightblue" stroke="midnightblue" points="271.61,-25.56 262.11,-30.26 272.47,-32.51 271.61,-25.56"/>
</g>
<!-- Node1 -->
<g id="node2" class="node">
<title>Node1</title>
<g id="a_node2"><a xlink:title=" ">
<polygon fill="none" stroke="#bfbfbf" points="0,-30 0,-49 74,-49 74,-30 0,-30"/>
<text text-anchor="middle" x="37" y="-37" font-family="Helvetica,sans-Serif" font-size="10.00">IDisposable</text>
</a>
</g>
</g>
<!-- Node1&#45;&gt;Node0 -->
<g id="edge1" class="edge">
<title>Node1&#45;&gt;Node0</title>
<path fill="none" stroke="midnightblue" d="M84.38,-39.5C92.56,-39.5 101.26,-39.5 109.99,-39.5"/>
<polygon fill="midnightblue" stroke="midnightblue" points="84.34,-36 74.34,-39.5 84.34,-43 84.34,-36"/>
</g>
<!-- Node3 -->
<g id="node4" class="node">
<title>Node3</title>
<g id="a_node4"><a xlink:href="class_fifty_one_1_1_pipeline_1_1_engines_1_1_fifty_one_1_1_data_1_1_fifty_one_data_file.html" target="_top" xlink:title="Class that stores meta&#45;data relating to a data file associated with a 51Degrees engine.">
<polygon fill="none" stroke="black" points="504,-24.5 504,-54.5 671,-54.5 671,-24.5 504,-24.5"/>
<text text-anchor="start" x="512" y="-42.5" font-family="Helvetica,sans-Serif" font-size="10.00">FiftyOne.Pipeline.Engines.</text>
<text text-anchor="middle" x="587.5" y="-31.5" font-family="Helvetica,sans-Serif" font-size="10.00">FiftyOne.Data.FiftyOneDataFile</text>
</a>
</g>
</g>
<!-- Node2&#45;&gt;Node3 -->
<g id="edge3" class="edge">
<title>Node2&#45;&gt;Node3</title>
<path fill="none" stroke="midnightblue" d="M467.66,-54.17C479.66,-52.69 491.99,-51.17 503.97,-49.69"/>
<polygon fill="midnightblue" stroke="midnightblue" points="467.18,-50.7 457.68,-55.4 468.03,-57.65 467.18,-50.7"/>
</g>
<!-- Node4&#45;&gt;Node3 -->
<g id="edge5" class="edge">
<title>Node4&#45;&gt;Node3</title>
<path fill="none" stroke="midnightblue" d="M478.17,-26.66C486.78,-27.68 495.45,-28.71 503.94,-29.72"/>
<polygon fill="midnightblue" stroke="midnightblue" points="478.46,-23.17 468.12,-25.47 477.64,-30.12 478.46,-23.17"/>
</g>
</g>
</svg>
