<?xml version="1.0" encoding="UTF-8" standalone="no"?>
<!DOCTYPE svg PUBLIC "-//W3C//DTD SVG 1.1//EN"
 "http://www.w3.org/Graphics/SVG/1.1/DTD/svg11.dtd">
<!-- Generated by graphviz version 2.43.0 (0)
 -->
<!-- Title: Examples.OnPremiseEngine.Data.IStarSignData Pages: 1 -->
<svg width="165pt" height="274pt"
 viewBox="0.00 0.00 165.00 274.00" xmlns="http://www.w3.org/2000/svg" xmlns:xlink="http://www.w3.org/1999/xlink">
<g id="graph0" class="graph" transform="scale(1 1) rotate(0) translate(4 270)">
<title>Examples.OnPremiseEngine.Data.IStarSignData</title>
<!-- Node0 -->
<g id="node1" class="node">
<title>Node0</title>
<g id="a_node1"><a xlink:title="[class]">
<polygon fill="#bfbfbf" stroke="black" points="0,-67.5 0,-97.5 157,-97.5 157,-67.5 0,-67.5"/>
<text text-anchor="start" x="8" y="-85.5" font-family="Helvetica,sans-Serif" font-size="10.00">Examples.OnPremiseEngine.</text>
<text text-anchor="middle" x="78.5" y="-74.5" font-family="Helvetica,sans-Serif" font-size="10.00">Data.IStarSignData</text>
</a>
</g>
</g>
<!-- Node4 -->
<g id="node5" class="node">
<title>Node4</title>
<g id="a_node5"><a xlink:href="class_examples_1_1_on_premise_engine_1_1_data_1_1_star_sign_data.html" target="_top" xlink:title="[class]">
<polygon fill="none" stroke="black" points="0,-0.5 0,-30.5 157,-30.5 157,-0.5 0,-0.5"/>
<text text-anchor="start" x="8" y="-18.5" font-family="Helvetica,sans-Serif" font-size="10.00">Examples.OnPremiseEngine.</text>
<text text-anchor="middle" x="78.5" y="-7.5" font-family="Helvetica,sans-Serif" font-size="10.00">Data.StarSignData</text>
</a>
</g>
</g>
<!-- Node0&#45;&gt;Node4 -->
<g id="edge4" class="edge">
<title>Node0&#45;&gt;Node4</title>
<path fill="none" stroke="midnightblue" d="M78.5,-57.11C78.5,-48.15 78.5,-38.32 78.5,-30.58"/>
<polygon fill="midnightblue" stroke="midnightblue" points="75,-57.4 78.5,-67.4 82,-57.4 75,-57.4"/>
</g>
<!-- Node1 -->
<g id="node2" class="node">
<title>Node1</title>
<g id="a_node2"><a xlink:href="interface_fifty_one_1_1_pipeline_1_1_engines_1_1_data_1_1_i_aspect_data.html" target="_top" xlink:title="Represents an ElementData instance that is generated by an IAspectEngine.">
<polygon fill="none" stroke="black" points="40.5,-134.5 40.5,-153.5 116.5,-153.5 116.5,-134.5 40.5,-134.5"/>
<text text-anchor="middle" x="78.5" y="-141.5" font-family="Helvetica,sans-Serif" font-size="10.00">IAspectData</text>
</a>
</g>
</g>
<!-- Node1&#45;&gt;Node0 -->
<g id="edge1" class="edge">
<title>Node1&#45;&gt;Node0</title>
<path fill="none" stroke="midnightblue" d="M78.5,-124.23C78.5,-115.59 78.5,-105.5 78.5,-97.52"/>
<polygon fill="midnightblue" stroke="midnightblue" points="75,-124.48 78.5,-134.48 82,-124.48 75,-124.48"/>
</g>
<!-- Node2 -->
<g id="node3" class="node">
<title>Node2</title>
<g id="a_node3"><a xlink:href="interface_fifty_one_1_1_pipeline_1_1_core_1_1_data_1_1_i_element_data.html" target="_top" xlink:title="Represents property values that have been determined by a specific FlowElement based on the supplied ...">
<polygon fill="none" stroke="black" points="37,-190.5 37,-209.5 120,-209.5 120,-190.5 37,-190.5"/>
<text text-anchor="middle" x="78.5" y="-197.5" font-family="Helvetica,sans-Serif" font-size="10.00">IElementData</text>
</a>
</g>
</g>
<!-- Node2&#45;&gt;Node1 -->
<g id="edge2" class="edge">
<title>Node2&#45;&gt;Node1</title>
<path fill="none" stroke="midnightblue" d="M78.5,-179.8C78.5,-170.91 78.5,-160.78 78.5,-153.75"/>
<polygon fill="midnightblue" stroke="midnightblue" points="75,-180.08 78.5,-190.08 82,-180.08 75,-180.08"/>
</g>
<!-- Node3 -->
<g id="node4" class="node">
<title>Node3</title>
<g id="a_node4"><a xlink:href="interface_fifty_one_1_1_pipeline_1_1_core_1_1_data_1_1_i_data.html" target="_top" xlink:title="Represents property values">
<polygon fill="none" stroke="black" points="57,-246.5 57,-265.5 100,-265.5 100,-246.5 57,-246.5"/>
<text text-anchor="middle" x="78.5" y="-253.5" font-family="Helvetica,sans-Serif" font-size="10.00">IData</text>
</a>
</g>
</g>
<!-- Node3&#45;&gt;Node2 -->
<g id="edge3" class="edge">
<title>Node3&#45;&gt;Node2</title>
<path fill="none" stroke="midnightblue" d="M78.5,-235.8C78.5,-226.91 78.5,-216.78 78.5,-209.75"/>
<polygon fill="midnightblue" stroke="midnightblue" points="75,-236.08 78.5,-246.08 82,-236.08 75,-236.08"/>
</g>
</g>
</svg>
