<?xml version="1.0" encoding="UTF-8" standalone="no"?>
<!DOCTYPE svg PUBLIC "-//W3C//DTD SVG 1.1//EN"
 "http://www.w3.org/Graphics/SVG/1.1/DTD/svg11.dtd">
<!-- Generated by graphviz version 2.43.0 (0)
 -->
<!-- Title: FiftyOne.Pipeline.Core.Data.IData Pages: 1 -->
<svg width="1026pt" height="568pt"
 viewBox="0.00 0.00 1026.00 568.00" xmlns="http://www.w3.org/2000/svg" xmlns:xlink="http://www.w3.org/1999/xlink">
<g id="graph0" class="graph" transform="scale(1 1) rotate(0) translate(4 564)">
<title>FiftyOne.Pipeline.Core.Data.IData</title>
<!-- Node0 -->
<g id="node1" class="node">
<title>Node0</title>
<g id="a_node1"><a xlink:title="Represents property values">
<polygon fill="#bfbfbf" stroke="black" points="0,-139.5 0,-169.5 154,-169.5 154,-139.5 0,-139.5"/>
<text text-anchor="start" x="8" y="-157.5" font-family="Helvetica,sans-Serif" font-size="10.00">FiftyOne.Pipeline.Core.Data.</text>
<text text-anchor="middle" x="77" y="-146.5" font-family="Helvetica,sans-Serif" font-size="10.00">IData</text>
</a>
</g>
</g>
<!-- Node1 -->
<g id="node2" class="node">
<title>Node1</title>
<g id="a_node2"><a xlink:href="class_fifty_one_1_1_pipeline_1_1_core_1_1_data_1_1_data_base.html" target="_top" xlink:title="This class stores data values as key/value pairs where the key is a string and the value can be any t...">
<polygon fill="none" stroke="black" points="190,-139.5 190,-169.5 344,-169.5 344,-139.5 190,-139.5"/>
<text text-anchor="start" x="198" y="-157.5" font-family="Helvetica,sans-Serif" font-size="10.00">FiftyOne.Pipeline.Core.Data.</text>
<text text-anchor="middle" x="267" y="-146.5" font-family="Helvetica,sans-Serif" font-size="10.00">DataBase</text>
</a>
</g>
</g>
<!-- Node0&#45;&gt;Node1 -->
<g id="edge1" class="edge">
<title>Node0&#45;&gt;Node1</title>
<path fill="none" stroke="midnightblue" d="M164.42,-154.5C172.86,-154.5 181.37,-154.5 189.7,-154.5"/>
<polygon fill="midnightblue" stroke="midnightblue" points="164.2,-151 154.2,-154.5 164.2,-158 164.2,-151"/>
</g>
<!-- Node14 -->
<g id="node15" class="node">
<title>Node14</title>
<g id="a_node15"><a xlink:href="interface_fifty_one_1_1_pipeline_1_1_core_1_1_data_1_1_i_element_data.html" target="_top" xlink:title="Represents property values that have been determined by a specific FlowElement based on the supplied ...">
<polygon fill="none" stroke="black" points="190,-210.5 190,-240.5 344,-240.5 344,-210.5 190,-210.5"/>
<text text-anchor="start" x="198" y="-228.5" font-family="Helvetica,sans-Serif" font-size="10.00">FiftyOne.Pipeline.Core.Data.</text>
<text text-anchor="middle" x="267" y="-217.5" font-family="Helvetica,sans-Serif" font-size="10.00">IElementData</text>
</a>
</g>
</g>
<!-- Node0&#45;&gt;Node14 -->
<g id="edge14" class="edge">
<title>Node0&#45;&gt;Node14</title>
<path fill="none" stroke="midnightblue" d="M127.55,-173.21C158.35,-184.84 197.41,-199.6 226.19,-210.46"/>
<polygon fill="midnightblue" stroke="midnightblue" points="128.46,-169.82 117.87,-169.56 125.99,-176.36 128.46,-169.82"/>
</g>
<!-- Node26 -->
<g id="node27" class="node">
<title>Node26</title>
<g id="a_node27"><a xlink:href="interface_fifty_one_1_1_pipeline_1_1_core_1_1_data_1_1_i_evidence.html" target="_top" xlink:title="Interface to the evidence that is passed in to a Pipeline as part of a FlowData object See the Specif...">
<polygon fill="none" stroke="black" points="190,-46.5 190,-76.5 344,-76.5 344,-46.5 190,-46.5"/>
<text text-anchor="start" x="198" y="-64.5" font-family="Helvetica,sans-Serif" font-size="10.00">FiftyOne.Pipeline.Core.Data.</text>
<text text-anchor="middle" x="267" y="-53.5" font-family="Helvetica,sans-Serif" font-size="10.00">IEvidence</text>
</a>
</g>
</g>
<!-- Node0&#45;&gt;Node26 -->
<g id="edge37" class="edge">
<title>Node0&#45;&gt;Node26</title>
<path fill="none" stroke="midnightblue" d="M117.65,-134.89C152.76,-117.52 203.3,-92.52 235.39,-76.64"/>
<polygon fill="midnightblue" stroke="midnightblue" points="116.04,-131.78 108.62,-139.35 119.14,-138.05 116.04,-131.78"/>
</g>
<!-- Node2 -->
<g id="node3" class="node">
<title>Node2</title>
<g id="a_node3"><a xlink:href="class_fifty_one_1_1_pipeline_1_1_core_1_1_data_1_1_element_data_base.html" target="_top" xlink:title="This class stores property values that have been determined by a specific FlowElement based on the su...">
<polygon fill="none" stroke="black" points="393.5,-186.5 393.5,-216.5 547.5,-216.5 547.5,-186.5 393.5,-186.5"/>
<text text-anchor="start" x="401.5" y="-204.5" font-family="Helvetica,sans-Serif" font-size="10.00">FiftyOne.Pipeline.Core.Data.</text>
<text text-anchor="middle" x="470.5" y="-193.5" font-family="Helvetica,sans-Serif" font-size="10.00">ElementDataBase</text>
</a>
</g>
</g>
<!-- Node1&#45;&gt;Node2 -->
<g id="edge2" class="edge">
<title>Node1&#45;&gt;Node2</title>
<path fill="none" stroke="midnightblue" d="M342.29,-171.83C362.9,-176.64 385.11,-181.82 405.11,-186.48"/>
<polygon fill="midnightblue" stroke="midnightblue" points="342.84,-168.36 332.31,-169.5 341.25,-175.18 342.84,-168.36"/>
</g>
<!-- Node13 -->
<g id="node14" class="node">
<title>Node13</title>
<g id="a_node14"><a xlink:href="class_fifty_one_1_1_pipeline_1_1_core_1_1_data_1_1_evidence.html" target="_top" xlink:title="This class contains the evidence that is passed in to a Pipeline as part of a FlowData object See the...">
<polygon fill="none" stroke="black" points="393.5,-0.5 393.5,-30.5 547.5,-30.5 547.5,-0.5 393.5,-0.5"/>
<text text-anchor="start" x="401.5" y="-18.5" font-family="Helvetica,sans-Serif" font-size="10.00">FiftyOne.Pipeline.Core.Data.</text>
<text text-anchor="middle" x="470.5" y="-7.5" font-family="Helvetica,sans-Serif" font-size="10.00">Evidence</text>
</a>
</g>
</g>
<!-- Node1&#45;&gt;Node13 -->
<g id="edge13" class="edge">
<title>Node1&#45;&gt;Node13</title>
<path fill="none" stroke="midnightblue" d="M294.26,-132.61C309.4,-119.53 328.44,-102.24 344,-85.5 361.67,-66.48 358.35,-53.82 380,-39.5 385.23,-36.04 390.95,-33.08 396.88,-30.54"/>
<polygon fill="midnightblue" stroke="midnightblue" points="291.63,-130.25 286.31,-139.41 296.18,-135.57 291.63,-130.25"/>
</g>
<!-- Node3 -->
<g id="node4" class="node">
<title>Node3</title>
<g id="a_node4"><a xlink:href="class_examples_1_1_custom_flow_element_1_1_data_1_1_star_sign_data.html" target="_top" xlink:title="[class]">
<polygon fill="none" stroke="black" points="624.5,-49.5 624.5,-79.5 796.5,-79.5 796.5,-49.5 624.5,-49.5"/>
<text text-anchor="start" x="632.5" y="-67.5" font-family="Helvetica,sans-Serif" font-size="10.00">Examples.CustomFlowElement.</text>
<text text-anchor="middle" x="710.5" y="-56.5" font-family="Helvetica,sans-Serif" font-size="10.00">Data.StarSignData</text>
</a>
</g>
</g>
<!-- Node2&#45;&gt;Node3 -->
<g id="edge3" class="edge">
<title>Node2&#45;&gt;Node3</title>
<path fill="none" stroke="midnightblue" d="M555.46,-180.92C557.38,-179.54 559.24,-178.07 561,-176.5 592.56,-148.4 564.58,-115.6 597,-88.5 604.97,-81.84 614.34,-76.89 624.22,-73.24"/>
<polygon fill="midnightblue" stroke="midnightblue" points="553.25,-178.17 546.58,-186.4 556.93,-184.13 553.25,-178.17"/>
</g>
<!-- Node4 -->
<g id="node5" class="node">
<title>Node4</title>
<g id="a_node5"><a xlink:href="class_fifty_one_1_1_pipeline_1_1_engines_1_1_data_1_1_aspect_data_base.html" target="_top" xlink:title="Base class for element data instances that are generated by an IAspectEngine.">
<polygon fill="none" stroke="black" points="639,-382.5 639,-412.5 782,-412.5 782,-382.5 639,-382.5"/>
<text text-anchor="start" x="647" y="-400.5" font-family="Helvetica,sans-Serif" font-size="10.00">FiftyOne.Pipeline.Engines.</text>
<text text-anchor="middle" x="710.5" y="-389.5" font-family="Helvetica,sans-Serif" font-size="10.00">Data.AspectDataBase</text>
</a>
</g>
</g>
<!-- Node2&#45;&gt;Node4 -->
<g id="edge4" class="edge">
<title>Node2&#45;&gt;Node4</title>
<path fill="none" stroke="midnightblue" d="M555.93,-221.87C557.71,-223.31 559.4,-224.85 561,-226.5 607.79,-274.82 548.73,-326.66 597,-373.5 608.32,-384.49 623.37,-390.98 638.77,-394.7"/>
<polygon fill="midnightblue" stroke="midnightblue" points="557.88,-218.96 547.66,-216.16 553.9,-224.72 557.88,-218.96"/>
</g>
<!-- Node7 -->
<g id="node8" class="node">
<title>Node7</title>
<g id="a_node8"><a xlink:href="class_fifty_one_1_1_pipeline_1_1_engines_1_1_fifty_one_1_1_data_1_1_set_headers_data.html" target="_top" xlink:title="Element data instance for SetHeadersElement See the Specification">
<polygon fill="none" stroke="black" points="627.5,-333.5 627.5,-363.5 793.5,-363.5 793.5,-333.5 627.5,-333.5"/>
<text text-anchor="start" x="635.5" y="-351.5" font-family="Helvetica,sans-Serif" font-size="10.00">FiftyOne.Pipeline.Engines.</text>
<text text-anchor="middle" x="710.5" y="-340.5" font-family="Helvetica,sans-Serif" font-size="10.00">FiftyOne.Data.SetHeadersData</text>
</a>
</g>
</g>
<!-- Node2&#45;&gt;Node7 -->
<g id="edge7" class="edge">
<title>Node2&#45;&gt;Node7</title>
<path fill="none" stroke="midnightblue" d="M555.69,-222.11C557.54,-223.48 559.31,-224.94 561,-226.5 595.09,-257.98 561.95,-294.1 597,-324.5 605.75,-332.09 616.31,-337.47 627.41,-341.26"/>
<polygon fill="midnightblue" stroke="midnightblue" points="557.47,-219.1 547.16,-216.66 553.7,-225 557.47,-219.1"/>
</g>
<!-- Node8 -->
<g id="node9" class="node">
<title>Node8</title>
<g id="a_node9"><a xlink:href="class_fifty_one_1_1_pipeline_1_1_ip_splitter_1_1_split_ip_data.html" target="_top" xlink:title=" ">
<polygon fill="none" stroke="black" points="636,-284.5 636,-314.5 785,-314.5 785,-284.5 636,-284.5"/>
<text text-anchor="start" x="644" y="-302.5" font-family="Helvetica,sans-Serif" font-size="10.00">FiftyOne.Pipeline.IpSplitter.</text>
<text text-anchor="middle" x="710.5" y="-291.5" font-family="Helvetica,sans-Serif" font-size="10.00">SplitIpData</text>
</a>
</g>
</g>
<!-- Node2&#45;&gt;Node8 -->
<g id="edge8" class="edge">
<title>Node2&#45;&gt;Node8</title>
<path fill="none" stroke="midnightblue" d="M551.96,-221C555.1,-222.68 558.13,-224.51 561,-226.5 583.23,-241.86 574.3,-260.83 597,-275.5 608.66,-283.03 622.28,-288.24 635.93,-291.84"/>
<polygon fill="midnightblue" stroke="midnightblue" points="553.41,-217.81 542.88,-216.63 550.37,-224.12 553.41,-217.81"/>
</g>
<!-- Node9 -->
<g id="node10" class="node">
<title>Node9</title>
<g id="a_node10"><a xlink:href="class_fifty_one_1_1_pipeline_1_1_java_script_builder_1_1_data_1_1_java_script_builder_element_data.html" target="_top" xlink:title="The IElementData class for JavaScriptBuilderElement.">
<polygon fill="none" stroke="black" points="597,-235.5 597,-265.5 824,-265.5 824,-235.5 597,-235.5"/>
<text text-anchor="start" x="605" y="-253.5" font-family="Helvetica,sans-Serif" font-size="10.00">FiftyOne.Pipeline.JavaScript</text>
<text text-anchor="middle" x="710.5" y="-242.5" font-family="Helvetica,sans-Serif" font-size="10.00">Builder.Data.JavaScriptBuilderElementData</text>
</a>
</g>
</g>
<!-- Node2&#45;&gt;Node9 -->
<g id="edge9" class="edge">
<title>Node2&#45;&gt;Node9</title>
<path fill="none" stroke="midnightblue" d="M554.62,-218.61C581.33,-224.11 610.7,-230.16 636.61,-235.49"/>
<polygon fill="midnightblue" stroke="midnightblue" points="555.03,-215.12 544.53,-216.53 553.61,-221.98 555.03,-215.12"/>
</g>
<!-- Node10 -->
<g id="node11" class="node">
<title>Node10</title>
<g id="a_node11"><a xlink:href="class_fifty_one_1_1_pipeline_1_1_json_builder_1_1_data_1_1_json_builder_element_data.html" target="_top" xlink:title="JsonBuilderElement data class.">
<polygon fill="none" stroke="black" points="630,-186.5 630,-216.5 791,-216.5 791,-186.5 630,-186.5"/>
<text text-anchor="start" x="638" y="-204.5" font-family="Helvetica,sans-Serif" font-size="10.00">FiftyOne.Pipeline.JsonBuilder.</text>
<text text-anchor="middle" x="710.5" y="-193.5" font-family="Helvetica,sans-Serif" font-size="10.00">Data.JsonBuilderElementData</text>
</a>
</g>
</g>
<!-- Node2&#45;&gt;Node10 -->
<g id="edge10" class="edge">
<title>Node2&#45;&gt;Node10</title>
<path fill="none" stroke="midnightblue" d="M558.08,-201.5C581.57,-201.5 606.88,-201.5 629.96,-201.5"/>
<polygon fill="midnightblue" stroke="midnightblue" points="557.79,-198 547.79,-201.5 557.79,-205 557.79,-198"/>
</g>
<!-- Node11 -->
<g id="node12" class="node">
<title>Node11</title>
<g id="a_node12"><a xlink:href="class_fifty_one_1_1_pipeline_1_1_math_1_1_math_data.html" target="_top" xlink:title=" ">
<polygon fill="none" stroke="black" points="621.5,-148 621.5,-167 799.5,-167 799.5,-148 621.5,-148"/>
<text text-anchor="middle" x="710.5" y="-155" font-family="Helvetica,sans-Serif" font-size="10.00">FiftyOne.Pipeline.Math.MathData</text>
</a>
</g>
</g>
<!-- Node2&#45;&gt;Node11 -->
<g id="edge11" class="edge">
<title>Node2&#45;&gt;Node11</title>
<path fill="none" stroke="midnightblue" d="M557.77,-184.85C570.91,-182.36 584.31,-179.84 597,-177.5 615.92,-174.01 636.66,-170.29 655.11,-167.02"/>
<polygon fill="midnightblue" stroke="midnightblue" points="556.96,-181.44 547.79,-186.75 558.27,-188.32 556.96,-181.44"/>
</g>
<!-- Node12 -->
<g id="node13" class="node">
<title>Node12</title>
<g id="a_node13"><a xlink:href="class_simple_client_side_element_1_1_data_1_1_star_sign_data.html" target="_top" xlink:title="[class]">
<polygon fill="none" stroke="black" points="639,-98.5 639,-128.5 782,-128.5 782,-98.5 639,-98.5"/>
<text text-anchor="start" x="647" y="-116.5" font-family="Helvetica,sans-Serif" font-size="10.00">SimpleClientSideElement.</text>
<text text-anchor="middle" x="710.5" y="-105.5" font-family="Helvetica,sans-Serif" font-size="10.00">Data.StarSignData</text>
</a>
</g>
</g>
<!-- Node2&#45;&gt;Node12 -->
<g id="edge12" class="edge">
<title>Node2&#45;&gt;Node12</title>
<path fill="none" stroke="midnightblue" d="M549.77,-182.44C553.66,-180.63 557.42,-178.65 561,-176.5 580.93,-164.49 576.76,-149.97 597,-138.5 609.71,-131.3 624.32,-126.17 638.71,-122.52"/>
<polygon fill="midnightblue" stroke="midnightblue" points="548.37,-179.23 540.54,-186.36 551.11,-185.67 548.37,-179.23"/>
</g>
<!-- Node5 -->
<g id="node6" class="node">
<title>Node5</title>
<g id="a_node6"><a xlink:href="class_examples_1_1_cloud_engine_1_1_data_1_1_star_sign_data.html" target="_top" xlink:title="[class]">
<polygon fill="none" stroke="black" points="860,-492.5 860,-522.5 1018,-522.5 1018,-492.5 860,-492.5"/>
<text text-anchor="start" x="868" y="-510.5" font-family="Helvetica,sans-Serif" font-size="10.00">Examples.CloudEngine.Data.</text>
<text text-anchor="middle" x="939" y="-499.5" font-family="Helvetica,sans-Serif" font-size="10.00">StarSignData</text>
</a>
</g>
</g>
<!-- Node4&#45;&gt;Node5 -->
<g id="edge5" class="edge">
<title>Node4&#45;&gt;Node5</title>
<path fill="none" stroke="midnightblue" d="M791.74,-410.94C802.83,-414.05 813.87,-417.86 824,-422.5 834.32,-427.23 888.7,-469.07 918.47,-492.23"/>
<polygon fill="midnightblue" stroke="midnightblue" points="792.57,-407.54 782.01,-408.38 790.79,-414.31 792.57,-407.54"/>
</g>
<!-- Node6 -->
<g id="node7" class="node">
<title>Node6</title>
<g id="a_node7"><a xlink:href="class_examples_1_1_on_premise_engine_1_1_data_1_1_star_sign_data.html" target="_top" xlink:title="[class]">
<polygon fill="none" stroke="black" points="860.5,-406.5 860.5,-436.5 1017.5,-436.5 1017.5,-406.5 860.5,-406.5"/>
<text text-anchor="start" x="868.5" y="-424.5" font-family="Helvetica,sans-Serif" font-size="10.00">Examples.OnPremiseEngine.</text>
<text text-anchor="middle" x="939" y="-413.5" font-family="Helvetica,sans-Serif" font-size="10.00">Data.StarSignData</text>
</a>
</g>
</g>
<!-- Node4&#45;&gt;Node6 -->
<g id="edge6" class="edge">
<title>Node4&#45;&gt;Node6</title>
<path fill="none" stroke="midnightblue" d="M792.27,-406.06C814.41,-408.4 838.36,-410.94 860.33,-413.27"/>
<polygon fill="midnightblue" stroke="midnightblue" points="792.55,-402.57 782.23,-405 791.81,-409.53 792.55,-402.57"/>
</g>
<!-- Node14&#45;&gt;Node2 -->
<g id="edge17" class="edge">
<title>Node14&#45;&gt;Node2</title>
<path fill="none" stroke="midnightblue" d="M354.44,-215.2C367.33,-213.67 380.55,-212.09 393.21,-210.59"/>
<polygon fill="midnightblue" stroke="midnightblue" points="353.69,-211.77 344.18,-216.43 354.52,-218.72 353.69,-211.77"/>
</g>
<!-- Node15 -->
<g id="node16" class="node">
<title>Node15</title>
<g id="a_node16"><a xlink:href="interface_examples_1_1_custom_flow_element_1_1_data_1_1_i_star_sign_data.html" target="_top" xlink:title=" ">
<polygon fill="none" stroke="black" points="384.5,-49.5 384.5,-79.5 556.5,-79.5 556.5,-49.5 384.5,-49.5"/>
<text text-anchor="start" x="392.5" y="-67.5" font-family="Helvetica,sans-Serif" font-size="10.00">Examples.CustomFlowElement.</text>
<text text-anchor="middle" x="470.5" y="-56.5" font-family="Helvetica,sans-Serif" font-size="10.00">Data.IStarSignData</text>
</a>
</g>
</g>
<!-- Node14&#45;&gt;Node15 -->
<g id="edge15" class="edge">
<title>Node14&#45;&gt;Node15</title>
<path fill="none" stroke="midnightblue" d="M312.05,-205.38C323.61,-198.47 335.27,-189.83 344,-179.5 372.07,-146.28 347.53,-117.44 380,-88.5 383.84,-85.07 388.12,-82.13 392.67,-79.6"/>
<polygon fill="midnightblue" stroke="midnightblue" points="310.27,-202.37 303.28,-210.32 313.71,-208.47 310.27,-202.37"/>
</g>
<!-- Node16 -->
<g id="node17" class="node">
<title>Node16</title>
<g id="a_node17"><a xlink:href="interface_fifty_one_1_1_pipeline_1_1_engines_1_1_data_1_1_i_aspect_data.html" target="_top" xlink:title="Represents an ElementData instance that is generated by an IAspectEngine.">
<polygon fill="none" stroke="black" points="399,-443.5 399,-473.5 542,-473.5 542,-443.5 399,-443.5"/>
<text text-anchor="start" x="407" y="-461.5" font-family="Helvetica,sans-Serif" font-size="10.00">FiftyOne.Pipeline.Engines.</text>
<text text-anchor="middle" x="470.5" y="-450.5" font-family="Helvetica,sans-Serif" font-size="10.00">Data.IAspectData</text>
</a>
</g>
</g>
<!-- Node14&#45;&gt;Node16 -->
<g id="edge18" class="edge">
<title>Node14&#45;&gt;Node16</title>
<path fill="none" stroke="midnightblue" d="M274.3,-250.43C286.76,-294.46 318.76,-385.94 380,-434.5 385.67,-439 392.12,-442.66 398.88,-445.63"/>
<polygon fill="midnightblue" stroke="midnightblue" points="277.62,-249.28 271.62,-240.55 270.87,-251.12 277.62,-249.28"/>
</g>
<!-- Node20 -->
<g id="node21" class="node">
<title>Node20</title>
<g id="a_node21"><a xlink:href="interface_fifty_one_1_1_pipeline_1_1_engines_1_1_fifty_one_1_1_data_1_1_i_set_headers_data.html" target="_top" xlink:title="The IElementData interface for SetHeadersElement.">
<polygon fill="none" stroke="black" points="386,-394.5 386,-424.5 555,-424.5 555,-394.5 386,-394.5"/>
<text text-anchor="start" x="394" y="-412.5" font-family="Helvetica,sans-Serif" font-size="10.00">FiftyOne.Pipeline.Engines.</text>
<text text-anchor="middle" x="470.5" y="-401.5" font-family="Helvetica,sans-Serif" font-size="10.00">FiftyOne.Data.ISetHeadersData</text>
</a>
</g>
</g>
<!-- Node14&#45;&gt;Node20 -->
<g id="edge25" class="edge">
<title>Node14&#45;&gt;Node20</title>
<path fill="none" stroke="midnightblue" d="M278.52,-250.13C294.92,-285.56 329.99,-350.47 380,-385.5 384.88,-388.91 390.21,-391.84 395.77,-394.36"/>
<polygon fill="midnightblue" stroke="midnightblue" points="281.69,-248.65 274.39,-240.97 275.31,-251.53 281.69,-248.65"/>
</g>
<!-- Node21 -->
<g id="node22" class="node">
<title>Node21</title>
<g id="a_node22"><a xlink:href="interface_fifty_one_1_1_pipeline_1_1_ip_splitter_1_1_i_split_ip_data.html" target="_top" xlink:title=" ">
<polygon fill="none" stroke="black" points="396,-345.5 396,-375.5 545,-375.5 545,-345.5 396,-345.5"/>
<text text-anchor="start" x="404" y="-363.5" font-family="Helvetica,sans-Serif" font-size="10.00">FiftyOne.Pipeline.IpSplitter.</text>
<text text-anchor="middle" x="470.5" y="-352.5" font-family="Helvetica,sans-Serif" font-size="10.00">ISplitIpData</text>
</a>
</g>
</g>
<!-- Node14&#45;&gt;Node21 -->
<g id="edge27" class="edge">
<title>Node14&#45;&gt;Node21</title>
<path fill="none" stroke="midnightblue" d="M285.52,-248.64C305.66,-273.65 341,-312.94 380,-335.5 386.7,-339.38 394.04,-342.68 401.54,-345.49"/>
<polygon fill="midnightblue" stroke="midnightblue" points="288.24,-246.43 279.29,-240.75 282.75,-250.77 288.24,-246.43"/>
</g>
<!-- Node22 -->
<g id="node23" class="node">
<title>Node22</title>
<g id="a_node23"><a xlink:href="interface_fifty_one_1_1_pipeline_1_1_java_script_builder_1_1_data_1_1_i_java_script_builder_element_data.html" target="_top" xlink:title="The IElementData interface for JavaScriptBuilderElement.">
<polygon fill="none" stroke="black" points="387.5,-285 387.5,-326 553.5,-326 553.5,-285 387.5,-285"/>
<text text-anchor="start" x="395.5" y="-314" font-family="Helvetica,sans-Serif" font-size="10.00">FiftyOne.Pipeline.JavaScript</text>
<text text-anchor="start" x="395.5" y="-303" font-family="Helvetica,sans-Serif" font-size="10.00">Builder.Data.IJavaScriptBuilder</text>
<text text-anchor="middle" x="470.5" y="-292" font-family="Helvetica,sans-Serif" font-size="10.00">ElementData</text>
</a>
</g>
</g>
<!-- Node14&#45;&gt;Node22 -->
<g id="edge29" class="edge">
<title>Node14&#45;&gt;Node22</title>
<path fill="none" stroke="midnightblue" d="M308.8,-244.85C329.86,-254.55 356.08,-266.18 380,-275.5 388.25,-278.71 396.99,-281.91 405.67,-284.94"/>
<polygon fill="midnightblue" stroke="midnightblue" points="310.06,-241.58 299.52,-240.55 307.12,-247.93 310.06,-241.58"/>
</g>
<!-- Node23 -->
<g id="node24" class="node">
<title>Node23</title>
<g id="a_node24"><a xlink:href="interface_fifty_one_1_1_pipeline_1_1_json_builder_1_1_data_1_1_i_json_builder_element_data.html" target="_top" xlink:title="The IElementData interface for JsonBuilderElement.">
<polygon fill="none" stroke="black" points="388.5,-235.5 388.5,-265.5 552.5,-265.5 552.5,-235.5 388.5,-235.5"/>
<text text-anchor="start" x="396.5" y="-253.5" font-family="Helvetica,sans-Serif" font-size="10.00">FiftyOne.Pipeline.JsonBuilder.</text>
<text text-anchor="middle" x="470.5" y="-242.5" font-family="Helvetica,sans-Serif" font-size="10.00">Data.IJsonBuilderElementData</text>
</a>
</g>
</g>
<!-- Node14&#45;&gt;Node23 -->
<g id="edge31" class="edge">
<title>Node14&#45;&gt;Node23</title>
<path fill="none" stroke="midnightblue" d="M354.39,-236.22C365.6,-237.61 377.05,-239.03 388.17,-240.41"/>
<polygon fill="midnightblue" stroke="midnightblue" points="354.53,-232.71 344.18,-234.95 353.67,-239.66 354.53,-232.71"/>
</g>
<!-- Node24 -->
<g id="node25" class="node">
<title>Node24</title>
<g id="a_node25"><a xlink:href="interface_fifty_one_1_1_pipeline_1_1_math_1_1_i_math_data.html" target="_top" xlink:title=" ">
<polygon fill="none" stroke="black" points="380,-148 380,-167 561,-167 561,-148 380,-148"/>
<text text-anchor="middle" x="470.5" y="-155" font-family="Helvetica,sans-Serif" font-size="10.00">FiftyOne.Pipeline.Math.IMathData</text>
</a>
</g>
</g>
<!-- Node14&#45;&gt;Node24 -->
<g id="edge33" class="edge">
<title>Node14&#45;&gt;Node24</title>
<path fill="none" stroke="midnightblue" d="M308.06,-206.19C329.11,-196.6 355.56,-185.39 380,-177.5 392.42,-173.49 406.07,-169.99 418.88,-167.1"/>
<polygon fill="midnightblue" stroke="midnightblue" points="306.4,-203.1 298.79,-210.47 309.33,-209.46 306.4,-203.1"/>
</g>
<!-- Node25 -->
<g id="node26" class="node">
<title>Node25</title>
<g id="a_node26"><a xlink:href="interface_simple_client_side_element_1_1_data_1_1_i_star_sign_data.html" target="_top" xlink:title="[class]">
<polygon fill="none" stroke="black" points="399,-98.5 399,-128.5 542,-128.5 542,-98.5 399,-98.5"/>
<text text-anchor="start" x="407" y="-116.5" font-family="Helvetica,sans-Serif" font-size="10.00">SimpleClientSideElement.</text>
<text text-anchor="middle" x="470.5" y="-105.5" font-family="Helvetica,sans-Serif" font-size="10.00">Data.IStarSignData</text>
</a>
</g>
</g>
<!-- Node14&#45;&gt;Node25 -->
<g id="edge35" class="edge">
<title>Node14&#45;&gt;Node25</title>
<path fill="none" stroke="midnightblue" d="M306.43,-205.33C318.97,-197.96 332.58,-189.06 344,-179.5 362.59,-163.93 359.47,-151.41 380,-138.5 386.15,-134.64 392.9,-131.36 399.85,-128.58"/>
<polygon fill="midnightblue" stroke="midnightblue" points="304.49,-202.41 297.55,-210.41 307.96,-208.48 304.49,-202.41"/>
</g>
<!-- Node15&#45;&gt;Node3 -->
<g id="edge16" class="edge">
<title>Node15&#45;&gt;Node3</title>
<path fill="none" stroke="midnightblue" d="M566.91,-64.5C585.94,-64.5 605.8,-64.5 624.44,-64.5"/>
<polygon fill="midnightblue" stroke="midnightblue" points="566.75,-61 556.75,-64.5 566.75,-68 566.75,-61"/>
</g>
<!-- Node16&#45;&gt;Node4 -->
<g id="edge23" class="edge">
<title>Node16&#45;&gt;Node4</title>
<path fill="none" stroke="midnightblue" d="M539.7,-440.67C546.91,-438.65 554.12,-436.57 561,-434.5 577.15,-429.65 580.75,-427 597,-422.5 610.4,-418.79 624.82,-415.25 638.71,-412.06"/>
<polygon fill="midnightblue" stroke="midnightblue" points="538.6,-437.34 529.9,-443.38 540.47,-444.09 538.6,-437.34"/>
</g>
<!-- Node17 -->
<g id="node18" class="node">
<title>Node17</title>
<g id="a_node18"><a xlink:href="interface_examples_1_1_cloud_engine_1_1_data_1_1_i_star_sign_data.html" target="_top" xlink:title="[class]">
<polygon fill="none" stroke="black" points="631.5,-529.5 631.5,-559.5 789.5,-559.5 789.5,-529.5 631.5,-529.5"/>
<text text-anchor="start" x="639.5" y="-547.5" font-family="Helvetica,sans-Serif" font-size="10.00">Examples.CloudEngine.Data.</text>
<text text-anchor="middle" x="710.5" y="-536.5" font-family="Helvetica,sans-Serif" font-size="10.00">IStarSignData</text>
</a>
</g>
</g>
<!-- Node16&#45;&gt;Node17 -->
<g id="edge19" class="edge">
<title>Node16&#45;&gt;Node17</title>
<path fill="none" stroke="midnightblue" d="M506.07,-478.5C530.73,-492.03 565.04,-509.39 597,-520.5 607.94,-524.3 619.7,-527.61 631.34,-530.46"/>
<polygon fill="midnightblue" stroke="midnightblue" points="507.56,-475.32 497.12,-473.53 504.16,-481.44 507.56,-475.32"/>
</g>
<!-- Node18 -->
<g id="node19" class="node">
<title>Node18</title>
<g id="a_node19"><a xlink:href="interface_examples_1_1_on_premise_engine_1_1_data_1_1_i_star_sign_data.html" target="_top" xlink:title="[class]">
<polygon fill="none" stroke="black" points="632,-431.5 632,-461.5 789,-461.5 789,-431.5 632,-431.5"/>
<text text-anchor="start" x="640" y="-449.5" font-family="Helvetica,sans-Serif" font-size="10.00">Examples.OnPremiseEngine.</text>
<text text-anchor="middle" x="710.5" y="-438.5" font-family="Helvetica,sans-Serif" font-size="10.00">Data.IStarSignData</text>
</a>
</g>
</g>
<!-- Node16&#45;&gt;Node18 -->
<g id="edge21" class="edge">
<title>Node16&#45;&gt;Node18</title>
<path fill="none" stroke="midnightblue" d="M552.35,-454.42C578.08,-453.13 606.46,-451.7 631.94,-450.41"/>
<polygon fill="midnightblue" stroke="midnightblue" points="552.07,-450.93 542.26,-454.93 552.43,-457.92 552.07,-450.93"/>
</g>
<!-- Node19 -->
<g id="node20" class="node">
<title>Node19</title>
<g id="a_node20"><a xlink:href="interface_fifty_one_1_1_pipeline_1_1_engines_1_1_data_1_1_i_multi_profile_data.html" target="_top" xlink:title="Represents a specific type of IAspectData that contains multiple IAspectData instances.">
<polygon fill="none" stroke="black" points="634,-480.5 634,-510.5 787,-510.5 787,-480.5 634,-480.5"/>
<text text-anchor="start" x="642" y="-498.5" font-family="Helvetica,sans-Serif" font-size="10.00">FiftyOne.Pipeline.Engines.</text>
<text text-anchor="middle" x="710.5" y="-487.5" font-family="Helvetica,sans-Serif" font-size="10.00">Data.IMultiProfileData&lt; T &gt;</text>
</a>
</g>
</g>
<!-- Node16&#45;&gt;Node19 -->
<g id="edge24" class="edge">
<title>Node16&#45;&gt;Node19</title>
<path fill="none" stroke="midnightblue" d="M552.2,-471.05C578.53,-475.14 607.66,-479.67 633.62,-483.7"/>
<polygon fill="midnightblue" stroke="midnightblue" points="552.68,-467.58 542.26,-469.5 551.61,-474.5 552.68,-467.58"/>
</g>
<!-- Node17&#45;&gt;Node5 -->
<g id="edge20" class="edge">
<title>Node17&#45;&gt;Node5</title>
<path fill="none" stroke="midnightblue" d="M799.7,-530.09C819.5,-526.86 840.37,-523.45 859.73,-520.29"/>
<polygon fill="midnightblue" stroke="midnightblue" points="799.07,-526.65 789.77,-531.71 800.2,-533.56 799.07,-526.65"/>
</g>
<!-- Node18&#45;&gt;Node6 -->
<g id="edge22" class="edge">
<title>Node18&#45;&gt;Node6</title>
<path fill="none" stroke="midnightblue" d="M799.25,-436.81C819.43,-434.59 840.76,-432.23 860.47,-430.06"/>
<polygon fill="midnightblue" stroke="midnightblue" points="798.69,-433.36 789.13,-437.93 799.46,-440.31 798.69,-433.36"/>
</g>
<!-- Node20&#45;&gt;Node7 -->
<g id="edge26" class="edge">
<title>Node20&#45;&gt;Node7</title>
<path fill="none" stroke="midnightblue" d="M539.7,-391.67C546.91,-389.65 554.12,-387.57 561,-385.5 577.15,-380.65 580.75,-378 597,-373.5 609.73,-369.98 623.37,-366.61 636.61,-363.55"/>
<polygon fill="midnightblue" stroke="midnightblue" points="538.6,-388.34 529.9,-394.38 540.47,-395.09 538.6,-388.34"/>
</g>
<!-- Node21&#45;&gt;Node8 -->
<g id="edge28" class="edge">
<title>Node21&#45;&gt;Node8</title>
<path fill="none" stroke="midnightblue" d="M536.2,-342.63C544.56,-340.26 552.99,-337.84 561,-335.5 577.06,-330.8 580.82,-328.76 597,-324.5 610.16,-321.03 624.26,-317.65 637.88,-314.54"/>
<polygon fill="midnightblue" stroke="midnightblue" points="535.14,-339.29 526.46,-345.37 537.04,-346.03 535.14,-339.29"/>
</g>
<!-- Node22&#45;&gt;Node9 -->
<g id="edge30" class="edge">
<title>Node22&#45;&gt;Node9</title>
<path fill="none" stroke="midnightblue" d="M563.65,-283.3C574.88,-280.64 586.19,-277.99 597,-275.5 611.23,-272.22 626.5,-268.77 641.04,-265.53"/>
<polygon fill="midnightblue" stroke="midnightblue" points="562.74,-279.91 553.82,-285.62 564.35,-286.72 562.74,-279.91"/>
</g>
<!-- Node23&#45;&gt;Node10 -->
<g id="edge32" class="edge">
<title>Node23&#45;&gt;Node10</title>
<path fill="none" stroke="midnightblue" d="M554.62,-233.39C581.33,-227.89 610.7,-221.84 636.61,-216.51"/>
<polygon fill="midnightblue" stroke="midnightblue" points="553.61,-230.02 544.53,-235.47 555.03,-236.88 553.61,-230.02"/>
</g>
<!-- Node24&#45;&gt;Node11 -->
<g id="edge34" class="edge">
<title>Node24&#45;&gt;Node11</title>
<path fill="none" stroke="midnightblue" d="M571.35,-157.5C587.88,-157.5 604.91,-157.5 621.13,-157.5"/>
<polygon fill="midnightblue" stroke="midnightblue" points="571.14,-154 561.14,-157.5 571.14,-161 571.14,-154"/>
</g>
<!-- Node25&#45;&gt;Node12 -->
<g id="edge36" class="edge">
<title>Node25&#45;&gt;Node12</title>
<path fill="none" stroke="midnightblue" d="M552.41,-113.5C580.38,-113.5 611.49,-113.5 638.6,-113.5"/>
<polygon fill="midnightblue" stroke="midnightblue" points="552.26,-110 542.26,-113.5 552.26,-117 552.26,-110"/>
</g>
<!-- Node26&#45;&gt;Node13 -->
<g id="edge38" class="edge">
<title>Node26&#45;&gt;Node13</title>
<path fill="none" stroke="midnightblue" d="M343.83,-44.19C363.53,-39.69 384.58,-34.89 403.72,-30.52"/>
<polygon fill="midnightblue" stroke="midnightblue" points="342.95,-40.8 333.98,-46.44 344.51,-47.62 342.95,-40.8"/>
</g>
</g>
</svg>
