<?xml version="1.0" encoding="UTF-8" standalone="no"?>
<!DOCTYPE svg PUBLIC "-//W3C//DTD SVG 1.1//EN"
 "http://www.w3.org/Graphics/SVG/1.1/DTD/svg11.dtd">
<!-- Generated by graphviz version 2.43.0 (0)
 -->
<!-- Title: FiftyOne.Pipeline.Engines.FiftyOne.Data.IFiftyOneAspectPropertyMetaData Pages: 1 -->
<svg width="600pt" height="203pt"
 viewBox="0.00 0.00 600.00 203.00" xmlns="http://www.w3.org/2000/svg" xmlns:xlink="http://www.w3.org/1999/xlink">
<g id="graph0" class="graph" transform="scale(1 1) rotate(0) translate(4 199)">
<title>FiftyOne.Pipeline.Engines.FiftyOne.Data.IFiftyOneAspectPropertyMetaData</title>
<!-- Node7 -->
<g id="node1" class="node">
<title>Node7</title>
<g id="a_node1"><a xlink:title="51Degrees specific meta data.">
<polygon fill="#bfbfbf" stroke="black" points="388,-71.5 388,-112.5 592,-112.5 592,-71.5 388,-71.5"/>
<text text-anchor="start" x="396" y="-100.5" font-family="Helvetica,sans-Serif" font-size="10.00">FiftyOne.Pipeline.Engines.</text>
<text text-anchor="start" x="396" y="-89.5" font-family="Helvetica,sans-Serif" font-size="10.00">FiftyOne.Data.IFiftyOneAspectProperty</text>
<text text-anchor="middle" x="490" y="-78.5" font-family="Helvetica,sans-Serif" font-size="10.00">MetaData</text>
</a>
</g>
</g>
<!-- Node8 -->
<g id="node2" class="node">
<title>Node8</title>
<g id="a_node2"><a xlink:href="interface_fifty_one_1_1_pipeline_1_1_engines_1_1_data_1_1_i_aspect_property_meta_data.html" target="_top" xlink:title="Represents meta&#45;data relating to a property that is populated by an IAspectEngine instance.">
<polygon fill="none" stroke="black" points="197.5,-175.5 197.5,-194.5 339.5,-194.5 339.5,-175.5 197.5,-175.5"/>
<text text-anchor="middle" x="268.5" y="-182.5" font-family="Helvetica,sans-Serif" font-size="10.00">IAspectPropertyMetaData</text>
</a>
</g>
</g>
<!-- Node8&#45;&gt;Node7 -->
<g id="edge1" class="edge">
<title>Node8&#45;&gt;Node7</title>
<path fill="none" stroke="midnightblue" d="M327.42,-172.92C335.77,-170.62 344.18,-167.98 352,-165 389.15,-150.86 428.97,-128.78 456.05,-112.6"/>
<polygon fill="midnightblue" stroke="midnightblue" points="326.46,-169.56 317.67,-175.48 328.24,-176.33 326.46,-169.56"/>
</g>
<!-- Node9 -->
<g id="node3" class="node">
<title>Node9</title>
<g id="a_node3"><a xlink:href="interface_fifty_one_1_1_pipeline_1_1_core_1_1_data_1_1_i_element_property_meta_data.html" target="_top" xlink:title="Represents meta&#45;data relating to a property that is populated by a IFlowElement instance.">
<polygon fill="none" stroke="black" points="0,-175.5 0,-194.5 149,-194.5 149,-175.5 0,-175.5"/>
<text text-anchor="middle" x="74.5" y="-182.5" font-family="Helvetica,sans-Serif" font-size="10.00">IElementPropertyMetaData</text>
</a>
</g>
</g>
<!-- Node9&#45;&gt;Node8 -->
<g id="edge2" class="edge">
<title>Node9&#45;&gt;Node8</title>
<path fill="none" stroke="midnightblue" d="M159.32,-185C172.06,-185 185.08,-185 197.49,-185"/>
<polygon fill="midnightblue" stroke="midnightblue" points="159.18,-181.5 149.18,-185 159.18,-188.5 159.18,-181.5"/>
</g>
<!-- Node10 -->
<g id="node4" class="node">
<title>Node10</title>
<g id="a_node4"><a xlink:title=" ">
<polygon fill="none" stroke="#bfbfbf" points="190.5,-126 190.5,-156 346.5,-156 346.5,-126 190.5,-126"/>
<text text-anchor="start" x="198.5" y="-144" font-family="Helvetica,sans-Serif" font-size="10.00">IEquatable&lt; IFiftyOneAspect</text>
<text text-anchor="middle" x="268.5" y="-133" font-family="Helvetica,sans-Serif" font-size="10.00">PropertyMetaData &gt;</text>
</a>
</g>
</g>
<!-- Node10&#45;&gt;Node7 -->
<g id="edge3" class="edge">
<title>Node10&#45;&gt;Node7</title>
<path fill="none" stroke="midnightblue" d="M346.82,-123.74C363.09,-120.11 380.39,-116.25 397.13,-112.51"/>
<polygon fill="midnightblue" stroke="midnightblue" points="345.85,-120.37 336.85,-125.97 347.37,-127.2 345.85,-120.37"/>
</g>
<!-- Node11 -->
<g id="node5" class="node">
<title>Node11</title>
<g id="a_node5"><a xlink:title=" ">
<polygon fill="none" stroke="#bfbfbf" points="185,-77 185,-107 352,-107 352,-77 185,-77"/>
<text text-anchor="start" x="193" y="-95" font-family="Helvetica,sans-Serif" font-size="10.00">IComparable&lt; IFiftyOneAspect</text>
<text text-anchor="middle" x="268.5" y="-84" font-family="Helvetica,sans-Serif" font-size="10.00">PropertyMetaData &gt;</text>
</a>
</g>
</g>
<!-- Node11&#45;&gt;Node7 -->
<g id="edge4" class="edge">
<title>Node11&#45;&gt;Node7</title>
<path fill="none" stroke="midnightblue" d="M362.38,-92C370.82,-92 379.4,-92 387.9,-92"/>
<polygon fill="midnightblue" stroke="midnightblue" points="362.17,-88.5 352.17,-92 362.17,-95.5 362.17,-88.5"/>
</g>
<!-- Node12 -->
<g id="node6" class="node">
<title>Node12</title>
<g id="a_node6"><a xlink:title=" ">
<polygon fill="none" stroke="#bfbfbf" points="209,-38.5 209,-57.5 328,-57.5 328,-38.5 209,-38.5"/>
<text text-anchor="middle" x="268.5" y="-45.5" font-family="Helvetica,sans-Serif" font-size="10.00">IEquatable&lt; string &gt;</text>
</a>
</g>
</g>
<!-- Node12&#45;&gt;Node7 -->
<g id="edge5" class="edge">
<title>Node12&#45;&gt;Node7</title>
<path fill="none" stroke="midnightblue" d="M327.19,-59.56C345.81,-63.3 367.03,-67.55 387.84,-71.72"/>
<polygon fill="midnightblue" stroke="midnightblue" points="327.62,-56.08 317.13,-57.55 326.25,-62.94 327.62,-56.08"/>
</g>
<!-- Node13 -->
<g id="node7" class="node">
<title>Node13</title>
<g id="a_node7"><a xlink:title=" ">
<polygon fill="none" stroke="#bfbfbf" points="231.5,-0.5 231.5,-19.5 305.5,-19.5 305.5,-0.5 231.5,-0.5"/>
<text text-anchor="middle" x="268.5" y="-7.5" font-family="Helvetica,sans-Serif" font-size="10.00">IDisposable</text>
</a>
</g>
</g>
<!-- Node13&#45;&gt;Node7 -->
<g id="edge6" class="edge">
<title>Node13&#45;&gt;Node7</title>
<path fill="none" stroke="midnightblue" d="M315.53,-18.85C327.54,-21.63 340.37,-25.03 352,-29 386.07,-40.62 423.06,-57.93 450.01,-71.47"/>
<polygon fill="midnightblue" stroke="midnightblue" points="316.2,-15.41 305.68,-16.66 314.68,-22.25 316.2,-15.41"/>
</g>
</g>
</svg>
