<?xml version="1.0" encoding="UTF-8" standalone="no"?>
<!DOCTYPE svg PUBLIC "-//W3C//DTD SVG 1.1//EN"
 "http://www.w3.org/Graphics/SVG/1.1/DTD/svg11.dtd">
<!-- Generated by graphviz version 2.43.0 (0)
 -->
<!-- Title: FiftyOne.Pipeline.JavaScriptBuilder.Data.IJavaScriptBuilderElementData Pages: 1 -->
<svg width="235pt" height="229pt"
 viewBox="0.00 0.00 235.00 229.00" xmlns="http://www.w3.org/2000/svg" xmlns:xlink="http://www.w3.org/1999/xlink">
<g id="graph0" class="graph" transform="scale(1 1) rotate(0) translate(4 225)">
<title>FiftyOne.Pipeline.JavaScriptBuilder.Data.IJavaScriptBuilderElementData</title>
<!-- Node0 -->
<g id="node1" class="node">
<title>Node0</title>
<g id="a_node1"><a xlink:title="The IElementData interface for JavaScriptBuilderElement.">
<polygon fill="#bfbfbf" stroke="black" points="30.5,-67.5 30.5,-108.5 196.5,-108.5 196.5,-67.5 30.5,-67.5"/>
<text text-anchor="start" x="38.5" y="-96.5" font-family="Helvetica,sans-Serif" font-size="10.00">FiftyOne.Pipeline.JavaScript</text>
<text text-anchor="start" x="38.5" y="-85.5" font-family="Helvetica,sans-Serif" font-size="10.00">Builder.Data.IJavaScriptBuilder</text>
<text text-anchor="middle" x="113.5" y="-74.5" font-family="Helvetica,sans-Serif" font-size="10.00">ElementData</text>
</a>
</g>
</g>
<!-- Node3 -->
<g id="node4" class="node">
<title>Node3</title>
<g id="a_node4"><a xlink:href="class_fifty_one_1_1_pipeline_1_1_java_script_builder_1_1_data_1_1_java_script_builder_element_data.html" target="_top" xlink:title="The IElementData class for JavaScriptBuilderElement.">
<polygon fill="none" stroke="black" points="0,-0.5 0,-30.5 227,-30.5 227,-0.5 0,-0.5"/>
<text text-anchor="start" x="8" y="-18.5" font-family="Helvetica,sans-Serif" font-size="10.00">FiftyOne.Pipeline.JavaScript</text>
<text text-anchor="middle" x="113.5" y="-7.5" font-family="Helvetica,sans-Serif" font-size="10.00">Builder.Data.JavaScriptBuilderElementData</text>
</a>
</g>
</g>
<!-- Node0&#45;&gt;Node3 -->
<g id="edge3" class="edge">
<title>Node0&#45;&gt;Node3</title>
<path fill="none" stroke="midnightblue" d="M113.5,-57.08C113.5,-48.01 113.5,-38.45 113.5,-30.89"/>
<polygon fill="midnightblue" stroke="midnightblue" points="110,-57.36 113.5,-67.36 117,-57.36 110,-57.36"/>
</g>
<!-- Node1 -->
<g id="node2" class="node">
<title>Node1</title>
<g id="a_node2"><a xlink:href="interface_fifty_one_1_1_pipeline_1_1_core_1_1_data_1_1_i_element_data.html" target="_top" xlink:title="Represents property values that have been determined by a specific FlowElement based on the supplied ...">
<polygon fill="none" stroke="black" points="72,-145.5 72,-164.5 155,-164.5 155,-145.5 72,-145.5"/>
<text text-anchor="middle" x="113.5" y="-152.5" font-family="Helvetica,sans-Serif" font-size="10.00">IElementData</text>
</a>
</g>
</g>
<!-- Node1&#45;&gt;Node0 -->
<g id="edge1" class="edge">
<title>Node1&#45;&gt;Node0</title>
<path fill="none" stroke="midnightblue" d="M113.5,-135.04C113.5,-126.71 113.5,-116.94 113.5,-108.54"/>
<polygon fill="midnightblue" stroke="midnightblue" points="110,-135.23 113.5,-145.23 117,-135.23 110,-135.23"/>
</g>
<!-- Node2 -->
<g id="node3" class="node">
<title>Node2</title>
<g id="a_node3"><a xlink:href="interface_fifty_one_1_1_pipeline_1_1_core_1_1_data_1_1_i_data.html" target="_top" xlink:title="Represents property values">
<polygon fill="none" stroke="black" points="92,-201.5 92,-220.5 135,-220.5 135,-201.5 92,-201.5"/>
<text text-anchor="middle" x="113.5" y="-208.5" font-family="Helvetica,sans-Serif" font-size="10.00">IData</text>
</a>
</g>
</g>
<!-- Node2&#45;&gt;Node1 -->
<g id="edge2" class="edge">
<title>Node2&#45;&gt;Node1</title>
<path fill="none" stroke="midnightblue" d="M113.5,-190.8C113.5,-181.91 113.5,-171.78 113.5,-164.75"/>
<polygon fill="midnightblue" stroke="midnightblue" points="110,-191.08 113.5,-201.08 117,-191.08 110,-191.08"/>
</g>
</g>
</svg>
