<?xml version="1.0" encoding="UTF-8" standalone="no"?>
<!DOCTYPE svg PUBLIC "-//W3C//DTD SVG 1.1//EN"
 "http://www.w3.org/Graphics/SVG/1.1/DTD/svg11.dtd">
<!-- Generated by graphviz version 2.43.0 (0)
 -->
<!-- Title: FiftyOne.Pipeline.Engines.Trackers.ITracker Pages: 1 -->
<svg width="204pt" height="253pt"
 viewBox="0.00 0.00 204.00 253.00" xmlns="http://www.w3.org/2000/svg" xmlns:xlink="http://www.w3.org/1999/xlink">
<g id="graph0" class="graph" transform="scale(1 1) rotate(0) translate(4 249)">
<title>FiftyOne.Pipeline.Engines.Trackers.ITracker</title>
<!-- Node0 -->
<g id="node1" class="node">
<title>Node0</title>
<g id="a_node1"><a xlink:title=" ">
<polygon fill="#bfbfbf" stroke="black" points="26.5,-214.5 26.5,-244.5 169.5,-244.5 169.5,-214.5 26.5,-214.5"/>
<text text-anchor="start" x="34.5" y="-232.5" font-family="Helvetica,sans-Serif" font-size="10.00">FiftyOne.Pipeline.Engines.</text>
<text text-anchor="middle" x="98" y="-221.5" font-family="Helvetica,sans-Serif" font-size="10.00">Trackers.ITracker</text>
</a>
</g>
</g>
<!-- Node1 -->
<g id="node2" class="node">
<title>Node1</title>
<g id="a_node2"><a xlink:href="class_fifty_one_1_1_pipeline_1_1_engines_1_1_trackers_1_1_tracker_base.html" target="_top" xlink:title="The abstract base class for trackers.">
<polygon fill="none" stroke="black" points="11.5,-146.5 11.5,-176.5 184.5,-176.5 184.5,-146.5 11.5,-146.5"/>
<text text-anchor="start" x="19.5" y="-164.5" font-family="Helvetica,sans-Serif" font-size="10.00">FiftyOne.Pipeline.Engines.</text>
<text text-anchor="middle" x="98" y="-153.5" font-family="Helvetica,sans-Serif" font-size="10.00">Trackers.TrackerBase&lt; TValue &gt;</text>
</a>
</g>
</g>
<!-- Node0&#45;&gt;Node1 -->
<g id="edge1" class="edge">
<title>Node0&#45;&gt;Node1</title>
<path fill="none" stroke="midnightblue" d="M98,-204.03C98,-194.86 98,-184.74 98,-176.79"/>
<polygon fill="midnightblue" stroke="midnightblue" points="94.5,-204.18 98,-214.18 101.5,-204.18 94.5,-204.18"/>
</g>
<!-- Node2 -->
<g id="node3" class="node">
<title>Node2</title>
<g id="a_node3"><a xlink:href="class_fifty_one_1_1_pipeline_1_1_engines_1_1_trackers_1_1_tracker_base.html" target="_top" xlink:title=" ">
<polygon fill="none" stroke="black" points="2.5,-68.5 2.5,-98.5 193.5,-98.5 193.5,-68.5 2.5,-68.5"/>
<text text-anchor="start" x="10.5" y="-86.5" font-family="Helvetica,sans-Serif" font-size="10.00">FiftyOne.Pipeline.Engines.</text>
<text text-anchor="middle" x="98" y="-75.5" font-family="Helvetica,sans-Serif" font-size="10.00">Trackers.TrackerBase&lt; DateTime?&gt;</text>
</a>
</g>
</g>
<!-- Node1&#45;&gt;Node2 -->
<g id="edge2" class="edge">
<title>Node1&#45;&gt;Node2</title>
<path fill="none" stroke="orange" stroke-dasharray="5,2" d="M98,-136.09C98,-123.76 98,-109.22 98,-98.73"/>
<polygon fill="orange" stroke="orange" points="94.5,-136.2 98,-146.2 101.5,-136.21 94.5,-136.2"/>
<text text-anchor="middle" x="136" y="-120" font-family="Helvetica,sans-Serif" font-size="10.00"> &lt; DateTime?&gt;</text>
</g>
<!-- Node3 -->
<g id="node4" class="node">
<title>Node3</title>
<g id="a_node4"><a xlink:href="class_fifty_one_1_1_pipeline_1_1_engines_1_1_fifty_one_1_1_trackers_1_1_share_usage_tracker.html" target="_top" xlink:title="A tracker used by share usage to attempt to avoid repeatedly sending data relating to the same user s...">
<polygon fill="none" stroke="black" points="0,-0.5 0,-30.5 196,-30.5 196,-0.5 0,-0.5"/>
<text text-anchor="start" x="8" y="-18.5" font-family="Helvetica,sans-Serif" font-size="10.00">FiftyOne.Pipeline.Engines.</text>
<text text-anchor="middle" x="98" y="-7.5" font-family="Helvetica,sans-Serif" font-size="10.00">FiftyOne.Trackers.ShareUsageTracker</text>
</a>
</g>
</g>
<!-- Node2&#45;&gt;Node3 -->
<g id="edge3" class="edge">
<title>Node2&#45;&gt;Node3</title>
<path fill="none" stroke="midnightblue" d="M98,-58.03C98,-48.86 98,-38.74 98,-30.79"/>
<polygon fill="midnightblue" stroke="midnightblue" points="94.5,-58.18 98,-68.18 101.5,-58.18 94.5,-58.18"/>
</g>
</g>
</svg>
