<?xml version="1.0" encoding="UTF-8" standalone="no"?>
<!DOCTYPE svg PUBLIC "-//W3C//DTD SVG 1.1//EN"
 "http://www.w3.org/Graphics/SVG/1.1/DTD/svg11.dtd">
<!-- Generated by graphviz version 2.43.0 (0)
 -->
<!-- Title: FiftyOne.Pipeline.Engines.Data.IAspectPropertyMetaData Pages: 1 -->
<svg width="601pt" height="100pt"
 viewBox="0.00 0.00 601.00 99.50" xmlns="http://www.w3.org/2000/svg" xmlns:xlink="http://www.w3.org/1999/xlink">
<g id="graph0" class="graph" transform="scale(1 1) rotate(0) translate(4 95.5)">
<title>FiftyOne.Pipeline.Engines.Data.IAspectPropertyMetaData</title>
<!-- Node0 -->
<g id="node1" class="node">
<title>Node0</title>
<g id="a_node1"><a xlink:title="Represents meta&#45;data relating to a property that is populated by an IAspectEngine instance.">
<polygon fill="#bfbfbf" stroke="black" points="185,-33 185,-63 353,-63 353,-33 185,-33"/>
<text text-anchor="start" x="193" y="-51" font-family="Helvetica,sans-Serif" font-size="10.00">FiftyOne.Pipeline.Engines.</text>
<text text-anchor="middle" x="269" y="-40" font-family="Helvetica,sans-Serif" font-size="10.00">Data.IAspectPropertyMetaData</text>
</a>
</g>
</g>
<!-- Node2 -->
<g id="node3" class="node">
<title>Node2</title>
<g id="a_node3"><a xlink:href="class_fifty_one_1_1_pipeline_1_1_engines_1_1_data_1_1_aspect_property_meta_data.html" target="_top" xlink:title="Meta&#45;data relating to properties that are populated by Aspect Engines.">
<polygon fill="none" stroke="black" points="408.5,-61 408.5,-91 573.5,-91 573.5,-61 408.5,-61"/>
<text text-anchor="start" x="416.5" y="-79" font-family="Helvetica,sans-Serif" font-size="10.00">FiftyOne.Pipeline.Engines.</text>
<text text-anchor="middle" x="491" y="-68" font-family="Helvetica,sans-Serif" font-size="10.00">Data.AspectPropertyMetaData</text>
</a>
</g>
</g>
<!-- Node0&#45;&gt;Node2 -->
<g id="edge2" class="edge">
<title>Node0&#45;&gt;Node2</title>
<path fill="none" stroke="midnightblue" d="M363.4,-59.89C378.28,-61.78 393.58,-63.73 408.17,-65.59"/>
<polygon fill="midnightblue" stroke="midnightblue" points="363.53,-56.38 353.17,-58.59 362.65,-63.32 363.53,-56.38"/>
</g>
<!-- Node3 -->
<g id="node4" class="node">
<title>Node3</title>
<g id="a_node4"><a xlink:href="interface_fifty_one_1_1_pipeline_1_1_engines_1_1_fifty_one_1_1_data_1_1_i_fifty_one_aspect_property_meta_data.html" target="_top" xlink:title="51Degrees specific meta data.">
<polygon fill="none" stroke="black" points="389,-0.5 389,-41.5 593,-41.5 593,-0.5 389,-0.5"/>
<text text-anchor="start" x="397" y="-29.5" font-family="Helvetica,sans-Serif" font-size="10.00">FiftyOne.Pipeline.Engines.</text>
<text text-anchor="start" x="397" y="-18.5" font-family="Helvetica,sans-Serif" font-size="10.00">FiftyOne.Data.IFiftyOneAspectProperty</text>
<text text-anchor="middle" x="491" y="-7.5" font-family="Helvetica,sans-Serif" font-size="10.00">MetaData</text>
</a>
</g>
</g>
<!-- Node0&#45;&gt;Node3 -->
<g id="edge3" class="edge">
<title>Node0&#45;&gt;Node3</title>
<path fill="none" stroke="midnightblue" d="M363.12,-36.57C371.66,-35.52 380.33,-34.46 388.93,-33.4"/>
<polygon fill="midnightblue" stroke="midnightblue" points="362.67,-33.1 353.17,-37.79 363.52,-40.05 362.67,-33.1"/>
</g>
<!-- Node1 -->
<g id="node2" class="node">
<title>Node1</title>
<g id="a_node2"><a xlink:href="interface_fifty_one_1_1_pipeline_1_1_core_1_1_data_1_1_i_element_property_meta_data.html" target="_top" xlink:title="Represents meta&#45;data relating to a property that is populated by a IFlowElement instance.">
<polygon fill="none" stroke="black" points="0,-38.5 0,-57.5 149,-57.5 149,-38.5 0,-38.5"/>
<text text-anchor="middle" x="74.5" y="-45.5" font-family="Helvetica,sans-Serif" font-size="10.00">IElementPropertyMetaData</text>
</a>
</g>
</g>
<!-- Node1&#45;&gt;Node0 -->
<g id="edge1" class="edge">
<title>Node1&#45;&gt;Node0</title>
<path fill="none" stroke="midnightblue" d="M159.32,-48C167.78,-48 176.36,-48 184.8,-48"/>
<polygon fill="midnightblue" stroke="midnightblue" points="159.1,-44.5 149.1,-48 159.1,-51.5 159.1,-44.5"/>
</g>
</g>
</svg>
