<?xml version="1.0" encoding="UTF-8" standalone="no"?>
<!DOCTYPE svg PUBLIC "-//W3C//DTD SVG 1.1//EN"
 "http://www.w3.org/Graphics/SVG/1.1/DTD/svg11.dtd">
<!-- Generated by graphviz version 2.43.0 (0)
 -->
<!-- Title: FiftyOne.Pipeline.Core.Data.IElementData Pages: 1 -->
<svg width="915pt" height="531pt"
 viewBox="0.00 0.00 915.00 531.00" xmlns="http://www.w3.org/2000/svg" xmlns:xlink="http://www.w3.org/1999/xlink">
<g id="graph0" class="graph" transform="scale(1 1) rotate(0) translate(4 527)">
<title>FiftyOne.Pipeline.Core.Data.IElementData</title>
<!-- Node0 -->
<g id="node1" class="node">
<title>Node0</title>
<g id="a_node1"><a xlink:title="Represents property values that have been determined by a specific FlowElement based on the supplied ...">
<polygon fill="#bfbfbf" stroke="black" points="79,-198.5 79,-228.5 233,-228.5 233,-198.5 79,-198.5"/>
<text text-anchor="start" x="87" y="-216.5" font-family="Helvetica,sans-Serif" font-size="10.00">FiftyOne.Pipeline.Core.Data.</text>
<text text-anchor="middle" x="156" y="-205.5" font-family="Helvetica,sans-Serif" font-size="10.00">IElementData</text>
</a>
</g>
</g>
<!-- Node2 -->
<g id="node3" class="node">
<title>Node2</title>
<g id="a_node3"><a xlink:href="interface_examples_1_1_custom_flow_element_1_1_data_1_1_i_star_sign_data.html" target="_top" xlink:title=" ">
<polygon fill="none" stroke="black" points="273.5,-345.5 273.5,-375.5 445.5,-375.5 445.5,-345.5 273.5,-345.5"/>
<text text-anchor="start" x="281.5" y="-363.5" font-family="Helvetica,sans-Serif" font-size="10.00">Examples.CustomFlowElement.</text>
<text text-anchor="middle" x="359.5" y="-352.5" font-family="Helvetica,sans-Serif" font-size="10.00">Data.IStarSignData</text>
</a>
</g>
</g>
<!-- Node0&#45;&gt;Node2 -->
<g id="edge2" class="edge">
<title>Node0&#45;&gt;Node2</title>
<path fill="none" stroke="midnightblue" d="M172.05,-236.9C191.21,-264.81 226.94,-310.88 269,-336.5 274.63,-339.93 280.76,-342.88 287.07,-345.41"/>
<polygon fill="midnightblue" stroke="midnightblue" points="174.9,-234.88 166.42,-228.53 169.09,-238.78 174.9,-234.88"/>
</g>
<!-- Node4 -->
<g id="node5" class="node">
<title>Node4</title>
<g id="a_node5"><a xlink:href="class_fifty_one_1_1_pipeline_1_1_core_1_1_data_1_1_element_data_base.html" target="_top" xlink:title="This class stores property values that have been determined by a specific FlowElement based on the su...">
<polygon fill="none" stroke="black" points="282.5,-198.5 282.5,-228.5 436.5,-228.5 436.5,-198.5 282.5,-198.5"/>
<text text-anchor="start" x="290.5" y="-216.5" font-family="Helvetica,sans-Serif" font-size="10.00">FiftyOne.Pipeline.Core.Data.</text>
<text text-anchor="middle" x="359.5" y="-205.5" font-family="Helvetica,sans-Serif" font-size="10.00">ElementDataBase</text>
</a>
</g>
</g>
<!-- Node0&#45;&gt;Node4 -->
<g id="edge4" class="edge">
<title>Node0&#45;&gt;Node4</title>
<path fill="none" stroke="midnightblue" d="M243.44,-213.5C256.33,-213.5 269.55,-213.5 282.21,-213.5"/>
<polygon fill="midnightblue" stroke="midnightblue" points="243.18,-210 233.18,-213.5 243.18,-217 243.18,-210"/>
</g>
<!-- Node14 -->
<g id="node15" class="node">
<title>Node14</title>
<g id="a_node15"><a xlink:href="interface_fifty_one_1_1_pipeline_1_1_engines_1_1_data_1_1_i_aspect_data.html" target="_top" xlink:title="Represents an ElementData instance that is generated by an IAspectEngine.">
<polygon fill="none" stroke="black" points="288,-394.5 288,-424.5 431,-424.5 431,-394.5 288,-394.5"/>
<text text-anchor="start" x="296" y="-412.5" font-family="Helvetica,sans-Serif" font-size="10.00">FiftyOne.Pipeline.Engines.</text>
<text text-anchor="middle" x="359.5" y="-401.5" font-family="Helvetica,sans-Serif" font-size="10.00">Data.IAspectData</text>
</a>
</g>
</g>
<!-- Node0&#45;&gt;Node14 -->
<g id="edge15" class="edge">
<title>Node0&#45;&gt;Node14</title>
<path fill="none" stroke="midnightblue" d="M166.3,-238.25C181.74,-275.91 216.28,-347.24 269,-385.5 274.73,-389.66 281.13,-393.09 287.81,-395.94"/>
<polygon fill="midnightblue" stroke="midnightblue" points="169.4,-236.58 162.45,-228.58 162.9,-239.17 169.4,-236.58"/>
</g>
<!-- Node18 -->
<g id="node19" class="node">
<title>Node18</title>
<g id="a_node19"><a xlink:href="interface_fifty_one_1_1_pipeline_1_1_engines_1_1_fifty_one_1_1_data_1_1_i_set_headers_data.html" target="_top" xlink:title="The IElementData interface for SetHeadersElement.">
<polygon fill="none" stroke="black" points="275,-296.5 275,-326.5 444,-326.5 444,-296.5 275,-296.5"/>
<text text-anchor="start" x="283" y="-314.5" font-family="Helvetica,sans-Serif" font-size="10.00">FiftyOne.Pipeline.Engines.</text>
<text text-anchor="middle" x="359.5" y="-303.5" font-family="Helvetica,sans-Serif" font-size="10.00">FiftyOne.Data.ISetHeadersData</text>
</a>
</g>
</g>
<!-- Node0&#45;&gt;Node18 -->
<g id="edge22" class="edge">
<title>Node0&#45;&gt;Node18</title>
<path fill="none" stroke="midnightblue" d="M183.83,-234.83C205.67,-251.26 237.86,-273.48 269,-287.5 276.48,-290.87 284.53,-293.85 292.63,-296.46"/>
<polygon fill="midnightblue" stroke="midnightblue" points="185.78,-231.91 175.71,-228.62 181.53,-237.47 185.78,-231.91"/>
</g>
<!-- Node19 -->
<g id="node20" class="node">
<title>Node19</title>
<g id="a_node20"><a xlink:href="interface_fifty_one_1_1_pipeline_1_1_ip_splitter_1_1_i_split_ip_data.html" target="_top" xlink:title=" ">
<polygon fill="none" stroke="black" points="285,-247.5 285,-277.5 434,-277.5 434,-247.5 285,-247.5"/>
<text text-anchor="start" x="293" y="-265.5" font-family="Helvetica,sans-Serif" font-size="10.00">FiftyOne.Pipeline.IpSplitter.</text>
<text text-anchor="middle" x="359.5" y="-254.5" font-family="Helvetica,sans-Serif" font-size="10.00">ISplitIpData</text>
</a>
</g>
</g>
<!-- Node0&#45;&gt;Node19 -->
<g id="edge24" class="edge">
<title>Node0&#45;&gt;Node19</title>
<path fill="none" stroke="midnightblue" d="M228.57,-230.9C250.86,-236.32 275.24,-242.25 296.79,-247.49"/>
<polygon fill="midnightblue" stroke="midnightblue" points="229.37,-227.5 218.83,-228.53 227.72,-234.3 229.37,-227.5"/>
</g>
<!-- Node20 -->
<g id="node21" class="node">
<title>Node20</title>
<g id="a_node21"><a xlink:href="interface_fifty_one_1_1_pipeline_1_1_java_script_builder_1_1_data_1_1_i_java_script_builder_element_data.html" target="_top" xlink:title="The IElementData interface for JavaScriptBuilderElement.">
<polygon fill="none" stroke="black" points="276.5,-138 276.5,-179 442.5,-179 442.5,-138 276.5,-138"/>
<text text-anchor="start" x="284.5" y="-167" font-family="Helvetica,sans-Serif" font-size="10.00">FiftyOne.Pipeline.JavaScript</text>
<text text-anchor="start" x="284.5" y="-156" font-family="Helvetica,sans-Serif" font-size="10.00">Builder.Data.IJavaScriptBuilder</text>
<text text-anchor="middle" x="359.5" y="-145" font-family="Helvetica,sans-Serif" font-size="10.00">ElementData</text>
</a>
</g>
</g>
<!-- Node0&#45;&gt;Node20 -->
<g id="edge26" class="edge">
<title>Node0&#45;&gt;Node20</title>
<path fill="none" stroke="midnightblue" d="M221.77,-195.82C241.32,-190.49 262.94,-184.58 283.11,-179.08"/>
<polygon fill="midnightblue" stroke="midnightblue" points="220.79,-192.46 212.06,-198.47 222.63,-199.21 220.79,-192.46"/>
</g>
<!-- Node21 -->
<g id="node22" class="node">
<title>Node21</title>
<g id="a_node22"><a xlink:href="interface_fifty_one_1_1_pipeline_1_1_json_builder_1_1_data_1_1_i_json_builder_element_data.html" target="_top" xlink:title="The IElementData interface for JsonBuilderElement.">
<polygon fill="none" stroke="black" points="277.5,-88.5 277.5,-118.5 441.5,-118.5 441.5,-88.5 277.5,-88.5"/>
<text text-anchor="start" x="285.5" y="-106.5" font-family="Helvetica,sans-Serif" font-size="10.00">FiftyOne.Pipeline.JsonBuilder.</text>
<text text-anchor="middle" x="359.5" y="-95.5" font-family="Helvetica,sans-Serif" font-size="10.00">Data.IJsonBuilderElementData</text>
</a>
</g>
</g>
<!-- Node0&#45;&gt;Node21 -->
<g id="edge28" class="edge">
<title>Node0&#45;&gt;Node21</title>
<path fill="none" stroke="midnightblue" d="M180.39,-191.51C201.9,-172.37 235.46,-145.15 269,-128.5 276.66,-124.7 284.98,-121.4 293.37,-118.56"/>
<polygon fill="midnightblue" stroke="midnightblue" points="177.83,-189.11 172.76,-198.41 182.52,-194.3 177.83,-189.11"/>
</g>
<!-- Node22 -->
<g id="node23" class="node">
<title>Node22</title>
<g id="a_node23"><a xlink:href="interface_fifty_one_1_1_pipeline_1_1_math_1_1_i_math_data.html" target="_top" xlink:title=" ">
<polygon fill="none" stroke="black" points="269,-50 269,-69 450,-69 450,-50 269,-50"/>
<text text-anchor="middle" x="359.5" y="-57" font-family="Helvetica,sans-Serif" font-size="10.00">FiftyOne.Pipeline.Math.IMathData</text>
</a>
</g>
</g>
<!-- Node0&#45;&gt;Node22 -->
<g id="edge30" class="edge">
<title>Node0&#45;&gt;Node22</title>
<path fill="none" stroke="midnightblue" d="M170.15,-189.26C188.21,-158.43 223.65,-105.91 269,-78.5 275.39,-74.64 282.45,-71.55 289.72,-69.09"/>
<polygon fill="midnightblue" stroke="midnightblue" points="167.04,-187.66 165.12,-198.08 173.12,-191.13 167.04,-187.66"/>
</g>
<!-- Node23 -->
<g id="node24" class="node">
<title>Node23</title>
<g id="a_node24"><a xlink:href="interface_simple_client_side_element_1_1_data_1_1_i_star_sign_data.html" target="_top" xlink:title="[class]">
<polygon fill="none" stroke="black" points="288,-0.5 288,-30.5 431,-30.5 431,-0.5 288,-0.5"/>
<text text-anchor="start" x="296" y="-18.5" font-family="Helvetica,sans-Serif" font-size="10.00">SimpleClientSideElement.</text>
<text text-anchor="middle" x="359.5" y="-7.5" font-family="Helvetica,sans-Serif" font-size="10.00">Data.IStarSignData</text>
</a>
</g>
</g>
<!-- Node0&#45;&gt;Node23 -->
<g id="edge32" class="edge">
<title>Node0&#45;&gt;Node23</title>
<path fill="none" stroke="midnightblue" d="M166.31,-188.67C181.76,-150.89 216.31,-79.26 269,-40.5 274.72,-36.29 281.11,-32.79 287.79,-29.88"/>
<polygon fill="midnightblue" stroke="midnightblue" points="162.89,-187.79 162.46,-198.37 169.4,-190.37 162.89,-187.79"/>
</g>
<!-- Node1 -->
<g id="node2" class="node">
<title>Node1</title>
<g id="a_node2"><a xlink:href="interface_fifty_one_1_1_pipeline_1_1_core_1_1_data_1_1_i_data.html" target="_top" xlink:title="Represents property values">
<polygon fill="none" stroke="black" points="0,-204 0,-223 43,-223 43,-204 0,-204"/>
<text text-anchor="middle" x="21.5" y="-211" font-family="Helvetica,sans-Serif" font-size="10.00">IData</text>
</a>
</g>
</g>
<!-- Node1&#45;&gt;Node0 -->
<g id="edge1" class="edge">
<title>Node1&#45;&gt;Node0</title>
<path fill="none" stroke="midnightblue" d="M53.27,-213.5C61.13,-213.5 69.93,-213.5 78.98,-213.5"/>
<polygon fill="midnightblue" stroke="midnightblue" points="53.2,-210 43.2,-213.5 53.2,-217 53.2,-210"/>
</g>
<!-- Node3 -->
<g id="node4" class="node">
<title>Node3</title>
<g id="a_node4"><a xlink:href="class_examples_1_1_custom_flow_element_1_1_data_1_1_star_sign_data.html" target="_top" xlink:title="[class]">
<polygon fill="none" stroke="black" points="513.5,-296.5 513.5,-326.5 685.5,-326.5 685.5,-296.5 513.5,-296.5"/>
<text text-anchor="start" x="521.5" y="-314.5" font-family="Helvetica,sans-Serif" font-size="10.00">Examples.CustomFlowElement.</text>
<text text-anchor="middle" x="599.5" y="-303.5" font-family="Helvetica,sans-Serif" font-size="10.00">Data.StarSignData</text>
</a>
</g>
</g>
<!-- Node2&#45;&gt;Node3 -->
<g id="edge3" class="edge">
<title>Node2&#45;&gt;Node3</title>
<path fill="none" stroke="midnightblue" d="M443.62,-343.39C470.33,-337.89 499.7,-331.84 525.61,-326.51"/>
<polygon fill="midnightblue" stroke="midnightblue" points="442.61,-340.02 433.53,-345.47 444.03,-346.88 442.61,-340.02"/>
</g>
<!-- Node4&#45;&gt;Node3 -->
<g id="edge5" class="edge">
<title>Node4&#45;&gt;Node3</title>
<path fill="none" stroke="midnightblue" d="M442.89,-233.08C445.34,-234.46 447.72,-235.93 450,-237.5 472.53,-253.06 463.07,-272.53 486,-287.5 494.36,-292.96 503.75,-297.2 513.44,-300.49"/>
<polygon fill="midnightblue" stroke="midnightblue" points="444.24,-229.84 433.73,-228.51 441.12,-236.11 444.24,-229.84"/>
</g>
<!-- Node5 -->
<g id="node6" class="node">
<title>Node5</title>
<g id="a_node6"><a xlink:href="class_fifty_one_1_1_pipeline_1_1_engines_1_1_data_1_1_aspect_data_base.html" target="_top" xlink:title="Base class for element data instances that are generated by an IAspectEngine.">
<polygon fill="none" stroke="black" points="528,-345.5 528,-375.5 671,-375.5 671,-345.5 528,-345.5"/>
<text text-anchor="start" x="536" y="-363.5" font-family="Helvetica,sans-Serif" font-size="10.00">FiftyOne.Pipeline.Engines.</text>
<text text-anchor="middle" x="599.5" y="-352.5" font-family="Helvetica,sans-Serif" font-size="10.00">Data.AspectDataBase</text>
</a>
</g>
</g>
<!-- Node4&#45;&gt;Node5 -->
<g id="edge6" class="edge">
<title>Node4&#45;&gt;Node5</title>
<path fill="none" stroke="midnightblue" d="M445.26,-233.57C446.9,-234.81 448.49,-236.11 450,-237.5 484.51,-269.14 450.68,-305.77 486,-336.5 497.68,-346.66 512.59,-352.87 527.72,-356.59"/>
<polygon fill="midnightblue" stroke="midnightblue" points="446.89,-230.46 436.59,-228 443.11,-236.35 446.89,-230.46"/>
</g>
<!-- Node8 -->
<g id="node9" class="node">
<title>Node8</title>
<g id="a_node9"><a xlink:href="class_fifty_one_1_1_pipeline_1_1_engines_1_1_fifty_one_1_1_data_1_1_set_headers_data.html" target="_top" xlink:title="Element data instance for SetHeadersElement See the Specification">
<polygon fill="none" stroke="black" points="516.5,-247.5 516.5,-277.5 682.5,-277.5 682.5,-247.5 516.5,-247.5"/>
<text text-anchor="start" x="524.5" y="-265.5" font-family="Helvetica,sans-Serif" font-size="10.00">FiftyOne.Pipeline.Engines.</text>
<text text-anchor="middle" x="599.5" y="-254.5" font-family="Helvetica,sans-Serif" font-size="10.00">FiftyOne.Data.SetHeadersData</text>
</a>
</g>
</g>
<!-- Node4&#45;&gt;Node8 -->
<g id="edge9" class="edge">
<title>Node4&#45;&gt;Node8</title>
<path fill="none" stroke="midnightblue" d="M443.62,-230.61C470.33,-236.11 499.7,-242.16 525.61,-247.49"/>
<polygon fill="midnightblue" stroke="midnightblue" points="444.03,-227.12 433.53,-228.53 442.61,-233.98 444.03,-227.12"/>
</g>
<!-- Node9 -->
<g id="node10" class="node">
<title>Node9</title>
<g id="a_node10"><a xlink:href="class_fifty_one_1_1_pipeline_1_1_ip_splitter_1_1_split_ip_data.html" target="_top" xlink:title=" ">
<polygon fill="none" stroke="black" points="525,-198.5 525,-228.5 674,-228.5 674,-198.5 525,-198.5"/>
<text text-anchor="start" x="533" y="-216.5" font-family="Helvetica,sans-Serif" font-size="10.00">FiftyOne.Pipeline.IpSplitter.</text>
<text text-anchor="middle" x="599.5" y="-205.5" font-family="Helvetica,sans-Serif" font-size="10.00">SplitIpData</text>
</a>
</g>
</g>
<!-- Node4&#45;&gt;Node9 -->
<g id="edge10" class="edge">
<title>Node4&#45;&gt;Node9</title>
<path fill="none" stroke="midnightblue" d="M446.82,-213.5C472.34,-213.5 500.02,-213.5 524.67,-213.5"/>
<polygon fill="midnightblue" stroke="midnightblue" points="446.79,-210 436.79,-213.5 446.79,-217 446.79,-210"/>
</g>
<!-- Node10 -->
<g id="node11" class="node">
<title>Node10</title>
<g id="a_node11"><a xlink:href="class_fifty_one_1_1_pipeline_1_1_java_script_builder_1_1_data_1_1_java_script_builder_element_data.html" target="_top" xlink:title="The IElementData class for JavaScriptBuilderElement.">
<polygon fill="none" stroke="black" points="486,-146.5 486,-176.5 713,-176.5 713,-146.5 486,-146.5"/>
<text text-anchor="start" x="494" y="-164.5" font-family="Helvetica,sans-Serif" font-size="10.00">FiftyOne.Pipeline.JavaScript</text>
<text text-anchor="middle" x="599.5" y="-153.5" font-family="Helvetica,sans-Serif" font-size="10.00">Builder.Data.JavaScriptBuilderElementData</text>
</a>
</g>
</g>
<!-- Node4&#45;&gt;Node10 -->
<g id="edge11" class="edge">
<title>Node4&#45;&gt;Node10</title>
<path fill="none" stroke="midnightblue" d="M439.13,-196.32C468.44,-189.92 501.46,-182.7 529.82,-176.51"/>
<polygon fill="midnightblue" stroke="midnightblue" points="438.36,-192.91 429.34,-198.46 439.86,-199.74 438.36,-192.91"/>
</g>
<!-- Node11 -->
<g id="node12" class="node">
<title>Node11</title>
<g id="a_node12"><a xlink:href="class_fifty_one_1_1_pipeline_1_1_json_builder_1_1_data_1_1_json_builder_element_data.html" target="_top" xlink:title="JsonBuilderElement data class.">
<polygon fill="none" stroke="black" points="519,-96.5 519,-126.5 680,-126.5 680,-96.5 519,-96.5"/>
<text text-anchor="start" x="527" y="-114.5" font-family="Helvetica,sans-Serif" font-size="10.00">FiftyOne.Pipeline.JsonBuilder.</text>
<text text-anchor="middle" x="599.5" y="-103.5" font-family="Helvetica,sans-Serif" font-size="10.00">Data.JsonBuilderElementData</text>
</a>
</g>
</g>
<!-- Node4&#45;&gt;Node11 -->
<g id="edge12" class="edge">
<title>Node4&#45;&gt;Node11</title>
<path fill="none" stroke="midnightblue" d="M441.53,-193.83C444.47,-192.19 447.31,-190.42 450,-188.5 472.9,-172.19 462.67,-152.18 486,-136.5 495.88,-129.86 507.24,-124.95 518.87,-121.34"/>
<polygon fill="midnightblue" stroke="midnightblue" points="439.85,-190.75 432.45,-198.34 442.96,-197.02 439.85,-190.75"/>
</g>
<!-- Node12 -->
<g id="node13" class="node">
<title>Node12</title>
<g id="a_node13"><a xlink:href="class_fifty_one_1_1_pipeline_1_1_math_1_1_math_data.html" target="_top" xlink:title=" ">
<polygon fill="none" stroke="black" points="510.5,-57 510.5,-76 688.5,-76 688.5,-57 510.5,-57"/>
<text text-anchor="middle" x="599.5" y="-64" font-family="Helvetica,sans-Serif" font-size="10.00">FiftyOne.Pipeline.Math.MathData</text>
</a>
</g>
</g>
<!-- Node4&#45;&gt;Node12 -->
<g id="edge13" class="edge">
<title>Node4&#45;&gt;Node12</title>
<path fill="none" stroke="midnightblue" d="M444.72,-192.92C446.56,-191.54 448.32,-190.07 450,-188.5 485.11,-155.66 449.35,-117.61 486,-86.5 493.18,-80.4 501.58,-75.88 510.48,-72.56"/>
<polygon fill="midnightblue" stroke="midnightblue" points="442.73,-190.04 436.22,-198.4 446.52,-195.92 442.73,-190.04"/>
</g>
<!-- Node13 -->
<g id="node14" class="node">
<title>Node13</title>
<g id="a_node14"><a xlink:href="class_simple_client_side_element_1_1_data_1_1_star_sign_data.html" target="_top" xlink:title="[class]">
<polygon fill="none" stroke="black" points="528,-4.5 528,-34.5 671,-34.5 671,-4.5 528,-4.5"/>
<text text-anchor="start" x="536" y="-22.5" font-family="Helvetica,sans-Serif" font-size="10.00">SimpleClientSideElement.</text>
<text text-anchor="middle" x="599.5" y="-11.5" font-family="Helvetica,sans-Serif" font-size="10.00">Data.StarSignData</text>
</a>
</g>
</g>
<!-- Node4&#45;&gt;Node13 -->
<g id="edge14" class="edge">
<title>Node4&#45;&gt;Node13</title>
<path fill="none" stroke="midnightblue" d="M444.91,-193.11C446.69,-191.68 448.4,-190.14 450,-188.5 495.22,-142.26 440.13,-93.1 486,-47.5 497.35,-36.22 512.5,-29.25 527.99,-24.99"/>
<polygon fill="midnightblue" stroke="midnightblue" points="442.88,-190.26 436.61,-198.8 446.84,-196.03 442.88,-190.26"/>
</g>
<!-- Node6 -->
<g id="node7" class="node">
<title>Node6</title>
<g id="a_node7"><a xlink:href="class_examples_1_1_cloud_engine_1_1_data_1_1_star_sign_data.html" target="_top" xlink:title="[class]">
<polygon fill="none" stroke="black" points="749,-455.5 749,-485.5 907,-485.5 907,-455.5 749,-455.5"/>
<text text-anchor="start" x="757" y="-473.5" font-family="Helvetica,sans-Serif" font-size="10.00">Examples.CloudEngine.Data.</text>
<text text-anchor="middle" x="828" y="-462.5" font-family="Helvetica,sans-Serif" font-size="10.00">StarSignData</text>
</a>
</g>
</g>
<!-- Node5&#45;&gt;Node6 -->
<g id="edge7" class="edge">
<title>Node5&#45;&gt;Node6</title>
<path fill="none" stroke="midnightblue" d="M680.74,-373.94C691.83,-377.05 702.87,-380.86 713,-385.5 723.32,-390.23 777.7,-432.07 807.47,-455.23"/>
<polygon fill="midnightblue" stroke="midnightblue" points="681.57,-370.54 671.01,-371.38 679.79,-377.31 681.57,-370.54"/>
</g>
<!-- Node7 -->
<g id="node8" class="node">
<title>Node7</title>
<g id="a_node8"><a xlink:href="class_examples_1_1_on_premise_engine_1_1_data_1_1_star_sign_data.html" target="_top" xlink:title="[class]">
<polygon fill="none" stroke="black" points="749.5,-369.5 749.5,-399.5 906.5,-399.5 906.5,-369.5 749.5,-369.5"/>
<text text-anchor="start" x="757.5" y="-387.5" font-family="Helvetica,sans-Serif" font-size="10.00">Examples.OnPremiseEngine.</text>
<text text-anchor="middle" x="828" y="-376.5" font-family="Helvetica,sans-Serif" font-size="10.00">Data.StarSignData</text>
</a>
</g>
</g>
<!-- Node5&#45;&gt;Node7 -->
<g id="edge8" class="edge">
<title>Node5&#45;&gt;Node7</title>
<path fill="none" stroke="midnightblue" d="M681.27,-369.06C703.41,-371.4 727.36,-373.94 749.33,-376.27"/>
<polygon fill="midnightblue" stroke="midnightblue" points="681.55,-365.57 671.23,-368 680.81,-372.53 681.55,-365.57"/>
</g>
<!-- Node14&#45;&gt;Node5 -->
<g id="edge20" class="edge">
<title>Node14&#45;&gt;Node5</title>
<path fill="none" stroke="midnightblue" d="M441.41,-392.84C469.38,-387.08 500.49,-380.68 527.6,-375.1"/>
<polygon fill="midnightblue" stroke="midnightblue" points="440.35,-389.49 431.26,-394.93 441.76,-396.34 440.35,-389.49"/>
</g>
<!-- Node15 -->
<g id="node16" class="node">
<title>Node15</title>
<g id="a_node16"><a xlink:href="interface_examples_1_1_cloud_engine_1_1_data_1_1_i_star_sign_data.html" target="_top" xlink:title="[class]">
<polygon fill="none" stroke="black" points="520.5,-492.5 520.5,-522.5 678.5,-522.5 678.5,-492.5 520.5,-492.5"/>
<text text-anchor="start" x="528.5" y="-510.5" font-family="Helvetica,sans-Serif" font-size="10.00">Examples.CloudEngine.Data.</text>
<text text-anchor="middle" x="599.5" y="-499.5" font-family="Helvetica,sans-Serif" font-size="10.00">IStarSignData</text>
</a>
</g>
</g>
<!-- Node14&#45;&gt;Node15 -->
<g id="edge16" class="edge">
<title>Node14&#45;&gt;Node15</title>
<path fill="none" stroke="midnightblue" d="M389.67,-430.4C414.26,-447.08 450.95,-469.84 486,-483.5 496.89,-487.74 508.67,-491.3 520.38,-494.26"/>
<polygon fill="midnightblue" stroke="midnightblue" points="391.41,-427.34 381.19,-424.55 387.44,-433.11 391.41,-427.34"/>
</g>
<!-- Node16 -->
<g id="node17" class="node">
<title>Node16</title>
<g id="a_node17"><a xlink:href="interface_examples_1_1_on_premise_engine_1_1_data_1_1_i_star_sign_data.html" target="_top" xlink:title="[class]">
<polygon fill="none" stroke="black" points="521,-394.5 521,-424.5 678,-424.5 678,-394.5 521,-394.5"/>
<text text-anchor="start" x="529" y="-412.5" font-family="Helvetica,sans-Serif" font-size="10.00">Examples.OnPremiseEngine.</text>
<text text-anchor="middle" x="599.5" y="-401.5" font-family="Helvetica,sans-Serif" font-size="10.00">Data.IStarSignData</text>
</a>
</g>
</g>
<!-- Node14&#45;&gt;Node16 -->
<g id="edge18" class="edge">
<title>Node14&#45;&gt;Node16</title>
<path fill="none" stroke="midnightblue" d="M441.35,-409.5C467.08,-409.5 495.46,-409.5 520.94,-409.5"/>
<polygon fill="midnightblue" stroke="midnightblue" points="441.26,-406 431.26,-409.5 441.26,-413 441.26,-406"/>
</g>
<!-- Node17 -->
<g id="node18" class="node">
<title>Node17</title>
<g id="a_node18"><a xlink:href="interface_fifty_one_1_1_pipeline_1_1_engines_1_1_data_1_1_i_multi_profile_data.html" target="_top" xlink:title="Represents a specific type of IAspectData that contains multiple IAspectData instances.">
<polygon fill="none" stroke="black" points="523,-443.5 523,-473.5 676,-473.5 676,-443.5 523,-443.5"/>
<text text-anchor="start" x="531" y="-461.5" font-family="Helvetica,sans-Serif" font-size="10.00">FiftyOne.Pipeline.Engines.</text>
<text text-anchor="middle" x="599.5" y="-450.5" font-family="Helvetica,sans-Serif" font-size="10.00">Data.IMultiProfileData&lt; T &gt;</text>
</a>
</g>
</g>
<!-- Node14&#45;&gt;Node17 -->
<g id="edge21" class="edge">
<title>Node14&#45;&gt;Node17</title>
<path fill="none" stroke="midnightblue" d="M441.18,-426.11C468.5,-431.74 498.85,-437.98 525.53,-443.48"/>
<polygon fill="midnightblue" stroke="midnightblue" points="441.76,-422.66 431.26,-424.07 440.35,-429.51 441.76,-422.66"/>
</g>
<!-- Node15&#45;&gt;Node6 -->
<g id="edge17" class="edge">
<title>Node15&#45;&gt;Node6</title>
<path fill="none" stroke="midnightblue" d="M688.7,-493.09C708.5,-489.86 729.37,-486.45 748.73,-483.29"/>
<polygon fill="midnightblue" stroke="midnightblue" points="688.07,-489.65 678.77,-494.71 689.2,-496.56 688.07,-489.65"/>
</g>
<!-- Node16&#45;&gt;Node7 -->
<g id="edge19" class="edge">
<title>Node16&#45;&gt;Node7</title>
<path fill="none" stroke="midnightblue" d="M688.25,-399.81C708.43,-397.59 729.76,-395.23 749.47,-393.06"/>
<polygon fill="midnightblue" stroke="midnightblue" points="687.69,-396.36 678.13,-400.93 688.46,-403.31 687.69,-396.36"/>
</g>
<!-- Node18&#45;&gt;Node8 -->
<g id="edge23" class="edge">
<title>Node18&#45;&gt;Node8</title>
<path fill="none" stroke="midnightblue" d="M443.62,-294.39C470.33,-288.89 499.7,-282.84 525.61,-277.51"/>
<polygon fill="midnightblue" stroke="midnightblue" points="442.61,-291.02 433.53,-296.47 444.03,-297.88 442.61,-291.02"/>
</g>
<!-- Node19&#45;&gt;Node9 -->
<g id="edge25" class="edge">
<title>Node19&#45;&gt;Node9</title>
<path fill="none" stroke="midnightblue" d="M443.62,-245.39C470.33,-239.89 499.7,-233.84 525.61,-228.51"/>
<polygon fill="midnightblue" stroke="midnightblue" points="442.61,-242.02 433.53,-247.47 444.03,-248.88 442.61,-242.02"/>
</g>
<!-- Node20&#45;&gt;Node10 -->
<g id="edge27" class="edge">
<title>Node20&#45;&gt;Node10</title>
<path fill="none" stroke="midnightblue" d="M452.91,-159.66C463.63,-159.8 474.65,-159.94 485.61,-160.08"/>
<polygon fill="midnightblue" stroke="midnightblue" points="452.78,-156.16 442.74,-159.54 452.69,-163.16 452.78,-156.16"/>
</g>
<!-- Node21&#45;&gt;Node11 -->
<g id="edge29" class="edge">
<title>Node21&#45;&gt;Node11</title>
<path fill="none" stroke="midnightblue" d="M451.79,-106.57C473.88,-107.31 497.32,-108.1 518.83,-108.82"/>
<polygon fill="midnightblue" stroke="midnightblue" points="451.85,-103.07 441.74,-106.23 451.62,-110.06 451.85,-103.07"/>
</g>
<!-- Node22&#45;&gt;Node12 -->
<g id="edge31" class="edge">
<title>Node22&#45;&gt;Node12</title>
<path fill="none" stroke="midnightblue" d="M460.35,-62.44C476.88,-62.92 493.91,-63.42 510.13,-63.9"/>
<polygon fill="midnightblue" stroke="midnightblue" points="460.24,-58.93 450.14,-62.14 460.03,-65.93 460.24,-58.93"/>
</g>
<!-- Node23&#45;&gt;Node13 -->
<g id="edge33" class="edge">
<title>Node23&#45;&gt;Node13</title>
<path fill="none" stroke="midnightblue" d="M441.41,-16.86C469.38,-17.33 500.49,-17.85 527.6,-18.31"/>
<polygon fill="midnightblue" stroke="midnightblue" points="441.32,-13.36 431.26,-16.69 441.2,-20.36 441.32,-13.36"/>
</g>
</g>
</svg>
