<?xml version="1.0" encoding="UTF-8" standalone="no"?>
<!DOCTYPE svg PUBLIC "-//W3C//DTD SVG 1.1//EN"
 "http://www.w3.org/Graphics/SVG/1.1/DTD/svg11.dtd">
<!-- Generated by graphviz version 2.43.0 (0)
 -->
<!-- Title: FiftyOne.Pipeline.Engines.FiftyOne.FlowElements.IFiftyOneAspectEngine Pages: 1 -->
<svg width="184pt" height="162pt"
 viewBox="0.00 0.00 184.00 162.00" xmlns="http://www.w3.org/2000/svg" xmlns:xlink="http://www.w3.org/1999/xlink">
<g id="graph0" class="graph" transform="scale(1 1) rotate(0) translate(4 158)">
<title>FiftyOne.Pipeline.Engines.FiftyOne.FlowElements.IFiftyOneAspectEngine</title>
<!-- Node4 -->
<g id="node1" class="node">
<title>Node4</title>
<g id="a_node1"><a xlink:title="51Degrees specific Engine interface.">
<polygon fill="#bfbfbf" stroke="black" points="0,-0.5 0,-41.5 176,-41.5 176,-0.5 0,-0.5"/>
<text text-anchor="start" x="8" y="-29.5" font-family="Helvetica,sans-Serif" font-size="10.00">FiftyOne.Pipeline.Engines.</text>
<text text-anchor="start" x="8" y="-18.5" font-family="Helvetica,sans-Serif" font-size="10.00">FiftyOne.FlowElements.IFiftyOne</text>
<text text-anchor="middle" x="88" y="-7.5" font-family="Helvetica,sans-Serif" font-size="10.00">AspectEngine</text>
</a>
</g>
</g>
<!-- Node5 -->
<g id="node2" class="node">
<title>Node5</title>
<g id="a_node2"><a xlink:href="interface_fifty_one_1_1_pipeline_1_1_engines_1_1_flow_elements_1_1_i_on_premise_aspect_engine.html" target="_top" xlink:title="Interface for an AspectEngine that processes evidence using one or more local data files.">
<polygon fill="none" stroke="black" points="18.5,-78.5 18.5,-97.5 157.5,-97.5 157.5,-78.5 18.5,-78.5"/>
<text text-anchor="middle" x="88" y="-85.5" font-family="Helvetica,sans-Serif" font-size="10.00">IOnPremiseAspectEngine</text>
</a>
</g>
</g>
<!-- Node5&#45;&gt;Node4 -->
<g id="edge1" class="edge">
<title>Node5&#45;&gt;Node4</title>
<path fill="none" stroke="midnightblue" d="M88,-68.04C88,-59.71 88,-49.94 88,-41.54"/>
<polygon fill="midnightblue" stroke="midnightblue" points="84.5,-68.23 88,-78.23 91.5,-68.23 84.5,-68.23"/>
</g>
<!-- Node6 -->
<g id="node3" class="node">
<title>Node6</title>
<g id="a_node3"><a xlink:href="interface_fifty_one_1_1_pipeline_1_1_engines_1_1_flow_elements_1_1_i_aspect_engine.html" target="_top" xlink:title="Interface representing 51Degrees on&#45;premise aspect engines.">
<polygon fill="none" stroke="black" points="45,-134.5 45,-153.5 131,-153.5 131,-134.5 45,-134.5"/>
<text text-anchor="middle" x="88" y="-141.5" font-family="Helvetica,sans-Serif" font-size="10.00">IAspectEngine</text>
</a>
</g>
</g>
<!-- Node6&#45;&gt;Node5 -->
<g id="edge2" class="edge">
<title>Node6&#45;&gt;Node5</title>
<path fill="none" stroke="midnightblue" d="M88,-123.8C88,-114.91 88,-104.78 88,-97.75"/>
<polygon fill="midnightblue" stroke="midnightblue" points="84.5,-124.08 88,-134.08 91.5,-124.08 84.5,-124.08"/>
</g>
</g>
</svg>
