<?xml version="1.0" encoding="UTF-8" standalone="no"?>
<!DOCTYPE svg PUBLIC "-//W3C//DTD SVG 1.1//EN"
 "http://www.w3.org/Graphics/SVG/1.1/DTD/svg11.dtd">
<!-- Generated by graphviz version 2.43.0 (0)
 -->
<!-- Title: FiftyOne.Pipeline.Engines.Caching.IDataKeyedCache&lt; TValue &gt; Pages: 1 -->
<svg width="1458pt" height="165pt"
 viewBox="0.00 0.00 1458.00 165.00" xmlns="http://www.w3.org/2000/svg" xmlns:xlink="http://www.w3.org/1999/xlink">
<g id="graph0" class="graph" transform="scale(1 1) rotate(0) translate(4 161)">
<title>FiftyOne.Pipeline.Engines.Caching.IDataKeyedCache&lt; TValue &gt;</title>
<!-- Node0 -->
<g id="node1" class="node">
<title>Node0</title>
<g id="a_node1"><a xlink:title="Represents a put cache where the key is a IFlowData instance.">
<polygon fill="#bfbfbf" stroke="black" points="166,-30.5 166,-71.5 311,-71.5 311,-30.5 166,-30.5"/>
<text text-anchor="start" x="174" y="-59.5" font-family="Helvetica,sans-Serif" font-size="10.00">FiftyOne.Pipeline.Engines.</text>
<text text-anchor="start" x="174" y="-48.5" font-family="Helvetica,sans-Serif" font-size="10.00">Caching.IDataKeyedCache</text>
<text text-anchor="middle" x="238.5" y="-37.5" font-family="Helvetica,sans-Serif" font-size="10.00">&lt; TValue &gt;</text>
</a>
</g>
</g>
<!-- Node2 -->
<g id="node3" class="node">
<title>Node2</title>
<g id="a_node3"><a xlink:href="class_fifty_one_1_1_pipeline_1_1_engines_1_1_caching_1_1_data_keyed_cache_base.html" target="_top" xlink:title="Abstract base class for caches that use IFlowData as the key.">
<polygon fill="none" stroke="black" points="440,-60.5 440,-101.5 619,-101.5 619,-60.5 440,-60.5"/>
<text text-anchor="start" x="448" y="-89.5" font-family="Helvetica,sans-Serif" font-size="10.00">FiftyOne::Pipeline</text>
<text text-anchor="start" x="448" y="-78.5" font-family="Helvetica,sans-Serif" font-size="10.00">::Engines::Caching::</text>
<text text-anchor="middle" x="529.5" y="-67.5" font-family="Helvetica,sans-Serif" font-size="10.00">DataKeyedCacheBase&lt; TValue &gt;</text>
</a>
</g>
</g>
<!-- Node0&#45;&gt;Node2 -->
<g id="edge2" class="edge">
<title>Node0&#45;&gt;Node2</title>
<path fill="none" stroke="midnightblue" d="M321.53,-59.52C358.43,-63.35 402.07,-67.88 439.74,-71.79"/>
<polygon fill="midnightblue" stroke="midnightblue" points="321.62,-56.01 311.31,-58.45 320.89,-62.97 321.62,-56.01"/>
</g>
<!-- Node8 -->
<g id="node9" class="node">
<title>Node8</title>
<g id="a_node9"><a xlink:href="interface_fifty_one_1_1_pipeline_1_1_engines_1_1_caching_1_1_i_data_keyed_cache.html" target="_top" xlink:title=" ">
<polygon fill="none" stroke="black" points="457,-0.5 457,-41.5 602,-41.5 602,-0.5 457,-0.5"/>
<text text-anchor="start" x="465" y="-29.5" font-family="Helvetica,sans-Serif" font-size="10.00">FiftyOne.Pipeline.Engines.</text>
<text text-anchor="start" x="465" y="-18.5" font-family="Helvetica,sans-Serif" font-size="10.00">Caching.IDataKeyedCache</text>
<text text-anchor="middle" x="529.5" y="-7.5" font-family="Helvetica,sans-Serif" font-size="10.00">&lt; IElementData &gt;</text>
</a>
</g>
</g>
<!-- Node0&#45;&gt;Node8 -->
<g id="edge8" class="edge">
<title>Node0&#45;&gt;Node8</title>
<path fill="none" stroke="orange" stroke-dasharray="5,2" d="M321.39,-42.5C364.05,-38.07 415.74,-32.71 456.81,-28.44"/>
<polygon fill="orange" stroke="orange" points="320.89,-39.03 311.31,-43.55 321.62,-45.99 320.89,-39.03"/>
<text text-anchor="middle" x="375.5" y="-45" font-family="Helvetica,sans-Serif" font-size="10.00"> &lt; IElementData &gt;</text>
</g>
<!-- Node1 -->
<g id="node2" class="node">
<title>Node1</title>
<g id="a_node2"><a xlink:title=" ">
<polygon fill="none" stroke="#bfbfbf" points="0,-36 0,-66 129,-66 129,-36 0,-36"/>
<text text-anchor="start" x="8" y="-54" font-family="Helvetica,sans-Serif" font-size="10.00">IPutCache&lt; IFlowData,</text>
<text text-anchor="middle" x="64.5" y="-43" font-family="Helvetica,sans-Serif" font-size="10.00"> TValue &gt;</text>
</a>
</g>
</g>
<!-- Node1&#45;&gt;Node0 -->
<g id="edge1" class="edge">
<title>Node1&#45;&gt;Node0</title>
<path fill="none" stroke="midnightblue" d="M139.28,-51C148.07,-51 157.03,-51 165.8,-51"/>
<polygon fill="midnightblue" stroke="midnightblue" points="139.06,-47.5 129.06,-51 139.06,-54.5 139.06,-47.5"/>
</g>
<!-- Node3 -->
<g id="node4" class="node">
<title>Node3</title>
<g id="a_node4"><a xlink:href="class_fifty_one_1_1_pipeline_1_1_engines_1_1_trackers_1_1_tracker_base.html" target="_top" xlink:title="The abstract base class for trackers.">
<polygon fill="none" stroke="black" points="762.5,-115.5 762.5,-156.5 899.5,-156.5 899.5,-115.5 762.5,-115.5"/>
<text text-anchor="start" x="770.5" y="-144.5" font-family="Helvetica,sans-Serif" font-size="10.00">FiftyOne::Pipeline</text>
<text text-anchor="start" x="770.5" y="-133.5" font-family="Helvetica,sans-Serif" font-size="10.00">::Engines::Trackers</text>
<text text-anchor="middle" x="831" y="-122.5" font-family="Helvetica,sans-Serif" font-size="10.00">::TrackerBase&lt; TValue &gt;</text>
</a>
</g>
</g>
<!-- Node2&#45;&gt;Node3 -->
<g id="edge3" class="edge">
<title>Node2&#45;&gt;Node3</title>
<path fill="none" stroke="midnightblue" d="M629.19,-99.12C672.72,-107.12 722.79,-116.31 762.04,-123.52"/>
<polygon fill="midnightblue" stroke="midnightblue" points="629.61,-95.64 619.14,-97.28 628.35,-102.53 629.61,-95.64"/>
</g>
<!-- Node6 -->
<g id="node7" class="node">
<title>Node6</title>
<g id="a_node7"><a xlink:href="class_fifty_one_1_1_pipeline_1_1_engines_1_1_caching_1_1_data_keyed_cache_base.html" target="_top" xlink:title=" ">
<polygon fill="none" stroke="black" points="748,-55.5 748,-96.5 914,-96.5 914,-55.5 748,-55.5"/>
<text text-anchor="start" x="756" y="-84.5" font-family="Helvetica,sans-Serif" font-size="10.00">FiftyOne.Pipeline.Engines.</text>
<text text-anchor="start" x="756" y="-73.5" font-family="Helvetica,sans-Serif" font-size="10.00">Caching.DataKeyedCacheBase</text>
<text text-anchor="middle" x="831" y="-62.5" font-family="Helvetica,sans-Serif" font-size="10.00">&lt; IElementData &gt;</text>
</a>
</g>
</g>
<!-- Node2&#45;&gt;Node6 -->
<g id="edge6" class="edge">
<title>Node2&#45;&gt;Node6</title>
<path fill="none" stroke="orange" stroke-dasharray="5,2" d="M629.32,-79.35C667.77,-78.71 711.31,-77.98 747.98,-77.37"/>
<polygon fill="orange" stroke="orange" points="629.08,-75.85 619.14,-79.52 629.2,-82.85 629.08,-75.85"/>
<text text-anchor="middle" x="683.5" y="-83" font-family="Helvetica,sans-Serif" font-size="10.00"> &lt; IElementData &gt;</text>
</g>
<!-- Node4 -->
<g id="node5" class="node">
<title>Node4</title>
<g id="a_node5"><a xlink:href="class_fifty_one_1_1_pipeline_1_1_engines_1_1_trackers_1_1_tracker_base.html" target="_top" xlink:title=" ">
<polygon fill="none" stroke="black" points="1026,-121 1026,-151 1217,-151 1217,-121 1026,-121"/>
<text text-anchor="start" x="1034" y="-139" font-family="Helvetica,sans-Serif" font-size="10.00">FiftyOne.Pipeline.Engines.</text>
<text text-anchor="middle" x="1121.5" y="-128" font-family="Helvetica,sans-Serif" font-size="10.00">Trackers.TrackerBase&lt; DateTime?&gt;</text>
</a>
</g>
</g>
<!-- Node3&#45;&gt;Node4 -->
<g id="edge4" class="edge">
<title>Node3&#45;&gt;Node4</title>
<path fill="none" stroke="orange" stroke-dasharray="5,2" d="M910.01,-136C945.75,-136 988.43,-136 1025.98,-136"/>
<polygon fill="orange" stroke="orange" points="909.64,-132.5 899.64,-136 909.64,-139.5 909.64,-132.5"/>
<text text-anchor="middle" x="970" y="-139" font-family="Helvetica,sans-Serif" font-size="10.00"> &lt; DateTime?&gt;</text>
</g>
<!-- Node5 -->
<g id="node6" class="node">
<title>Node5</title>
<g id="a_node6"><a xlink:href="class_fifty_one_1_1_pipeline_1_1_engines_1_1_fifty_one_1_1_trackers_1_1_share_usage_tracker.html" target="_top" xlink:title="A tracker used by share usage to attempt to avoid repeatedly sending data relating to the same user s...">
<polygon fill="none" stroke="black" points="1254,-121 1254,-151 1450,-151 1450,-121 1254,-121"/>
<text text-anchor="start" x="1262" y="-139" font-family="Helvetica,sans-Serif" font-size="10.00">FiftyOne.Pipeline.Engines.</text>
<text text-anchor="middle" x="1352" y="-128" font-family="Helvetica,sans-Serif" font-size="10.00">FiftyOne.Trackers.ShareUsageTracker</text>
</a>
</g>
</g>
<!-- Node4&#45;&gt;Node5 -->
<g id="edge5" class="edge">
<title>Node4&#45;&gt;Node5</title>
<path fill="none" stroke="midnightblue" d="M1227.12,-136C1236.04,-136 1245.04,-136 1253.9,-136"/>
<polygon fill="midnightblue" stroke="midnightblue" points="1227.09,-132.5 1217.09,-136 1227.09,-139.5 1227.09,-132.5"/>
</g>
<!-- Node7 -->
<g id="node8" class="node">
<title>Node7</title>
<g id="a_node8"><a xlink:href="class_fifty_one_1_1_pipeline_1_1_engines_1_1_caching_1_1_default_flow_cache.html" target="_top" xlink:title="The default &#39;flow cache&#39; implementation.">
<polygon fill="none" stroke="black" points="1047.5,-30 1047.5,-60 1195.5,-60 1195.5,-30 1047.5,-30"/>
<text text-anchor="start" x="1055.5" y="-48" font-family="Helvetica,sans-Serif" font-size="10.00">FiftyOne.Pipeline.Engines.</text>
<text text-anchor="middle" x="1121.5" y="-37" font-family="Helvetica,sans-Serif" font-size="10.00">Caching.DefaultFlowCache</text>
</a>
</g>
</g>
<!-- Node6&#45;&gt;Node7 -->
<g id="edge7" class="edge">
<title>Node6&#45;&gt;Node7</title>
<path fill="none" stroke="midnightblue" d="M924.27,-66.09C964.1,-61.81 1010.04,-56.87 1047.45,-52.85"/>
<polygon fill="midnightblue" stroke="midnightblue" points="923.86,-62.61 914.29,-67.16 924.6,-69.57 923.86,-62.61"/>
</g>
<!-- Node9 -->
<g id="node10" class="node">
<title>Node9</title>
<g id="a_node10"><a xlink:href="interface_fifty_one_1_1_pipeline_1_1_engines_1_1_caching_1_1_i_flow_cache.html" target="_top" xlink:title="Represents a &#39;flow cache&#39; See the Specification">
<polygon fill="none" stroke="black" points="759.5,-6 759.5,-36 902.5,-36 902.5,-6 759.5,-6"/>
<text text-anchor="start" x="767.5" y="-24" font-family="Helvetica,sans-Serif" font-size="10.00">FiftyOne.Pipeline.Engines.</text>
<text text-anchor="middle" x="831" y="-13" font-family="Helvetica,sans-Serif" font-size="10.00">Caching.IFlowCache</text>
</a>
</g>
</g>
<!-- Node8&#45;&gt;Node9 -->
<g id="edge9" class="edge">
<title>Node8&#45;&gt;Node9</title>
<path fill="none" stroke="midnightblue" d="M612.48,-21C658.5,-21 715.33,-21 759.36,-21"/>
<polygon fill="midnightblue" stroke="midnightblue" points="612.24,-17.5 602.24,-21 612.24,-24.5 612.24,-17.5"/>
</g>
<!-- Node9&#45;&gt;Node7 -->
<g id="edge10" class="edge">
<title>Node9&#45;&gt;Node7</title>
<path fill="none" stroke="midnightblue" d="M912.56,-27.7C954.84,-31.22 1006.26,-35.5 1047.39,-38.92"/>
<polygon fill="midnightblue" stroke="midnightblue" points="912.83,-24.21 902.58,-26.87 912.25,-31.19 912.83,-24.21"/>
</g>
</g>
</svg>
