<?xml version="1.0" encoding="UTF-8" standalone="no"?>
<!DOCTYPE svg PUBLIC "-//W3C//DTD SVG 1.1//EN"
 "http://www.w3.org/Graphics/SVG/1.1/DTD/svg11.dtd">
<!-- Generated by graphviz version 2.43.0 (0)
 -->
<!-- Title: FiftyOne.Pipeline.Core.Data.IEvidenceKeyFilter Pages: 1 -->
<svg width="580pt" height="122pt"
 viewBox="0.00 0.00 580.00 121.50" xmlns="http://www.w3.org/2000/svg" xmlns:xlink="http://www.w3.org/1999/xlink">
<g id="graph0" class="graph" transform="scale(1 1) rotate(0) translate(4 117.5)">
<title>FiftyOne.Pipeline.Core.Data.IEvidenceKeyFilter</title>
<!-- Node0 -->
<g id="node1" class="node">
<title>Node0</title>
<g id="a_node1"><a xlink:title="Represents an object that filters evidence key names based on some criteria.">
<polygon fill="#bfbfbf" stroke="black" points="0,-61 0,-91 154,-91 154,-61 0,-61"/>
<text text-anchor="start" x="8" y="-79" font-family="Helvetica,sans-Serif" font-size="10.00">FiftyOne.Pipeline.Core.Data.</text>
<text text-anchor="middle" x="77" y="-68" font-family="Helvetica,sans-Serif" font-size="10.00">IEvidenceKeyFilter</text>
</a>
</g>
</g>
<!-- Node1 -->
<g id="node2" class="node">
<title>Node1</title>
<g id="a_node2"><a xlink:href="class_fifty_one_1_1_pipeline_1_1_core_1_1_data_1_1_evidence_key_filter_aggregator.html" target="_top" xlink:title="This implementation of IEvidenceKeyFilter aggregates multiple other filters using a logical OR approa...">
<polygon fill="none" stroke="black" points="406.5,-83 406.5,-113 564.5,-113 564.5,-83 406.5,-83"/>
<text text-anchor="start" x="414.5" y="-101" font-family="Helvetica,sans-Serif" font-size="10.00">FiftyOne.Pipeline.Core.Data.</text>
<text text-anchor="middle" x="485.5" y="-90" font-family="Helvetica,sans-Serif" font-size="10.00">EvidenceKeyFilterAggregator</text>
</a>
</g>
</g>
<!-- Node0&#45;&gt;Node1 -->
<g id="edge1" class="edge">
<title>Node0&#45;&gt;Node1</title>
<path fill="none" stroke="midnightblue" d="M144.19,-93.29C159.15,-96.5 175.04,-99.35 190,-101 263.06,-109.05 346.93,-107.12 406.43,-103.87"/>
<polygon fill="midnightblue" stroke="midnightblue" points="144.52,-89.78 134,-91.03 143,-96.61 144.52,-89.78"/>
</g>
<!-- Node2 -->
<g id="node3" class="node">
<title>Node2</title>
<g id="a_node3"><a xlink:href="class_fifty_one_1_1_pipeline_1_1_core_1_1_data_1_1_evidence_key_filter_whitelist.html" target="_top" xlink:title="This evidence filter will only include keys that are in a list that is specified at construction time...">
<polygon fill="none" stroke="black" points="199.5,-61 199.5,-91 353.5,-91 353.5,-61 199.5,-61"/>
<text text-anchor="start" x="207.5" y="-79" font-family="Helvetica,sans-Serif" font-size="10.00">FiftyOne.Pipeline.Core.Data.</text>
<text text-anchor="middle" x="276.5" y="-68" font-family="Helvetica,sans-Serif" font-size="10.00">EvidenceKeyFilterWhitelist</text>
</a>
</g>
</g>
<!-- Node0&#45;&gt;Node2 -->
<g id="edge2" class="edge">
<title>Node0&#45;&gt;Node2</title>
<path fill="none" stroke="midnightblue" d="M164.29,-76C176,-76 187.95,-76 199.46,-76"/>
<polygon fill="midnightblue" stroke="midnightblue" points="164.08,-72.5 154.08,-76 164.08,-79.5 164.08,-72.5"/>
</g>
<!-- Node3 -->
<g id="node4" class="node">
<title>Node3</title>
<g id="a_node4"><a xlink:href="class_fifty_one_1_1_pipeline_1_1_engines_1_1_fifty_one_1_1_data_1_1_evidence_key_filter_share_usage.html" target="_top" xlink:title="This filter is used by the ShareUsageElement.">
<polygon fill="none" stroke="black" points="190,-0.5 190,-41.5 363,-41.5 363,-0.5 190,-0.5"/>
<text text-anchor="start" x="198" y="-29.5" font-family="Helvetica,sans-Serif" font-size="10.00">FiftyOne.Pipeline.Engines.</text>
<text text-anchor="start" x="198" y="-18.5" font-family="Helvetica,sans-Serif" font-size="10.00">FiftyOne.Data.EvidenceKeyFilter</text>
<text text-anchor="middle" x="276.5" y="-7.5" font-family="Helvetica,sans-Serif" font-size="10.00">ShareUsage</text>
</a>
</g>
</g>
<!-- Node0&#45;&gt;Node3 -->
<g id="edge4" class="edge">
<title>Node0&#45;&gt;Node3</title>
<path fill="none" stroke="midnightblue" d="M141.75,-58.25C160.83,-52.93 181.93,-47.06 201.61,-41.58"/>
<polygon fill="midnightblue" stroke="midnightblue" points="140.66,-54.92 131.97,-60.97 142.54,-61.66 140.66,-54.92"/>
</g>
<!-- Node2&#45;&gt;Node1 -->
<g id="edge3" class="edge">
<title>Node2&#45;&gt;Node1</title>
<path fill="none" stroke="midnightblue" d="M363.87,-85.18C377.97,-86.68 392.5,-88.22 406.38,-89.7"/>
<polygon fill="midnightblue" stroke="midnightblue" points="364.01,-81.67 353.7,-84.1 363.27,-88.64 364.01,-81.67"/>
</g>
<!-- Node4 -->
<g id="node5" class="node">
<title>Node4</title>
<g id="a_node5"><a xlink:href="class_fifty_one_1_1_pipeline_1_1_engines_1_1_fifty_one_1_1_data_1_1_evidence_key_filter_share_usage_tracker.html" target="_top" xlink:title="Wrapper for EvidenceKeyFilter for Share Usage, to be used with the ShareUsageTracker to exclude speci...">
<polygon fill="none" stroke="black" points="399,-0.5 399,-41.5 572,-41.5 572,-0.5 399,-0.5"/>
<text text-anchor="start" x="407" y="-29.5" font-family="Helvetica,sans-Serif" font-size="10.00">FiftyOne.Pipeline.Engines.</text>
<text text-anchor="start" x="407" y="-18.5" font-family="Helvetica,sans-Serif" font-size="10.00">FiftyOne.Data.EvidenceKeyFilter</text>
<text text-anchor="middle" x="485.5" y="-7.5" font-family="Helvetica,sans-Serif" font-size="10.00">ShareUsageTracker</text>
</a>
</g>
</g>
<!-- Node3&#45;&gt;Node4 -->
<g id="edge5" class="edge">
<title>Node3&#45;&gt;Node4</title>
<path fill="none" stroke="midnightblue" d="M373.2,-21C381.76,-21 390.4,-21 398.88,-21"/>
<polygon fill="midnightblue" stroke="midnightblue" points="373.19,-17.5 363.19,-21 373.19,-24.5 373.19,-17.5"/>
</g>
</g>
</svg>
