<?xml version="1.0" encoding="UTF-8" standalone="no"?>
<!DOCTYPE svg PUBLIC "-//W3C//DTD SVG 1.1//EN"
 "http://www.w3.org/Graphics/SVG/1.1/DTD/svg11.dtd">
<!-- Generated by graphviz version 2.43.0 (0)
 -->
<!-- Title: FiftyOne.Pipeline.Engines.FiftyOne.FlowElements.ISetHeadersElement Pages: 1 -->
<svg width="252pt" height="207pt"
 viewBox="0.00 0.00 251.50 207.00" xmlns="http://www.w3.org/2000/svg" xmlns:xlink="http://www.w3.org/1999/xlink">
<g id="graph0" class="graph" transform="scale(1 1) rotate(0) translate(4 203)">
<title>FiftyOne.Pipeline.Engines.FiftyOne.FlowElements.ISetHeadersElement</title>
<!-- Node4 -->
<g id="node1" class="node">
<title>Node4</title>
<g id="a_node1"><a xlink:title="An IFlowElement that collates responses from all engines that want to set headers in the HTTP respons...">
<polygon fill="#bfbfbf" stroke="black" points="0,-0.5 0,-41.5 191,-41.5 191,-0.5 0,-0.5"/>
<text text-anchor="start" x="8" y="-29.5" font-family="Helvetica,sans-Serif" font-size="10.00">FiftyOne.Pipeline.Engines.</text>
<text text-anchor="start" x="8" y="-18.5" font-family="Helvetica,sans-Serif" font-size="10.00">FiftyOne.FlowElements.ISetHeaders</text>
<text text-anchor="middle" x="95.5" y="-7.5" font-family="Helvetica,sans-Serif" font-size="10.00">Element</text>
</a>
</g>
</g>
<!-- Node5 -->
<g id="node2" class="node">
<title>Node5</title>
<g id="a_node2"><a xlink:href="interface_fifty_one_1_1_pipeline_1_1_core_1_1_flow_elements_1_1_i_flow_element.html" target="_top" xlink:title=" ">
<polygon fill="none" stroke="black" points="0.5,-79.5 0.5,-109.5 190.5,-109.5 190.5,-79.5 0.5,-79.5"/>
<text text-anchor="start" x="8.5" y="-97.5" font-family="Helvetica,sans-Serif" font-size="10.00">IFlowElement&lt; ISetHeaders</text>
<text text-anchor="middle" x="95.5" y="-86.5" font-family="Helvetica,sans-Serif" font-size="10.00">Data, IElementPropertyMetaData &gt;</text>
</a>
</g>
</g>
<!-- Node5&#45;&gt;Node4 -->
<g id="edge1" class="edge">
<title>Node5&#45;&gt;Node4</title>
<path fill="none" stroke="midnightblue" d="M95.5,-69.1C95.5,-60.1 95.5,-50.02 95.5,-41.51"/>
<polygon fill="midnightblue" stroke="midnightblue" points="92,-69.37 95.5,-79.37 99,-69.37 92,-69.37"/>
</g>
<!-- Node6 -->
<g id="node3" class="node">
<title>Node6</title>
<g id="a_node3"><a xlink:href="interface_fifty_one_1_1_pipeline_1_1_core_1_1_flow_elements_1_1_i_flow_element.html" target="_top" xlink:title="IFlowElement is the basic building block of a pipeline.">
<polygon fill="none" stroke="black" points="20,-168.5 20,-198.5 171,-198.5 171,-168.5 20,-168.5"/>
<text text-anchor="start" x="28" y="-186.5" font-family="Helvetica,sans-Serif" font-size="10.00">FiftyOne.Pipeline.Core.Flow</text>
<text text-anchor="middle" x="95.5" y="-175.5" font-family="Helvetica,sans-Serif" font-size="10.00">Elements.IFlowElement</text>
</a>
</g>
</g>
<!-- Node6&#45;&gt;Node5 -->
<g id="edge2" class="edge">
<title>Node6&#45;&gt;Node5</title>
<path fill="none" stroke="orange" stroke-dasharray="5,2" d="M95.5,-158.09C95.5,-142.44 95.5,-122.68 95.5,-109.6"/>
<polygon fill="orange" stroke="orange" points="92,-158.13 95.5,-168.13 99,-158.13 92,-158.13"/>
<text text-anchor="start" x="95.5" y="-142" font-family="Helvetica,sans-Serif" font-size="10.00"> &lt; ISetHeadersData,</text>
<text text-anchor="middle" x="169.5" y="-131" font-family="Helvetica,sans-Serif" font-size="10.00"> IElementPropertyMetaData &gt;</text>
</g>
</g>
</svg>
