<?xml version="1.0" encoding="UTF-8" standalone="no"?>
<!DOCTYPE svg PUBLIC "-//W3C//DTD SVG 1.1//EN"
 "http://www.w3.org/Graphics/SVG/1.1/DTD/svg11.dtd">
<!-- Generated by graphviz version 2.43.0 (0)
 -->
<!-- Title: FiftyOne.Pipeline.Engines.FiftyOne.Data.IValueMetaData Pages: 1 -->
<svg width="467pt" height="95pt"
 viewBox="0.00 0.00 466.50 95.00" xmlns="http://www.w3.org/2000/svg" xmlns:xlink="http://www.w3.org/1999/xlink">
<g id="graph0" class="graph" transform="scale(1 1) rotate(0) translate(4 91)">
<title>FiftyOne.Pipeline.Engines.FiftyOne.Data.IValueMetaData</title>
<!-- Node0 -->
<g id="node1" class="node">
<title>Node0</title>
<g id="a_node1"><a xlink:title="Meta data relating to a specific value within a data set.">
<polygon fill="#bfbfbf" stroke="black" points="194.5,-0.5 194.5,-30.5 358.5,-30.5 358.5,-0.5 194.5,-0.5"/>
<text text-anchor="start" x="202.5" y="-18.5" font-family="Helvetica,sans-Serif" font-size="10.00">FiftyOne.Pipeline.Engines.</text>
<text text-anchor="middle" x="276.5" y="-7.5" font-family="Helvetica,sans-Serif" font-size="10.00">FiftyOne.Data.IValueMetaData</text>
</a>
</g>
</g>
<!-- Node1 -->
<g id="node2" class="node">
<title>Node1</title>
<g id="a_node2"><a xlink:title=" ">
<polygon fill="none" stroke="#bfbfbf" points="0,-67.5 0,-86.5 169,-86.5 169,-67.5 0,-67.5"/>
<text text-anchor="middle" x="84.5" y="-74.5" font-family="Helvetica,sans-Serif" font-size="10.00">IEquatable&lt; IValueMetaData &gt;</text>
</a>
</g>
</g>
<!-- Node1&#45;&gt;Node0 -->
<g id="edge1" class="edge">
<title>Node1&#45;&gt;Node0</title>
<path fill="none" stroke="midnightblue" d="M121.66,-64.48C152.97,-54.78 197.86,-40.87 231.25,-30.52"/>
<polygon fill="midnightblue" stroke="midnightblue" points="120.52,-61.17 112.01,-67.48 122.6,-67.86 120.52,-61.17"/>
</g>
<!-- Node2 -->
<g id="node3" class="node">
<title>Node2</title>
<g id="a_node3"><a xlink:title=" ">
<polygon fill="none" stroke="#bfbfbf" points="187,-67.5 187,-86.5 366,-86.5 366,-67.5 187,-67.5"/>
<text text-anchor="middle" x="276.5" y="-74.5" font-family="Helvetica,sans-Serif" font-size="10.00">IComparable&lt; IValueMetaData &gt;</text>
</a>
</g>
</g>
<!-- Node2&#45;&gt;Node0 -->
<g id="edge2" class="edge">
<title>Node2&#45;&gt;Node0</title>
<path fill="none" stroke="midnightblue" d="M276.5,-57.23C276.5,-48.59 276.5,-38.5 276.5,-30.52"/>
<polygon fill="midnightblue" stroke="midnightblue" points="273,-57.48 276.5,-67.48 280,-57.48 273,-57.48"/>
</g>
<!-- Node3 -->
<g id="node4" class="node">
<title>Node3</title>
<g id="a_node4"><a xlink:title=" ">
<polygon fill="none" stroke="#bfbfbf" points="384.5,-67.5 384.5,-86.5 458.5,-86.5 458.5,-67.5 384.5,-67.5"/>
<text text-anchor="middle" x="421.5" y="-74.5" font-family="Helvetica,sans-Serif" font-size="10.00">IDisposable</text>
</a>
</g>
</g>
<!-- Node3&#45;&gt;Node0 -->
<g id="edge3" class="edge">
<title>Node3&#45;&gt;Node0</title>
<path fill="none" stroke="midnightblue" d="M391.26,-63.59C367.75,-53.94 335.13,-40.56 310.67,-30.52"/>
<polygon fill="midnightblue" stroke="midnightblue" points="390.14,-66.92 400.73,-67.48 392.8,-60.44 390.14,-66.92"/>
</g>
</g>
</svg>
