<?xml version="1.0" encoding="UTF-8" standalone="no"?>
<!DOCTYPE svg PUBLIC "-//W3C//DTD SVG 1.1//EN"
 "http://www.w3.org/Graphics/SVG/1.1/DTD/svg11.dtd">
<!-- Generated by graphviz version 2.43.0 (0)
 -->
<!-- Title: FiftyOne.Pipeline.Engines.FlowElements.IAspectEngine Pages: 1 -->
<svg width="1378pt" height="238pt"
 viewBox="0.00 0.00 1378.00 238.00" xmlns="http://www.w3.org/2000/svg" xmlns:xlink="http://www.w3.org/1999/xlink">
<g id="graph0" class="graph" transform="scale(1 1) rotate(0) translate(4 234)">
<title>FiftyOne.Pipeline.Engines.FlowElements.IAspectEngine</title>
<!-- Node0 -->
<g id="node1" class="node">
<title>Node0</title>
<g id="a_node1"><a xlink:title="Interface representing 51Degrees on&#45;premise aspect engines.">
<polygon fill="#bfbfbf" stroke="black" points="0,-156 0,-186 158,-186 158,-156 0,-156"/>
<text text-anchor="start" x="8" y="-174" font-family="Helvetica,sans-Serif" font-size="10.00">FiftyOne.Pipeline.Engines.</text>
<text text-anchor="middle" x="79" y="-163" font-family="Helvetica,sans-Serif" font-size="10.00">FlowElements.IAspectEngine</text>
</a>
</g>
</g>
<!-- Node1 -->
<g id="node2" class="node">
<title>Node1</title>
<g id="a_node2"><a xlink:href="interface_fifty_one_1_1_pipeline_1_1_engines_1_1_flow_elements_1_1_i_aspect_engine.html" target="_top" xlink:title="Interface representing 51Degrees on&#45;premise aspect engines.">
<polygon fill="none" stroke="black" points="221.5,-188.5 221.5,-229.5 379.5,-229.5 379.5,-188.5 221.5,-188.5"/>
<text text-anchor="start" x="229.5" y="-217.5" font-family="Helvetica,sans-Serif" font-size="10.00">FiftyOne.Pipeline.Engines.</text>
<text text-anchor="start" x="229.5" y="-206.5" font-family="Helvetica,sans-Serif" font-size="10.00">FlowElements.IAspectEngine</text>
<text text-anchor="middle" x="300.5" y="-195.5" font-family="Helvetica,sans-Serif" font-size="10.00">&lt; T, TMeta &gt;</text>
</a>
</g>
</g>
<!-- Node0&#45;&gt;Node1 -->
<g id="edge1" class="edge">
<title>Node0&#45;&gt;Node1</title>
<path fill="none" stroke="midnightblue" d="M168.25,-179.64C185.83,-182.49 204.17,-185.72 221.38,-188.98"/>
<polygon fill="midnightblue" stroke="midnightblue" points="168.43,-176.13 158.01,-178.01 167.33,-183.04 168.43,-176.13"/>
</g>
<!-- Node0&#45;&gt;Node1 -->
<g id="edge11" class="edge">
<title>Node0&#45;&gt;Node1</title>
<path fill="none" stroke="midnightblue" d="M142.74,-188.03C167.22,-192.91 195.56,-197.93 221.35,-201.96"/>
<polygon fill="midnightblue" stroke="midnightblue" points="143.35,-184.58 132.86,-186.02 141.96,-191.44 143.35,-184.58"/>
</g>
<!-- Node2 -->
<g id="node3" class="node">
<title>Node2</title>
<g id="a_node3"><a xlink:href="interface_fifty_one_1_1_pipeline_1_1_engines_1_1_flow_elements_1_1_i_cloud_aspect_engine.html" target="_top" xlink:title="An interface for aspect engines that process responses from a cloud service.">
<polygon fill="none" stroke="black" points="208,-139 208,-169 393,-169 393,-139 208,-139"/>
<text text-anchor="start" x="216" y="-157" font-family="Helvetica,sans-Serif" font-size="10.00">FiftyOne.Pipeline.Engines.</text>
<text text-anchor="middle" x="300.5" y="-146" font-family="Helvetica,sans-Serif" font-size="10.00">FlowElements.ICloudAspectEngine</text>
</a>
</g>
</g>
<!-- Node0&#45;&gt;Node2 -->
<g id="edge2" class="edge">
<title>Node0&#45;&gt;Node2</title>
<path fill="none" stroke="midnightblue" d="M168.34,-164.16C181.36,-163.15 194.79,-162.11 207.87,-161.1"/>
<polygon fill="midnightblue" stroke="midnightblue" points="167.71,-160.7 158.01,-164.96 168.25,-167.68 167.71,-160.7"/>
</g>
<!-- Node3 -->
<g id="node4" class="node">
<title>Node3</title>
<g id="a_node4"><a xlink:href="interface_fifty_one_1_1_pipeline_1_1_engines_1_1_flow_elements_1_1_i_on_premise_aspect_engine.html" target="_top" xlink:title="Interface for an AspectEngine that processes evidence using one or more local data files.">
<polygon fill="none" stroke="black" points="195,-90 195,-120 406,-120 406,-90 195,-90"/>
<text text-anchor="start" x="203" y="-108" font-family="Helvetica,sans-Serif" font-size="10.00">FiftyOne.Pipeline.Engines.</text>
<text text-anchor="middle" x="300.5" y="-97" font-family="Helvetica,sans-Serif" font-size="10.00">FlowElements.IOnPremiseAspectEngine</text>
</a>
</g>
</g>
<!-- Node0&#45;&gt;Node3 -->
<g id="edge3" class="edge">
<title>Node0&#45;&gt;Node3</title>
<path fill="none" stroke="midnightblue" d="M128.19,-152.52C148.63,-145.02 172.81,-136.59 195,-130 206.89,-126.47 219.66,-123.09 232.04,-120.01"/>
<polygon fill="midnightblue" stroke="midnightblue" points="126.94,-149.25 118.78,-156 129.37,-155.81 126.94,-149.25"/>
</g>
<!-- Node4 -->
<g id="node5" class="node">
<title>Node4</title>
<g id="a_node5"><a xlink:href="interface_fifty_one_1_1_pipeline_1_1_engines_1_1_fifty_one_1_1_flow_elements_1_1_i_fifty_one_aspect_engine.html" target="_top" xlink:title="51Degrees specific Engine interface.">
<polygon fill="none" stroke="black" points="669,-109.5 669,-150.5 845,-150.5 845,-109.5 669,-109.5"/>
<text text-anchor="start" x="677" y="-138.5" font-family="Helvetica,sans-Serif" font-size="10.00">FiftyOne.Pipeline.Engines.</text>
<text text-anchor="start" x="677" y="-127.5" font-family="Helvetica,sans-Serif" font-size="10.00">FiftyOne.FlowElements.IFiftyOne</text>
<text text-anchor="middle" x="757" y="-116.5" font-family="Helvetica,sans-Serif" font-size="10.00">AspectEngine</text>
</a>
</g>
</g>
<!-- Node3&#45;&gt;Node4 -->
<g id="edge4" class="edge">
<title>Node3&#45;&gt;Node4</title>
<path fill="none" stroke="midnightblue" d="M416.47,-111.32C494.85,-115.64 597.03,-121.26 668.75,-125.2"/>
<polygon fill="midnightblue" stroke="midnightblue" points="416.23,-107.81 406.06,-110.75 415.85,-114.8 416.23,-107.81"/>
</g>
<!-- Node6 -->
<g id="node7" class="node">
<title>Node6</title>
<g id="a_node7"><a xlink:href="class_fifty_one_1_1_pipeline_1_1_engines_1_1_flow_elements_1_1_on_premise_aspect_engine_base.html" target="_top" xlink:title="Base class for 51Degrees on&#45;premise aspect engines.">
<polygon fill="none" stroke="black" points="443,-60.5 443,-101.5 651,-101.5 651,-60.5 443,-60.5"/>
<text text-anchor="start" x="451" y="-89.5" font-family="Helvetica,sans-Serif" font-size="10.00">FiftyOne.Pipeline.Engines.</text>
<text text-anchor="start" x="451" y="-78.5" font-family="Helvetica,sans-Serif" font-size="10.00">FlowElements.OnPremiseAspectEngine</text>
<text text-anchor="middle" x="547" y="-67.5" font-family="Helvetica,sans-Serif" font-size="10.00">Base&lt; T, TMeta &gt;</text>
</a>
</g>
</g>
<!-- Node3&#45;&gt;Node6 -->
<g id="edge6" class="edge">
<title>Node3&#45;&gt;Node6</title>
<path fill="none" stroke="midnightblue" d="M416.47,-93.71C425.2,-92.86 433.98,-92 442.63,-91.15"/>
<polygon fill="midnightblue" stroke="midnightblue" points="415.86,-90.26 406.25,-94.72 416.55,-97.22 415.86,-90.26"/>
</g>
<!-- Node5 -->
<g id="node6" class="node">
<title>Node5</title>
<g id="a_node6"><a xlink:href="class_fifty_one_1_1_pipeline_1_1_engines_1_1_fifty_one_1_1_flow_elements_1_1_fifty_one_on_premise_aspect_engine_base.html" target="_top" xlink:title="51Degrees specific Engine base class.">
<polygon fill="none" stroke="black" points="1171.5,-85.5 1171.5,-126.5 1359.5,-126.5 1359.5,-85.5 1171.5,-85.5"/>
<text text-anchor="start" x="1179.5" y="-114.5" font-family="Helvetica,sans-Serif" font-size="10.00">FiftyOne.Pipeline.Engines.</text>
<text text-anchor="start" x="1179.5" y="-103.5" font-family="Helvetica,sans-Serif" font-size="10.00">FiftyOne.FlowElements.FiftyOne</text>
<text text-anchor="middle" x="1265.5" y="-92.5" font-family="Helvetica,sans-Serif" font-size="10.00">OnPremiseAspectEngineBase&lt; T &gt;</text>
</a>
</g>
</g>
<!-- Node4&#45;&gt;Node5 -->
<g id="edge5" class="edge">
<title>Node4&#45;&gt;Node5</title>
<path fill="none" stroke="midnightblue" d="M855.12,-125.4C946.21,-121.08 1081.48,-114.67 1171.28,-110.42"/>
<polygon fill="midnightblue" stroke="midnightblue" points="854.89,-121.9 845.07,-125.87 855.22,-128.9 854.89,-121.9"/>
</g>
<!-- Node7 -->
<g id="node8" class="node">
<title>Node7</title>
<g id="a_node8"><a xlink:href="class_fifty_one_1_1_pipeline_1_1_engines_1_1_flow_elements_1_1_on_premise_aspect_engine_base.html" target="_top" xlink:title=" ">
<polygon fill="none" stroke="black" points="863,-0.5 863,-41.5 1124,-41.5 1124,-0.5 863,-0.5"/>
<text text-anchor="start" x="871" y="-29.5" font-family="Helvetica,sans-Serif" font-size="10.00">FiftyOne.Pipeline.Engines.</text>
<text text-anchor="start" x="871" y="-18.5" font-family="Helvetica,sans-Serif" font-size="10.00">FlowElements.OnPremiseAspectEngine</text>
<text text-anchor="middle" x="993.5" y="-7.5" font-family="Helvetica,sans-Serif" font-size="10.00">Base&lt; IStarSignData, IAspectPropertyMetaData &gt;</text>
</a>
</g>
</g>
<!-- Node6&#45;&gt;Node7 -->
<g id="edge7" class="edge">
<title>Node6&#45;&gt;Node7</title>
<path fill="none" stroke="orange" stroke-dasharray="5,2" d="M636.67,-58.25C647.51,-55.91 658.48,-53.76 669,-52 732.44,-41.41 803.53,-34.11 862.88,-29.26"/>
<polygon fill="orange" stroke="orange" points="635.76,-54.87 626.76,-60.45 637.28,-61.7 635.76,-54.87"/>
<text text-anchor="start" x="695" y="-66" font-family="Helvetica,sans-Serif" font-size="10.00"> &lt; IStarSignData, IAspect</text>
<text text-anchor="middle" x="757" y="-55" font-family="Helvetica,sans-Serif" font-size="10.00">PropertyMetaData &gt;</text>
</g>
<!-- Node9 -->
<g id="node10" class="node">
<title>Node9</title>
<g id="a_node10"><a xlink:href="class_fifty_one_1_1_pipeline_1_1_engines_1_1_flow_elements_1_1_on_premise_aspect_engine_base.html" target="_top" xlink:title=" ">
<polygon fill="none" stroke="black" points="873,-60.5 873,-101.5 1114,-101.5 1114,-60.5 873,-60.5"/>
<text text-anchor="start" x="881" y="-89.5" font-family="Helvetica,sans-Serif" font-size="10.00">FiftyOne.Pipeline.Engines.</text>
<text text-anchor="start" x="881" y="-78.5" font-family="Helvetica,sans-Serif" font-size="10.00">FlowElements.OnPremiseAspectEngine</text>
<text text-anchor="middle" x="993.5" y="-67.5" font-family="Helvetica,sans-Serif" font-size="10.00">Base&lt; T, IFiftyOneAspectPropertyMetaData &gt;</text>
</a>
</g>
</g>
<!-- Node6&#45;&gt;Node9 -->
<g id="edge9" class="edge">
<title>Node6&#45;&gt;Node9</title>
<path fill="none" stroke="orange" stroke-dasharray="5,2" d="M661.34,-78.1C663.91,-78.07 666.47,-78.03 669,-78 747.22,-77.03 766.78,-77.2 845,-78 854.09,-78.09 863.5,-78.22 872.96,-78.36"/>
<polygon fill="orange" stroke="orange" points="661.24,-74.61 651.3,-78.27 661.36,-81.6 661.24,-74.61"/>
<text text-anchor="start" x="684.5" y="-92" font-family="Helvetica,sans-Serif" font-size="10.00"> &lt; T, IFiftyOneAspectProperty</text>
<text text-anchor="middle" x="757" y="-81" font-family="Helvetica,sans-Serif" font-size="10.00">MetaData &gt;</text>
</g>
<!-- Node8 -->
<g id="node9" class="node">
<title>Node8</title>
<g id="a_node9"><a xlink:href="class_examples_1_1_on_premise_engine_1_1_flow_elements_1_1_simple_on_premise_engine.html" target="_top" xlink:title="[class] [constructor]">
<polygon fill="none" stroke="black" points="1161,-6 1161,-36 1370,-36 1370,-6 1161,-6"/>
<text text-anchor="start" x="1169" y="-24" font-family="Helvetica,sans-Serif" font-size="10.00">Examples.OnPremiseEngine.</text>
<text text-anchor="middle" x="1265.5" y="-13" font-family="Helvetica,sans-Serif" font-size="10.00">FlowElements.SimpleOnPremiseEngine</text>
</a>
</g>
</g>
<!-- Node7&#45;&gt;Node8 -->
<g id="edge8" class="edge">
<title>Node7&#45;&gt;Node8</title>
<path fill="none" stroke="midnightblue" d="M1134.62,-21C1143.36,-21 1152.07,-21 1160.61,-21"/>
<polygon fill="midnightblue" stroke="midnightblue" points="1134.36,-17.5 1124.36,-21 1134.36,-24.5 1134.36,-17.5"/>
</g>
<!-- Node9&#45;&gt;Node5 -->
<g id="edge10" class="edge">
<title>Node9&#45;&gt;Node5</title>
<path fill="none" stroke="midnightblue" d="M1124.48,-93.03C1140.3,-94.5 1156.21,-95.97 1171.34,-97.37"/>
<polygon fill="midnightblue" stroke="midnightblue" points="1124.39,-89.51 1114.11,-92.07 1123.74,-96.48 1124.39,-89.51"/>
</g>
</g>
</svg>
