<?xml version="1.0" encoding="UTF-8" standalone="no"?>
<!DOCTYPE svg PUBLIC "-//W3C//DTD SVG 1.1//EN"
 "http://www.w3.org/Graphics/SVG/1.1/DTD/svg11.dtd">
<!-- Generated by graphviz version 2.43.0 (0)
 -->
<!-- Title: FiftyOne.Pipeline.Engines.FlowElements.IOnPremiseAspectEngine Pages: 1 -->
<svg width="1306pt" height="159pt"
 viewBox="0.00 0.00 1306.00 159.00" xmlns="http://www.w3.org/2000/svg" xmlns:xlink="http://www.w3.org/1999/xlink">
<g id="graph0" class="graph" transform="scale(1 1) rotate(0) translate(4 155)">
<title>FiftyOne.Pipeline.Engines.FlowElements.IOnPremiseAspectEngine</title>
<!-- Node0 -->
<g id="node1" class="node">
<title>Node0</title>
<g id="a_node1"><a xlink:title="Interface for an AspectEngine that processes evidence using one or more local data files.">
<polygon fill="#bfbfbf" stroke="black" points="123,-90 123,-120 334,-120 334,-90 123,-90"/>
<text text-anchor="start" x="131" y="-108" font-family="Helvetica,sans-Serif" font-size="10.00">FiftyOne.Pipeline.Engines.</text>
<text text-anchor="middle" x="228.5" y="-97" font-family="Helvetica,sans-Serif" font-size="10.00">FlowElements.IOnPremiseAspectEngine</text>
</a>
</g>
</g>
<!-- Node2 -->
<g id="node3" class="node">
<title>Node2</title>
<g id="a_node3"><a xlink:href="interface_fifty_one_1_1_pipeline_1_1_engines_1_1_fifty_one_1_1_flow_elements_1_1_i_fifty_one_aspect_engine.html" target="_top" xlink:title="51Degrees specific Engine interface.">
<polygon fill="none" stroke="black" points="597,-109.5 597,-150.5 773,-150.5 773,-109.5 597,-109.5"/>
<text text-anchor="start" x="605" y="-138.5" font-family="Helvetica,sans-Serif" font-size="10.00">FiftyOne.Pipeline.Engines.</text>
<text text-anchor="start" x="605" y="-127.5" font-family="Helvetica,sans-Serif" font-size="10.00">FiftyOne.FlowElements.IFiftyOne</text>
<text text-anchor="middle" x="685" y="-116.5" font-family="Helvetica,sans-Serif" font-size="10.00">AspectEngine</text>
</a>
</g>
</g>
<!-- Node0&#45;&gt;Node2 -->
<g id="edge2" class="edge">
<title>Node0&#45;&gt;Node2</title>
<path fill="none" stroke="midnightblue" d="M344.47,-111.32C422.85,-115.64 525.03,-121.26 596.75,-125.2"/>
<polygon fill="midnightblue" stroke="midnightblue" points="344.23,-107.81 334.06,-110.75 343.85,-114.8 344.23,-107.81"/>
</g>
<!-- Node4 -->
<g id="node5" class="node">
<title>Node4</title>
<g id="a_node5"><a xlink:href="class_fifty_one_1_1_pipeline_1_1_engines_1_1_flow_elements_1_1_on_premise_aspect_engine_base.html" target="_top" xlink:title="Base class for 51Degrees on&#45;premise aspect engines.">
<polygon fill="none" stroke="black" points="371,-60.5 371,-101.5 579,-101.5 579,-60.5 371,-60.5"/>
<text text-anchor="start" x="379" y="-89.5" font-family="Helvetica,sans-Serif" font-size="10.00">FiftyOne.Pipeline.Engines.</text>
<text text-anchor="start" x="379" y="-78.5" font-family="Helvetica,sans-Serif" font-size="10.00">FlowElements.OnPremiseAspectEngine</text>
<text text-anchor="middle" x="475" y="-67.5" font-family="Helvetica,sans-Serif" font-size="10.00">Base&lt; T, TMeta &gt;</text>
</a>
</g>
</g>
<!-- Node0&#45;&gt;Node4 -->
<g id="edge4" class="edge">
<title>Node0&#45;&gt;Node4</title>
<path fill="none" stroke="midnightblue" d="M344.47,-93.71C353.2,-92.86 361.98,-92 370.63,-91.15"/>
<polygon fill="midnightblue" stroke="midnightblue" points="343.86,-90.26 334.25,-94.72 344.55,-97.22 343.86,-90.26"/>
</g>
<!-- Node1 -->
<g id="node2" class="node">
<title>Node1</title>
<g id="a_node2"><a xlink:href="interface_fifty_one_1_1_pipeline_1_1_engines_1_1_flow_elements_1_1_i_aspect_engine.html" target="_top" xlink:title="Interface representing 51Degrees on&#45;premise aspect engines.">
<polygon fill="none" stroke="black" points="0,-95.5 0,-114.5 86,-114.5 86,-95.5 0,-95.5"/>
<text text-anchor="middle" x="43" y="-102.5" font-family="Helvetica,sans-Serif" font-size="10.00">IAspectEngine</text>
</a>
</g>
</g>
<!-- Node1&#45;&gt;Node0 -->
<g id="edge1" class="edge">
<title>Node1&#45;&gt;Node0</title>
<path fill="none" stroke="midnightblue" d="M96.15,-105C104.65,-105 113.7,-105 122.93,-105"/>
<polygon fill="midnightblue" stroke="midnightblue" points="96.1,-101.5 86.1,-105 96.1,-108.5 96.1,-101.5"/>
</g>
<!-- Node3 -->
<g id="node4" class="node">
<title>Node3</title>
<g id="a_node4"><a xlink:href="class_fifty_one_1_1_pipeline_1_1_engines_1_1_fifty_one_1_1_flow_elements_1_1_fifty_one_on_premise_aspect_engine_base.html" target="_top" xlink:title="51Degrees specific Engine base class.">
<polygon fill="none" stroke="black" points="1099.5,-85.5 1099.5,-126.5 1287.5,-126.5 1287.5,-85.5 1099.5,-85.5"/>
<text text-anchor="start" x="1107.5" y="-114.5" font-family="Helvetica,sans-Serif" font-size="10.00">FiftyOne.Pipeline.Engines.</text>
<text text-anchor="start" x="1107.5" y="-103.5" font-family="Helvetica,sans-Serif" font-size="10.00">FiftyOne.FlowElements.FiftyOne</text>
<text text-anchor="middle" x="1193.5" y="-92.5" font-family="Helvetica,sans-Serif" font-size="10.00">OnPremiseAspectEngineBase&lt; T &gt;</text>
</a>
</g>
</g>
<!-- Node2&#45;&gt;Node3 -->
<g id="edge3" class="edge">
<title>Node2&#45;&gt;Node3</title>
<path fill="none" stroke="midnightblue" d="M783.12,-125.4C874.21,-121.08 1009.48,-114.67 1099.28,-110.42"/>
<polygon fill="midnightblue" stroke="midnightblue" points="782.89,-121.9 773.07,-125.87 783.22,-128.9 782.89,-121.9"/>
</g>
<!-- Node5 -->
<g id="node6" class="node">
<title>Node5</title>
<g id="a_node6"><a xlink:href="class_fifty_one_1_1_pipeline_1_1_engines_1_1_flow_elements_1_1_on_premise_aspect_engine_base.html" target="_top" xlink:title=" ">
<polygon fill="none" stroke="black" points="791,-0.5 791,-41.5 1052,-41.5 1052,-0.5 791,-0.5"/>
<text text-anchor="start" x="799" y="-29.5" font-family="Helvetica,sans-Serif" font-size="10.00">FiftyOne.Pipeline.Engines.</text>
<text text-anchor="start" x="799" y="-18.5" font-family="Helvetica,sans-Serif" font-size="10.00">FlowElements.OnPremiseAspectEngine</text>
<text text-anchor="middle" x="921.5" y="-7.5" font-family="Helvetica,sans-Serif" font-size="10.00">Base&lt; IStarSignData, IAspectPropertyMetaData &gt;</text>
</a>
</g>
</g>
<!-- Node4&#45;&gt;Node5 -->
<g id="edge5" class="edge">
<title>Node4&#45;&gt;Node5</title>
<path fill="none" stroke="orange" stroke-dasharray="5,2" d="M564.67,-58.25C575.51,-55.91 586.48,-53.76 597,-52 660.44,-41.41 731.53,-34.11 790.88,-29.26"/>
<polygon fill="orange" stroke="orange" points="563.76,-54.87 554.76,-60.45 565.28,-61.7 563.76,-54.87"/>
<text text-anchor="start" x="623" y="-66" font-family="Helvetica,sans-Serif" font-size="10.00"> &lt; IStarSignData, IAspect</text>
<text text-anchor="middle" x="685" y="-55" font-family="Helvetica,sans-Serif" font-size="10.00">PropertyMetaData &gt;</text>
</g>
<!-- Node7 -->
<g id="node8" class="node">
<title>Node7</title>
<g id="a_node8"><a xlink:href="class_fifty_one_1_1_pipeline_1_1_engines_1_1_flow_elements_1_1_on_premise_aspect_engine_base.html" target="_top" xlink:title=" ">
<polygon fill="none" stroke="black" points="801,-60.5 801,-101.5 1042,-101.5 1042,-60.5 801,-60.5"/>
<text text-anchor="start" x="809" y="-89.5" font-family="Helvetica,sans-Serif" font-size="10.00">FiftyOne.Pipeline.Engines.</text>
<text text-anchor="start" x="809" y="-78.5" font-family="Helvetica,sans-Serif" font-size="10.00">FlowElements.OnPremiseAspectEngine</text>
<text text-anchor="middle" x="921.5" y="-67.5" font-family="Helvetica,sans-Serif" font-size="10.00">Base&lt; T, IFiftyOneAspectPropertyMetaData &gt;</text>
</a>
</g>
</g>
<!-- Node4&#45;&gt;Node7 -->
<g id="edge7" class="edge">
<title>Node4&#45;&gt;Node7</title>
<path fill="none" stroke="orange" stroke-dasharray="5,2" d="M589.34,-78.1C591.91,-78.07 594.47,-78.03 597,-78 675.22,-77.03 694.78,-77.2 773,-78 782.09,-78.09 791.5,-78.22 800.96,-78.36"/>
<polygon fill="orange" stroke="orange" points="589.24,-74.61 579.3,-78.27 589.36,-81.6 589.24,-74.61"/>
<text text-anchor="start" x="612.5" y="-92" font-family="Helvetica,sans-Serif" font-size="10.00"> &lt; T, IFiftyOneAspectProperty</text>
<text text-anchor="middle" x="685" y="-81" font-family="Helvetica,sans-Serif" font-size="10.00">MetaData &gt;</text>
</g>
<!-- Node6 -->
<g id="node7" class="node">
<title>Node6</title>
<g id="a_node7"><a xlink:href="class_examples_1_1_on_premise_engine_1_1_flow_elements_1_1_simple_on_premise_engine.html" target="_top" xlink:title="[class] [constructor]">
<polygon fill="none" stroke="black" points="1089,-6 1089,-36 1298,-36 1298,-6 1089,-6"/>
<text text-anchor="start" x="1097" y="-24" font-family="Helvetica,sans-Serif" font-size="10.00">Examples.OnPremiseEngine.</text>
<text text-anchor="middle" x="1193.5" y="-13" font-family="Helvetica,sans-Serif" font-size="10.00">FlowElements.SimpleOnPremiseEngine</text>
</a>
</g>
</g>
<!-- Node5&#45;&gt;Node6 -->
<g id="edge6" class="edge">
<title>Node5&#45;&gt;Node6</title>
<path fill="none" stroke="midnightblue" d="M1062.62,-21C1071.36,-21 1080.07,-21 1088.61,-21"/>
<polygon fill="midnightblue" stroke="midnightblue" points="1062.36,-17.5 1052.36,-21 1062.36,-24.5 1062.36,-17.5"/>
</g>
<!-- Node7&#45;&gt;Node3 -->
<g id="edge8" class="edge">
<title>Node7&#45;&gt;Node3</title>
<path fill="none" stroke="midnightblue" d="M1052.48,-93.03C1068.3,-94.5 1084.21,-95.97 1099.34,-97.37"/>
<polygon fill="midnightblue" stroke="midnightblue" points="1052.39,-89.51 1042.11,-92.07 1051.74,-96.48 1052.39,-89.51"/>
</g>
</g>
</svg>
